<svg xmlns="http://www.w3.org/2000/svg" viewBox="0 0 928.54 869.67"><defs><style>.cls-1{fill:#fff;}</style></defs><g id="Layer_2" data-name="Layer 2"><g id="_1" data-name="1"><rect class="cls-1" x="516.5" y="200.64" width="114.96" height="261.1" rx="50.64"/><rect class="cls-1" x="649.62" y="237.03" width="82.91" height="188.31" rx="39.46"/><path class="cls-1" d="M347.76,352.88V270.56a52.27,52.27,0,0,0-52.27-52.26h-17.7a52.26,52.26,0,0,0-52.26,52.26v90.32S284.8,354.79,347.76,352.88Z"/><path class="cls-1" d="M439.12,177.81h-11.9a57.69,57.69,0,0,0-57.69,57.69V353.76l47.65,3.64c14.63,2,22,9.92,22.15,23.6V483.88A57.68,57.68,0,0,0,496.8,426.2V235.5A57.68,57.68,0,0,0,439.12,177.81Z"/><path class="cls-1" d="M417.83,396.42v61.92a34.17,34.17,0,0,1-16,29c-15.7,9.84-45.64,22.29-100.92,28.44a28.72,28.72,0,0,1-23.9-8.64L249.07,478a25.19,25.19,0,0,0-13.81-7.37l-38.66-6.84a13.78,13.78,0,0,1-11.38-13.57V401.71a13.79,13.79,0,0,1,10.83-13.46c56.6-12.6,149.51-16.88,205.59-10.09A18.39,18.39,0,0,1,417.83,396.42Z"/><path class="cls-1" d="M185.22,492.09v60.85a36.9,36.9,0,0,0,2.72,14c7.14,17.42,31.92,60.17,113.58,109.17,0,0,74.62,34.37,163.13,28.08a28.8,28.8,0,0,0,26.76-28.74V598.68a31.74,31.74,0,0,0-11.68-24.58C455.68,554.45,403.59,524.24,316,544c0,0-29.31,7.56-47.66-10.24l-28.69-39.9a24.47,24.47,0,0,0-15.36-9.76l-24-4.49A12.72,12.72,0,0,0,185.22,492.09Z"/><path class="cls-1" d="M529.39,591.53v84.3A22.21,22.21,0,0,0,552.3,698C600.7,696.51,716.91,670.22,711,545.6c0,0-2.37-29.7-47.47-29.7H624.34s-48.94,0-88.37,55A35.44,35.44,0,0,0,529.39,591.53Z"/><path class="cls-1" d="M464.27,45.56c-229.54,0-415.63,174.28-415.63,389.28S234.73,824.11,464.27,824.11,879.9,649.83,879.9,434.84,693.82,45.56,464.27,45.56Zm0,720.75c-195.46,0-353.91-148.41-353.91-331.47S268.81,103.36,464.27,103.36,818.18,251.77,818.18,434.84,659.73,766.31,464.27,766.31Z"/><path class="cls-1" d="M464.27,0C207.86,0,0,194.68,0,434.84S207.86,869.67,464.27,869.67,928.54,675,928.54,434.84,720.68,0,464.27,0Zm0,853.75C217.25,853.75,17,666.2,17,434.84S217.25,15.92,464.27,15.92,911.55,203.47,911.55,434.84,711.29,853.75,464.27,853.75Z"/></g></g></svg>