<svg xmlns="http://www.w3.org/2000/svg" viewBox="0 0 794.77 955.78"><defs><style>.cls-1{fill:#fff;}</style></defs><g id="Layer_2" data-name="Layer 2"><g id="_1" data-name="1"><polygon class="cls-1" points="667.78 68.04 794.77 99.69 784.88 248.44 667.78 257.14 667.78 68.04"/><polygon class="cls-1" points="485.01 26.9 636.4 56.97 636.4 281.5 485.01 288 485.01 26.9"/><path class="cls-1" d="M456.32,0V311.74l-62.3,1V229s-56.57-3.93-146.42,2V0Z"/><path class="cls-1" d="M360.79,398.77V258.14C305.41,247.86,0,288,0,288V618.73L213.63,769.05H572.39C758.72,769.05,758,530.11,758,530.11V281.51L667.78,289v24.74L485,322.81v21l-91,2.75v24.53H642.46v27.48h-248l-.4,25.55-97.87,17.38,198,125.41-17.8,22.55-222.94-141L171.3,461.27l-4.75-29.67Z"/><polygon class="cls-1" points="30.07 254.14 218.96 233.59 218.96 27.9 30.07 49.45 30.07 254.14"/><rect class="cls-1" x="140.44" y="790.02" width="549.49" height="52.22"/><rect class="cls-1" x="140.44" y="863.21" width="549.49" height="92.57"/></g></g></svg>