<svg xmlns="http://www.w3.org/2000/svg" viewBox="0 0 954.16 905.88"><defs><style>.cls-1{fill:#fff;}</style></defs><g id="Layer_2" data-name="Layer 2"><g id="_1" data-name="1"><path class="cls-1" d="M477.14,48.1S388.58,44.61,289.93,119a50.9,50.9,0,0,0-14.26,16.68c-10.07,18.88-29.2,60.08-25.32,96.87a41.76,41.76,0,0,0,16.26,28.62c10.19,7.81,27.56,18.82,55.6,30.63,0,0,48.9,21.84,73.84,40.89a7.13,7.13,0,0,0,8.95-.24c11.34-9.64,44.45-33.95,59.67-33.95v45.1s-18,13.45-22.36,41c0,0-15.23.52-21,15.24a26,26,0,0,0-1.18,3.92c-3.95,18.19.38,39-23.36,39-24.53-12.06-38.78-32.32-61.88-58.91,0,0,12.83,43.29-21.2,46.85,0,0-11.86,0-20.57-14.25,0,0-51.43-83.07-121.84-121.84V232.82s18.92-80.26,46.51-121.22a80.11,80.11,0,0,1,22.44-22.12C269.6,70.16,382.62,0,477.14,0Z"/><path class="cls-1" d="M420,140.25a6.62,6.62,0,0,0-4.23,1.55c-4,3.35-16.58,10.94-47.47,10.32,0,0-39.56,0-56.58,42.36-3.66,9.13-3.51,19.35,2.54,27.11a74.47,74.47,0,0,0,10.51,11.17,5.3,5.3,0,0,0,8.6-2.8c3.84-16.37,16.53-53.09,52.33-48.15,0,0,42,1,32.54,58.81a5.17,5.17,0,0,0,4.08,5.87h0a5.17,5.17,0,0,0,6.08-3.93A276.6,276.6,0,0,0,435,182.4s-.86-23.37-9.22-38.74a6.53,6.53,0,0,0-5.75-3.41Z"/><path class="cls-1" d="M165,316.69l-15.7,18.21a16.87,16.87,0,0,0-4.08,11V379.2S146,395,160.22,399c0,0,40.75,1.18,77.54,37.18,0,0,7.91,8.71,17.78,4.53,0,0,13.87-5.32,5.16-21.93C260.7,418.76,229.85,349.13,165,316.69Z"/><path class="cls-1" d="M340.62,554.05c-6-17.93-15.6-23-22.6-24.15a24.3,24.3,0,0,1-15.73-9.35c-47.7-64-106.47-89.92-106.47-89.92-35.6-14.25-41.93,7.91-41.93,7.91-10.68,68,25.92,110.4,37.58,126.59,8.13,11.29,25.72,15.3,35.68,28.43,21.44,37.69,62.72,39.28,79.47,38.23,0,0,16.06.2,29.25-14C353.92,598.41,340.62,554.05,340.62,554.05ZM290.71,610c-39,0-55.7-23.39-62.21-37.51a3.74,3.74,0,0,1,5.27-4.78c29.6,16.76,54.85,11.57,63.91,8.76a10.43,10.43,0,0,1,8.19.76C323.93,587.24,313,610.42,290.71,610Z"/><path class="cls-1" d="M477.14,441.83s-23.38-4.61-38.41,23.34L426.07,490H403.12l-27.69,38.95s18.2,62.32-24.53,95.55-41.61,39.78-41.61,39.78S377,668,407.08,744.74c0,0,.79,5.53,15,0,0,0,4.75-.79,4,6.33,0,0-.91,36.55,1.58,44.3,3.56,11.08,4.35,18.54,49.49,17.41V743.92H455.55s-12.66,1.19-15-13c0,0-8.52-45.47-42.15-62.88,0,0-8.3-3.17-5.16-10.29,3.7-8.36,14.67-27.45,14.67-27.45s10.51-17.21,23.57-28.54a30.59,30.59,0,0,0,8.36-12.28c3.34-8.77,12.52-22.26,37.33-22.26Z"/><circle class="cls-1" cx="477.14" cy="607.33" r="14.55"/><circle class="cls-1" cx="477.14" cy="713.88" r="13.28"/><circle class="cls-1" cx="441.38" cy="655.86" r="13.28"/><path class="cls-1" d="M439.25,836.25h37.89a0,0,0,0,1,0,0v69.63a0,0,0,0,1,0,0H430a29.27,29.27,0,0,1-29.27-29.27v-1.85a38.51,38.51,0,0,1,38.51-38.51Z"/><path class="cls-1" d="M392.89,780.55c-3.76-57.39-44-101.48-89.93-98.48s-80.09,52-76.34,109.35,44,101.49,89.93,98.48S396.64,837.94,392.89,780.55Zm-86.35,75.79a2.21,2.21,0,0,1-2.29-3.5c4.47-5.57,10.36-15,8.79-24.49a3.65,3.65,0,0,0-5.88-2.24c-6.71,5.33-21,13.4-34.74-.23-10.22-10.16-13.56-31.64-13.56-31.64s-3.18-21.81,3.69-34.47c9.22-17,25.25-13.38,33.21-10.2a3.65,3.65,0,0,0,5-3.83c-1.22-9.56-9.57-16.89-15.45-20.94a2.21,2.21,0,0,1,1.19-4C342.2,717.57,348.11,781,348.11,781S360.83,843.43,306.54,856.34Z"/><ellipse class="cls-1" cx="297.49" cy="789.42" rx="21.36" ry="25.71" transform="translate(-118.51 55.51) rotate(-8.9)"/><path class="cls-1" d="M28.35,676.43s30.79,3.35,29.54,50.73c-1,40,11.6,53.13,11.6,53.13s-33.23,5.33-34.28,46.47c0,0-39.56-31.65-34.81-118.16C.4,708.6,1.45,677,28.35,676.43Z"/><path class="cls-1" d="M86.37,797.69s46.42,38.56,89.67,11.66L200.31,861s-81.23,44.84-148.22-20.57C52.09,840.47,52.09,799.8,86.37,797.69Z"/><path class="cls-1" d="M88.59,367.07a214.5,214.5,0,0,1,14.73-33.19A307.89,307.89,0,0,0,75.8,301.15,233.2,233.2,0,0,0,51.45,342C64.57,348.77,78.07,358.53,88.59,367.07Z"/><path class="cls-1" d="M76.49,513.21c-1.21-10.05-2-19.69-2.51-29a307.65,307.65,0,0,0-47.9.85,231.22,231.22,0,0,0,2.8,26.22q1.11,11.45,3.17,22.46c16-5.56,34.46-8.91,46.48-10.41C77,516.84,76.49,513.21,76.49,513.21Z"/><path class="cls-1" d="M102.9,679.17a458.33,458.33,0,0,0,33.78,37c12.47-20.37,26-29.91,37.72-36.78a428.65,428.65,0,0,1-30.17-32.84C125,654.79,112.45,667.91,102.9,679.17Z"/><path class="cls-1" d="M83.78,541.43A280.88,280.88,0,0,0,36.16,552.3a294.35,294.35,0,0,0,18.68,51.43c14.07-11.53,32.64-20.19,45.21-23.89A288.22,288.22,0,0,1,83.78,541.43Z"/><path class="cls-1" d="M77.1,414c1.42-9.23,3.18-17.84,5.2-25.85a296.63,296.63,0,0,0-38.71-27.41,276.19,276.19,0,0,0-11.22,38.78A270.85,270.85,0,0,1,77.1,414Z"/><path class="cls-1" d="M73.44,464.08c0-10.32.43-20.1,1.21-29.36a315.14,315.14,0,0,0-45.85-15,327.92,327.92,0,0,0-3.26,44.9A269.66,269.66,0,0,1,73.44,464.08Z"/><path class="cls-1" d="M218.65,717.88c-11.21-8.64-21.52-17.33-31-26-18.41,10.2-29.43,24.36-37.38,37.15C182,758,207.38,773.64,207.38,773.64,204.38,747.11,218.65,717.88,218.65,717.88Z"/><path class="cls-1" d="M115,315.57c7.63-10.42,13.24-15.28,13.24-15.28l.37-50.06a231.89,231.89,0,0,0-39.73,35A258.33,258.33,0,0,1,115,315.57Z"/><path class="cls-1" d="M132.94,632.27A368.64,368.64,0,0,1,109,596.32c-16.25,5.28-33.39,15.23-45.54,24.5a369.37,369.37,0,0,0,28.09,43.79C106.33,646.13,120.52,637.59,132.94,632.27Z"/><path class="cls-1" d="M477,48.1S565.58,44.61,664.23,119a50.78,50.78,0,0,1,14.26,16.68c10.07,18.88,29.21,60.08,25.32,96.87a41.76,41.76,0,0,1-16.26,28.62C677.36,269,660,280,632,291.79c0,0-48.9,21.84-73.84,40.89a7.13,7.13,0,0,1-9-.24c-11.34-9.64-44.44-33.95-59.67-33.95v45.1s18,13.45,22.36,41c0,0,15.23.52,21,15.24a24.94,24.94,0,0,1,1.18,3.92c4,18.19-.38,39,23.36,39,24.53-12.06,38.78-32.32,61.88-58.91,0,0-12.82,43.29,21.2,46.85,0,0,11.87,0,20.57-14.25,0,0,51.43-83.07,121.84-121.84V232.82S764,152.56,736.36,111.6a80.28,80.28,0,0,0-22.45-22.12C684.57,70.16,571.54,0,477,0Z"/><path class="cls-1" d="M534.15,140.25a6.62,6.62,0,0,1,4.23,1.55c4,3.35,16.58,10.94,47.47,10.32,0,0,39.56,0,56.58,42.36,3.66,9.13,3.51,19.35-2.54,27.11a74.47,74.47,0,0,1-10.51,11.17,5.3,5.3,0,0,1-8.6-2.8c-3.84-16.37-16.53-53.09-52.33-48.15,0,0-42,1-32.54,58.81a5.17,5.17,0,0,1-4.08,5.87h0a5.17,5.17,0,0,1-6.08-3.93,276.6,276.6,0,0,1-6.57-60.16s.87-23.37,9.22-38.74a6.53,6.53,0,0,1,5.75-3.41Z"/><path class="cls-1" d="M789.19,316.69l15.7,18.21a16.81,16.81,0,0,1,4.08,11V379.2s-.79,15.82-15,19.78c0,0-40.75,1.18-77.54,37.18,0,0-7.91,8.71-17.78,4.53,0,0-13.87-5.32-5.16-21.93C693.46,418.76,724.32,349.13,789.19,316.69Z"/><path class="cls-1" d="M613.55,554.05c6-17.93,15.59-23,22.59-24.15a24.27,24.27,0,0,0,15.73-9.35c47.7-64,106.47-89.92,106.47-89.92,35.6-14.25,41.93,7.91,41.93,7.91,10.68,68-25.92,110.4-37.58,126.59-8.13,11.29-25.72,15.3-35.67,28.43-21.45,37.69-62.73,39.28-79.48,38.23,0,0-16.06.2-29.25-14C600.25,598.41,613.55,554.05,613.55,554.05ZM663.45,610c39,0,55.7-23.39,62.21-37.51a3.74,3.74,0,0,0-5.27-4.78c-29.59,16.76-54.85,11.57-63.91,8.76a10.44,10.44,0,0,0-8.19.76C630.23,587.24,641.14,610.42,663.45,610Z"/><path class="cls-1" d="M477,441.83s23.38-4.61,38.42,23.34L528.1,490H551l27.69,38.95s-18.19,62.32,24.53,95.55,41.61,39.78,41.61,39.78-67.72,3.74-97.79,80.49c0,0-.79,5.53-15,0,0,0-4.75-.79-3.95,6.33,0,0,.91,36.55-1.59,44.3-3.56,11.08-4.35,18.54-49.49,17.41V743.92h21.59s12.66,1.19,15-13c0,0,8.51-45.47,42.14-62.88,0,0,8.31-3.17,5.16-10.29-3.7-8.36-14.67-27.45-14.67-27.45S535.77,613,522.71,601.71a30.57,30.57,0,0,1-8.35-12.28c-3.35-8.77-12.53-22.26-37.34-22.26Z"/><circle class="cls-1" cx="512.78" cy="655.86" r="13.28"/><path class="cls-1" d="M506.3,836.25h47.12a0,0,0,0,1,0,0v69.63a0,0,0,0,1,0,0H515.53A38.51,38.51,0,0,1,477,867.37v-1.85a29.27,29.27,0,0,1,29.27-29.27Z" transform="translate(1030.44 1742.13) rotate(180)"/><path class="cls-1" d="M561.28,780.55c3.75-57.39,44-101.48,89.92-98.48s80.1,52,76.34,109.35-44,101.49-89.92,98.48S557.52,837.94,561.28,780.55Zm86.34,75.79a2.21,2.21,0,0,0,2.29-3.5c-4.47-5.57-10.36-15-8.79-24.49a3.65,3.65,0,0,1,5.88-2.24c6.72,5.33,21,13.4,34.74-.23,10.22-10.16,13.56-31.64,13.56-31.64s3.18-21.81-3.69-34.47c-9.22-17-25.25-13.38-33.21-10.2a3.65,3.65,0,0,1-5-3.83c1.22-9.56,9.57-16.89,15.45-20.94a2.21,2.21,0,0,0-1.19-4C612,717.57,606.06,781,606.06,781S593.33,843.43,647.62,856.34Z"/><ellipse class="cls-1" cx="656.67" cy="789.42" rx="25.71" ry="21.36" transform="translate(-224.81 1316.09) rotate(-81.1)"/><path class="cls-1" d="M925.81,676.43s-30.79,3.35-29.54,50.73c1.06,40-11.6,53.13-11.6,53.13s33.23,5.33,34.28,46.47c0,0,39.56-31.65,34.82-118.16C953.77,708.6,952.71,677,925.81,676.43Z"/><path class="cls-1" d="M867.79,797.69s-46.42,38.56-89.67,11.66L753.85,861s81.23,44.84,148.22-20.57C902.07,840.47,902.07,799.8,867.79,797.69Z"/><path class="cls-1" d="M865.57,367.07a214.5,214.5,0,0,0-14.73-33.19,310.28,310.28,0,0,1,27.52-32.73A233.88,233.88,0,0,1,902.72,342C889.6,348.77,876.09,358.53,865.57,367.07Z"/><path class="cls-1" d="M877.67,513.21c1.21-10.05,2-19.69,2.51-29a307.63,307.63,0,0,1,47.9.85,231.22,231.22,0,0,1-2.8,26.22q-1.11,11.45-3.17,22.46c-16-5.56-34.46-8.91-46.48-10.41C877.2,516.84,877.67,513.21,877.67,513.21Z"/><path class="cls-1" d="M851.26,679.17a458.33,458.33,0,0,1-33.78,37c-12.46-20.37-26.05-29.91-37.72-36.78a426.62,426.62,0,0,0,30.17-32.84C829.2,654.79,841.71,667.91,851.26,679.17Z"/><path class="cls-1" d="M870.38,541.43A280.88,280.88,0,0,1,918,552.3a294.35,294.35,0,0,1-18.68,51.43c-14.07-11.53-32.64-20.19-45.21-23.89A286.9,286.9,0,0,0,870.38,541.43Z"/><path class="cls-1" d="M877.06,414c-1.42-9.23-3.18-17.84-5.2-25.85a296.63,296.63,0,0,1,38.71-27.41,274.85,274.85,0,0,1,11.22,38.78A271.16,271.16,0,0,0,877.06,414Z"/><path class="cls-1" d="M880.72,464.08c0-10.32-.43-20.1-1.21-29.36a315.28,315.28,0,0,1,45.86-15,327.79,327.79,0,0,1,3.25,44.9A269.65,269.65,0,0,0,880.72,464.08Z"/><path class="cls-1" d="M735.51,717.88c11.21-8.64,21.52-17.33,31-26C785,702.1,796,716.26,803.93,729.05c-31.72,28.94-57.15,44.59-57.15,44.59C749.78,747.11,735.51,717.88,735.51,717.88Z"/><path class="cls-1" d="M839.2,315.57C831.57,305.15,826,300.29,826,300.29l-.37-50.06a231.89,231.89,0,0,1,39.73,35A258.33,258.33,0,0,0,839.2,315.57Z"/><path class="cls-1" d="M821.22,632.27a365,365,0,0,0,23.91-35.95c16.25,5.28,33.39,15.23,45.54,24.5a368.06,368.06,0,0,1-28.08,43.79C847.84,646.13,833.64,637.59,821.22,632.27Z"/></g></g></svg>