<svg xmlns="http://www.w3.org/2000/svg" viewBox="0 0 926.61 928.3"><defs><style>.cls-1{fill:#fff;}</style></defs><g id="Layer_2" data-name="Layer 2"><g id="_1" data-name="1"><path class="cls-1" d="M463.3,0,263.92,302.24l35.23,31.65H17.06L138.91,498.46,0,705.76H400.1L343,630.8,463.3,444.66V314.9L253.24,629.8H161.06L463.3,169.32ZM182.76,430.84l-63.71-76h112.6Z"/><polygon class="cls-1" points="463.3 582.33 463.3 750.07 402.1 669.53 463.3 582.33"/><polygon class="cls-1" points="463.3 791.79 427.91 747.07 326.38 747.07 463.3 928.3 463.3 791.79"/><polygon class="cls-1" points="463.3 582.33 463.3 750.07 524.51 669.53 463.3 582.33"/><polygon class="cls-1" points="463.3 791.79 498.7 747.07 600.23 747.07 463.3 928.3 463.3 791.79"/><path class="cls-1" d="M463.3,0,662.69,302.24l-35.23,31.65H909.54L787.7,498.46l138.91,207.3H526.51l57.06-75L463.3,444.66V314.9L673.37,629.8h92.17L463.3,169.32ZM743.84,430.84l63.72-76H695Z"/></g></g></svg>