<svg xmlns="http://www.w3.org/2000/svg" viewBox="0 0 894.77 966.42"><defs><style>.cls-1{fill:#fff;}</style></defs><g id="Layer_2" data-name="Layer 2"><g id="_1" data-name="1"><polygon class="cls-1" points="447.38 474.25 380.6 407.46 447.38 340.68 447.38 474.25"/><polygon class="cls-1" points="447.38 624.61 380.6 557.82 447.38 491.04 447.38 624.61"/><rect class="cls-1" x="326.05" y="435.45" width="94.45" height="94.45" transform="translate(-231.97 405.31) rotate(-45)"/><path class="cls-1" d="M5.52,251C.75,268-.07,308.46,0,337.12a119.88,119.88,0,0,0,25.18,73.49c4.14,5.31,8.31,10.19,12.24,14.53A87,87,0,0,0,89,452.76c8.22,1.25,15.9,2,22,2.5A43.11,43.11,0,0,0,138.79,448c24.44-16.81,38.8-46.6,38.8-46.6,7.59-93.2-68.37-82.31-68.37-82.31,9.63-40.89-2.4-73.36-2.4-73.36-24,53.32-43.51,48.11-43.51,48.11C108.79,19.61,393.06,50.88,393.06,50.88V88.16c-287.44,7.21-249,196-249,196C225.88,123,391.85,135.06,391.85,135.06v38.49C189.8,173.55,173,324.1,173,324.1,276.4,181.2,408.69,214.82,408.69,214.82c20.45-1.2,31.36-29.24,31.36-29.24V23.21C193.41-68.89,29.85,135.06,5.52,251ZM69.28,354c13.23,2.41,13.23,14.43,13.23,14.43-7.22,39.08,19.24,47.51,19.24,47.51C139,427.31,144.67,395,146,386a3.4,3.4,0,0,1,3.38-2.91c2.15,0,3.35,1.93,3.35,4.09.07,68.25-61.76,49.8-61.76,49.8C32,422.5,46.43,368.38,46.43,368.38,50,346.73,69.28,354,69.28,354Z"/><path class="cls-1" d="M183.08,419.3c-10.77,11.77-24.09,27.17-32.52,40a6.3,6.3,0,0,0,4.85,9.76c26.15,1.67,96.38,3.11,129.9-26A12.47,12.47,0,0,0,289,430h0a12.49,12.49,0,0,0-13-8.82c-15.32,1.3-44.65,2.2-62.5-7.35A25.24,25.24,0,0,0,183.08,419.3Z"/><path class="cls-1" d="M319.18,403.73c-8-25.74-4.05-91.63,78.85-114.13,5.34-1.45,10.79,1.91,11,7.44.85,19.1-6.23,62.34-73.49,112A10.59,10.59,0,0,1,319.18,403.73Z"/><path class="cls-1" d="M406.12,253.8C363.54,240.53,260,239.23,205.82,358.59a23.16,23.16,0,0,0,.6,20.53c7.24,13.44,25.65,32.38,70.5,22.33a24.92,24.92,0,0,0,19.24-21.7c3.06-28.08,20.63-85.75,110.17-118A4.19,4.19,0,0,0,406.12,253.8Z"/><path class="cls-1" d="M440.05,943.21V780.85s-10.91-28-31.36-29.24c0,0-132.29,33.62-235.72-109.29,0,0,16.83,150.56,218.88,150.56v38.48s-166,12-247.75-149.13c0,0-38.48,188.82,249,196v37.28S108.79,946.82,63.31,672.61c0,0,19.46-5.21,43.51,48.1,0,0,12-32.47,2.4-73.36,0,0,76,10.89,68.37-82.31,0,0-14.36-29.78-38.8-46.59A43,43,0,0,0,111,511.17c-6.13.47-13.81,1.24-22,2.49a87.09,87.09,0,0,0-51.55,27.63c-3.93,4.33-8.1,9.22-12.24,14.52A119.89,119.89,0,0,0,0,629.31c-.07,28.66.75,69.14,5.52,86.15C29.85,831.36,193.41,1035.32,440.05,943.21ZM46.43,598S32,543.92,90.93,529.49c0,0,61.83-18.46,61.76,49.8,0,2.15-1.2,4.08-3.35,4.08a3.4,3.4,0,0,1-3.38-2.9c-1.29-9-6.92-41.36-44.21-29.93,0,0-26.46,8.42-19.24,47.5,0,0,0,12-13.23,14.43C69.28,612.47,50,619.69,46.43,598Z"/><path class="cls-1" d="M183.08,547.12c-10.77-11.77-24.09-27.17-32.52-40a6.3,6.3,0,0,1,4.85-9.76c26.15-1.67,96.38-3.11,129.9,26a12.48,12.48,0,0,1,3.72,13h0a12.49,12.49,0,0,1-13,8.82c-15.32-1.29-44.65-2.2-62.5,7.36A25.26,25.26,0,0,1,183.08,547.12Z"/><path class="cls-1" d="M319.18,562.69c-8,25.74-4.05,91.63,78.85,114.14,5.34,1.45,10.79-1.92,11-7.44.85-19.11-6.23-62.34-73.49-112A10.58,10.58,0,0,0,319.18,562.69Z"/><path class="cls-1" d="M406.12,712.62C363.54,725.9,260,727.19,205.82,607.83a23.14,23.14,0,0,1,.6-20.52c7.24-13.45,25.65-32.38,70.5-22.33a24.92,24.92,0,0,1,19.24,21.7c3.06,28.08,20.63,85.74,110.17,118A4.18,4.18,0,0,1,406.12,712.62Z"/><polygon class="cls-1" points="447.38 474.25 514.17 407.46 447.38 340.68 447.38 474.25"/><polygon class="cls-1" points="447.38 624.61 514.17 557.82 447.38 491.04 447.38 624.61"/><rect class="cls-1" x="474.27" y="435.45" width="94.45" height="94.45" transform="translate(-188.56 510.12) rotate(-45)"/><path class="cls-1" d="M454.71,23.21V185.58s10.92,28,31.36,29.24c0,0,132.3-33.62,235.73,109.28,0,0-16.84-150.55-218.89-150.55V135.06s166-12,247.75,149.14c0,0,38.49-188.83-248.95-196V50.88S786,19.61,831.46,293.82c0,0-19.46,5.21-43.51-48.11,0,0-12,32.47-2.41,73.36,0,0-76-10.89-68.36,82.31,0,0,14.36,29.79,38.79,46.6a43.14,43.14,0,0,0,27.79,7.28c6.13-.48,13.81-1.25,22-2.5a87,87,0,0,0,51.55-27.62c3.92-4.34,8.1-9.22,12.24-14.53a119.87,119.87,0,0,0,25.17-73.49c.08-28.66-.74-69.15-5.51-86.15C864.92,135.06,701.35-68.89,454.71,23.21ZM848.34,368.38s14.43,54.12-44.5,68.56c0,0-61.83,18.45-61.76-49.8,0-2.16,1.19-4.09,3.35-4.09a3.4,3.4,0,0,1,3.38,2.91c1.28,9,6.92,41.35,44.2,29.93,0,0,26.46-8.43,19.25-47.51,0,0,0-12,13.23-14.43C825.49,354,844.73,346.73,848.34,368.38Z"/><path class="cls-1" d="M711.68,419.3c10.78,11.77,24.09,27.17,32.53,40a6.3,6.3,0,0,1-4.85,9.76c-26.16,1.67-96.39,3.11-129.9-26A12.46,12.46,0,0,1,605.73,430h0a12.51,12.51,0,0,1,13-8.82c15.31,1.3,44.65,2.2,62.49-7.35A25.24,25.24,0,0,1,711.68,419.3Z"/><path class="cls-1" d="M575.58,403.73c8-25.74,4.06-91.63-78.85-114.13-5.34-1.45-10.78,1.91-11,7.44-.86,19.1,6.23,62.34,73.49,112A10.58,10.58,0,0,0,575.58,403.73Z"/><path class="cls-1" d="M488.64,253.8c42.58-13.27,146.12-14.57,200.3,104.79a23.16,23.16,0,0,1-.59,20.53c-7.24,13.44-25.65,32.38-70.5,22.33a24.93,24.93,0,0,1-19.25-21.7c-3.05-28.08-20.63-85.75-110.16-118A4.19,4.19,0,0,1,488.64,253.8Z"/><path class="cls-1" d="M889.25,715.46c4.77-17,5.59-57.49,5.51-86.15a119.88,119.88,0,0,0-25.17-73.5c-4.14-5.3-8.32-10.19-12.24-14.52a87.09,87.09,0,0,0-51.55-27.63c-8.23-1.25-15.91-2-22-2.49A43.08,43.08,0,0,0,756,518.45C731.54,535.26,717.18,565,717.18,565c-7.6,93.2,68.36,82.31,68.36,82.31-9.62,40.89,2.41,73.36,2.41,73.36,24-53.31,43.51-48.1,43.51-48.1C786,946.82,501.71,915.55,501.71,915.55V878.27c287.44-7.22,249-196,249-196C668.88,843.39,502.91,831.36,502.91,831.36V792.88C705,792.88,721.8,642.32,721.8,642.32,618.37,785.23,486.07,751.61,486.07,751.61c-20.44,1.2-31.36,29.24-31.36,29.24V943.21C701.35,1035.32,864.92,831.36,889.25,715.46Zm-63.76-103c-13.23-2.4-13.23-14.43-13.23-14.43C819.47,559,793,550.54,793,550.54c-37.28-11.43-42.92,20.94-44.2,29.93a3.4,3.4,0,0,1-3.38,2.9c-2.16,0-3.35-1.93-3.35-4.08-.07-68.26,61.76-49.8,61.76-49.8,58.93,14.43,44.5,68.55,44.5,68.55C844.73,619.69,825.49,612.47,825.49,612.47Z"/><path class="cls-1" d="M711.68,547.12c10.78-11.77,24.09-27.17,32.53-40a6.3,6.3,0,0,0-4.85-9.76c-26.16-1.67-96.39-3.11-129.9,26a12.46,12.46,0,0,0-3.73,13h0a12.51,12.51,0,0,0,13,8.82c15.31-1.29,44.65-2.2,62.49,7.36A25.25,25.25,0,0,0,711.68,547.12Z"/><path class="cls-1" d="M575.58,562.69c8,25.74,4.06,91.63-78.85,114.14-5.34,1.45-10.78-1.92-11-7.44-.86-19.11,6.23-62.34,73.49-112A10.57,10.57,0,0,1,575.58,562.69Z"/><path class="cls-1" d="M488.64,712.62c42.58,13.28,146.12,14.57,200.3-104.79a23.14,23.14,0,0,0-.59-20.52c-7.24-13.45-25.65-32.38-70.5-22.33a24.93,24.93,0,0,0-19.25,21.7c-3.05,28.08-20.63,85.74-110.16,118A4.18,4.18,0,0,0,488.64,712.62Z"/></g></g></svg>