<svg xmlns="http://www.w3.org/2000/svg" viewBox="0 0 716.84 955.78"><defs><style>.cls-1{fill:#fff;}</style></defs><g id="Layer_2" data-name="Layer 2"><g id="_1" data-name="1"><rect class="cls-1" width="177.23" height="186.73"/><polygon class="cls-1" points="201.55 0 201.55 186.72 300.66 186.72 300.66 278.5 368.23 278.5 368.23 0 201.55 0"/><polygon class="cls-1" points="276.92 212.04 0 212.04 0 670.95 375.03 670.95 375.03 522.2 221.54 381.36 151.86 428.83 133.4 408.26 200.55 362.37 117.43 362.37 117.43 338.64 277.3 338.64 276.92 212.04"/><polygon class="cls-1" points="400.35 670.95 400.35 525.36 485.8 441.5 716.84 441.5 716.84 670.95 400.35 670.95"/><polygon class="cls-1" points="716.84 696.26 716.84 955.78 0 955.78 0 696.26 41.14 696.26 132.4 838.68 577.58 838.68 670.95 696.26 716.84 696.26"/><polygon class="cls-1" points="635.47 696.26 558.59 810.2 356.42 810.2 356.42 696.26 635.47 696.26"/><polygon class="cls-1" points="77.36 696.26 154.24 810.2 356.42 810.2 356.42 696.26 77.36 696.26"/><rect class="cls-1" x="393.21" width="151.36" height="278.51"/><rect class="cls-1" x="567.03" width="149.8" height="231.03"/><polygon class="cls-1" points="567.03 257.14 716.84 257.14 716.84 419.74 478.29 419.74 388.38 503.64 235.01 362.77 299.89 362.77 299.89 304.62 567.03 304.62 567.03 257.14"/></g></g></svg>