<svg xmlns="http://www.w3.org/2000/svg" viewBox="0 0 923.34 923.34"><defs><style>.cls-1{fill:#fff;}</style></defs><g id="Layer_2" data-name="Layer 2"><g id="_1" data-name="1"><path class="cls-1" d="M594,418.1l223.93-38L594.08,338.4A137.65,137.65,0,0,0,573,296.23l68.86-100.39-99.1,70.35a137.77,137.77,0,0,0-43.45-21.1L463.61,34.54,424.4,245a137.61,137.61,0,0,0-43.84,21.21l-99.1-70.35,68.86,100.39a137.65,137.65,0,0,0-21.06,42.17L105.42,380.11l223.93,38a137.78,137.78,0,0,0,20.42,41.11l-70.35,99.1,100.39-68.86a137.45,137.45,0,0,0,44.59,21.77l39.21,210.43,35.72-210.54a137.57,137.57,0,0,0,44.2-21.66l100.39,68.86-70.34-99.1A138,138,0,0,0,594,418.1ZM461.3,492.33c-57.43,0-104.83-44.15-111.85-101.23,17.53,45.88,61,78.37,111.85,78.37S555.63,437,573.16,391.1C566.14,448.18,518.74,492.33,461.3,492.33Z"/><path class="cls-1" d="M461.3,20.37c-202,0-365.72,163.74-365.72,365.73S259.32,751.82,461.3,751.82,827,588.08,827,386.1,663.29,20.37,461.3,20.37Zm0,722.34c-196.95,0-356.61-159.66-356.61-356.61S264.35,29.49,461.3,29.49,817.92,189.15,817.92,386.1,658.26,742.71,461.3,742.71Z"/><path class="cls-1" d="M461.67,0C206.7,0,0,206.7,0,461.67S206.7,923.34,461.67,923.34s461.67-206.7,461.67-461.67S716.64,0,461.67,0Zm0,7.57c213.68,0,386.9,173.22,386.9,386.9s-173.22,386.9-386.9,386.9S74.77,608.15,74.77,394.47,248,7.57,461.67,7.57ZM461.3,890C258.37,890,105.36,742.71,74.77,640.29,122.15,751.82,281.62,858.14,461.3,858.14c180,0,339.8-106.32,387.27-217.85C817.92,742.71,664.62,890,461.3,890Z"/></g></g></svg>