<svg xmlns="http://www.w3.org/2000/svg" viewBox="0 0 818.64 902.19"><defs><style>.cls-1{fill:#fff;}</style></defs><g id="Layer_2" data-name="Layer 2"><g id="_1" data-name="1"><path class="cls-1" d="M409.32,861.36s-42.25,0-54.09-14.77c0,0-5.41,12.06-14.33,20.18a13,13,0,0,0-3.79,13.33h0a12.85,12.85,0,0,0,7.57,8.33c9,3.58,29.07,9.33,64.64,9.33Z"/><path class="cls-1" d="M409.32,861.36s42.25,0,54.09-14.77c0,0,5.4,12.06,14.33,20.18a13,13,0,0,1,3.79,13.33h0a12.85,12.85,0,0,1-7.57,8.33c-9,3.58-29.07,9.33-64.64,9.33Z"/><path class="cls-1" d="M338.9,73.06a11.66,11.66,0,0,0-1.56,10.32c2.84,8.69,9.15,23.83,10.55,34.47a7.5,7.5,0,0,1-2.71,6.88c-10.27,8.23-42,36.63-27.45,63a5.72,5.72,0,0,0,8.74,1.51c5.08-4.37,13.33-10.68,20.08-12,10.55-2.11,11.6,8.44,11.6,8.44s15.88,91.62-4.69,150.17c0,0,20.78-4.59,55.86-4.59v-45.2c-5.65-.39-8.73-1-12-2.84a10.21,10.21,0,0,1-5.33-9c.21-33.29-.89-73.63-5.32-98.69a29,29,0,0,0-12.13-16.77c-12.91-8.38-25.38-2.05-34.27,2.65a2,2,0,0,1-2.64-2.83c9.18-14.81,29.61-29.49,37.81-34.47a6.87,6.87,0,0,0,3.25-6.77,202.08,202.08,0,0,0-9.39-38.42,8.69,8.69,0,0,1,1.53-8.48c17.37-20.81,38.47-35.16,38.47-35.16V0S375.07,21.35,338.9,73.06Z"/><path class="cls-1" d="M305.35,368.26c.32,7.3,1.58,17.38,1.58,17.38s-3.67,3.13-6.27,3.63c0,0-9.53-4.4-17.3-8.69a12.33,12.33,0,0,0-11.07-.65l-21.74,9.83s-15.5,7.57-11.61-18.95a654.07,654.07,0,0,1,21.63-96s25.14-56.46,80.51-68.68a6.94,6.94,0,0,1,8.43,6c2.5,23.74,9.17,65.31-9.87,128C339.64,340.16,304.64,354.65,305.35,368.26Z"/><circle class="cls-1" cx="409.32" cy="133.45" r="16.48"/><path class="cls-1" d="M342.87,387.94c18.66-11.74,66.45-11.74,66.45-11.74V344.49c-81,0-88.51,24.05-88.51,24.05-.18,16,.31,32.81.31,32.81-5.44,5.26-15.71,9-15.71,9-8.93-6.07-18.6-11.77-24.06-14.9a10.06,10.06,0,0,0-8.08-.82c-12.43,4-25.12,11.14-36.57,17.75a5.23,5.23,0,0,0-.54,8.67c6.84,5.35,18.85,15.28,14.39,34.14C243,480,223,492.72,222.08,530.75a4.47,4.47,0,0,0,4.86,4.57c10.25-1,34.72-1.68,54.2,10.09,0,0,42.73,32.17,128.18,32.17V395.19c-30.68,0-44.85,3.05-51.17,5.33a4.58,4.58,0,0,0-2.61,6.47c10.53,18-1.34,25.14-1.34,25.14-8.9,5.54-15.17,6.26-18.89,7.6a20.8,20.8,0,0,0-7.91,5.14,46.43,46.43,0,0,1-17.27,11.35,8.17,8.17,0,0,1-8-1.26c-2.77-2.22-7.37-4.44-12.57-.86-8.44,5.8-3.69,14.77-3.69,14.77,9.56,18.25-16.35,23-16.35,23-23.94,6.33-33.76,16.61-33.76,16.61a57.06,57.06,0,0,1,26.12-25.21c17.4-8.81,11-27.07,5-33.39-10.5-11-2-16.41-2-16.41,6.53-4.37,12.81-.49,16.84,2.35a15.8,15.8,0,0,0,7.73,2.78,38.74,38.74,0,0,0,31.75-12.14,18.75,18.75,0,0,1,8.25-5.27c6.59-2,9.86-4.49,11.45-6.29a3.9,3.9,0,0,0,.71-4,57.2,57.2,0,0,1-3.41-12.71A10.35,10.35,0,0,1,342.87,387.94Zm-32.51,120A17.15,17.15,0,1,1,293.22,525,17.15,17.15,0,0,1,310.36,507.9Z"/><path class="cls-1" d="M409.32,581.27V608.7s-11.61.53-16.88,13.19c-4.22,14.24-10.71,38.78-35.87,39l-15.3.17s-11.52,3.28-25.75,6.63a13.15,13.15,0,0,0-7.73,5.26l-2.28,3.29a8.17,8.17,0,0,1-9.14,3.13,87.66,87.66,0,0,1-29.47-15.84c-8.52-7.15-29-6.55-50.37-31.74a15,15,0,0,1-.84-18.25c6.71-9.64,17.12-25.11,22.63-36,0,0,1.68-3.63,7.48-3.63,0,0-8.44,30-.53,43.72s57.5,18.46,57.5,18.46-36.92-6.33-50.11-22.68c0,0-5.13-15.85.83-37.91a7.16,7.16,0,0,1,5.42-5.16l.61-.13s-4.22,27.9,7.38,39c12.83,12.24,73.32,28,85.8-12.66,0,0,12.84.53,22.86-4.75S393,581.27,409.32,581.27Z"/><circle class="cls-1" cx="197.14" cy="453.89" r="12.26"/><path class="cls-1" d="M115.86,265.73a12.66,12.66,0,1,0,12.66,12.65A12.65,12.65,0,0,0,115.86,265.73Z"/><path class="cls-1" d="M222.08,425.2c-26.37-2.64-40.16-15.3-40.16-15.3-22.41-20-18.93-57-12.2-83.8,27.42-92.43-8.31-117.75-22.56-145.18-11.07-22.15-8.43-73.32-8.43-73.32C61.71,131.87,38,177.76,38,177.76c8.44,13.71,32.7,12.13,32.7,12.13,28.48,1.06,20.57,19.52,20.57,19.52-3.61,9-13.51,5.83-17.93,2.11-7.63-7-17.14-10.42-26.78-7.59C-.11,222.07,0,280.62,0,280.62c22.68-4.22,44.14-2.81,68.83,17.74C96,321,83.87,406,83.45,437.27c-5.54,90.2,121.47,96,121.47,96s.47-32.54,18.16-52.22C251.43,449.5,222.08,425.2,222.08,425.2ZM149.9,288.11c-19.59,61.71-8.7,96.7-8.7,96.7s-29.9-7.67-33.23-44.88C106.78,305.52,95.37,290,95.37,290,71.36,248.55,26,256.81,26,256.81c7.72-42.14,44.2-23.13,44.2-23.13,37.37,11.5,41.66-18.38,41.66-18.38,4.21-42.33-37-47.38-37-47.38,8.95-20.34,43.19-32.51,43.19-32.51-6,40.74,15.8,71.39,15.8,71.39C164,245.57,149.9,288.11,149.9,288.11Z"/><path class="cls-1" d="M409.32,658.81s-33.47,1.08-68.27,35.87h-9.28a15.38,15.38,0,0,0-10.85,4.49c-5,5-13.07,13.18-18.08,18.93a7,7,0,0,0,.58,9.69c15.94,15.18,20.31,54.62,20.31,54.62a5.55,5.55,0,0,0,4.29,5h0a5.6,5.6,0,0,0,6.28-2.91l16.89-33.41s6.44-13.29,2.74-23c15.3-20.25,31.12-38.19,55.39-38.19Z"/><path class="cls-1" d="M374.67,737.35s-18.35,5-15.46,25.9c2.11,15.3,16.35,22.1,16.35,22.1s-1.58-11.82-1.32-18.08a3.7,3.7,0,0,1,2.25-3.24c10-4.26,13.48-8.69,32.83-8.69V730.12A104.82,104.82,0,0,0,374.67,737.35Z"/><path class="cls-1" d="M409.32,822.44c-29.48,0-44.89-2.25-48-16.46,0,0-3.71,16-5.34,24.71a6.24,6.24,0,0,0,3.73,6.92c7.66,3.21,24.86,9,49.61,9Z"/><path class="cls-1" d="M123.15,753.18c4.84,1.8,8.19-3.64,8.19-3.64,23.21-70.68,104.08-194.11,104.08-194.11a52.22,52.22,0,0,0-23.79,0,26.28,26.28,0,0,0-11.17,5.89c-12.22,10.8-51.52,45.63-64.37,58.48-15.3,15.3-3.17,22.68-3.17,22.68S104.44,682,91.25,705.23s.53,32.7.53,32.7c-43.25,69.63-30.59,93.89-30.59,93.89s-6.33-9.49-10.55,0,0,16.36,0,16.36l33.23,42.19c17.93,19.52,26.28,9,26.28,9,14.68-13.71.09-23.74.09-23.74-2.11-30.06,34.29-99.16,34.29-99.16C148.08,768,129.21,756.58,123.15,753.18ZM119.55,787c-5.52,11-25.26,53.84-27.32,65.6L75.8,836.69s-6.84-14.15,19.7-64a3.3,3.3,0,0,1,4.64-1.26l18.21,11.31A3.27,3.27,0,0,1,119.55,787Z"/><path class="cls-1" d="M479.74,73.06a11.69,11.69,0,0,1,1.55,10.32c-2.83,8.69-9.14,23.83-10.55,34.47a7.53,7.53,0,0,0,2.72,6.88c10.27,8.23,42,36.63,27.45,63a5.73,5.73,0,0,1-8.75,1.51c-5.07-4.37-13.33-10.68-20.07-12-10.55-2.11-11.61,8.44-11.61,8.44s-15.88,91.62,4.7,150.17c0,0-20.78-4.59-55.86-4.59v-45.2c5.65-.39,8.72-1,12-2.84a10.24,10.24,0,0,0,5.33-9c-.21-33.29.88-73.63,5.31-98.69a29.09,29.09,0,0,1,12.14-16.77c12.91-8.38,25.37-2.05,34.27,2.65a2,2,0,0,0,2.64-2.83c-9.18-14.81-29.61-29.49-37.82-34.47a6.88,6.88,0,0,1-3.24-6.77,201.31,201.31,0,0,1,9.39-38.42,8.72,8.72,0,0,0-1.53-8.48c-17.37-20.81-38.47-35.16-38.47-35.16V0S443.57,21.35,479.74,73.06Z"/><path class="cls-1" d="M513.29,368.26c-.32,7.3-1.59,17.38-1.59,17.38s3.68,3.13,6.28,3.63c0,0,9.53-4.4,17.3-8.69a12.33,12.33,0,0,1,11.07-.65l21.74,9.83s15.5,7.57,11.6-18.95a653.35,653.35,0,0,0-21.62-96s-25.14-56.46-80.51-68.68a6.94,6.94,0,0,0-8.43,6c-2.5,23.74-9.17,65.31,9.87,128C479,340.16,514,354.65,513.29,368.26Z"/><path class="cls-1" d="M475.77,387.94c-18.66-11.74-66.45-11.74-66.45-11.74V344.49c81,0,88.5,24.05,88.5,24.05.19,16-.3,32.81-.3,32.81,5.44,5.26,15.71,9,15.71,9,8.93-6.07,18.59-11.77,24.06-14.9a10,10,0,0,1,8.07-.82c12.44,4,25.13,11.14,36.57,17.75a5.23,5.23,0,0,1,.55,8.67c-6.85,5.35-18.85,15.28-14.39,34.14,7.58,24.76,27.53,37.51,28.47,75.54a4.47,4.47,0,0,1-4.86,4.57c-10.25-1-34.73-1.68-54.21,10.09,0,0-42.72,32.17-128.17,32.17V395.19c30.68,0,44.85,3.05,51.17,5.33A4.59,4.59,0,0,1,463.1,407c-10.53,18,1.34,25.14,1.34,25.14,8.9,5.54,15.17,6.26,18.89,7.6a20.76,20.76,0,0,1,7.9,5.14,46.45,46.45,0,0,0,17.28,11.35,8.17,8.17,0,0,0,8-1.26c2.76-2.22,7.36-4.44,12.56-.86,8.44,5.8,3.7,14.77,3.7,14.77-9.56,18.25,16.35,23,16.35,23,23.93,6.33,33.76,16.61,33.76,16.61a57.06,57.06,0,0,0-26.12-25.21c-17.4-8.81-11-27.07-5-33.39,10.5-11,2-16.41,2-16.41C547.25,429.1,541,433,537,435.82a15.83,15.83,0,0,1-7.74,2.78,38.71,38.71,0,0,1-31.74-12.14,18.75,18.75,0,0,0-8.25-5.27c-6.6-2-9.86-4.49-11.45-6.29a3.88,3.88,0,0,1-.71-4,56.55,56.55,0,0,0,3.4-12.71A10.32,10.32,0,0,0,475.77,387.94Zm32.5,120A17.15,17.15,0,1,0,525.42,525,17.15,17.15,0,0,0,508.27,507.9Z"/><path class="cls-1" d="M409.32,581.27V608.7s11.6.53,16.88,13.19c4.22,14.24,10.71,38.78,35.87,39l15.29.17s11.53,3.28,25.75,6.63a13.09,13.09,0,0,1,7.73,5.26l2.29,3.29a8.16,8.16,0,0,0,9.13,3.13,87.69,87.69,0,0,0,29.48-15.84c8.52-7.15,29-6.55,50.36-31.74a15,15,0,0,0,.85-18.25c-6.71-9.64-17.13-25.11-22.63-36,0,0-1.68-3.63-7.48-3.63,0,0,8.43,30,.52,43.72s-57.49,18.46-57.49,18.46,36.92-6.33,50.11-22.68c0,0,5.13-15.85-.83-37.91a7.19,7.19,0,0,0-5.42-5.16l-.61-.13s4.22,27.9-7.38,39c-12.83,12.24-73.32,28-85.8-12.66,0,0-12.84.53-22.86-4.75S425.67,581.27,409.32,581.27Z"/><circle class="cls-1" cx="621.49" cy="453.89" r="12.26"/><path class="cls-1" d="M702.78,265.73a12.66,12.66,0,1,1-12.66,12.65A12.65,12.65,0,0,1,702.78,265.73Z"/><path class="cls-1" d="M596.56,425.2c26.37-2.64,40.15-15.3,40.15-15.3,22.42-20,18.94-57,12.21-83.8-27.43-92.43,8.31-117.75,22.55-145.18,11.08-22.15,8.44-73.32,8.44-73.32,77,24.27,100.75,70.16,100.75,70.16-8.44,13.71-32.7,12.13-32.7,12.13-28.49,1.06-20.58,19.52-20.58,19.52,3.62,9,13.52,5.83,17.94,2.11,7.63-7,17.14-10.42,26.78-7.59,46.65,18.14,46.54,76.69,46.54,76.69-22.68-4.22-44.14-2.81-68.84,17.74C722.64,321,734.77,406,735.19,437.27c5.54,90.2-121.48,96-121.48,96s-.47-32.54-18.15-52.22C567.21,449.5,596.56,425.2,596.56,425.2Zm72.18-137.09c19.59,61.71,8.7,96.7,8.7,96.7s29.9-7.67,33.23-44.88c1.19-34.41,12.6-49.93,12.6-49.93,24-41.45,69.37-33.19,69.37-33.19-7.72-42.14-44.2-23.13-44.2-23.13-37.37,11.5-41.66-18.38-41.66-18.38-4.21-42.33,37-47.38,37-47.38-9-20.34-43.19-32.51-43.19-32.51,6,40.74-15.8,71.39-15.8,71.39C654.68,245.57,668.74,288.11,668.74,288.11Z"/><path class="cls-1" d="M409.32,658.81s30.88-1.51,68.26,35.87h9.29a15.38,15.38,0,0,1,10.85,4.49c5,5,13.07,13.18,18.08,18.93a7,7,0,0,1-.58,9.69c-15.94,15.18-20.31,54.62-20.31,54.62a5.56,5.56,0,0,1-4.29,5h0a5.59,5.59,0,0,1-6.28-2.91l-16.89-33.41s-6.44-13.29-2.75-23c-15.29-20.25-31.12-38.19-55.38-38.19Z"/><path class="cls-1" d="M444,737.35s18.34,5,15.46,25.9c-2.11,15.3-16.35,22.1-16.35,22.1s1.58-11.82,1.32-18.08a3.7,3.7,0,0,0-2.25-3.24c-10-4.26-13.49-8.69-32.83-8.69V730.12A104.82,104.82,0,0,1,444,737.35Z"/><path class="cls-1" d="M409.32,822.44c29.48,0,44.89-2.25,48-16.46,0,0,3.71,16,5.34,24.71a6.23,6.23,0,0,1-3.74,6.92c-7.65,3.21-24.86,9-49.6,9Z"/><path class="cls-1" d="M695.49,753.18c-4.84,1.8-8.19-3.64-8.19-3.64-23.21-70.68-104.09-194.11-104.09-194.11a52.26,52.26,0,0,1,23.8,0,26.24,26.24,0,0,1,11.16,5.89c12.23,10.8,51.53,45.63,64.38,58.48,15.3,15.3,3.16,22.68,3.16,22.68S714.2,682,727.38,705.23s-.52,32.7-.52,32.7c43.25,69.63,30.59,93.89,30.59,93.89s6.33-9.49,10.55,0,0,16.36,0,16.36l-33.23,42.19c-17.93,19.52-26.29,9-26.29,9-14.68-13.71-.08-23.74-.08-23.74,2.11-30.06-34.29-99.16-34.29-99.16C670.56,768,689.42,756.58,695.49,753.18ZM699.08,787c5.53,11,25.27,53.84,27.33,65.6l16.42-15.9s6.84-14.15-19.69-64a3.3,3.3,0,0,0-4.64-1.26l-18.21,11.31A3.29,3.29,0,0,0,699.08,787Z"/></g></g></svg>