<svg xmlns="http://www.w3.org/2000/svg" viewBox="0 0 437.93 944.57"><defs><style>.cls-1{fill:#fff;}</style></defs><g id="Layer_2" data-name="Layer 2"><g id="_1" data-name="1"><path class="cls-1" d="M0,494.68S17,343.91,0,334v-46.5a5.8,5.8,0,0,1,9.85-4.16c17.65,17.05,52.75,56.43,51.86,99.2C61.71,382.56,70.29,473.89,0,494.68Z"/><path class="cls-1" d="M76,452.7s42.72,53.41,59.34,67.65c0,0,17.85,7.12,17.8,38,0,0-1.58,77.54-22.55,83.07,0,0-24.92,11.87-36.79-20.17,0,0-16.62-66.46-70-102.07C23.74,519.16,70,501.36,76,452.7Z"/><path class="cls-1" d="M174.46,610.55S203,621,229.05,619.85s30.49,4.94,30.49,4.94,18.59-40.35,34.42-52.22l-28.55-27.44s-31.2,41.33-75.52,13.2C189.89,558.33,175.65,578.5,174.46,610.55Z"/><path class="cls-1" d="M199.38,721.05s-42.16,2.51-78.95,0c0,0-3.5-30.52-16-51.15-2.13-3.53,1.1-8.59,5-7.13,19.94,7.51,43.68,5.93,60.29-19.22,0,0,28.49,7.35,51,8.54C220.75,652.09,216.73,690.06,199.38,721.05Z"/><path class="cls-1" d="M203.27,747.06c-17.61,1.47-61.73,4-78.65,3.32,0,0,.13,49.27,35.27,65.09,0,0,26.07-36.4,58.11-49.85l-4.65-12.21A9.9,9.9,0,0,0,203.27,747.06Z"/><path class="cls-1" d="M138.86,828.92s-15-4.75-14.24,10.29,7.1,20.57,7.1,20.57,16.63,14.24,21.38-4C153.1,855.82,155.47,836,138.86,828.92Z"/><path class="cls-1" d="M180,865.08s-15-9.26-14.24,8.94S180,899.34,180,899.34s12.66,2.15,15.82-18.31C195.82,881,195.82,872.76,180,865.08Z"/><path class="cls-1" d="M191.82,816.43s-11.75,14.75,4,23c17,8.89,28.49,9.28,41.94-1,0,0,18.2-12.27,0-34-15.94-19-30.07-6-30.07-6S197.9,806.45,191.82,816.43Z"/><path class="cls-1" d="M261.1,794s12.26,15.51,13.85,21.44,21.36-18.2,21.36-18.2A115.17,115.17,0,0,0,261.1,794Z"/><path class="cls-1" d="M250,766s4.75,11.08,21.36,12.66c0,0,27.7,1.58,34,2.57,0,0,12.26,1.38,11.86-17.6,0,0,2.38-19.39-21-21s-36.79,0-36.79,0S240.53,742,250,766Z"/><path class="cls-1" d="M330.33,798.06s-18.59,10.29-17.8,26.11S326,838,326,838s12.66-4.35,17.4-16.22S341.41,790.94,330.33,798.06Z"/><path class="cls-1" d="M344.93,738.72s-18.56-2.37-16.21,18.6c1.71,15.35,7.94,20.57,17.83,21.36s20.18-7.61,19.38-17.06S361.9,741.1,344.93,738.72Z"/><path class="cls-1" d="M252.79,914.77s-18.59,2-14.24,17.8S258.73,944,258.73,944s14.24-4.33,8.3-21.74C263.78,912.74,252.79,914.77,252.79,914.77Z"/><path class="cls-1" d="M274,843.79s-3.75,12.43-16,18.94c0,0-11.71,9.49,3.17,20,13.45,9.5,26.5-1.66,26.5-1.66s24.9-16,8.71-32.75C278.19,829.54,274,843.79,274,843.79Z"/><path class="cls-1" d="M236.18,720.13s25.1-2,46.17,0c0,0-3.27-28.09,0-57.36,0,0,3.28-18.2-26-12.27C256.35,650.5,247.36,692,236.18,720.13Z"/><path class="cls-1" d="M315.69,689.27s-8.77,34.35,14.64,30.86c21.21-3.17,20.18-41.93,20.18-41.93l.93-48.27s3.42-42.64-29-43.47c0,0-20.57,11-30.46,41.49,0,0,21.34,3.46,24.38,25.56C318.65,670.28,315.69,689.27,315.69,689.27Z"/><path class="cls-1" d="M369.49,643.55v41.17c-1.15,10.49,10.69,17.21,16.22,4.16L398,651.69Z"/><path class="cls-1" d="M369.42,618.48l35.68,11.26,17.8-43.28s12.26-23.39,8.7-47.12c0,0-40.35,21.36-62.18,0Z"/><path class="cls-1" d="M310.55,550.42s29.67,0,30.86-40.75V447.16s-29.3,26.11-62.77-13.18c0,0,2.4,62.63-3.53,85.58Z"/><path class="cls-1" d="M279.69,403.25s38.38,49.45,61.72,19.38c0,0,.19-49.05-4.36-82.68,0,0-25.52-14.63-59.94-8.7Z"/><path class="cls-1" d="M275.34,309.1s19-7.12,55,2.77c0,0-11.08-115.92-60.13-136.09Z"/><path class="cls-1" d="M174.46,308.31s30.07,31.83,73.58,2.56c0,0,11.48,137.08,4.36,186.14S203,533.76,189.1,519.16c-8.31-8.7-17.43-20.17-16.64-46.68Z"/><path class="cls-1" d="M139.65,333.23v146s-42.73-30.07-55.78-66.07c0,0-.4-65.67-9.89-101.27C74,311.87,119.08,341.54,139.65,333.23Z"/><path class="cls-1" d="M76,284.57s32,30.46,63.69,27.3V185.75a9.28,9.28,0,0,0-10.41-9.22,96.65,96.65,0,0,0-42.19,15.79A20.62,20.62,0,0,0,78,209.38Z"/><path class="cls-1" d="M92.76,163s33.44-15.26,44.91-9.33l-2.77-70s-2.77-21.38-19.19,3.54C102.48,107.25,95.53,145.15,92.76,163Z"/><path class="cls-1" d="M181.19,133.1s51-23.32,58.94-10.08c0,0,4.35-47.93-11.66-75.19,0,0-10.49-18.82-12.28-35.62.6-11.83-10.48-21.58-18.81,3.35C197.38,15.56,181.19,65.05,181.19,133.1Z"/><path class="cls-1" d="M179.42,160s-15.64,5.15-9.71,38.77c0,0,5.57,54.41,5.15,83,0,0,30.06,40.44,70.41,4.44l-4.6-129.76s2.23-15.82-19.13-11.47A225.33,225.33,0,0,0,179.42,160Z"/><path class="cls-1" d="M369.42,504.53s21,47.47,68.51,0c0,0-22.57-97.53-66.88-168.74Z"/></g></g></svg>