<svg xmlns="http://www.w3.org/2000/svg" viewBox="0 0 820.44 934"><defs><style>.cls-1{fill:#fff;}</style></defs><g id="Layer_2" data-name="Layer 2"><g id="_1" data-name="1"><path class="cls-1" d="M410.26,0s-125,0-188.7,55.78c0,0-47.61,37.85-60.34,103.25,0,0-26.3,98.9-59.91,132.51-1.82,1.81-1.84,4.85.4,6.1,10.15,5.67,50.8-15.41,91.36-139.79,0,0,17-116.45,217.19-116.45Z"/><path class="cls-1" d="M410.26,278.9c-151.38,0-361.84,23.61-398.77,65.28,0,0-43.78,43.25,39.56,73.31,0,0-64.4-45.83,12.48-73.79,76.08-26.37,202.2-40.72,346.73-41.25Z"/><path class="cls-1" d="M410.26,311C273,311,78.5,331.87,45,367.26c0,0-33.19,28.27,46.11,52.87,0,0-59.08-34.81-4.38-54.27,69-22.4,192.5-34.4,323.5-34.85Z"/><path class="cls-1" d="M379.42,142.28,288,155.56l66.85,43-34.25,82.76c11.63-.6,23.18-1.1,34.58-1.48l55.05-38.54V83.84Z"/><path class="cls-1" d="M410.26,373.71A161.44,161.44,0,0,1,382.31,370L370.17,396.4a113.26,113.26,0,0,0,40.09,7.38Z"/><path class="cls-1" d="M410.26,467.71V422.77s-31.12-.53-40.09,4.22c0,0-22.75,12.22-34.36,23.47a14.29,14.29,0,0,0-4.24,8.4c-1.1,8.59-3,27,.63,31,0,0,21.15-16,37-19.16C369.17,470.71,393.91,467.71,410.26,467.71Z"/><path class="cls-1" d="M410.26,549.89s-10,2.11-10-9V500.84S334.83,503,316.9,517.71c0,0-32.7,33.24-52.22,80.71,0,0-28,61.71-29,83.87,0,0-.43,6.38,19,25.66a11.26,11.26,0,0,0,15.18.62,217.55,217.55,0,0,0,16.51-15.15s19.46-47.53,30-85.51c0,0,11.61-38,93.89-38"/><path class="cls-1" d="M410.26,580.48s-65.41-.52-80.17,30.07c-12.9,26.71,30.89,49.79,42.22,55.23A12.27,12.27,0,0,0,377.6,667h32.66Z"/><path class="cls-1" d="M410.26,677H375.43a3.73,3.73,0,0,0-3.7,3.34c-.74,6.85-.24,21.87,18.49,21.87h20Z"/><path class="cls-1" d="M410.26,713.41v80.7S360,792,342.05,820.48c0,0-16.42,25-16.59,67.31a9.86,9.86,0,0,1-10.18,9.83c-9.82-.32-24.71-.66-36.48-.27a24.83,24.83,0,0,1-24.67-17.93c-5.22-18.07-9.51-48.4-.37-90.5a18.28,18.28,0,0,1,11.31-13.19c11.13-4.27,30.78-12.39,47.08-34.37C321.6,725.67,333.25,713.19,410.26,713.41Z"/><rect class="cls-1" x="271.13" y="712.29" width="37.79" height="26.9" rx="13.45" transform="translate(-395.82 351.01) rotate(-39.57)"/><path class="cls-1" d="M230.45,761.77s18.93-35.71-15.88-48.37-55.39,34.29-55.39,34.29,21.1-11.6,42.73-4.74S230.45,761.77,230.45,761.77Z"/><path class="cls-1" d="M143.2,757.71l-36,20a14.93,14.93,0,0,0-6.18,6.48,131.42,131.42,0,0,0-13,55.39c-.25,26.49,5.59,43.14,9.27,51a16.39,16.39,0,0,0,7.32,7.58l38.63,19.41s-14.61-32.7-15.08-78.91C128.12,838.63,127.54,787.78,143.2,757.71Z"/><path class="cls-1" d="M146.16,806.3s1-21.63,8.8-38c0,0,14.19-12.46,39.51-7.55A47.28,47.28,0,0,1,225.12,782s-2.64,17.23-3.69,25.14C221.43,807.13,169.73,802,146.16,806.3Z"/><path class="cls-1" d="M145.16,824.7s41.48,5.22,74.68-1c0,0,.95,27.21,3,41.45,0,0-36.75,25.49-73.68,5.44C149.16,870.59,143.2,851,145.16,824.7Z"/><path class="cls-1" d="M152.8,888.53S162.51,934,201.49,934c0,0,46.77-2.22,27.34-48.64C228.83,885.36,187.88,914.37,152.8,888.53Z"/><circle class="cls-1" cx="380.09" cy="865.32" r="26.64"/><path class="cls-1" d="M155.91,511.77c1.71-13.8,10.49-53.35,55.24-74.26a11.37,11.37,0,0,0,5.11-16l-.15-.26A11.36,11.36,0,0,0,201,416.9c-21.38,11.22-69,42.73-56,95.6a5.54,5.54,0,0,0,5.38,4.16h0A5.56,5.56,0,0,0,155.91,511.77Z"/><path class="cls-1" d="M269.89,367.29c-49.28-28.45-121.45,4.28-161.19,73.11S76.7,588.09,126,616.55s121.45-4.28,161.19-73.11S319.18,395.75,269.89,367.29ZM252.53,524.93c-31.16,50.63-84.14,72.74-118.34,49.38s-36.66-83.35-5.5-134S212.83,367.59,247,391,283.69,474.3,252.53,524.93Z"/><path class="cls-1" d="M318.93,62.05c-16.42,4.12-48.38,14.58-76.67,38.26a14.09,14.09,0,0,0-2.59,18.83h0a14,14,0,0,0,19.45,3.63C272.94,113.36,298,98,326.6,89.08a14,14,0,0,0,8.26-19.79h0A14.05,14.05,0,0,0,318.93,62.05Z"/><path class="cls-1" d="M410.18,0s125,0,188.7,55.78c0,0,47.6,37.85,60.34,103.25,0,0,26.3,98.9,59.91,132.51,1.82,1.81,1.83,4.85-.41,6.1-10.14,5.67-50.8-15.41-91.36-139.79,0,0-17-116.45-217.18-116.45Z"/><path class="cls-1" d="M410.18,278.9C561.56,278.9,772,302.51,809,344.18c0,0,43.78,43.25-39.56,73.31,0,0,64.4-45.83-12.48-73.79C680.83,317.33,554.7,303,410.18,302.45Z"/><path class="cls-1" d="M410.18,311c137.21,0,331.76,20.86,365.23,56.25,0,0,33.19,28.27-46.11,52.87,0,0,59.07-34.81,4.38-54.27-69-22.4-192.5-34.4-323.5-34.85Z"/><path class="cls-1" d="M441,142.28l91.39,13.28-66.85,43,34.24,82.76c-11.62-.6-23.17-1.1-34.57-1.48l-55.05-38.54V83.84Z"/><path class="cls-1" d="M410.18,373.71A161.44,161.44,0,0,0,438.13,370l12.13,26.38a113.16,113.16,0,0,1-40.08,7.38Z"/><path class="cls-1" d="M410.18,467.71V422.77s31.12-.53,40.08,4.22c0,0,22.76,12.22,34.37,23.47a14.22,14.22,0,0,1,4.23,8.4c1.11,8.59,3,27-.62,31,0,0-21.15-16-37-19.16C451.26,470.71,426.53,467.71,410.18,467.71Z"/><path class="cls-1" d="M410.18,549.89s10,2.11,10-9V500.84s65.41,2.11,83.34,16.87c0,0,32.7,33.24,52.22,80.71,0,0,28,61.71,29,83.87,0,0,.43,6.38-19,25.66a11.27,11.27,0,0,1-15.19.62,217.39,217.39,0,0,1-16.5-15.15s-19.46-47.53-30-85.51c0,0-11.61-38-93.89-38"/><path class="cls-1" d="M410.18,580.48s65.4-.52,80.17,30.07c12.9,26.71-30.89,49.79-42.22,55.23a12.27,12.27,0,0,1-5.29,1.21H410.18Z"/><path class="cls-1" d="M410.18,677H445a3.71,3.71,0,0,1,3.69,3.34c.75,6.85.25,21.87-18.48,21.87h-20Z"/><path class="cls-1" d="M410.18,713.41v80.7s50.27-2.11,68.21,26.37c0,0,16.42,25,16.59,67.31a9.86,9.86,0,0,0,10.18,9.83c9.81-.32,24.71-.66,36.48-.27a24.83,24.83,0,0,0,24.67-17.93c5.22-18.07,9.51-48.4.37-90.5a18.27,18.27,0,0,0-11.32-13.19c-11.13-4.27-30.77-12.39-47.07-34.37C498.83,725.67,487.19,713.19,410.18,713.41Z"/><rect class="cls-1" x="511.51" y="712.29" width="37.79" height="26.9" rx="13.45" transform="translate(477.03 1623.06) rotate(-140.43)"/><path class="cls-1" d="M590,761.77s-18.93-35.71,15.88-48.37,55.38,34.29,55.38,34.29-21.1-11.6-42.72-4.74S590,761.77,590,761.77Z"/><path class="cls-1" d="M677.24,757.71l36,20a14.9,14.9,0,0,1,6.19,6.48,131.58,131.58,0,0,1,13,55.39c.25,26.49-5.59,43.14-9.27,51a16.39,16.39,0,0,1-7.32,7.58l-38.63,19.41s14.61-32.7,15.08-78.91C692.32,838.63,692.9,787.78,677.24,757.71Z"/><path class="cls-1" d="M674.28,806.3s-1-21.63-8.81-38c0,0-14.18-12.46-39.5-7.55A47.26,47.26,0,0,0,595.32,782S598,799.22,599,807.13C599,807.13,650.7,802,674.28,806.3Z"/><path class="cls-1" d="M675.28,824.7s-41.48,5.22-74.69-1c0,0-.94,27.21-3,41.45,0,0,36.76,25.49,73.69,5.44C671.28,870.59,677.24,851,675.28,824.7Z"/><path class="cls-1" d="M667.64,888.53S657.92,934,619,934c0,0-46.77-2.22-27.35-48.64C591.6,885.36,632.56,914.37,667.64,888.53Z"/><circle class="cls-1" cx="440.35" cy="865.32" r="26.64"/><path class="cls-1" d="M607.23,404.36C572,417.49,569,482.63,603.51,526c1.55,1.94,3.52,2.9,5,2.16h0c1.67-.82,2.14-3.4,1.11-6-10.13-25.78-22.77-78.32,12.7-102.29,0,0,6.38-5,0-11.9S607.23,404.36,607.23,404.36Z"/><path class="cls-1" d="M550.54,367.29c49.29-28.45,121.45,4.28,161.19,73.11s32,147.69-17.28,176.15S573,612.27,533.26,543.44,501.26,395.75,550.54,367.29Zm17.37,157.64c31.16,50.63,84.14,72.74,118.34,49.38s36.66-83.35,5.5-134S607.61,367.59,573.41,391,536.75,474.3,567.91,524.93Z"/></g></g></svg>