<svg xmlns="http://www.w3.org/2000/svg" viewBox="0 0 948.08 875.99"><defs><style>.cls-1{fill:#fff;}</style></defs><g id="Layer_2" data-name="Layer 2"><g id="_1" data-name="1"><path class="cls-1" d="M379.72,572.52s-19-24.9-15.43-59.32l22.55-386.9,7.92,304.35A41.36,41.36,0,0,0,405,456.8L474,539.1V550H413.49a29.55,29.55,0,0,0-20.87,8.64Z"/><path class="cls-1" d="M474,575.52H421.29a27.56,27.56,0,0,0-22,10.93L221.87,821.77H280L423.21,630.11A25.13,25.13,0,0,1,443.36,620H474Z"/><path class="cls-1" d="M474,635.25H445.35a25.44,25.44,0,0,0-20.57,10.48l-128.14,176h19L432.85,661a17.39,17.39,0,0,1,14-7.14H474Z"/><circle class="cls-1" cx="474.04" cy="707.5" r="28.96"/><circle class="cls-1" cx="474.04" cy="225.41" r="28.96"/><circle class="cls-1" cx="474.04" cy="363.58" r="66.38"/><path class="cls-1" d="M428.08,723.09l34.72,40.53v92.56a19.8,19.8,0,0,1-7.42,15.45h0a19.8,19.8,0,0,1-21.9,1.93l-96.67-51.79,73.94-97.9A11.24,11.24,0,0,1,428.08,723.09Z"/><path class="cls-1" d="M363.85,596l-27,39.29s-151.73-364.16-176.65-433c0,0,90.57,104.42,125,147.16,0,0,20.36,24.93,27.48,59.35l-1.18-37,23.85,31a22.73,22.73,0,0,1,4.7,13.61l.93,95.94a160.64,160.64,0,0,0,4.92,39.47C349.84,567.5,357.78,582.64,363.85,596Z"/><circle class="cls-1" cx="267.94" cy="177.33" r="62.9"/><circle class="cls-1" cx="679.76" cy="177.33" r="62.9"/><path class="cls-1" d="M221.87,407.19c-41.53,0-71.66-10.47-90.19-35.43,0,0-87.83-125.6-104.44-194.43,0,0-12.5,53.41,7.68,108,0,0,20.87,86.43,106.25,190.87H125S39.76,369.59,23.41,291.26c0,0-28.22,46.64,18.07,150.31,0,0,41.54,72.81,66.46,79.94H221.62c24,0,47.63,34.73,63.9,51"/><path class="cls-1" d="M1.13,386.21s33.23,85.45,79.51,134.11H33.17S-7.18,493,1.13,386.21Z"/><path class="cls-1" d="M10.89,552.36H214.71a32.44,32.44,0,0,1,22.63,9.2c20.19,19.66,63.32,67.16,86.3,94.76-23.91-13-54-39.24-108.89-39.24-51.68,0-98.69-1-98.69-1S60.2,618,40.32,593Z"/><path class="cls-1" d="M474,0a57.05,57.05,0,1,0,57.05,57.05A57,57,0,0,0,474,0Zm0,86a29,29,0,1,1,29-29A29,29,0,0,1,474,86Z"/><path class="cls-1" d="M568.36,572.52s19-24.9,15.43-59.32L561.24,126.3l-7.92,304.35A41.36,41.36,0,0,1,543.1,456.8L474,539.1V550h60.55a29.51,29.51,0,0,1,20.86,8.64Z"/><path class="cls-1" d="M474,575.52h52.74a27.59,27.59,0,0,1,22,10.93L726.2,821.77H668.05L524.87,630.11A25.15,25.15,0,0,0,504.72,620H474Z"/><path class="cls-1" d="M474,635.25h28.68a25.46,25.46,0,0,1,20.58,10.48l128.13,176h-19L515.23,661a17.4,17.4,0,0,0-14.06-7.14H474Z"/><path class="cls-1" d="M520,723.09l-34.72,40.53v92.56a19.82,19.82,0,0,0,7.41,15.45h0a19.82,19.82,0,0,0,21.91,1.93l96.67-51.79-73.94-97.9A11.24,11.24,0,0,0,520,723.09Z"/><path class="cls-1" d="M584.23,596l27,39.29S763,271.09,787.92,202.25c0,0-90.57,104.42-125,147.16,0,0-20.36,24.93-27.48,59.35l1.18-37-23.85,31a22.6,22.6,0,0,0-4.7,13.61l-.93,95.94a160.64,160.64,0,0,1-4.92,39.47C598.24,567.5,590.3,582.64,584.23,596Z"/><path class="cls-1" d="M726.2,407.19c41.54,0,71.67-10.47,90.2-35.43,0,0,87.83-125.6,104.44-194.43,0,0,12.5,53.41-7.68,108,0,0-20.87,86.43-106.25,190.87h16.15s85.26-106.61,101.61-184.94c0,0,28.22,46.64-18.07,150.31,0,0-41.54,72.81-66.46,79.94H726.46c-24,0-47.63,34.73-63.9,51"/><path class="cls-1" d="M947,386.21s-33.23,85.45-79.52,134.11h47.48S955.26,493,947,386.21Z"/><path class="cls-1" d="M937.18,552.36H733.37a32.44,32.44,0,0,0-22.63,9.2c-20.19,19.66-63.33,67.16-86.3,94.76,23.91-13,54-39.24,108.88-39.24,51.69,0,98.7-1,98.7-1S887.87,618,907.76,593Z"/></g></g></svg>