<svg xmlns="http://www.w3.org/2000/svg" viewBox="0 0 941.54 884.5"><defs><style>.cls-1{fill:#fff;}</style></defs><g id="Layer_2" data-name="Layer 2"><g id="_1" data-name="1"><path class="cls-1" d="M470.77,0C409.85,0,305.41,22.15,257.14,272.18c0,0,64.88,51.42,151.12,56.17,16.21-22.09,28.48-147.06,23.71-185.6-.45-3.71-3.89-5.57-7.63-5.53-18.45.19-23.46-1.4-22.41-12.21,0,0,3.17-36,68.84-85Z"/><circle class="cls-1" cx="470.77" cy="348.92" r="16.09"/><ellipse class="cls-1" cx="316.33" cy="448.69" rx="15.67" ry="13.05"/><path class="cls-1" d="M470.77,69.64V51.43s-45.5,34.42-55,66.07c-2.77,9.49,2.55,8.57,17.59,6.72,0,0,7.22-.89,8.31,7.12,0,0,14.85,101.28-27.09,209.67,0,0-130.55-12.66-201-83.08,0,0-26.9-26.9,7.91-46.68-9.94-24.77-36.21-40.29-81.5-15,0,0-68.83-64.88-140,6.33,0,0,98.11,26.9,161.41,83.87C208.4,328.71,269.8,389.27,364,406.68c0,0,.79,7.12-19.78,4.75,0,0-53.81-7.91-108.8-42.73,0,0-7.91,51-21.22,85.92a23.39,23.39,0,0,0,8.21,27.4c31.19,22.32,111.61,67.87,248.4,67.87V526.15S307.78,523,231,457.32c0,0,33.19,9.49,54.55-7.12,0,0,9.54-43.54,56.22-15,0,0,26.9-14.24,63.3-15.82,0,0,34.81,34,65.67,34V424.09S442.29,417.76,436,394c0,0-23.74,9.5-29.28-8.7,0,0-11.87,4.75-19.78-3.17S364,379,364,379s-4.75-7.12-16.62-6.33c0,0-14.24-6.33-41.93-11.87,0,0-75.17-26.9-140.84-101.27,0,0-41.93-49.06-106.81-60.93,0,0,32.23-20.15,82.08,21.78,0,0,36.6-34.44,54-9.91,0,0-30.86,20.57,10.28,60.13,0,0,83.91,79.12,250.07,98.9-15.34-11.07-14.29-44.3,16.57-45.51V306.25S454.68,305,443,316.16c0,0,16.57-98.47,16.05-196,0,0-.56-12.9-15.6-10.13C436.35,112,435,101,470.77,69.64Z"/><path class="cls-1" d="M312.79,473.41s-7.38,10.55,5.8,14.77c0,0,66.47,24.79,152.18,24.79V470.24s-88.35,2.11-129.5-15.29C341.27,455,339.16,475,312.79,473.41Z"/><path class="cls-1" d="M196.74,482.57c-11.14,13.1-40.86,48.61-46.41,61h-5.82a6,6,0,0,0-5.33,3.28L134.57,556a5.93,5.93,0,0,0,.83,6.59c5.16,5.89,17.72,18.72,34.59,25.79a7.94,7.94,0,0,0,9.58-2.69c9.65-13.55,36.18-51,40.91-60.07,0,0-4.55-8.28,2.1-21.16a6.81,6.81,0,0,0-2.12-8.72,97.7,97.7,0,0,1-15.66-13.29A5.36,5.36,0,0,0,196.74,482.57Z"/><path class="cls-1" d="M136.11,725.49c-1.49,3.53-5.88,4.82-9.54,3.68-17.91-5.59-32-17.48-37.84-23a6.11,6.11,0,0,1-1.49-6.66l3.83-9.81a6.11,6.11,0,0,1,5.12-3.87l6-.57c9.16-20.39,43.15-74.36,53.27-88.84a5.5,5.5,0,0,1,8.22-.89c5.49,5,16,11.49,20.82,14.22a7,7,0,0,1,3,8.7S158.8,671.64,136.11,725.49Z"/><path class="cls-1" d="M108.74,721.17s-38,24.88-42.33,130c0,0,5.2,15.36,23.36,30.5A12.32,12.32,0,0,0,109.94,873c2.1-32.42,7-92.67,29.85-129.5a6.34,6.34,0,0,0-1.88-8.61C131.78,730.78,119.72,724.27,108.74,721.17Z"/><path class="cls-1" d="M277.71,733.45s-57-7.34-111.56,55.39c0,0,67.26-48.27,124.22-38Z"/><path class="cls-1" d="M287,537.23c13.71,64.35,82.81,68.52,82.81,68.52,32.79,5.57,51.08-20.55,58.2-34a13.68,13.68,0,0,1,12.42-7.25c15.93.4,30.39-.35,30.39-.35v36.4h-16.1a43,43,0,0,0-19,4.42l-24.25,11.93-14.1,21.21a16,16,0,0,1-17.84,6.48c-18.08-5.34-54.38-15.45-82.52-19.25,0,0-51.7-14.77-53.28-44.31-1.07-20,3.44-33,6.45-39.32a7.87,7.87,0,0,1,7.1-4.46h4.39S259,567.3,293.37,584.12c0,0-23.53-25.26-16.45-46.89Z"/><path class="cls-1" d="M422,636.4s-4.75,12.65,7.91,12.65h40.88v44.84s-54.07-.53-88.35,13.71c0,0-40.62,13.19-40.09,48,0,0,3.69,23.21,26.9,33.24,0,0,56.44-27.83,101.54-27.83v33.26c-19,0-32.25,6.6-48.26,5.11,0,0-26.38-9-46.42-5.27,0,0,11.54,3.74,30.48,17.85a42.13,42.13,0,0,0,18.94,7.91,310.8,310.8,0,0,0,45.26,3.25V859s-38.77,0-75.69-11.61c0,0,9.39-17.21-52.76-62.87l-4.21,1.69A38.45,38.45,0,0,1,322.81,759l4.22-3.93s-7.44-23.5-6.38-33.91c0,0-4.32-4.41-27.28,12,0,0-10.12,9.76-14.34-9.23,0,0-6.85-7-32.7-7,0,0-12.66-5.17-7.38-18.88,0,0,10.22-2.11,4.58-11.08,0,0-6.49-4.74,0-14.24,0,0,1.42-2.11,0-6.86s-8.8-23.2,4.91-32.7c0,0,19.52-9,22.15,7.91,0,0,1.91,6.11-5.39,13.87a4.66,4.66,0,0,0,1.45,7.49c2.21,1,4.93,2.26,8.16,4,10,5.28,11.08,14.24-5.8,19a36.61,36.61,0,0,1-4.05,18,136.09,136.09,0,0,1,34.7,15.24s77.48-49.58,148.16-49.58c0,0-50.63,1-43.25-16.35C404.57,652.75,409.32,644.31,422,636.4Z"/><path class="cls-1" d="M300.66,640.62c8.48-1.56-18.52-.4-9.29,21.22l83.14-3.29Z"/><path class="cls-1" d="M374.51,668.15l-81.24,2S290,689.84,308.93,687.2Z"/><path class="cls-1" d="M357.15,742.42s6.28,13.18,14.19,21.1c0,0-7.28,6.85-14.19,0C357.15,763.52,354.56,751.38,357.15,742.42Z"/><path class="cls-1" d="M382.76,757.65c-1.52-7.92-2.46-21,7-32.58,0,0,7.8,17.42,21.14,27.57a6.68,6.68,0,0,1-.51,11c-3.5,2.12-8.6,3.87-15.83,3.8A12.1,12.1,0,0,1,382.76,757.65Z"/><path class="cls-1" d="M470.77,0C531.69,0,636.13,22.15,684.4,272.18c0,0-64.88,51.42-151.13,56.17-16.2-22.09-28.47-147.06-23.71-185.6.46-3.71,3.9-5.57,7.63-5.53,18.46.19,23.47-1.4,22.41-12.21,0,0-3.16-36-68.83-85Z"/><ellipse class="cls-1" cx="625.21" cy="448.69" rx="15.67" ry="13.05"/><path class="cls-1" d="M470.77,69.64V51.43s45.49,34.42,55,66.07c2.77,9.49-2.55,8.57-17.6,6.72,0,0-7.21-.89-8.3,7.12,0,0-14.85,101.28,27.09,209.67,0,0,130.54-12.66,201-83.08,0,0,26.9-26.9-7.91-46.68,9.94-24.77,36.21-40.29,81.49-15,0,0,68.84-64.88,140,6.33,0,0-98.11,26.9-161.41,83.87-47,42.29-108.39,102.85-202.55,120.26,0,0-.79,7.12,19.78,4.75,0,0,53.8-7.91,108.79-42.73,0,0,7.92,51,21.23,85.92a23.39,23.39,0,0,1-8.21,27.4c-31.2,22.32-111.61,67.87-248.4,67.87V526.15s163-3.16,239.74-68.83c0,0-33.19,9.49-54.55-7.12,0,0-9.54-43.54-56.22-15,0,0-26.9-14.24-63.3-15.82,0,0-34.81,34-65.67,34V424.09s28.48-6.33,34.81-30.07c0,0,23.74,9.5,29.28-8.7,0,0,11.87,4.75,19.78-3.17S577.58,379,577.58,379s4.75-7.12,16.62-6.33c0,0,14.24-6.33,41.93-11.87,0,0,75.17-26.9,140.84-101.27,0,0,41.93-49.06,106.81-60.93,0,0-32.23-20.15-82.08,21.78,0,0-36.6-34.44-54-9.91,0,0,30.86,20.57-10.28,60.13,0,0-83.92,79.12-250.07,98.9,15.34-11.07,14.29-44.3-16.57-45.51V306.25s16.09-1.24,27.75,9.91c0,0-16.57-98.47-16-196,0,0,.56-12.9,15.6-10.13C505.19,112,506.54,101,470.77,69.64Z"/><path class="cls-1" d="M628.75,473.41s7.38,10.55-5.8,14.77c0,0-66.47,24.79-152.18,24.79V470.24s88.35,2.11,129.49-15.29C600.26,455,602.37,475,628.75,473.41Z"/><path class="cls-1" d="M744.8,482.57c11.14,13.1,40.86,48.61,46.41,61H797a6,6,0,0,1,5.32,3.28L807,556a5.93,5.93,0,0,1-.83,6.59c-5.16,5.89-17.72,18.72-34.59,25.79A7.94,7.94,0,0,1,762,585.7c-9.65-13.55-36.19-51-40.91-60.07,0,0,4.55-8.28-2.11-21.16a6.82,6.82,0,0,1,2.13-8.72,98.13,98.13,0,0,0,15.66-13.29A5.36,5.36,0,0,1,744.8,482.57Z"/><path class="cls-1" d="M805.43,725.49c1.49,3.53,5.88,4.82,9.53,3.68,17.92-5.59,32-17.48,37.85-23a6.11,6.11,0,0,0,1.49-6.66l-3.83-9.81a6.11,6.11,0,0,0-5.12-3.87l-6-.57c-9.16-20.39-43.15-74.36-53.27-88.84a5.5,5.5,0,0,0-8.22-.89c-5.49,5-16,11.49-20.82,14.22a7,7,0,0,0-3,8.7S782.73,671.64,805.43,725.49Z"/><path class="cls-1" d="M832.79,721.17s38,24.88,42.34,130c0,0-5.2,15.36-23.36,30.5A12.32,12.32,0,0,1,831.6,873c-2.1-32.42-7.05-92.67-29.86-129.5a6.35,6.35,0,0,1,1.89-8.61C809.76,730.78,821.82,724.27,832.79,721.17Z"/><path class="cls-1" d="M663.82,733.45s57-7.34,111.56,55.39c0,0-67.25-48.27-124.22-38Z"/><path class="cls-1" d="M654.59,537.23c-13.71,64.35-82.81,68.52-82.81,68.52-32.79,5.57-51.08-20.55-58.2-34a13.68,13.68,0,0,0-12.42-7.25c-15.93.4-30.39-.35-30.39-.35v36.4h16.1a43,43,0,0,1,19,4.42l24.25,11.93,14.09,21.21a16,16,0,0,0,17.85,6.48c18.07-5.34,54.38-15.45,82.52-19.25,0,0,51.69-14.77,53.28-44.31,1.07-20-3.44-33-6.45-39.32a7.87,7.87,0,0,0-7.1-4.46h-4.39s2.64,30.07-31.75,46.89c0,0,23.54-25.26,16.46-46.89Z"/><path class="cls-1" d="M519.56,636.4s4.75,12.65-7.91,12.65H470.77v44.84s54.07-.53,88.35,13.71c0,0,40.62,13.19,40.09,48,0,0-3.69,23.21-26.9,33.24,0,0-56.44-27.83-101.54-27.83v33.26c19,0,32.25,6.6,48.26,5.11,0,0,26.38-9,46.42-5.27,0,0-11.55,3.74-30.48,17.85A42.18,42.18,0,0,1,516,819.87a310.8,310.8,0,0,1-45.26,3.25V859s38.77,0,75.69-11.61c0,0-9.39-17.21,52.75-62.87l4.22,1.69A38.45,38.45,0,0,0,618.73,759l-4.22-3.93s7.44-23.5,6.38-33.91c0,0,4.32-4.41,27.27,12,0,0,10.13,9.76,14.35-9.23,0,0,6.85-7,32.7-7,0,0,12.66-5.17,7.38-18.88,0,0-10.22-2.11-4.58-11.08,0,0,6.49-4.74,0-14.24,0,0-1.42-2.11,0-6.86s8.8-23.2-4.91-32.7c0,0-19.52-9-22.15,7.91,0,0-1.91,6.11,5.39,13.87a4.66,4.66,0,0,1-1.45,7.49c-2.21,1-4.93,2.26-8.16,4-10,5.28-11.08,14.24,5.8,19a36.61,36.61,0,0,0,4.05,18,136.09,136.09,0,0,0-34.7,15.24S564.4,669.1,493.71,669.1c0,0,50.64,1,43.26-16.35C537,652.75,532.22,644.31,519.56,636.4Z"/><path class="cls-1" d="M640.88,640.62c-8.48-1.56,18.52-.4,9.28,21.22L567,658.55Z"/><path class="cls-1" d="M567,668.15l81.23,2s3.33,19.69-15.66,17.05Z"/><path class="cls-1" d="M584.39,742.42s-6.28,13.18-14.19,21.1c0,0,7.28,6.85,14.19,0C584.39,763.52,587,751.38,584.39,742.42Z"/><path class="cls-1" d="M558.78,757.65c1.52-7.92,2.46-21-7-32.58,0,0-7.8,17.42-21.14,27.57a6.68,6.68,0,0,0,.51,11c3.5,2.12,8.59,3.87,15.83,3.8A12.1,12.1,0,0,0,558.78,757.65Z"/></g></g></svg>