<svg xmlns="http://www.w3.org/2000/svg" viewBox="0 0 929.03 916.57"><defs><style>.cls-1{fill:#fff;}</style></defs><g id="Layer_2" data-name="Layer 2"><g id="_1" data-name="1"><path class="cls-1" d="M485.34,711.67s52.95,9.86,100.28-12.07c0,0,53.8,92.2,134.34,148.16,0,0-101,89.62-287.94,64.3C432,912.06,426,795,485.34,711.67Z"/><path class="cls-1" d="M613.1,689.68S679,796.06,745.44,827.16c0,0,127.18-95.47,168.32-252.93,0,0-123.43-19.8-204.13-18.22C709.63,556,692.22,644.52,613.1,689.68Z"/><path class="cls-1" d="M711.21,525.5s91.78-5.88,210.46,17.86c0,0,44.73-192-86.41-359.21,0,0-113,104.44-179.44,193C655.82,377.2,711.21,424.77,711.21,525.5Z"/><path class="cls-1" d="M816.52,157.25S706.46,253.19,635.25,354.33c0,0-59.35-48.34-142.41-56.25,0,0-30.07-156.66,3-297.08C495.84,1,682.43,10.08,816.52,157.25Z"/><path class="cls-1" d="M461.19,296.5s-69.08-.58-126.64,29.48c0,0-127.74-141.83-120.34-256.35,0,0,93.48-68.63,247-69.63C461.19,0,429.54,158.83,461.19,296.5Z"/><path class="cls-1" d="M185.56,85.45s1,123.83,126.71,252.18c0,0-61.54,38-102.46,93.21,0,0-152.14-67.09-186.95-134.34C24.75,300.15,77.06,165,185.56,85.45Z"/><path class="cls-1" d="M13.36,336.63s73.73,79.55,182.2,116c0,0-38.78,65.87-48.86,136.65,0,0-81.33,0-133.34-8C13.36,581.23-16.7,444.81,13.36,336.63Z"/><path class="cls-1" d="M144.7,620.89s-55.38,0-121.84-6.33c0,0,51.72,123.43,122.93,174.07C145.79,788.63,138.79,699.6,144.7,620.89Z"/><path class="cls-1" d="M663,494.72c0-74-98.86-201.39-286.72-143.39,0,0-222,73.24-185.64,338.35,0,0,30.23,164.83,210.63,215.47,0,0-2.16-122.85,58.38-202.55,0,0-83.37-54.81-17.82-112.37,41.14-26.63,73.21,30.16,43.14,50.54C481.76,670,674.81,670,663,494.72ZM523.06,560.07c-19.36-24.41-61.87-69-133.51-21.23-60.33,40.21-43.73,107.56-25.61,140.47,2.58,4.68-3.63,9.21-7.28,5.3-32.85-35.18-71.7-118,15.48-173.34,89.05-56.53,142.7,5.45,158.29,44.52A4.3,4.3,0,0,1,523.06,560.07Z"/></g></g></svg>