<svg xmlns="http://www.w3.org/2000/svg" viewBox="0 0 827.69 910.98"><defs><style>.cls-1{fill:#fff;}</style></defs><g id="Layer_2" data-name="Layer 2"><g id="_1" data-name="1"><path class="cls-1" d="M744.05,251.26c-15.69-7.76-52.13-25.61-77.9-36.91a35.1,35.1,0,0,1-20.26-24.73c-4-18.77-13.17-49.76-32.77-78.84a66,66,0,0,0-29-23.77c-33.42-14.2-116.71-41.37-264.67-41.36A63.4,63.4,0,0,0,284.73,56c-12.07,7.92-28.8,19.73-43.12,32.91,0,0,21.57,23.74,0,47.48s-46.89-3.17-46.89-3.17c-41.1,36.23-50.49,46.05-43.1,121.85,0,0,191.85-1.12,240.9,13.68,0,0-300.66,35.37-357.62,62.27,0,0-15.83,4.23,0,21.9,0,0-45.87,6.61-32.43-33,7.56-22,34.23-38,88.81-68.64,0,0,4.17-76,15.24-91.78,0,0,99.28-110.19,146.75-140.25,0,0,28.48-22.16,99.69-19,0,0,117.1,1.58,232.62,38,0,0,46.42,9.49,70.81,56,0,0,30.27,53.5,43.12,97.53,0,0,33.73,29.84,48.33,55.45A2.89,2.89,0,0,1,744.05,251.26Z"/><path class="cls-1" d="M306.24,124.94a36.16,36.16,0,1,1-54.53,42.45c0,.22,0,.43,0,.66a44.31,44.31,0,1,0,54.55-43.11Z"/><path class="cls-1" d="M681.71,310.46l4,30.23A6.73,6.73,0,0,1,681,348c-7.76,2.37-24.3,9.83-17.53,19.1,9.49,13,49.91,61.9,49.91,61.9l-15.85-55.74a5.62,5.62,0,0,1,2.56-6.19l5.61-3.37a11.71,11.71,0,0,0,5.68-10V320S698.33,307.81,681.71,310.46Z"/><path class="cls-1" d="M342.33,321.22c-55.89-12.53-109.24,13.23-119.16,57.53s27.32,90.36,83.2,102.88S415.6,468.4,425.53,424.1,398.21,333.74,342.33,321.22ZM352,455.67c-30.08,6.12-100.27-15.45-100.11-61.34.24-65.67,80.54-47.72,80.54-47.72-44.31,3.71-32.39,39-32.39,39s.79,18.78,32.44,33.81,61.67-6.91,61.67-6.91C394.11,450.47,352,455.67,352,455.67Z"/><path class="cls-1" d="M455,385.63s53,50.64,19,89.4-79.91,55.39-79.91,55.39A105.84,105.84,0,0,1,342,526.16a6.63,6.63,0,0,1-3.68-9.39h0a6.63,6.63,0,0,1,6.13-3.47c12.36.56,50.12,0,78.18-24.81C422.59,488.49,462.94,463.17,455,385.63Z"/><path class="cls-1" d="M212.69,502.48,269.89,536s10.28,7.12,11.07,19.78c0,0,38,18.2,15,37.18l-44.31,35.61V611.06a15,15,0,0,0-7.49-13L221.57,585l-53-15.16L152.2,557.63a11.22,11.22,0,0,1-2.1-16c8.39-10.54,27.18-26.57,47-39A15,15,0,0,1,212.69,502.48Z"/><ellipse class="cls-1" cx="192.35" cy="581.06" rx="21.36" ry="26.11" transform="matrix(0.25, -0.97, 0.97, 0.25, -418.45, 620.45)"/><ellipse class="cls-1" cx="183.52" cy="648.83" rx="23.48" ry="28.7" transform="translate(-490.62 662.58) rotate(-75.37)"/><path class="cls-1" d="M336.9,744.56c-29,0-52.45-22.48-52.45-50.21s23.48-50.21,52.45-50.21c28,0,50.85,21,52.37,47.39.05-1.08.09-2.17.09-3.26,0-39.11-33.12-70.82-74-70.82s-74,31.71-74,70.82,33.12,70.81,74,70.81c27.28,0,51.09-14.14,63.92-35.18A53.14,53.14,0,0,1,336.9,744.56Z"/><circle class="cls-1" cx="337.49" cy="693.41" r="36.46"/><ellipse class="cls-1" cx="151.02" cy="789.84" rx="29.32" ry="47.94" transform="translate(-554.73 404.39) rotate(-50.53)"/><path class="cls-1" d="M563,613.08s-30.86,5.47-45.1,19.36c0,0-96.13,142-106.48,229.45-12.2,56.22,21,64.53,51.89,23,38-42.61,77.64-101.33,153.1-161.41,0,0,148.35-115.85,211.25-133.88l-79.45-62.31S566.59,632.44,492.05,749.57C492.05,749.57,520.3,667.78,563,613.08Z"/><path class="cls-1" d="M758.07,718.94c-36,16.12-134.17,64.58-197.56,139a4.39,4.39,0,0,0,4.74,7c21.62-7.39,64-23.87,97.52-49.27l.21-.15c2.9-1.9,65.83-43.46,100.4-90A4.39,4.39,0,0,0,758.07,718.94Z"/><path class="cls-1" d="M108.48,670.46C65.75,649.89,48.35,680,48.35,680s.79-9.5,0-34.82,47.51-32.43,47.51-32.43c-3.16-34,4.92-67.42,4.92-67.42,33.23-41.94,80.95-72,80.95-72-15.82-60.92-54.26-37-54.26-37,13.05-85.46-52.22-83.34-52.22-83.34-35.08-.57-85.45,48.52-54.59,110.63,15,25.72,44.82,29.88,65.27,22.55C23.82,570.77,26.19,623.78,26.19,623.78v55.39C29.1,710.29,43.6,712.4,43.6,712.4l12.66,45.1C62.59,774.11,72.88,771,72.88,771c-12.66-63.3,14.24-68.84,14.24-68.84,40.35,2.38,116.3,84.66,116.3,84.66l13.83-9.08C181.64,708.07,108.48,670.46,108.48,670.46ZM46.57,459.82C28.73,448.66,24,421.39,36,398.89c11.07-20.76,32.53-30.17,49.79-22.72-10.89-.58-22.4,6.34-29,18.66-8.87,16.65-5.36,36.85,7.85,45.11s31.11,1.45,40-15.2a42.54,42.54,0,0,0,2.12-4.62,56.47,56.47,0,0,1-6.16,19.17C88.6,461.78,64.41,471,46.57,459.82Z"/></g></g></svg>