<svg xmlns="http://www.w3.org/2000/svg" viewBox="0 0 951.43 951.43"><defs><style>.cls-1{fill:#fff;}</style></defs><g id="Layer_2" data-name="Layer 2"><g id="_1" data-name="1"><path class="cls-1" d="M475.71,303.89A171.83,171.83,0,1,0,647.54,475.71,171.82,171.82,0,0,0,475.71,303.89Zm0,306.72a134.9,134.9,0,1,1,134.9-134.9A134.89,134.89,0,0,1,475.71,610.61Z"/><path class="cls-1" d="M723.21,472.48a251.67,251.67,0,0,1-8.41,64.67L838.11,596a388.91,388.91,0,0,0,3.82-235L717.76,420.21A252.76,252.76,0,0,1,723.21,472.48Z"/><path class="cls-1" d="M662.7,636.17a251.14,251.14,0,0,1-191.22,88c-139,0-251.74-112.71-251.74-251.73S332.45,220.75,471.48,220.75a251.29,251.29,0,0,1,199.32,98l123.72-59c-69.19-104.84-188-174-323-174C257.86,85.7,84.7,258.87,84.7,472.48S257.86,859.25,471.48,859.25c130.48,0,245.86-64.61,315.91-163.59Z"/><path class="cls-1" d="M475.71,0C213,0,0,213,0,475.71S213,951.43,475.71,951.43s475.72-213,475.72-475.72S738.44,0,475.71,0Zm0,917C232,917,34.42,719.44,34.42,475.71S232,34.42,475.71,34.42,917,232,917,475.71,719.44,917,475.71,917Z"/></g></g></svg>