<svg xmlns="http://www.w3.org/2000/svg" viewBox="0 0 980.84 784.49"><defs><style>.cls-1{fill:#fff;}</style></defs><g id="Layer_2" data-name="Layer 2"><g id="_1" data-name="1"><path class="cls-1" d="M23,167.34S155.08,55,547.89,10.85c0,0,168.69-21.46,273.91-4a47.28,47.28,0,0,1,26.31,13.88l26.18,30.2S841.05,218,956.57,341.77c0,0,5.54,19.42-25,21,0,0-25.62-1.58-22.45,18.08,0,0-36.61-47.19-61.92-107.85,0,0-99.49-22.58-189.27-86.67,0,0-175.27-39.56-435.58,124.22,0,0-148,6.33-166.15-4.75,0,0-33.23-14.24-56.18-34,0,0,99.69.79,174.72-16.25,0,0,83.75-18.93,89.29-46.63,0,0,167.57-85,296.54-87.4,0,0,75.58-8.75,124.64,5.49,0,0,73.58,106.81,156.66,132.13,0,0-25.32-67.39-18.2-163,0,0-38.88-41.93-284.5-20.57,0,0-15.37-14.24-75.5-6.54C463.65,69,209.67,99.3,23,167.34Z"/><path class="cls-1" d="M894.88,39.17c5.33,70.36,7.1,185.93,85.47,269,0,0,3.91,10.28-10.33,13.45C928.09,284.44,872.7,184,894.88,39.17Z"/><path class="cls-1" d="M363.16,119.87s-211.25,21.36-337,77.54c0,0-16.62,12.66-26.11,31.65,0,0,152.7-64.88,363.16-103.65Z"/><path class="cls-1" d="M379.6,267.83s-94.76,26.95-97.14,57,65.67,28,65.67,28C304.62,334.29,314.11,305.8,379.6,267.83Z"/><path class="cls-1" d="M724.38,278.4A14.86,14.86,0,0,1,730,296.08c-29.56,76.25-118.44,77-118.44,77-112.26.68-134.12-76.42-129.17-120.72,3.37-21.63,42.93-21.58,42.93-21.58a63.37,63.37,0,0,0,7.75,37s-23.3,7.59-15.45,33.56c11.08,36.65,88.75,65.71,139.83,36.06,0,0,14.25-9.91.8-27.11,0,0,26.31-14.68,36.6-47.29C694.89,263.05,711.47,269.8,724.38,278.4Z"/><path class="cls-1" d="M543.56,229.06s-4,58.13,64.63,68.62c0,0,52.47,7.33,68.29-46.47,0,0-15.73-10.5-26.41-17.73a35.76,35.76,0,0,0-18.1-6.07C614.82,226.48,579.69,226.19,543.56,229.06Z"/><path class="cls-1" d="M690.1,505.19l-2.54-26.9s-43.78,65.67-93.36,110l-1.58,31.21c-31.53,27.3-142.2,111.92-202.8,140.06a27.58,27.58,0,0,1-22.13.5A114.49,114.49,0,0,1,331,735.43l14.76-15-33.23-.79L282.4,686.38s146.85-23.53,221.6-81.5c77.54-60.13,135.3-144,135.3-144s-55.39,17.41-165.37,2.38l-10.11,9.54a17.08,17.08,0,0,1-9.94,4.59c-21.85,2.33-100.14,8.5-146.1-16.51a165.39,165.39,0,0,0-56.18-15.82s41.15-7.12,83.08.79c0,0-63.88-18-102.65-46.47,0,0-70.62-19.2-163.19-10.5,0,0-15.83-11.87-25.32-30.06,0,0,165-3.63,214.72.38a39.47,39.47,0,0,1,14.68,4.16c23.6,12,119.31,53.7,302.29,49.63,86.24-5.08,166.94-27.4,240.53-96.9,0,0,25.31,41.69,38.77,69.5,0,0-75.33,27.09-105.4,44.07-7,4.32-8.72,10.18-8.54,26.47V733.06s.38,44.31-8.33,51.43c0,0-14.7-13-45.12-16.21a14.72,14.72,0,0,1-12.6-19.09c6.4-20,15.41-32.43,15.41-73.1V531.3s-34,39.56-67.25,72l.17,32.27C601.15,660,484,749.07,436,779a128,128,0,0,1-21.37-2.38c49.85-30.06,171.05-121,194.82-147.41l.59-32.07S663.3,541.32,690.1,505.19Z"/><path class="cls-1" d="M862,403.64s-60.42,19.78-100.3,40.19a9.88,9.88,0,0,0-5.39,8.71c-.32,41.94-2.13,293.51,0,305.84,2.37,13.45,13.65,10.26,13.65,10.26l-1-310.48a4.16,4.16,0,0,1,2.29-3.73c9.17-4.66,44.48-22.08,80.44-33.08a6.61,6.61,0,0,1,5.2.59l1.89,1.09a6.51,6.51,0,0,0,7.41-.67h0a6.5,6.5,0,0,0,1.53-8.07Z"/></g></g></svg>