<svg xmlns="http://www.w3.org/2000/svg" viewBox="0 0 922.09 868.48"><defs><style>.cls-1{fill:#fff;}</style></defs><g id="Layer_2" data-name="Layer 2"><g id="_1" data-name="1"><path class="cls-1" d="M133.48,379V138.61h87.83V0H0V519.33H112.12c-1,44.75,0,151,0,151,45.1,11.86,216,39.16,216,39.16V841.21L397,858V718.59L433.75,722V865.48l27.29,3V379ZM329.87,629.39,188.64,615.15V519.58H329.87Z"/><path class="cls-1" d="M788.6,379V138.61H700.78V0H922.09V519.33H810c1,44.75,0,151,0,151-45.1,11.86-216,39.16-216,39.16V841.21L525.13,858V718.59L488.34,722V865.48l-27.3,3V379ZM592.22,629.39l141.23-14.24V519.58H592.22Z"/></g></g></svg>