<svg xmlns="http://www.w3.org/2000/svg" viewBox="0 0 669.36 922.7"><defs><style>.cls-1{fill:#fff;}</style></defs><g id="Layer_2" data-name="Layer 2"><g id="_1" data-name="1"><path class="cls-1" d="M77.54,144.66V217.9A13.06,13.06,0,0,0,88,230.69c26.87,5.54,98.45,18.26,126.47,3,31.4-17.13,58.94-48.11,58.94-78.52v-28.5A12.8,12.8,0,0,0,260,113.86c-29.11,1.38-101,5.51-169,15.23A15.71,15.71,0,0,0,77.54,144.66Z"/><path class="cls-1" d="M94.32,105.8s66.35-8.73,115.35-12.08v-49s-.53-30.59-31.12-27.95-62.46,9-62.46,9S93.63,28.37,93.63,56.86Z"/><path class="cls-1" d="M430.27,184.73A29.76,29.76,0,0,0,461.8,155V39.45s0-18.46-28.12-28C411.37,4,388.52,6.75,388.52,6.75s-24.47-.51-24.47,31.06l.55,113a32,32,0,0,0,30.07,31.76Z"/><path class="cls-1" d="M536.73,192.65a26.61,26.61,0,0,0,28.2-26.57V66.75s0-16.51-25.15-25C519.83,35,499.39,37.5,499.39,37.5s-21.87-.45-21.87,27.78l.49,97.06a28.59,28.59,0,0,0,26.89,28.4Z"/><path class="cls-1" d="M276.13,93.25c26.35,1.15,24.27,31.12,24.27,31.12l1.58,56c45.89,0,43.78-32.45,43.78-32.45V29.43c0-29.54-32.71-29-32.71-29s-19-2.11-51.69,3.16-30.59,39-30.59,39V93.25S251.87,92.2,276.13,93.25Z"/><path class="cls-1" d="M236.63,249.91s22.1-14.24,30.53-25.32c0,0,.53,11.08,31.13,12.66,0,0,38.5,2.64,53.27-21.1,0,0,14.77,18.46,52.75,19.52,0,0,40.61,5.8,62.24-19.52,0,0,14.24,31.07,62.24,29v4.8s-129.17,6.39-292.16,3.75Z"/><path class="cls-1" d="M443.34,268.37s-144,5.28-184.09,3.17l49,33.62a19.65,19.65,0,0,0,17.33,2.43Z"/><path class="cls-1" d="M94,260A14.83,14.83,0,0,0,77.54,274.7v40.62s-1.32,28.37,25,60l42.51,44.84s20.26,18,22.37,43.89c2.29,28,30.6,9.49,30.6,9.49l101.27-62.77S325.19,395,317.8,371.23l-9-22.68s-4.75-18.46-26.91-33.23l-48-35.34a61.85,61.85,0,0,0-35.75-13.72C180.83,265.42,123.92,263.24,94,260Z"/><path class="cls-1" d="M516.13,433.47c-14.51,25.26-11.08,25.85-11.08,42.2,0,21.18-36.92,0-36.92,0-24.79-13.71-90.22-69.4-90.22-69.4-24.24-20.27-30-36.55-30-36.55l-8.54-26.33a16.66,16.66,0,0,1,10.8-21l178.66-56.64v116S530.37,408.68,516.13,433.47Z"/><path class="cls-1" d="M324.74,482A16.26,16.26,0,0,1,341,465.73v-52.3s-86,50.11-127.76,84.39c-3.85,3.16-7.35,6.72-8.33,11.61-3.73,18.59-30.59,91.91-69.37,120.36-4.5,3.3-4.7,9.59-.84,13.62,5.14,5.34,18.26,15.29,26.07,19.51H341V639.11a16.28,16.28,0,0,1,0-32.55V498.27A16.26,16.26,0,0,1,324.74,482Z"/><path class="cls-1" d="M540.78,620C502,591.56,488,543.63,484.22,525a17.4,17.4,0,0,0-8.33-11.61c-54.95-31.69-134.88-100-134.88-100v52.3a16.27,16.27,0,0,1,0,32.54V606.56a16.28,16.28,0,0,1,0,32.55v23.81H507.64c9.65-7.23,24.7-20.77,34-29.29A8.81,8.81,0,0,0,540.78,620Z"/><path class="cls-1" d="M194.37,688.77H475L442.73,713H227.08A254.45,254.45,0,0,1,194.37,688.77Z"/><path class="cls-1" d="M82.29,645.78l252.39,197V922.7L0,662.92S50.64,662.39,82.29,645.78Z"/><path class="cls-1" d="M263.47,743.1h71.21v52.84S286.42,762.09,263.47,743.1Z"/><path class="cls-1" d="M587.08,645.78l-252.4,197V922.7L669.36,662.92S618.73,662.39,587.08,645.78Z"/><path class="cls-1" d="M405.89,743.1H334.68v52.84S383,762.09,405.89,743.1Z"/></g></g></svg>