<svg xmlns="http://www.w3.org/2000/svg" viewBox="0 0 959.68 506.38"><defs><style>.cls-1{fill:#fff;}</style></defs><g id="Layer_2" data-name="Layer 2"><g id="_1" data-name="1"><path class="cls-1" d="M256.32,159.44c-25.71,101.27,45.5,115.91,94.95,127.78l-26.53,42.12c-6,9.91-1.41,16.5,1.4,19.28a2.32,2.32,0,0,0,3.29,0l65.36-66.51c8.5-8.11-7.92-12.27-7.92-12.27l-22.94-7.12c-82.63-24.15-52.62-84.26-52.62-84.26,5.54-13.72,20.18-12.66,20.18-12.66,28.66,1.52,54.17-.25,66.62-2.55a12.58,12.58,0,0,0,8.16-5.3l36.24-53.36a4,4,0,0,0-3.15-6.2C366.26,96.15,255.93,73.2,255.93,73.2,214.32,64,42,11.48,5,.18a3.86,3.86,0,0,0-4.76,5C5,18.32,18,46.84,47.31,67.13,86.61,94.29,190.65,139.26,256.32,159.44Z"/><path class="cls-1" d="M6.19,85.91c23.94,10.2,153.54,65.13,217.3,87-1.89,15.62-3.36,37.19,0,51.45,0,0-124.22-37.61-154.68-61,0,0-57.18-35.41-65.74-74.89A2.29,2.29,0,0,1,6.19,85.91Z"/><path class="cls-1" d="M41.07,180.54a1.69,1.69,0,0,0-1.87,2.64c15.9,20.75,38.71,41.14,38.71,41.14,16.61,15,42.75,16.61,42.75,16.61l109.55,4-2.56-5.54S102.83,201.19,41.07,180.54Z"/><path class="cls-1" d="M239.13,258.34s-65.71,5.3-127.83,4.05a1.29,1.29,0,0,0-.77,2.35c6.56,4.55,22.55,14.6,46.5,22.87,9.69,2.77,28.88,4.55,45.1-2.77,0,0,31.25-15,40.74-22.34Z"/><path class="cls-1" d="M253.55,271l9,6.27L247,300.54s-6,9.52-16.75,10.55c0,0-20.17,1.79-37.84,1.31C192.37,312.4,243.27,279.17,253.55,271Z"/><path class="cls-1" d="M297.66,291.74s-1.38,44.14.8,45.52c0,0,22.94-32.64,25.51-38C324,299.28,302.61,293.5,297.66,291.74Z"/><path class="cls-1" d="M273.93,282.46l11.47,4.75s-1.78,20.67-3,25.27-6.72,7.57-6.72,7.57c-4.88,3.17-16.35,7.26-25.32,8.11C250.39,328.16,270.37,291.36,273.93,282.46Z"/><path class="cls-1" d="M405.07,291.74s6.12,28.26,9.1,36.42l-61.71,58s-21.84,21.36-55.23,18.2Z"/><path class="cls-1" d="M419.54,340.46s9,22.07,12,30.23l-49.27,45.89s-22.34,21-56.05,14.24Z"/><path class="cls-1" d="M437.71,384.33s10.09,17.8,15.23,25.64L429,432.91s-22.34,21-56.05,14.25Z"/><path class="cls-1" d="M462.83,423.31s10.29,12.26,17,17v66.06L443.2,475.53s-17.16-13.85,0-32.44Z"/><path class="cls-1" d="M479.84,332.71V224.34s-52.61,4.72-61.71,7.89c0,0-8.31.39-7.92,7.52v18.59s.81,19,21.38,26.9,33.62,14.64,23.73,20.07A31.27,31.27,0,0,1,443.2,307c-2.86-.17-5.69,3-.94,8.31C447.26,320.94,460.88,327.16,479.84,332.71Z"/><path class="cls-1" d="M703.36,159.44c25.71,101.27-45.5,115.91-95,127.78l26.53,42.12c6,9.91,1.41,16.5-1.4,19.28a2.32,2.32,0,0,1-3.29,0L564.9,282.08c-8.51-8.11,7.91-12.27,7.91-12.27l22.94-7.12c82.63-24.15,52.62-84.26,52.62-84.26-5.54-13.72-20.18-12.66-20.18-12.66-28.66,1.52-54.17-.25-66.62-2.55a12.58,12.58,0,0,1-8.16-5.3l-36.23-53.36a4,4,0,0,1,3.14-6.2c73.1-2.21,183.43-25.16,183.43-25.16,41.61-9.17,214-61.72,250.94-73a3.86,3.86,0,0,1,4.76,5c-4.72,13.14-17.74,41.66-47.08,62C873.07,94.29,769,139.26,703.36,159.44Z"/><path class="cls-1" d="M953.49,85.91c-23.94,10.2-153.54,65.13-217.3,87,1.89,15.62,3.36,37.19,0,51.45,0,0,124.22-37.61,154.68-61,0,0,57.18-35.41,65.74-74.89A2.29,2.29,0,0,0,953.49,85.91Z"/><path class="cls-1" d="M918.61,180.54a1.69,1.69,0,0,1,1.87,2.64c-15.9,20.75-38.71,41.14-38.71,41.14-16.61,15-42.75,16.61-42.75,16.61l-109.55,4,2.56-5.54S856.85,201.19,918.61,180.54Z"/><path class="cls-1" d="M720.55,258.34s65.71,5.3,127.83,4.05a1.29,1.29,0,0,1,.77,2.35c-6.56,4.55-22.55,14.6-46.5,22.87-9.69,2.77-28.88,4.55-45.1-2.77,0,0-31.25-15-40.74-22.34Z"/><path class="cls-1" d="M706.13,271l-9,6.27,15.56,23.27s6,9.52,16.75,10.55c0,0,20.17,1.79,37.84,1.31C767.31,312.4,716.41,279.17,706.13,271Z"/><path class="cls-1" d="M662,291.74s1.38,44.14-.79,45.52c0,0-23-32.64-25.52-38C635.71,299.28,657.07,293.5,662,291.74Z"/><path class="cls-1" d="M685.75,282.46l-11.47,4.75s1.78,20.67,3,25.27,6.72,7.57,6.72,7.57c4.88,3.17,16.35,7.26,25.32,8.11C709.29,328.16,689.31,291.36,685.75,282.46Z"/><path class="cls-1" d="M554.61,291.74s-6.12,28.26-9.1,36.42l61.72,58s21.83,21.36,55.22,18.2Z"/><path class="cls-1" d="M540.14,340.46s-9,22.07-12,30.23l49.27,45.89s22.34,21,56,14.24Z"/><path class="cls-1" d="M522,384.33s-10.09,17.8-15.23,25.64l24,22.94s22.34,21,56,14.25Z"/><path class="cls-1" d="M496.85,423.31s-10.28,12.26-17,17v66.06l36.64-30.85s17.16-13.85,0-32.44Z"/><path class="cls-1" d="M479.84,332.71V224.34s52.62,4.72,61.71,7.89c0,0,8.31.39,7.92,7.52v18.59s-.8,19-21.38,26.9-33.62,14.64-23.73,20.07A31.27,31.27,0,0,0,516.48,307c2.86-.17,5.69,3,.94,8.31C512.42,320.94,498.8,327.16,479.84,332.71Z"/></g></g></svg>