<svg xmlns="http://www.w3.org/2000/svg" viewBox="0 0 768 947.48"><defs><style>.cls-1{fill:#fff;}</style></defs><g id="Layer_2" data-name="Layer 2"><g id="_1" data-name="1"><path class="cls-1" d="M344.32,47.64l-8.76-14.36a10.36,10.36,0,0,1-1-8.87C337.63,15.88,348.11,0,384,0V25.52s-34,.21-35.66,21.28A2.17,2.17,0,0,1,344.32,47.64Z"/><path class="cls-1" d="M384,38s-25-2.39-25,20.57v47.85s.87,36.79-4.27,60.92c0,0-4.75,15.43-4.75,86.29H375.3V172.31s0-13.45,8.7-13.45V128.78s-4.95.2-4.95-9.69l.2-50.64s-.2-7.91,4.75-7.91Z"/><path class="cls-1" d="M311,352s20.09-7.39,57.54,20.57V806.65S365.41,841.46,384,851v96.52s-60.92-48-60.92-144V383.09S323.08,358.3,311,352Z"/><path class="cls-1" d="M311,403.66v49s-105,12.14-146.11-38.5c0,0-8.44-10.55-12.14,2.64l-38,92.3S102.59,539.5,62,537.52a95.3,95.3,0,0,0,22.68-31L134.77,385.2s3.43-8.71,15.82-12.66c0,0,19-7.65,21.63,3.95,0,0,6.07,29.28,49.85,40.09C222.07,416.58,265.85,425.55,311,403.66Z"/><path class="cls-1" d="M311,477v48.4s-3.7,38.63-36.4,39.69Z"/><path class="cls-1" d="M161.2,432.69s10,10.79,21.83,16.54l-27.48,67.84s-9.7,23.34-39,23.34Z"/><path class="cls-1" d="M195.69,454.82a253.08,253.08,0,0,0,26.64,9.55L195.85,529.2s-10.71,23.34-40,23.34Z"/><path class="cls-1" d="M235.54,467s13.58,1.85,28.2,2.67l-25.75,65s-10.41,22.69-38.87,22.69Z"/><path class="cls-1" d="M276.4,470.44s11.6.47,24,0L273.92,538s-10.18,24.34-35,24.34Z"/><path class="cls-1" d="M87.48,548.71A85.86,85.86,0,0,0,102.54,543l-6,18.51a100.75,100.75,0,0,0,18.95-2.22L50.64,710.65S37.19,742.3,0,739.66A149.75,149.75,0,0,0,20.53,708Z"/><path class="cls-1" d="M174.25,563.12a86.44,86.44,0,0,0,15.06-5.75l-6,18.52a100.75,100.75,0,0,0,18.95-2.22L140.52,725.58s-16,34.12-51.64,39.4a369.48,369.48,0,0,0,20.53-41.09Z"/><path class="cls-1" d="M216,570.3a78.53,78.53,0,0,0,13.72-5.23l-4.49,15.87a91.6,91.6,0,0,0,17.27-2L188.29,718.35s-13.43,33.91-45.87,38.72c0,0,8.65-19.39,17.52-40.26Z"/><path class="cls-1" d="M256.56,576.37a72.71,72.71,0,0,0,12.64-4.9l-4.08,12.82a84.76,84.76,0,0,0,15.93-1.95l-49.33,130.8s-12.21,31.37-42.13,36c0,0,7.88-17.93,16-37.24Z"/><path class="cls-1" d="M130,557.29A86.2,86.2,0,0,0,145,551.54l-6,18.51a100.26,100.26,0,0,0,18.95-2.21l-69,167.31s-13.45,34.58-50.64,31.94a180.82,180.82,0,0,0,20.53-34.63Z"/><path class="cls-1" d="M294.07,579.84A65.64,65.64,0,0,0,311,567.24v51.89s-10.65,37.19-28.42,73.58c0,0-17.2,34.29-42.78,43.26Z"/><path class="cls-1" d="M384,265s-62-.31-118.95,11c0,0-13.18,5.28-31.12-2.64,0,0-13.71-5.8-25.84.53,0,0-21.1,11.61-30.6,24.26,0,0-9.49,10.55,0,25.32l27.43,49.06s-3.16-30.07,12.66-38.56c0,0,47.47-26.32,72.79-5.75,0,0,8.5,11.08,30.12,10,0,0,35.82-1.05,63.51,31.65V347.75l-33.23-33.23L384,281.29Zm-64.27,49.74a12.66,12.66,0,1,1,12.65-12.66A12.66,12.66,0,0,1,319.73,314.73Z"/><path class="cls-1" d="M423.68,47.64l8.76-14.36a10.36,10.36,0,0,0,1-8.87C430.37,15.88,419.89,0,384,0V25.52s34,.21,35.66,21.28A2.17,2.17,0,0,0,423.68,47.64Z"/><path class="cls-1" d="M384,38s25-2.39,25,20.57v47.85s-.87,36.79,4.27,60.92c0,0,4.75,15.43,4.75,86.29H392.7V172.31s0-13.45-8.7-13.45V128.78s4.95.2,4.95-9.69l-.2-50.64s.2-7.91-4.75-7.91Z"/><path class="cls-1" d="M457.05,352s-20.09-7.39-57.54,20.57V806.65S402.59,841.46,384,851v96.52s60.92-48,60.92-144V383.09S444.92,358.3,457.05,352Z"/><path class="cls-1" d="M457.05,403.66v49s105,12.14,146.11-38.5c0,0,8.44-10.55,12.14,2.64l38,92.3S665.41,539.5,706,537.52a95.3,95.3,0,0,1-22.68-31L633.23,385.2s-3.43-8.71-15.82-12.66c0,0-19-7.65-21.63,3.95,0,0-6.07,29.28-49.85,40.09C545.93,416.58,502.15,425.55,457.05,403.66Z"/><path class="cls-1" d="M457.05,477v48.4s3.7,38.63,36.4,39.69Z"/><path class="cls-1" d="M606.8,432.69s-10,10.79-21.83,16.54l27.48,67.84s9.7,23.34,39,23.34Z"/><path class="cls-1" d="M572.31,454.82a253.08,253.08,0,0,1-26.64,9.55l26.48,64.83s10.71,23.34,40,23.34Z"/><path class="cls-1" d="M532.46,467s-13.58,1.85-28.2,2.67l25.75,65s10.41,22.69,38.87,22.69Z"/><path class="cls-1" d="M491.6,470.44s-11.6.47-24,0L494.08,538s10.18,24.34,35,24.34Z"/><path class="cls-1" d="M680.52,548.71A85.86,85.86,0,0,1,665.46,543l6,18.51a100.75,100.75,0,0,1-19-2.22l64.82,151.39s13.45,31.65,50.64,29A149.75,149.75,0,0,1,747.47,708Z"/><path class="cls-1" d="M593.75,563.12a86.44,86.44,0,0,1-15.06-5.75l6,18.52a100.75,100.75,0,0,1-19-2.22l61.71,151.91s16,34.12,51.64,39.4a369.48,369.48,0,0,1-20.53-41.09Z"/><path class="cls-1" d="M552,570.3a78.53,78.53,0,0,1-13.72-5.23l4.49,15.87a91.6,91.6,0,0,1-17.27-2l54.24,139.43s13.43,33.91,45.87,38.72c0,0-8.65-19.39-17.52-40.26Z"/><path class="cls-1" d="M511.44,576.37a72.71,72.71,0,0,1-12.64-4.9l4.08,12.82A84.76,84.76,0,0,1,487,582.34l49.33,130.8s12.21,31.37,42.13,36c0,0-7.88-17.93-16-37.24Z"/><path class="cls-1" d="M638.05,557.29a86.2,86.2,0,0,1-15-5.75l6,18.51a100.26,100.26,0,0,1-18.95-2.21l69,167.31s13.45,34.58,50.64,31.94a180.82,180.82,0,0,1-20.53-34.63Z"/><path class="cls-1" d="M473.93,579.84a65.64,65.64,0,0,1-16.88-12.6v51.89s10.65,37.19,28.42,73.58c0,0,17.2,34.29,42.78,43.26Z"/><path class="cls-1" d="M384,281.29l33.23,33.23L384,347.75V369.9c27.69-32.7,63.51-31.65,63.51-31.65,21.62,1.06,30.12-10,30.12-10C503,307.66,550.42,334,550.42,334c15.82,8.49,12.66,38.56,12.66,38.56l27.43-49.06c9.49-14.77,0-25.32,0-25.32-9.5-12.65-30.6-24.26-30.6-24.26-12.13-6.33-25.84-.53-25.84-.53C516.13,281.29,503,276,503,276,446,264.68,384,265,384,265Zm51.62,20.78a12.66,12.66,0,1,1,12.65,12.66A12.65,12.65,0,0,1,435.62,302.07Z"/></g></g></svg>