<svg xmlns="http://www.w3.org/2000/svg" viewBox="0 0 913.1 913.1"><defs><style>.cls-1{fill:#fff;}</style></defs><g id="Layer_2" data-name="Layer 2"><g id="_1" data-name="1"><path class="cls-1" d="M456.55,0C204.4,0,0,204.4,0,456.55S204.4,913.1,456.55,913.1,913.1,708.69,913.1,456.55,708.69,0,456.55,0Zm0,892.52c-240.78,0-436-195.19-436-436s195.19-436,436-436,436,195.19,436,436S697.33,892.52,456.55,892.52Z"/><path class="cls-1" d="M496.33,643.59s115.75-35.78,173.11-32.45c32.31-.22,60.12,17.28,50.79,46.43-13,33.91-46.13,53.6-74.63,49.63-20.1-2.8-20-20.39-20-20.39s7.48,6.51,20.73-2.42c16.41-11,9.46-24,9.46-24-8.81-9.33-23.63,1.76-23.63,1.76-43.53,32.48,5.7,85.34,64.42,54.79,21.3,17.18,53,16.58,72,14.23q-10.86,12.51-22.71,24.1c-122.62-12.83-208.48,6.21-254.77,17,0,0-74,19.61-137,21.61,0,0-86.26,4.37-149.42-6.14a416.09,416.09,0,0,1-62.95-60c66.33,6,132.5-21,213.89-43.79Z"/><path class="cls-1" d="M355.34,860.6C309,848.75,264.4,829.06,225.8,803c24.09,5.43,64,11.12,128.52,12.88,0,0,56.52,3,135.72-18.9,77.67-19.86,192.23-22.11,229.19-18.63-16.41,14.43-38.33,29.27-53.15,38-80,.85-132.23,5.88-175,18C491,834.43,430.45,853.33,355.34,860.6Z"/><path class="cls-1" d="M492.39,871.63c40.05-3.7,81.07-13.1,117-27.41-29.33-.94-64.46-3.3-117.78,6.57,0,0-60.23,15.69-110.68,15.69C380.91,866.48,437.81,876.08,492.39,871.63Z"/><path class="cls-1" d="M594.75,71S529,47,453.66,47.28C226.85,48.83,43.46,233.15,43.46,460.33A411.2,411.2,0,0,0,120.93,701.2c116.22-2.13,235.46-31,235.46-31,69.66-15.21,141.25-39.72,141.25-39.72C541.52,616.67,616.23,587,685,595.1c47.16,5.16,101.07,44,29,110.37,0,0,.92,18.93,68.32,8.87a411.36,411.36,0,0,0,87.31-254C869.64,280.66,754.92,127.81,594.75,71ZM282.94,253.35c2.63-16.88,5.8-21.1,5.8-21.1s1.58-13.18,26.9-4.75c0,0,13.09,7.56,103.71,5.94a6.65,6.65,0,0,0,6.53-6.65V184.25s-19.51-8.44-15.82-22.68c0,0,.39-10.63,14.45-15.23a23.79,23.79,0,0,0,12.07-9c5.22-7.41,14.76-17.2,26.75-12.74,0,0,13.19,1.27,13.19,16.35v86.68a5,5,0,0,0,5.07,5c22.44-.5,113.21-1.61,149.48,11.87,0,0-16.62,5.93-40.35,8.3S567,263.5,567,263.5l22.55,8.31H574.1s14.24,4.75,23.74,10.68H565.79a28.57,28.57,0,0,0,5.62,10.84s-31.73-9.25-92.88-8.07a6,6,0,0,0-5.71,5.12c-3.58,22.6-22.34,118.54-88.61,166.17a141.49,141.49,0,0,0-16.4,10.37s-17.36-3.92-12.08-10.37c0,0-11.08-9.09-33.76,5.68-18.46,13.19-37.45,8.68-12.66-12.13,0,0,92.84-61.19,113.93-152.44,0,0,3.7-13.72-11.6-13.72,0,0-71.74-4.74-94.42,30.6,0,0-8.44-2.64-9-14.77l7.38-3.17-9.08-4.54a9.52,9.52,0,0,1-5.21-7.46l-.55-5a6.7,6.7,0,0,0-4-5.43C291.13,271.78,281,265.65,282.94,253.35Zm314.63,218c-29,.95-113-2.06-136.87-89.08,0,0,11.6-21.18,16.87-44.92,24.66,44.92,76.77,94.57,121.93,127.79A3.45,3.45,0,0,1,597.57,471.36ZM499.71,602.65s-68.13,22.66-141.46,32.61c-73.87,8.94-142.23,8-142.23,8s79.47-10,142.72-23.48c72.84-14.47,142.77-40.39,142.77-40.39,73.21-24.35,178.3-75.32,254,1.8C686.5,554.12,633.43,551,499.71,602.65Z"/></g></g></svg>