<svg xmlns="http://www.w3.org/2000/svg" viewBox="0 0 972.86 972.86"><defs><style>.cls-1{fill:#fff;}</style></defs><g id="Layer_2" data-name="Layer 2"><g id="_1" data-name="1"><path class="cls-1" d="M486.43,0C217.78,0,0,217.78,0,486.43S217.78,972.86,486.43,972.86,972.86,755.08,972.86,486.43,755.08,0,486.43,0Zm0,912.22c-236.26,0-427.79-191.53-427.79-427.79S250.17,56.64,486.43,56.64,914.22,248.17,914.22,484.43,722.69,912.22,486.43,912.22Z"/><path class="cls-1" d="M486.43,262.52c-123.66,0-223.91,100.25-223.91,223.91S362.77,710.34,486.43,710.34,710.34,610.1,710.34,486.43,610.1,262.52,486.43,262.52Zm0,401.8A178.81,178.81,0,1,1,665.25,485.51,178.81,178.81,0,0,1,486.43,664.32Z"/><path class="cls-1" d="M486.43,56.64c-25.32,110-50.24,218.59-50.24,218.59l40.35-6.15,9.89-34.61,9.89,34.61,40.35,6.15S511.75,166.59,486.43,56.64Z"/><path class="cls-1" d="M58.9,484.18c109.94,25.32,218.59,50.24,218.59,50.24l-6.15-40.35-34.61-9.89,34.61-9.89,6.15-40.35S168.84,458.86,58.9,484.18Z"/><path class="cls-1" d="M914,484.18C804,458.86,695.38,433.94,695.38,433.94l6.14,40.35,34.62,9.89-34.62,9.89-6.14,40.35S804,509.5,914,484.18Z"/><path class="cls-1" d="M753.86,542.93,745,545.3c-22.87,98.2-94.25,173.47-192.51,196.18v6.61H753.86Z"/><path class="cls-1" d="M552.45,756.47c0,35.89.11,72.63.11,112.21A403.92,403.92,0,0,0,762.17,756.47Z"/><path class="cls-1" d="M762.3,756.33c63-63.81,104.14-148.62,109.79-243.12-39.43,9.89-76.75,18.91-109.79,27.51Z"/><path class="cls-1" d="M762.3,430.1c33,8.59,70.27,17.6,109.64,27.48A384,384,0,0,0,762.3,214.76Z"/><path class="cls-1" d="M544.93,221.69c.4,1.48.8,3,1.19,4.44A265.85,265.85,0,0,1,745.24,425.6l8.62,2.29V221.69Z"/><path class="cls-1" d="M760.88,213.3A384.12,384.12,0,0,0,514.51,100.87c10.17,40.52,19.39,78.78,28.21,112.43Z"/><path class="cls-1" d="M217.92,542.93c3,.79,6,1.59,8.9,2.37,22.88,98.2,94.26,173.47,192.52,196.18v6.61H217.92Z"/><path class="cls-1" d="M419.33,756.47c0,35.89-.11,72.63-.11,112.21a403.86,403.86,0,0,1-209.6-112.21Z"/><path class="cls-1" d="M209.49,756.33c-63-63.81-104.14-148.62-109.79-243.12,39.43,9.89,76.74,18.91,109.79,27.51Z"/><path class="cls-1" d="M209.49,430.1c-33,8.59-70.27,17.6-109.65,27.48A384,384,0,0,1,209.49,214.76Z"/><path class="cls-1" d="M426.85,221.69c-.39,1.48-.79,3-1.18,4.44A265.82,265.82,0,0,0,226.55,425.6l-8.63,2.29V221.69Z"/><path class="cls-1" d="M210.91,213.3A384.1,384.1,0,0,1,457.28,100.87c-10.18,40.52-19.4,78.78-28.21,112.43Z"/><rect class="cls-1" x="436.19" y="696.34" width="44.1" height="226.68"/><rect class="cls-1" x="492.46" y="696.34" width="44.1" height="226.68"/></g></g></svg>