<svg xmlns="http://www.w3.org/2000/svg" viewBox="0 0 948.75 880.88"><defs><style>.cls-1{fill:#fff;}</style></defs><g id="Layer_2" data-name="Layer 2"><g id="_1" data-name="1"><path class="cls-1" d="M298.37,437c10.86,7.07,24.84,19.89,35.62,42.5,0,0-32.73-4.44-47-32.06C283.23,440.11,291.5,432.48,298.37,437Z"/><path class="cls-1" d="M378.18,674.93c-95.05-15-107.28-57-107.28-57-2.37-11.07,15.15-24.52,15.15-24.52,10.4-7.92,7.8-20.57,7.8-20.57-8.2-18.21-24.77-33.27-37.37-42.79a47.59,47.59,0,0,1-18.66-33.26l-1.73-17.34C234.51,462,244,452.57,244,452.57,263.78,440.7,258.24,413,258.24,413h8.34a49.9,49.9,0,0,1,.37,22.61c-3.17,28.94,15,38,15,38C297,481.2,318.16,493,318.16,493c49.06,32.7,74.63-46.71,74.63-46.71s33.19,43.45,30,68c0,0,31-25.32,52.39-27.7v57.76s-22.65,9.08-34.52,31.23c0,0,20.44-19.36,34.52-19.36v21.2s-8.87.16-14.41-3c0,0-12.66,4.75-19,15,0,0-22.15-10.28-31.65,20.57,0,0-6.33,11.87-16.61,14.24a147.57,147.57,0,0,0-21.48,4.63,22.51,22.51,0,0,1-16.28-1.49c-4-2-8.75-4.47-13.08-7.12a16.33,16.33,0,0,1-7.8-13.67S331,587.47,311.65,574c-3.36-2.33,1.61-10.48-1.63-13,30.75,15.62,42.53,44.3,78.94,46.68,0,0,13.66.79,16.82-22.95,0,0,7.54-38.77-25.3-46.28,0,0-44.83-9.63-72.26-29.28,0,0-23.87-17.8-51.56-5.14,0,0,26.5,13.85,32.83,43.91a30,30,0,0,0,.53-12.26s18.07,22.94,16.49,41.93c0,0,.39,9.89-11.08,21,0,0,9.49-5.54,55.38,36,0,0,9.5,8.31,27.7,2,0,0,26.5-10.68,35.2-.79,0,0,8.31-7.12,10.69-23.34,1.58-9.5,15.13-11.36,13.91,11.08l-2.05,24.92s2.77,16.22,24.93,7.51c0,0,10.22-4.74,14-19.78v36s-3.73,0-3.33,5.94c0,0,3.16,19.38-13.06,19.38,0,0-26.11-19-40.35-21.76,0,0,18.2,11.87,21.76,21.76,0,0-40.35-15.82-51.43,1.58a56.42,56.42,0,0,1-5.17-18.37A6.52,6.52,0,0,0,378.18,674.93Z"/><path class="cls-1" d="M499.72,328.18a24.68,24.68,0,1,1-49.05,0,29.55,29.55,0,1,0,49.05,0Z"/><path class="cls-1" d="M416.69,272.12a16.73,16.73,0,0,1,.12,2,18.1,18.1,0,0,1-36.19,0,19.08,19.08,0,0,1,.11-2,21.66,21.66,0,1,0,36,0Z"/><path class="cls-1" d="M289.1,254.77l26.46-17.32a21.51,21.51,0,0,0,4.53-4l19.05-22.29a30.72,30.72,0,0,1,22.37-10.89c9.91-.28,22.86,2.2,33.45,13.92a12.34,12.34,0,0,0,10.48,4c4.08-.46,9.56-1.16,15.17-2.16a17,17,0,0,1,9.19.94l27.46,10.83a15.85,15.85,0,0,1,7.51,6.28c2,3.15,5.45,6.92,10.43,6.92V147.17s-4.63-4.07-12,7.87a11.93,11.93,0,0,1-4,4c-3.61,2.18-11,5.13-25,6.09C434.15,165.1,323.38,165.63,289.1,254.77Z"/><path class="cls-1" d="M374.55,157.19c-10.55,23.38-19,12.66-19,12.66s10-46.95,9.5-51.17c0,0,24.07,29,33.66,35.34,0,0-3.17,18.46-21.58,15.83Z"/><path class="cls-1" d="M306.51,664.2s-4.22,29.43,13.71,40.5c0,0,10.55-5.67,3.69-33.23Z"/><path class="cls-1" d="M334,675.17s1,48,39.5,58.54c.24-17.4,1.55-32.29,0-45.36C373.49,688.35,349.61,681.17,334,675.17Z"/><path class="cls-1" d="M424.66,711s-27.43-17.93-35.34,6.33c0,0-3.69,23.21,7.38,43.78C396.7,761.14,414.11,744.26,424.66,711Z"/><path class="cls-1" d="M374.24,806.51S374,777,408.84,761.14c0,0,.85,16.46-6,32.29,0,0-8.8,13.6-1.95,25.21C400.92,818.64,382.37,818.64,374.24,806.51Z"/><path class="cls-1" d="M358.76,779.81c-2.29-7.56-3.07-19.74,9.8-29.71a5.53,5.53,0,0,1,8.64,2.79c2.08,6.87,2.68,18.22-9.35,29.35A5.54,5.54,0,0,1,358.76,779.81Z"/><path class="cls-1" d="M414.64,789.89s-12.07,7.12-5.77,28.75c5.24,9.49,26.34,4.74,20-11.08C428.88,807.56,418.33,796.48,414.64,789.89Z"/><path class="cls-1" d="M448.4,806.7s-10.55,16.81,3.69,23.38c0,0,19.51,7.21,19.51-13.19,0,0,.53-14.08-5.27-27A40.07,40.07,0,0,0,448.4,806.7Z"/><path class="cls-1" d="M440.48,717.89a101.36,101.36,0,0,0,0,43.25s-15.82,1.59-15.82-24.26C424.66,736.88,422,717.36,440.48,717.89Z"/><path class="cls-1" d="M465.21,715c-6.26-1.82-12.86-.17-14.12,6.23-1.38,7-2.53,17.52-.06,27.76,0,0,4.75,18.51,17.94,21.68,0,0,2.13-9,2.65-28.75C471.62,741.89,475.2,717.88,465.21,715Z"/><path class="cls-1" d="M392.1,824.33A46.4,46.4,0,0,1,403.42,830a17.78,17.78,0,0,0,11,3c6.46-.46,17.42-1.57,34.18,6.86,0,0,13.86,5.16,26.62,5.16v35.87s-6.23-2.11-8.34-11.08c0,0-29-6.85-39.56-6.85L390,828A2.2,2.2,0,0,1,392.1,824.33Z"/><path class="cls-1" d="M174.16,224.09C76.05,195,63.4,159.82,63.4,159.82,30.16,90.2,82.38,0,82.38,0-6.23,42.73.1,139.25.1,139.25,0,236.36,130.55,277.45,166.61,287A58.34,58.34,0,0,1,185.86,296c61.94,44.54,69.84,103.57,69.84,103.57,29.38,1.7,62.6,25.93,83.67,42.08a22.31,22.31,0,0,0,33.27-7.14c9.42-17.82,15.15-37.94,15.15-37.94C322.91,248.81,174.16,224.09,174.16,224.09ZM23,98.9s6.33,91.78,104.44,155.87C127.48,254.77-14.93,220,23,98.9ZM269.11,387.69c-19.78-74.56-86.24-110-86.24-110-61.72-36.39-82.29-66.46-82.29-66.46,40.18,26,66.84,27.78,104.87,46.57a189,189,0,0,1,65.49,53.83C307.33,358.61,331,415,331,415,296.8,396.58,269.11,387.69,269.11,387.69Z"/><path class="cls-1" d="M651.38,437c-10.86,7.07-24.84,19.89-35.62,42.5,0,0,32.73-4.44,47-32.06C666.52,440.11,658.25,432.48,651.38,437Z"/><path class="cls-1" d="M571.57,674.93c95-15,107.28-57,107.28-57,2.37-11.07-15.15-24.52-15.15-24.52-10.4-7.92-7.8-20.57-7.8-20.57,8.2-18.21,24.77-33.27,37.36-42.79a47.56,47.56,0,0,0,18.67-33.26l1.73-17.34c1.58-17.43-7.91-26.88-7.91-26.88C686,440.7,691.51,413,691.51,413h-8.34a49.9,49.9,0,0,0-.37,22.61c3.17,28.94-15,38-15,38-15,7.59-36.19,19.41-36.19,19.41C582.53,525.72,557,446.31,557,446.31s-33.19,43.45-30,68c0,0-30-25.32-51.39-27.7v57.76s21.65,9.08,33.52,31.23c0,0-19.44-19.36-33.52-19.36v21.2s7.87.16,13.41-3c0,0,12.66,4.75,19,15,0,0,22.15-10.28,31.65,20.57,0,0,6.32,11.87,16.61,14.24a147.57,147.57,0,0,1,21.48,4.63A22.52,22.52,0,0,0,594,627.4c4-2,8.75-4.47,13.08-7.12a16.33,16.33,0,0,0,7.8-13.67s3.87-19.14,23.25-32.59c3.36-2.33-1.62-10.48,1.63-13-30.75,15.62-42.53,44.3-78.94,46.68,0,0-13.66.79-16.82-22.95,0,0-7.54-38.77,25.3-46.28,0,0,44.83-9.63,72.26-29.28,0,0,23.87-17.8,51.56-5.14,0,0-26.51,13.85-32.84,43.91a30.06,30.06,0,0,1-.52-12.26s-18.07,22.94-16.49,41.93c0,0-.39,9.89,11.08,21,0,0-9.49-5.54-55.38,36,0,0-9.5,8.31-27.7,2,0,0-26.5-10.68-35.21-.79,0,0-8.3-7.12-10.68-23.34-1.58-9.5-15.13-11.36-13.91,11.08l2.05,24.92s-2.77,16.22-24.93,7.51c0,0-9.22-4.74-13-19.78v36s3.73,0,3.33,5.94c0,0-4.16,19.38,12.06,19.38,0,0,26.11-19,40.35-21.76,0,0-18.2,11.87-21.76,21.76,0,0,40.35-15.82,51.43,1.58a56.28,56.28,0,0,0,5.16-18.37A6.54,6.54,0,0,1,571.57,674.93Z"/><path class="cls-1" d="M533.06,272.12a16.73,16.73,0,0,0-.12,2,18.1,18.1,0,0,0,36.19,0,16.73,16.73,0,0,0-.12-2,21.66,21.66,0,1,1-36,0Z"/><path class="cls-1" d="M660.65,254.77l-26.46-17.32a21.51,21.51,0,0,1-4.53-4l-19-22.29a30.72,30.72,0,0,0-22.37-10.89c-9.91-.28-22.86,2.2-33.45,13.92a12.35,12.35,0,0,1-10.48,4c-4.08-.46-9.56-1.16-15.17-2.16A17,17,0,0,0,520,217l-27.46,10.83c-3.12,1.23-4.71,3.46-6.51,6.28-2,3.15-5.45,6.92-10.43,6.92V147.17s3.63-4.07,11,7.87a11.93,11.93,0,0,0,4,4c3.61,2.18,11,5.13,25,6.09C515.6,165.1,626.36,165.63,660.65,254.77Z"/><path class="cls-1" d="M575.2,157.19c10.55,23.38,19,12.66,19,12.66s-10-46.95-9.51-51.17c0,0-24.06,29-33.66,35.34,0,0,3.18,18.46,21.58,15.83Z"/><path class="cls-1" d="M643.24,664.2s4.22,29.43-13.71,40.5c0,0-10.55-5.67-3.69-33.23Z"/><path class="cls-1" d="M615.76,675.17s-1,48-39.51,58.54c-.23-17.4-1.54-32.29,0-45.36C576.25,688.35,600.14,681.17,615.76,675.17Z"/><path class="cls-1" d="M525.09,711s27.43-17.93,35.34,6.33c0,0,3.69,23.21-7.38,43.78C553.05,761.14,535.64,744.26,525.09,711Z"/><path class="cls-1" d="M575.51,806.51s.22-29.54-34.6-45.37c0,0-.85,16.46,6,32.29,0,0,8.8,13.6,2,25.21C548.83,818.64,567.38,818.64,575.51,806.51Z"/><path class="cls-1" d="M591,779.81c2.29-7.56,3.07-19.74-9.8-29.71a5.53,5.53,0,0,0-8.64,2.79c-2.08,6.87-2.68,18.22,9.35,29.35A5.54,5.54,0,0,0,591,779.81Z"/><path class="cls-1" d="M535.11,789.89s12.06,7.12,5.77,28.75c-5.24,9.49-26.34,4.74-20-11.08C520.87,807.56,531.42,796.48,535.11,789.89Z"/><path class="cls-1" d="M501.35,806.7s10.55,16.81-3.69,23.38c0,0-18.52,7.21-18.52-13.19,0,0-.52-14.08,5.28-27A40.54,40.54,0,0,1,501.35,806.7Z"/><path class="cls-1" d="M509.27,717.89a101.36,101.36,0,0,1,0,43.25s15.82,1.59,15.82-24.26C525.09,736.88,527.73,717.36,509.27,717.89Z"/><path class="cls-1" d="M485.54,715c6.26-1.82,11.86-.17,13.12,6.23,1.38,7,2.53,17.52.06,27.76,0,0-3.75,18.51-16.94,21.68,0,0-2.13-9-2.65-28.75C479.13,741.89,475.55,717.88,485.54,715Z"/><path class="cls-1" d="M557.65,824.33A46.4,46.4,0,0,0,546.33,830a17.78,17.78,0,0,1-11,3c-6.46-.46-17.42-1.57-34.18,6.86,0,0-12.86,5.16-25.62,5.16v35.87s6.23-2.11,8.34-11.08c0,0,28-6.85,38.56-6.85L559.8,828A2.2,2.2,0,0,0,557.65,824.33Z"/><path class="cls-1" d="M774.58,224.09c98.11-29.09,110.77-64.27,110.77-64.27C918.58,90.2,866.36,0,866.36,0,955,42.73,948.65,139.25,948.65,139.25c.09,97.11-130.45,138.2-166.51,147.7A58.34,58.34,0,0,0,762.89,296C701,340.55,693.05,399.58,693.05,399.58c-29.38,1.7-62.6,25.93-83.67,42.08a22.31,22.31,0,0,1-33.27-7.14C566.69,416.7,561,396.58,561,396.58,625.84,248.81,774.58,224.09,774.58,224.09ZM925.71,98.9s-6.33,91.78-104.44,155.87C821.27,254.77,963.68,220,925.71,98.9ZM679.64,387.69c19.78-74.56,86.24-110,86.24-110,61.72-36.39,82.29-66.46,82.29-66.46C808,237.21,781.33,239,743.3,257.82a189,189,0,0,0-65.49,53.83c-36.39,47-60,103.36-60,103.36C652,396.58,679.64,387.69,679.64,387.69Z"/></g></g></svg>