<svg xmlns="http://www.w3.org/2000/svg" viewBox="0 0 945.56 912.1"><defs><style>.cls-1{fill:#fff;}</style></defs><g id="Layer_2" data-name="Layer 2"><g id="_1" data-name="1"><path class="cls-1" d="M68.78,449.86c-12.2,13.46-18.53,29.19-21.63,43.83,14.86,14.24,33.7,26.75,57.22,36.64a3,3,0,0,0,3.52-4.61C97,512,77.37,483.88,68.78,449.86Z"/><path class="cls-1" d="M266.22,388.7s5.73,27.3,35.5,22.55c0,0,17.91-14.85,42.83-11,0,0,19.18-49.21,23.74-74.81,0,0-1.19,69.44-9.49,96,0,0-25.14-17.34-57.08,5.21,0,0-15.32,13.06-35.5,16.62,0,0-14.24,7.12-8.3,17.8,0,0,7.12,23,24,16.67l15.16-7.39a8.37,8.37,0,0,1,9.63,1.66l24.81,26.08a12.83,12.83,0,0,0,8.45,4c7.15.48,20.84,2.67,30.56,12l19,22.15-11.6,20.58a219.16,219.16,0,0,0-42.73-4.22S305.13,527.83,283.5,484l-5.8,1.59c.25,23.47,13.71,52.22,19.51,73.84,0,0,11.61,18.47,28.49,19.52,0,0,35.87-10,63.82,0l21.63-43.78s-15.3-10.55-16.88-17.93c0,0,9.55,12.66,18.52,2.11l17.35-21.63s5-8.57-6.8-20.7a9.89,9.89,0,0,1-2.77-7.83l1.82-19.35a5.91,5.91,0,0,0-3-5.7l-5.48-3.1a5.92,5.92,0,0,0-6.39.36l-14.85,10.79s-16.88-1.58,16.88-61.19c0,0,14.24-26.2,6.85-63.13,0,0-11.6-35.87-33.23-22.15L380,286.24l16.88-27.95S437,241.41,472.86,271c0,0,.53-30.6-29.54-41.67,0,0,18.47-17.41,29.54-48V145.94s-15.16,1.84-27.95,24.79c0,0-32.36,64.88-79.24,61.18,0,0-11,46-65.82,38,0,0-9.49,8.44,6.33,26.37,0,0,36.92,37.46,5.74,73.28C311.92,369.54,297.48,389.36,266.22,388.7Z"/><path class="cls-1" d="M354,234.68c-4.9,10.55-18.87,30.78-52,23,0,0-70.66-37.47-37.09-124.37,8-19,22.44-36.58,33.71-49.37C311.94,67.45,316.48,53.59,296,3.57a2.58,2.58,0,0,1,.72-3h0a2.58,2.58,0,0,1,3.31,0c6.78,5.61,32.06,28.21,38.92,58,3.12,13.51-1.64,27.67-9.65,39-6.89,9.73-17,25.27-20.35,38.34-5.35,20.84-7.09,60.21,42.41,90A6.9,6.9,0,0,1,354,234.68Z"/><path class="cls-1" d="M472.86,330.55S440.19,402.31,435.15,416c-5.54,15,14.5,30.07,37.71,33.23Z"/><path class="cls-1" d="M442.1,685.36h0a1.9,1.9,0,0,1-1.32-1.64c-.55-6.68,4.88-27.19,32.08-30.58V622.51s-10.55-6.6-13.18-26.11c0,0-11.61-1.32-27.17,17.93,0,0-11.6-10-5.8-19,0,0,21.89-36.61,46.15-36.88V472.18S462,473.76,451.54,503a52.88,52.88,0,0,1-10.06,13.45S419.32,537.06,400.33,575c0,0,14.25,19,15.83,33.23l-7.91,22.16s-21.7-15-53.58-36.4c0,0-1.81-.79-14.47-11.07,0,0-26.9,7.12-9.49,29.27L311.92,640.7s8.34,8.13,33-14.24c0,0,6.59-6.33,16.72,4.38,0,0,6.75,10.39,17.57,14.88,0,0,10.34,3.67,15.79,23a5,5,0,0,0,5.41,3.59c6.26-.84,17.63-1.18,22.48,6.27,0,0-24.43,5.85-16,24.32,8.17,17.14,8.17,33.75,36.39,53.53,0,0-9.81-53.44.21-60.29,0,0,9.55,27.33,22.74,32.34,0,0-2.48-47.42.94-62.19,0,0-16.8,4.32-22.76,18A1.93,1.93,0,0,1,442.1,685.36Z"/><path class="cls-1" d="M280.86,573.72s20.46,19,31.06,21.62c0,0-48.46,13.19-46.88,44.31C249.21,628.57,247.73,594.29,280.86,573.72Z"/><path class="cls-1" d="M390.2,749.73c8.77,5.65,24.33,18.9,33.08,45.52,0,0,9,40.09,24.79,25.85,0,0,8.44-9.49,20-14.77l2.64,2.64s-11.6,13.71-9,24.26c0,0,4.16,2.86.47,13.41,0,0-4.17,17.71,10.6,17.71v47.48s-25.32,4.21-32.17-20.58c0,0-4.31-9.77-11.9-11.82a11.31,11.31,0,0,1-6.76-4.81L417.87,868a9.52,9.52,0,0,1,.89-11.24c2.21-2.61,3.91-6.72,2.41-13A78.36,78.36,0,0,1,408,813.19s-4.93-36.75-20.16-61.09A1.72,1.72,0,0,1,390.2,749.73Z"/><path class="cls-1" d="M175,212.74c-28.91-7.36-61.37-6.28-94.53,12.55C149.07,236,172.33,291,178.85,312.35c15.69,4,31.38,12.2,46.1,23.78C224,271.31,195.42,232.35,175,212.74Z"/><path class="cls-1" d="M284,284.66a262.46,262.46,0,0,0-62.36-52.16c26,43.78,22.32,93.83,18.56,117.25q6.15,6.17,11.94,13.16s18.8,25.79,49.55,0C301.72,362.91,333.87,336.65,284,284.66Z"/><path class="cls-1" d="M53.68,244.49c-1.55,1.35-3.09,2.73-4.64,4.17C25,268.78,3.1,314.73,0,365c33.91-29.59,71.49-30.39,96.1-26.29q4.56-5.08,9.9-10.09c15.28-13.26,32.83-19.3,51-19.22C133,259.64,84.2,247.18,53.68,244.49Z"/><path class="cls-1" d="M81.83,357.57c-36.29.5-63.67,19.9-81.32,37.89,2.78,28.14,12.23,56.3,31.12,80.92,7-22,20.66-36.86,33.58-46.57C62.86,406.71,66.65,381.87,81.83,357.57Z"/><path class="cls-1" d="M876.78,449.86c12.2,13.46,18.52,29.19,21.62,43.83-14.85,14.24-33.7,26.75-57.22,36.64a3,3,0,0,1-3.51-4.61C848.55,512,868.19,483.88,876.78,449.86Z"/><path class="cls-1" d="M679.33,388.7s-5.72,27.3-35.49,22.55c0,0-17.91-14.85-42.84-11,0,0-19.17-49.21-23.73-74.81,0,0,1.18,69.44,9.49,96,0,0,25.14-17.34,57.08,5.21,0,0,15.32,13.06,35.49,16.62,0,0,14.24,7.12,8.31,17.8,0,0-7.12,23-24,16.67l-15.16-7.39a8.37,8.37,0,0,0-9.63,1.66L614,498.12a12.83,12.83,0,0,1-8.45,4c-7.15.48-20.84,2.67-30.56,12l-19,22.15,11.6,20.58a219.16,219.16,0,0,1,42.73-4.22s30.06-24.79,51.69-68.58l5.8,1.59c-.25,23.47-13.71,52.22-19.52,73.84,0,0-11.6,18.47-28.48,19.52,0,0-35.87-10-63.82,0l-21.63-43.78s15.3-10.55,16.88-17.93c0,0-9.55,12.66-18.52,2.11l-17.35-21.63s-5-8.57,6.8-20.7a9.92,9.92,0,0,0,2.77-7.83l-1.82-19.35a5.91,5.91,0,0,1,3-5.7l5.49-3.1a5.91,5.91,0,0,1,6.38.36l14.86,10.79S569.75,450.65,536,391c0,0-14.24-26.2-6.85-63.13,0,0,11.6-35.87,33.23-22.15l3.16-19.52-16.88-27.95S508.56,241.41,472.7,271c0,0-.53-30.6,29.53-41.67,0,0-18.46-17.41-29.54-48V145.94s15.17,1.84,28,24.79c0,0,32.36,64.88,79.24,61.18,0,0,11,46,65.82,38,0,0,9.49,8.44-6.33,26.37,0,0-36.93,37.46-5.75,73.28C633.63,369.54,648.08,389.36,679.33,388.7Z"/><path class="cls-1" d="M591.52,234.68c4.9,10.55,18.87,30.78,52,23,0,0,70.66-37.47,37.08-124.37-8-19-22.44-36.58-33.7-49.37-13.26-16.46-17.79-30.32,2.72-80.34a2.57,2.57,0,0,0-.73-3h0a2.57,2.57,0,0,0-3.3,0c-6.78,5.61-32.06,28.21-38.93,58-3.11,13.51,1.65,27.67,9.66,39,6.89,9.73,17,25.27,20.34,38.34,5.36,20.84,7.1,60.21-42.4,90A6.9,6.9,0,0,0,591.52,234.68Z"/><path class="cls-1" d="M472.69,330.55s32.68,71.76,37.72,85.45c5.54,15-14.51,30.07-37.72,33.23Z"/><path class="cls-1" d="M503.46,685.36h0a1.92,1.92,0,0,0,1.32-1.64c.55-6.68-4.88-27.19-32.09-30.58V622.51s10.55-6.6,13.19-26.11c0,0,11.61-1.32,27.17,17.93,0,0,11.6-10,5.8-19,0,0-21.89-36.61-46.16-36.88V472.18S483.54,473.76,494,503a52.88,52.88,0,0,0,10.06,13.45s22.15,20.58,41.14,58.55c0,0-14.24,19-15.82,33.23l7.91,22.16s21.7-15,53.57-36.4c0,0,1.82-.79,14.47-11.07,0,0,26.91,7.12,9.5,29.27l18.78,28.48s-8.33,8.13-33-14.24c0,0-6.6-6.33-16.72,4.38,0,0-6.75,10.39-17.57,14.88,0,0-10.34,3.67-15.79,23a5,5,0,0,1-5.41,3.59c-6.27-.84-17.64-1.18-22.48,6.27,0,0,24.43,5.85,16,24.32-8.18,17.14-8.18,33.75-36.4,53.53,0,0,9.82-53.44-.2-60.29,0,0-9.55,27.33-22.74,32.34,0,0,2.48-47.42-1-62.19,0,0,16.81,4.32,22.77,18A1.92,1.92,0,0,0,503.46,685.36Z"/><path class="cls-1" d="M664.7,573.72s-20.46,19-31.07,21.62c0,0,48.47,13.19,46.89,44.31C696.34,628.57,697.82,594.29,664.7,573.72Z"/><path class="cls-1" d="M555.36,749.73c-8.77,5.65-24.33,18.9-33.08,45.52,0,0-9,40.09-24.79,25.85,0,0-8.44-9.49-20.05-14.77L474.81,809s11.6,13.71,9,24.26c0,0-4.16,2.86-.47,13.41,0,0,4.16,17.71-10.61,17.71v47.48S498,916,504.87,891.25c0,0,4.3-9.77,11.9-11.82a11.29,11.29,0,0,0,6.75-4.81l4.17-6.62a9.53,9.53,0,0,0-.89-11.24c-2.21-2.61-3.91-6.72-2.41-13a78.26,78.26,0,0,0,13.18-30.59s4.93-36.75,20.16-61.09A1.72,1.72,0,0,0,555.36,749.73Z"/><path class="cls-1" d="M770.53,212.74c28.91-7.36,61.36-6.28,94.52,12.55C796.49,236,773.22,291,766.71,312.35c-15.69,4-31.38,12.2-46.1,23.78C721.56,271.31,750.13,232.35,770.53,212.74Z"/><path class="cls-1" d="M661.53,284.66a262.46,262.46,0,0,1,62.36-52.16c-26,43.78-22.32,93.83-18.56,117.25-4.1,4.11-8.1,8.5-11.94,13.16,0,0-18.8,25.79-49.55,0C643.84,362.91,611.68,336.65,661.53,284.66Z"/><path class="cls-1" d="M891.87,244.49c1.55,1.35,3.1,2.73,4.65,4.17,24.05,20.12,45.94,66.07,49,116.38-33.91-29.59-71.49-30.39-96.1-26.29-3-3.39-6.33-6.75-9.91-10.09-15.27-13.26-32.82-19.3-51-19.22C812.56,259.64,861.36,247.18,891.87,244.49Z"/><path class="cls-1" d="M863.73,357.57c36.29.5,63.67,19.9,81.31,37.89-2.77,28.14-12.22,56.3-31.12,80.92-7-22-20.66-36.86-33.57-46.57C882.69,406.71,878.9,381.87,863.73,357.57Z"/></g></g></svg>