<svg xmlns="http://www.w3.org/2000/svg" viewBox="0 0 966.32 981.47"><defs><style>.cls-1{fill:#fff;}</style></defs><g id="Layer_2" data-name="Layer 2"><g id="_1" data-name="1"><path class="cls-1" d="M483.16,492.07s102.72,2.44,145.1-82.56c0,0,177.14,15.74,338.06,113.85v15.43H483.16Z"/><polygon class="cls-1" points="483.16 562.13 483.16 706.13 671.3 562.13 483.16 562.13"/><polygon class="cls-1" points="696.91 562.13 483.16 727.05 483.16 782.09 770.5 562.13 696.91 562.13"/><polygon class="cls-1" points="870.19 562.13 870.19 755.98 910.54 562.13 870.19 562.13"/><polygon class="cls-1" points="770.5 583.46 770.5 981.47 664.87 981.47 664.87 664.41 770.5 583.46"/><polygon class="cls-1" points="616.02 700.77 616.02 981.47 506.4 981.47 506.4 784.71 616.02 700.77"/><rect class="cls-1" x="787.9" y="562.13" width="45.1" height="419.34"/><rect class="cls-1" x="787.9" width="45.1" height="466.4"/><path class="cls-1" d="M842.64,435.54V0h37V401.93s47.08,19,86.64,43.69v48.89S906.87,459.27,842.64,435.54Z"/><circle class="cls-1" cx="419.69" cy="141.66" r="47.85"/><circle class="cls-1" cx="649.09" cy="154.91" r="29.13"/><circle class="cls-1" cx="285.92" cy="301.1" r="24.34"/><path class="cls-1" d="M487.94,154.91a69.5,69.5,0,0,1-108.7,43.28,146.23,146.23,0,1,0,108.7-43.28Z"/><path class="cls-1" d="M483.16,492.07s-102.72,2.44-145.11-82.56c0,0-177.13,15.74-338,113.85v15.43H483.16Z"/><polygon class="cls-1" points="483.16 562.13 483.16 706.13 295.02 562.13 483.16 562.13"/><polygon class="cls-1" points="269.41 562.13 483.16 727.05 483.16 782.09 195.82 562.13 269.41 562.13"/><polygon class="cls-1" points="96.13 562.13 96.13 755.98 55.78 562.13 96.13 562.13"/><polygon class="cls-1" points="195.82 583.46 195.82 981.47 301.45 981.47 301.45 664.41 195.82 583.46"/><polygon class="cls-1" points="350.3 700.77 350.3 981.47 459.92 981.47 459.92 784.71 350.3 700.77"/><rect class="cls-1" x="133.32" y="562.13" width="45.1" height="419.34" transform="translate(311.74 1543.6) rotate(180)"/><rect class="cls-1" x="133.32" width="45.1" height="466.4" transform="translate(311.74 466.4) rotate(180)"/><path class="cls-1" d="M123.68,435.54V0h-37V401.93S39.56,420.9,0,445.62v48.89S59.45,459.27,123.68,435.54Z"/></g></g></svg>