<svg xmlns="http://www.w3.org/2000/svg" viewBox="0 0 674.11 956.57"><defs><style>.cls-1{fill:#fff;}</style></defs><g id="Layer_2" data-name="Layer 2"><g id="_1" data-name="1"><path class="cls-1" d="M337.06,220.75V136.48c-47.48,0-111.57,9.5-111.57,9.5-21.36,2.37-34.41,0-34.41,0l40.35,51H195.82L54.59,0,49.85,341.8,150.1,279.27,84.26,187.52l3.56-66.46L200.57,287.21,0,409.45,59.34,467.6,42.85,492V633.29l54.47-47L216,884.18l22.55-55.78,5.93,74.77,92.58,53.4V578l-55.79-28.05-9.49-20.61-161.41,2.37c-15.42-15.43-7.12-84.23-7.12-84.23l233.81,93.73V498.46l-73.59-32-5.93-39.17-61.72-29.67,100.88-62.9-41.53-71.21h62.9Zm-58,617.77c-29.2-4.1-33-26-31.69-41.92A16.4,16.4,0,0,1,266,781.81L311.89,788ZM257.3,560.18l10.68,19,51,23.73v91.39l-21.36,14.24L262,646.81l-4.74-23.73H215.76l29.67-28.49c-21.72-15.89-62.9-30.48-62.9-30.48C213.3,558.17,257.3,560.18,257.3,560.18Z"/><path class="cls-1" d="M337.06,220.75V136.48c47.47,0,111.56,9.5,111.56,9.5C470,148.35,483,146,483,146l-40.35,51h35.61L619.52,0l4.74,341.8L524,279.27l65.84-91.75-3.56-66.46L473.54,287.21,674.11,409.45,614.77,467.6,631.26,492V633.29l-54.47-47L458.11,884.18,435.56,828.4l-5.93,74.77-92.57,53.4V578l55.78-28.05,9.49-20.61,161.41,2.37c15.43-15.43,7.12-84.23,7.12-84.23l-233.8,93.73V498.46l73.58-32,5.93-39.17,61.72-29.67-100.88-62.9L419,263.47H356ZM395,838.52c29.2-4.1,33-26,31.69-41.92a16.4,16.4,0,0,0-18.61-14.79L362.22,788Zm21.8-278.34-10.68,19-51,23.73v91.39l21.36,14.24,35.61-61.72,4.74-23.73h41.54l-29.67-28.49c21.72-15.89,62.9-30.48,62.9-30.48C460.81,558.17,416.81,560.18,416.81,560.18Z"/></g></g></svg>