<svg xmlns="http://www.w3.org/2000/svg" viewBox="0 0 931.17 932.23"><defs><style>.cls-1{fill:#fff;}</style></defs><g id="Layer_2" data-name="Layer 2"><g id="_1" data-name="1"><path class="cls-1" d="M658.48,122.93s51.3,28.57,89.28,57c0,0-194.64-121.84-371.87,4.75S235.06,455.32,235.06,455.32,261.2,651.57,495,642.77c0,0,175.24-10.22,187.9-190.61,4.75-106-148.61-183.56-202.55-55.39,0,0,60.54,18.16,12.65,87.78-35.39,46.73-135.66,19.41-123.16-56.8,0,0,14.25-146.49,164.45-159.15,0,0,191.34-12.66,220.82,164,20.66,123.74-67.46,237.94-181.39,274.34,0,0-233,84.54-367.12-129.76-137.68-220,31.64-394,31.64-394S356.9,24.9,640.77,26.49c0,0-442.11-156.66-618.34,292C-86.17,716.42,227.15,896.82,372.51,925.3c0,0,376.83,79.12,531.91-297.49C1032.6,181.56,658.48,122.93,658.48,122.93ZM608.22,525.5c-12.6,52.49-98.91,95.58-148.92,65.73C459.3,591.23,544.74,603.91,608.22,525.5ZM235.06,711.67S375.89,844.6,592.69,781.3C502.49,862,288.86,830.85,235.06,711.67Z"/></g></g></svg>