<svg xmlns="http://www.w3.org/2000/svg" viewBox="0 0 957.36 755.6"><defs><style>.cls-1{fill:#fff;}</style></defs><g id="Layer_2" data-name="Layer 2"><g id="_1" data-name="1"><path class="cls-1" d="M9.49,0l76,61.71,45.89,156.66S41.14,150.33,9.49,0Z"/><path class="cls-1" d="M118.68,280.09s45.89,139.25,87,175.65c0,0-158.24-50.64-205.71-264.27Z"/><path class="cls-1" d="M126.59,94.15l26.9,89.41s23.74,91,113.94,146.37c45.16,30,123.43,79.12,130.55,138.47,4.35,35.6,8.31,124.61-54.6,180.39,0,0-74.37,67.25-62.5,106.81L419.34,650.37s16.22-11.47,16.62-38l2-52.22s-.42-28.49,19.36-34v-45.1s-33.23-46.68-49.06-127.38c-8.7-49.05-4.74-75.16-98.9-121,0,0-28.48-14.25-66.46-45.89Z"/><path class="cls-1" d="M162.2,311S220,446.24,254,470l112.35-4Z"/><path class="cls-1" d="M374.24,520.62l-168.53,7.12s79.3,59.35,119.21,60.93c0,0,39.83,5,44.57-23C369.49,565.71,374.32,540.66,374.24,520.62Z"/><path class="cls-1" d="M947.87,0l-76,61.71L826,218.37S916.22,150.33,947.87,0Z"/><path class="cls-1" d="M838.68,280.09s-45.89,139.25-87,175.65c0,0,158.24-50.64,205.71-264.27Z"/><path class="cls-1" d="M830.77,94.15l-26.9,89.41s-23.74,91-113.94,146.37c-45.15,30-123.42,79.12-130.55,138.47C555,504,551.08,593,614,648.79c0,0,74.37,67.25,62.5,106.81L538,650.37s-16.22-11.47-16.61-38l-2-52.22s.41-28.49-19.37-34v-45.1s33.23-46.68,49.06-127.38c8.7-49.05,4.75-75.16,98.9-121,0,0,28.48-14.25,66.46-45.89Z"/><path class="cls-1" d="M795.16,311s-57.75,135.29-91.78,159L591,466Z"/><path class="cls-1" d="M583.12,520.62l168.53,7.12s-79.29,59.35-119.21,60.93c0,0-39.82,5-44.57-23C587.87,565.71,583,540.66,583.12,520.62Z"/><rect class="cls-1" x="457.32" y="553.05" width="42.73" height="171.69" rx="21.36"/></g></g></svg>