<svg xmlns="http://www.w3.org/2000/svg" viewBox="0 0 915.43 762.73"><defs><style>.cls-1{fill:#fff;}</style></defs><g id="Layer_2" data-name="Layer 2"><g id="_1" data-name="1"><path class="cls-1" d="M381.84,179,80.31,35.21S66.07,119.47,123,148l174.46,86.63C275,279.69,248.64,413.8,418.55,458.3c0,0-1.19,156.07-35.6,224.91l74.76,79.52v-70l-24.92-24.92s21.36-70.13,24.92-178.08V380.2c-31.25,0-86.63-6-104.67-61,0,0-21.52-70.75,30-134.21A3.87,3.87,0,0,0,381.84,179Z"/><path class="cls-1" d="M306.2,102.86,240.53,70.42S235,39.56,246.86,0Z"/><path class="cls-1" d="M0,166.15l96.53,32.44s.79,17.41,21.36,24.53l137.67,44.31S249,288.79,249.81,307L66.46,278.51s-19.28-3-28.48-21.37C26.11,233.41,0,166.15,0,166.15Z"/><path class="cls-1" d="M27.11,359.41l84.39-4.73s6,13.17,24,12.33l119.76-8.26A142.46,142.46,0,0,0,271,391L112,423.54s-15.78,3.65-28.54-7.7C67,401.2,27.11,359.41,27.11,359.41Z"/><path class="cls-1" d="M131.74,501.65l57.38-34.1s9,7,21.32-.13l76.87-51.48a124.13,124.13,0,0,0,19.47,17.91l-92.23,81.76s-9.71,8.32-22.79,5C174.89,516.39,131.74,501.65,131.74,501.65Z"/><path class="cls-1" d="M244,553.54l31.32-34.73s6,2.6,14.29-6.06L339.13,457a149.28,149.28,0,0,0,19.1,8.6l-54.67,77.13s-4.21,8.31-13.92,9.75C277.11,554.37,244,553.54,244,553.54Z"/><path class="cls-1" d="M441.82,297a15.9,15.9,0,0,1,15.89-15.89V266.43s-16.22.21-23.73,2.58c0,0-17.31,80-22.55,91.78,0,0,9.89,6.33,46.28,6.73v-54.6A15.89,15.89,0,0,1,441.82,297Z"/><path class="cls-1" d="M481.45,269c-7.52-2.37-23.74-2.58-23.74-2.58v14.71a15.89,15.89,0,1,1,0,31.78v54.6c36.4-.4,46.29-6.73,46.29-6.73C498.76,349,481.45,269,481.45,269Z"/><path class="cls-1" d="M480.86,286s25.38-1.36,45.79,2.87a1.7,1.7,0,0,1,.43,3.19c-10.08,5.07-35,17.78-38.11,21.24Z"/><path class="cls-1" d="M388.48,538.55s-5.8,74.9-27.43,125.54a52.91,52.91,0,0,1-9-23.79C351,628.69,334.15,635,334.68,646c0,0,2.9,48.91-10.44,51.33,0,0-9.34,3.64-11.66-7.44l-2.16-25.84S259.25,698,237.1,692.46L278.24,644S256.09,629.8,244,609.23c0,0,57.12,10,74.34,6.59C318.33,615.82,351,585,388.48,538.55Z"/><path class="cls-1" d="M533.59,179,835.12,35.21S849.36,119.47,792.4,148L617.93,234.59c22.55,45.1,48.86,179.21-121,223.71,0,0,1.19,156.07,35.6,224.91l-74.77,79.52v-70l24.93-24.92s-21.37-70.13-24.93-178.08V380.2c31.26,0,86.64-6,104.67-61,0,0,21.53-70.75-30-134.21A3.87,3.87,0,0,1,533.59,179Z"/><path class="cls-1" d="M609.23,102.86,674.9,70.42S680.44,39.56,668.57,0Z"/><path class="cls-1" d="M915.43,166.15,818.9,198.59s-.79,17.41-21.36,24.53L659.87,267.43s6.54,21.36,5.75,39.56L849,278.51s19.28-3,28.48-21.37C889.32,233.41,915.43,166.15,915.43,166.15Z"/><path class="cls-1" d="M888.32,359.41l-84.4-4.73s-6,13.17-24,12.33l-119.76-8.26A142.46,142.46,0,0,1,644.39,391l159.09,32.53s15.78,3.65,28.54-7.7C848.48,401.2,888.32,359.41,888.32,359.41Z"/><path class="cls-1" d="M783.69,501.65l-57.38-34.1s-9,7-21.32-.13l-76.87-51.48a124.67,124.67,0,0,1-19.47,17.91l92.23,81.76s9.71,8.32,22.79,5C740.54,516.39,783.69,501.65,783.69,501.65Z"/><path class="cls-1" d="M671.44,553.54l-31.32-34.73s-6,2.6-14.29-6.06L576.29,457a148.72,148.72,0,0,1-19.09,8.6l54.67,77.13s4.21,8.31,13.92,9.75C638.31,554.37,671.44,553.54,671.44,553.54Z"/><path class="cls-1" d="M527,538.55s5.8,74.9,27.42,125.54a52.86,52.86,0,0,0,9-23.79c1.06-11.61,17.93-5.33,17.41,5.74,0,0-2.9,48.91,10.44,51.33,0,0,9.34,3.64,11.66-7.44L605,664.09s51.17,33.86,73.32,28.37L637.19,644s22.15-14.24,34.25-34.81c0,0-57.12,10-74.34,6.59C597.1,615.82,564.4,585,527,538.55Z"/></g></g></svg>