<svg xmlns="http://www.w3.org/2000/svg" viewBox="0 0 951.18 933.63"><defs><style>.cls-1{fill:#fff;}</style></defs><g id="Layer_2" data-name="Layer 2"><g id="_1" data-name="1"><path class="cls-1" d="M327.2,298.27c-12.81-3.19-24.31-3-34.51-.42l4.05,21.81a62.79,62.79,0,0,1,24,2.34Z"/><path class="cls-1" d="M475.91,0V20.57S308.57,6.35,270.59,245.29C139.25,326,93.36,592.54,242.11,734.24l-1.58,30.07,57,47.47s11.08,17.41,30.07,49.06c0,0-254.77-92.43-237.36-396.72,0,0,6.33-174.16,170.9-289.87C261.1,174.25,303.82,9.49,475.91,0Z"/><path class="cls-1" d="M244.94,829.49C171.1,791.68,45.72,701.26,45.72,520.87c0-205.2,121-308,192.94-351.06,4.16-2.49.69-8.36-3.84-6.5C21.9,250.48,0,438.28,0,520.86H0c0,72.6,22.47,237.7,241,314.33C245.65,836.83,249.21,831.68,244.94,829.49Z"/><path class="cls-1" d="M299.08,783.3s72.79-3.17,99.69-37.19,45.1-57.76,77.14-57.76v18.2S432,731.08,421.71,807.82c0,0-5.53-33.23,1.59-59.73,0,0-26.9,35.21-48.27,39.16,0,0,41.15,11.87,45.89,48.27,0,0,5.54,41.93,33.23,64.88,0,0-39.56-10.08-51-55-8.29-26.53-26.48-36-53.39-44.1C349.71,801.33,320.44,794.37,299.08,783.3Z"/><path class="cls-1" d="M475.91,846.59v29.28s-30.07-8-48.74-23.52a5.16,5.16,0,0,1,4-9.07A343.53,343.53,0,0,0,475.91,846.59Z"/><path class="cls-1" d="M475.91,913.05s-55.78-.79-77.93-37.18c0,0-34.82-58.34-88.62-58.34,0,0,44.31,25.7,67.26,67.83,18.57,34.11,55.38,48.27,99.29,48.27Z"/><path class="cls-1" d="M470.91,668.81h0a8.45,8.45,0,0,0-7.29-8.37L446.09,658a8.45,8.45,0,0,0-9.6,8.36v.81a8.45,8.45,0,0,0,7.68,8.41l17.52,1.61A8.45,8.45,0,0,0,470.91,668.81Z"/><path class="cls-1" d="M466.81,549.11l-14.14,21.52a16.82,16.82,0,0,0-3.42,8.76c-2.09,23.51-15.2,127.76-86.09,171.68,0,0-72.58,42.26-114.77-35.29a3.71,3.71,0,0,1,1.1-4.78h0a3.68,3.68,0,0,1,5,.68c9.2,11.4,47.61,52.91,99.17,23.35,0,0,66.46-34.81,81.87-153.83a19.07,19.07,0,0,1,4.38-9.4l20.71-27.58a3.93,3.93,0,0,1,5.82-.31h0A3.93,3.93,0,0,1,466.81,549.11Z"/><path class="cls-1" d="M426.81,551.32c3.92-5.08,14.76-18.58,23.8-24.79,0,0,3.09-4.33-9.12-8.29,0,0-36.39-13.45-37.18,0,0,0-.35,110-56.18,166.16,0,0-60.92,58.55-110-45.89l-5.53,4s26.9,123.43,124.22,64.09c0,0,56.19-33.49,68.22-150.81A8.6,8.6,0,0,1,426.81,551.32Z"/><path class="cls-1" d="M273.64,513.26c24.52-21.31,49.84-17.55,49.84-17.55,26.39,3.19,46.65,24.49,57.08,38.07-.49-77.45-33.12-139.94-73.31-139.94-38.92,0-70.75,58.62-73.16,132.66A59.39,59.39,0,0,0,273.64,513.26Z"/><path class="cls-1" d="M376.33,555.09c-40.51,63.31-88.16,30.12-95.55,23.47-12.07-10.86-22.8-21.62-26.64-25.84a3.57,3.57,0,0,1-.38-4.34,3.63,3.63,0,0,1,3.77-1.6c11.68,2.38,20.33,7.71,31.52,13.94a55.37,55.37,0,0,0,14.44,5.67c30.51,7,56.6-11.77,65.46-19.17a107.56,107.56,0,0,0-25.54-18.93,34.3,34.3,0,0,1,.77,7.26c0,15.15-9.68,27.43-21.61,27.43S301,550.7,301,535.55a33.87,33.87,0,0,1,1.71-10.72,81.74,81.74,0,0,0-24.26,10.72c-15.71,11.25-34.1,7.35-44.45,3.61,1,76.59,33.42,138.09,73.29,138.09,36.37,0,66.54-51.16,72.32-118.27Q378,557,376.33,555.09Z"/><path class="cls-1" d="M319.93,532.06c0,5.92,3.77,10.71,8.43,10.71s8.43-4.79,8.43-10.71a12.39,12.39,0,0,0-2.2-7.19,58.37,58.37,0,0,0-10.67-1.9A11.57,11.57,0,0,0,319.93,532.06Z"/><path class="cls-1" d="M457.17,497.91h0a8.7,8.7,0,0,0,10.24-8.31c1.18-28.84-.37-111.17-62.63-185.17,0,0-108.74-125.54-172.34,14.09a1.33,1.33,0,0,0,2.13,1.52c18.76-19.45,77-75.18,157,7.21,0,0,54.67,47.41,58.51,162.24A8.81,8.81,0,0,0,457.17,497.91Z"/><path class="cls-1" d="M412.33,373.33a188.42,188.42,0,0,0-20.68-30.25l-16.33,15.18a166.52,166.52,0,0,1,19,26.69Z"/><path class="cls-1" d="M433.28,430.68A211.74,211.74,0,0,0,422,393.48l-18.76,8.7A196,196,0,0,1,412,425.43a12,12,0,0,0,8.22,8.12l7.74,2.18A4.29,4.29,0,0,0,433.28,430.68Z"/><path class="cls-1" d="M376.28,326.88c-15.55-14.46-27.91-20.68-27.91-20.68l-.46-.22-9.32,23.12a120.46,120.46,0,0,1,23.11,15.69Z"/><path class="cls-1" d="M280,302.47c-11,5.34-20.2,13.41-27.54,22.26l9.5,10.48a73.51,73.51,0,0,1,23.17-13Z"/><path class="cls-1" d="M246.27,333c-9,13.2-14.24,26.77-15.9,34.85a1.15,1.15,0,0,0,2.08.88,170,170,0,0,1,22.43-27.23Z"/><path class="cls-1" d="M233.06,416.73a5.51,5.51,0,0,1-2.05-5.56c3.18-14.9,31.1-78.22,81.05-70.67,0,0,63.55,1.67,90.17,105.63,0,0,.87,5.66,8.17,8.26l18.73,5.26A15,15,0,0,1,440,474.19v9.34a5.58,5.58,0,0,1-7.22,5.41l-34.16-9.28a12.77,12.77,0,0,1-9.26-9.82c-5.42-28.5-26.61-90.37-70.51-102.83,0,0-45.22-14.23-77.87,47.88a5.32,5.32,0,0,1-7.92,1.84Z"/><path class="cls-1" d="M475.91,72.85V57s-122.5-6.86-142.55,168.26c0,0,102.33,11.08,142.55,158.24v-53.8S466.29,250,370.29,198.33c0,0,24-95,105.62-95V91.67c-37.58.9-68.44,12.37-91.78,47.26a6.39,6.39,0,0,1-10.89-6.7C382.75,116,404.64,75.56,475.91,72.85Z"/><path class="cls-1" d="M475.87,299.08S461.65,252.59,430,224.2c0,0,4.9-44,45.91-44Z"/><path class="cls-1" d="M624,298.27c12.81-3.19,24.31-3,34.51-.42l-4,21.81a62.82,62.82,0,0,0-24,2.34Z"/><path class="cls-1" d="M475.27,0V20.57S642.61,6.35,680.59,245.29c131.34,80.69,177.23,347.25,28.48,489l1.58,30.07-57,47.47s-11.08,17.41-30.07,49.06c0,0,254.77-92.43,237.36-396.72,0,0-6.33-174.16-170.9-289.87C690.08,174.25,647.36,9.49,475.27,0Z"/><path class="cls-1" d="M706.24,829.49c73.84-37.81,199.22-128.23,199.22-308.62,0-205.2-121-308-192.94-351.06-4.16-2.49-.69-8.36,3.84-6.5,212.92,87.17,234.82,275,234.82,357.55h0c0,72.6-22.47,237.7-241,314.33C705.53,836.83,702,831.68,706.24,829.49Z"/><path class="cls-1" d="M652.1,783.3s-72.79-3.17-99.69-37.19-45.1-57.76-77.14-57.76v18.2s43.91,24.53,54.2,101.27c0,0,5.54-33.23-1.59-59.73,0,0,26.91,35.21,48.27,39.16,0,0-41.14,11.87-45.89,48.27,0,0-5.54,41.93-33.23,64.88,0,0,39.56-10.08,51.05-55,8.29-26.53,26.49-36,53.39-44.1C601.47,801.33,630.74,794.37,652.1,783.3Z"/><path class="cls-1" d="M475.27,846.59v29.28s30.07-8,48.74-23.52a5.16,5.16,0,0,0-4-9.07A343.39,343.39,0,0,1,475.27,846.59Z"/><path class="cls-1" d="M475.27,913.05s55.78-.79,77.93-37.18c0,0,34.82-58.34,88.62-58.34,0,0-44.31,25.7-67.25,67.83-18.58,34.11-55.39,48.27-99.3,48.27Z"/><path class="cls-1" d="M480.27,668.81h0a8.45,8.45,0,0,1,7.29-8.37L505.09,658a8.45,8.45,0,0,1,9.6,8.36v.81a8.45,8.45,0,0,1-7.67,8.41l-17.53,1.61A8.45,8.45,0,0,1,480.27,668.81Z"/><path class="cls-1" d="M484.37,549.11l14.14,21.52a16.82,16.82,0,0,1,3.42,8.76C504,602.9,517.13,707.15,588,751.07c0,0,72.58,42.26,114.77-35.29a3.71,3.71,0,0,0-1.1-4.78h0a3.68,3.68,0,0,0-5,.68c-9.2,11.4-47.61,52.91-99.17,23.35,0,0-66.46-34.81-81.87-153.83a19,19,0,0,0-4.38-9.4l-20.7-27.58a3.94,3.94,0,0,0-5.83-.31h0A3.93,3.93,0,0,0,484.37,549.11Z"/><path class="cls-1" d="M524.38,551.32c-3.93-5.08-14.77-18.58-23.8-24.79,0,0-3.1-4.33,9.11-8.29,0,0,36.39-13.45,37.18,0,0,0,.35,110,56.18,166.16,0,0,60.92,58.55,110-45.89l5.54,4s-26.9,123.43-124.22,64.09c0,0-56.2-33.49-68.23-150.81A8.68,8.68,0,0,0,524.38,551.32Z"/><path class="cls-1" d="M677.54,513.26C653,492,627.7,495.71,627.7,495.71c-26.39,3.19-46.65,24.49-57.08,38.07.49-77.45,33.12-139.94,73.31-139.94,38.92,0,70.75,58.62,73.16,132.66A59.42,59.42,0,0,1,677.54,513.26Z"/><path class="cls-1" d="M574.85,555.09c40.52,63.31,88.16,30.12,95.55,23.47,12.07-10.86,22.8-21.62,26.64-25.84a3.57,3.57,0,0,0,.38-4.34,3.62,3.62,0,0,0-3.77-1.6c-11.68,2.38-20.33,7.71-31.52,13.94a55.1,55.1,0,0,1-14.44,5.67c-30.51,7-56.6-11.77-65.45-19.17a107.36,107.36,0,0,1,25.53-18.93,34.3,34.3,0,0,0-.77,7.26c0,15.15,9.68,27.43,21.61,27.43s21.62-12.28,21.62-27.43a33.59,33.59,0,0,0-1.72-10.72,81.74,81.74,0,0,1,24.26,10.72c15.72,11.25,34.1,7.35,44.45,3.61-1,76.59-33.42,138.09-73.29,138.09-36.36,0-66.54-51.16-72.32-118.27Q573.23,557,574.85,555.09Z"/><path class="cls-1" d="M631.26,532.06c0,5.92-3.78,10.71-8.44,10.71s-8.43-4.79-8.43-10.71a12.39,12.39,0,0,1,2.2-7.19,58.37,58.37,0,0,1,10.67-1.9A11.55,11.55,0,0,1,631.26,532.06Z"/><path class="cls-1" d="M494,497.91h0a8.7,8.7,0,0,1-10.24-8.31c-1.18-28.84.37-111.17,62.63-185.17,0,0,108.74-125.54,172.35,14.09a1.33,1.33,0,0,1-2.14,1.52c-18.76-19.45-77-75.18-157,7.21,0,0-54.67,47.41-58.51,162.24A8.81,8.81,0,0,1,494,497.91Z"/><path class="cls-1" d="M538.85,373.33a188.42,188.42,0,0,1,20.68-30.25l16.33,15.18a166.52,166.52,0,0,0-19,26.69Z"/><path class="cls-1" d="M517.91,430.68a210.06,210.06,0,0,1,11.32-37.2l18.75,8.7a193.83,193.83,0,0,0-8.81,23.25,12,12,0,0,1-8.23,8.12l-7.74,2.18A4.28,4.28,0,0,1,517.91,430.68Z"/><path class="cls-1" d="M574.9,326.88c15.55-14.46,27.91-20.68,27.91-20.68l.46-.22,9.32,23.12a120.07,120.07,0,0,0-23.1,15.69Z"/><path class="cls-1" d="M671.19,302.47c11,5.34,20.2,13.41,27.54,22.26l-9.5,10.48a73.51,73.51,0,0,0-23.17-13Z"/><path class="cls-1" d="M704.91,333c9,13.2,14.24,26.77,15.9,34.85a1.15,1.15,0,0,1-2.07.88,170,170,0,0,0-22.44-27.23Z"/><path class="cls-1" d="M718.12,416.73a5.51,5.51,0,0,0,2-5.56c-3.18-14.9-31.09-78.22-81-70.67,0,0-63.55,1.67-90.17,105.63,0,0-.87,5.66-8.16,8.26l-18.74,5.26a15,15,0,0,0-10.87,14.54v9.34a5.58,5.58,0,0,0,7.22,5.41l34.16-9.28a12.76,12.76,0,0,0,9.26-9.82c5.42-28.5,26.61-90.37,70.51-102.83,0,0,45.22-14.23,77.87,47.88a5.32,5.32,0,0,0,7.92,1.84Z"/><path class="cls-1" d="M475.27,72.85V57s122.5-6.86,142.55,168.26c0,0-102.33,11.08-142.55,158.24v-53.8S484.9,250,580.9,198.33c0,0-24-95-105.63-95V91.67c37.58.9,68.44,12.37,91.78,47.26a6.39,6.39,0,0,0,10.89-6.7C568.43,116,546.54,75.56,475.27,72.85Z"/><path class="cls-1" d="M475.31,299.08s14.22-46.49,45.87-74.88c0,0-4.9-44-45.91-44Z"/></g></g></svg>