<svg xmlns="http://www.w3.org/2000/svg" viewBox="0 0 799 965.48"><defs><style>.cls-1{fill:#fff;}</style></defs><g id="Layer_2" data-name="Layer 2"><g id="_1" data-name="1"><polygon class="cls-1" points="0 632.18 316.48 367 316.48 409.06 49.05 632.18 399.5 926.5 399.5 965.48 0 632.18"/><path class="cls-1" d="M316.48,436.7v75.21L169.32,632.18,301.66,745.06s-12.87,6.59-10.66,62.6L80.7,632.18Z"/><path class="cls-1" d="M322.42,92.57V213.63l-21.37,33.23s-83.07-9.5-28.48,97.32l-74,64.08S82.43,244.5,167,17.8l97.31,27.3s-4,19-4.74,34.42c-.4,8.7,8.3,10.68,8.3,10.68Z"/><path class="cls-1" d="M371.33,138a28.17,28.17,0,0,1,28.17-28.17v-38a437.86,437.86,0,0,0-56.22,3.32,6.24,6.24,0,0,0-5.43,6.2V197.87a6.26,6.26,0,0,0,6.26,6.26H399.5v-38A28.17,28.17,0,0,1,371.33,138Z"/><path class="cls-1" d="M147.58,11.8C91,169,117.91,324,180.81,420.13L148.58,449.8S11.3,274.15,111.16,0Z"/><path class="cls-1" d="M486.51,791.6c0-45.09-25.36-47.54-25.36-47.54V232.62a9.49,9.49,0,0,0-9.49-9.5H347.34a9.49,9.49,0,0,0-9.49,9.5V744.06s-25.37,2.45-25.37,47.54c0,0-5.49,46.29,34.86,46.29H451.66C492,837.89,486.51,791.6,486.51,791.6Zm-87,26.34a26.34,26.34,0,1,1,26.34-26.34A26.34,26.34,0,0,1,399.5,817.94Zm30.82-67.65H368.67V734.86h61.65Zm0-60.91-61.65,35.78V709.73L430.32,674Zm0-51.77L368.67,674V658.53l61.65-36.35Zm0-49H368.67V573.23h61.65Zm0-37.79H368.67V535.44h61.65Zm0-44.1H368.67V238.55h61.65Z"/><polygon class="cls-1" points="799 632.18 482.51 367 482.51 409.06 749.94 632.18 399.5 926.5 399.5 965.48 799 632.18"/><path class="cls-1" d="M482.51,436.7v75.21L629.68,632.18,497.34,745.06s12.87,6.59,10.66,62.6L718.29,632.18Z"/><path class="cls-1" d="M476.58,92.57V213.63l21.36,33.23s83.08-9.5,28.49,97.32l74,64.08S716.57,244.5,632.05,17.8L534.73,45.1s4,19,4.75,34.42c.4,8.7-8.31,10.68-8.31,10.68Z"/><path class="cls-1" d="M427.67,138a28.17,28.17,0,0,0-28.17-28.17v-38a438,438,0,0,1,56.22,3.32,6.25,6.25,0,0,1,5.43,6.2V197.87a6.26,6.26,0,0,1-6.26,6.26H399.5v-38A28.17,28.17,0,0,0,427.67,138Z"/><path class="cls-1" d="M651.41,11.8C708,169,681.08,324,618.18,420.13l32.23,29.67S787.7,274.15,687.83,0Z"/></g></g></svg>