<svg xmlns="http://www.w3.org/2000/svg" viewBox="0 0 937.58 734.26"><defs><style>.cls-1{fill:#fff;}</style></defs><g id="Layer_2" data-name="Layer 2"><g id="_1" data-name="1"><path class="cls-1" d="M468.79,4.75s-53.8.79-95.05,9.16a21.44,21.44,0,0,1-16.69-3.16A42.7,42.7,0,0,1,346.36,0S85.45,38.14,0,342.48C0,342.48,145.19,68,468.79,63.9"/><path class="cls-1" d="M468.79,103.25s-123.43,0-215.81,57c166.15,202.94,171.71,371.1,171.71,574h24.55c0-225.73-15.43-342.73-77.55-467.15A13.25,13.25,0,0,1,373.14,253l12.24-15.57A16,16,0,0,0,387,220.17c-7.62-14.63-26.12-42.7-41.64-61.14,0,0,51-22.94,123.43-22.94Z"/><circle class="cls-1" cx="468.79" cy="252.79" r="41.54"/><circle class="cls-1" cx="293.14" cy="461.86" r="80.7"/><path class="cls-1" d="M468.79,4.75s53.8.79,95.05,9.16a21.43,21.43,0,0,0,16.69-3.16A42.7,42.7,0,0,0,591.22,0S852.13,38.14,937.58,342.48c0,0-145.18-274.44-468.79-278.58"/><path class="cls-1" d="M468.79,103.25s123.43,0,215.81,57c-166.15,202.94-171.71,371.1-171.71,574H488.34c0-225.73,15.43-342.73,77.55-467.15A13.27,13.27,0,0,0,564.45,253l-12.24-15.57a16,16,0,0,1-1.63-17.26c7.62-14.63,26.12-42.7,41.64-61.14,0,0-51-22.94-123.43-22.94Z"/><circle class="cls-1" cx="644.44" cy="461.86" r="80.7"/></g></g></svg>