<svg xmlns="http://www.w3.org/2000/svg" viewBox="0 0 962.11 866.37"><defs><style>.cls-1{fill:#fff;}</style></defs><g id="Layer_2" data-name="Layer 2"><g id="_1" data-name="1"><path class="cls-1" d="M481.06,682.78v33.64S432,712.09,432,664.62v-633L456.9,0V661.49S456.79,682.78,481.06,682.78Z"/><circle class="cls-1" cx="430" cy="745.3" r="10.29"/><path class="cls-1" d="M409.85,763.12c8.9,26,33.62,26.11,33.62,26.11h15.78a4.91,4.91,0,0,1,3.46,1.44h0a4.89,4.89,0,0,1-.49,7.35c-30,22.76,18.84,21.67,18.84,21.67v46.68s-55.79-2.77-88.43-59.92c-16.94-27.39-29.53-89.34-78.5-108.7a4.82,4.82,0,0,1-.82-8.57c10.6-6.61,28.28-17.56,38.28-23.17a11.61,11.61,0,0,1,12,.36c9.8,6.3,28.46,23.12,37.57,63.12A250,250,0,0,0,409.85,763.12Z"/><path class="cls-1" d="M308,752.22l29-16.77a9.27,9.27,0,0,1,12.52,3.09,151.68,151.68,0,0,1,8.59,15.53,9.32,9.32,0,0,1-6.3,13.07l-34.52,8a7.64,7.64,0,0,1-8.74-4.47l-3.73-8.9A7.62,7.62,0,0,1,308,752.22Z"/><path class="cls-1" d="M345.76,609.63l-7.32,6a4.12,4.12,0,0,0-.1,6.29l35.49,31.17a8,8,0,0,0,9.92.49L394,646.23l1,1.17a4.4,4.4,0,0,1-.68,6.43l-13.38,10a6.2,6.2,0,0,0-1,8.91h0a6.2,6.2,0,0,0,8.47,1L413,655.52s17-12.07-7.52-29.28l-58.33-44.31S335.89,572,328,579.56C321.25,587.05,331.64,597.57,345.76,609.63Z"/><path class="cls-1" d="M337.13,654.1,288,681.53a27.09,27.09,0,0,1-18,3l-99.66-17.76a3.49,3.49,0,0,1-.59-6.7l131.4-48.21,36.88,34.55A4.79,4.79,0,0,1,337.13,654.1Z"/><path class="cls-1" d="M300.08,591V573.7a5.72,5.72,0,0,0-8.68-4.91c-10.23,6.22-28.55,20.43-49.76,50.83L293.9,600A9.53,9.53,0,0,0,300.08,591Z"/><path class="cls-1" d="M214.15,619.62H81.76s-17.41,1.22-35.34-15.14H199.91l3.69-6.85H48a23,23,0,0,1-14.91-5.5L0,563.87H242a9,9,0,0,1,6.57,2.84h0a9,9,0,0,1,.1,12.25C241.2,587.17,227.41,602.67,214.15,619.62Z"/><path class="cls-1" d="M147,524a4.12,4.12,0,0,0,3.15,5.39l132.06,24s18.88,4.75,18.88-15.83V417.76l-8.33-11.08V273.81A16.38,16.38,0,0,0,285.12,260l-32.46-20.5V489s3.11,17.93-15.35,22.68c-11.54,3-17.93-3.94-21.1-9.53a18,18,0,0,0-11.89-8.86C189,490.07,159,488.87,147,524Z"/><path class="cls-1" d="M350.77,442V560.7l74.79,50V465.23l-28.32-33.76,28.32-34.84V337.58l-27.85-31.06L425.56,269V224.7l-25.21-30.06,25.21-35.87V104.44c-31,16.88-68.46,103.91-95.36,151.38,0,0,6.85,8.44,6.85,41.15V425.78Z"/><path class="cls-1" d="M481.06,534.33h0a0,0,0,0,1,0,0V664.52a0,0,0,0,1,0,0h0a16.88,16.88,0,0,1-16.88-16.88V551.21A16.88,16.88,0,0,1,481.06,534.33Z"/><path class="cls-1" d="M481.06,682.78v33.64s49.05-4.33,49.05-51.8v-633L505.21,0V661.49S505.32,682.78,481.06,682.78Z"/><circle class="cls-1" cx="532.11" cy="745.3" r="10.29"/><path class="cls-1" d="M552.26,763.12c-8.9,26-33.62,26.11-33.62,26.11H502.86a4.91,4.91,0,0,0-3.46,1.44h0a4.89,4.89,0,0,0,.49,7.35c30,22.76-18.83,21.67-18.83,21.67v46.68s55.78-2.77,88.42-59.92c16.94-27.39,29.53-89.34,78.5-108.7a4.82,4.82,0,0,0,.82-8.57c-10.6-6.61-28.28-17.56-38.28-23.17a11.61,11.61,0,0,0-12,.36c-9.8,6.3-28.46,23.12-37.57,63.12A250,250,0,0,1,552.26,763.12Z"/><path class="cls-1" d="M654.07,752.22l-29-16.77a9.27,9.27,0,0,0-12.52,3.09A151.68,151.68,0,0,0,604,754.07a9.32,9.32,0,0,0,6.3,13.07l34.52,8a7.64,7.64,0,0,0,8.74-4.47l3.73-8.9A7.62,7.62,0,0,0,654.07,752.22Z"/><path class="cls-1" d="M616.35,609.63l7.32,6a4.12,4.12,0,0,1,.1,6.29L588.28,653.1a8,8,0,0,1-9.92.49l-10.27-7.36-1,1.17a4.41,4.41,0,0,0,.68,6.43l13.38,10a6.2,6.2,0,0,1,1,8.91h0a6.2,6.2,0,0,1-8.47,1L549.1,655.52s-17-12.07,7.52-29.28L615,581.93s11.27-9.91,19.2-2.37C640.86,587.05,630.47,597.57,616.35,609.63Z"/><path class="cls-1" d="M625,654.1l49.12,27.43a27.1,27.1,0,0,0,18,3l99.66-17.76a3.49,3.49,0,0,0,.59-6.7l-131.4-48.21L624,646.42A4.79,4.79,0,0,0,625,654.1Z"/><path class="cls-1" d="M662,591V573.7a5.72,5.72,0,0,1,8.68-4.91c10.23,6.22,28.55,20.43,49.76,50.83L668.21,600A9.53,9.53,0,0,1,662,591Z"/><path class="cls-1" d="M748,619.62H880.35s17.41,1.22,35.34-15.14H762.2l-3.69-6.85H914.08a23,23,0,0,0,14.91-5.5l33.12-28.26h-242a9,9,0,0,0-6.57,2.84h0a9,9,0,0,0-.1,12.25C720.91,587.17,734.7,602.67,748,619.62Z"/><path class="cls-1" d="M815.12,524a4.12,4.12,0,0,1-3.15,5.39l-132.06,24S661,558.07,661,537.49V417.76l8.33-11.08V273.81A16.38,16.38,0,0,1,677,260l32.46-20.5V489s-3.11,17.93,15.35,22.68c11.54,3,17.93-3.94,21.1-9.53a18,18,0,0,1,11.9-8.86C773.08,490.07,803.09,488.87,815.12,524Z"/><path class="cls-1" d="M611.34,442V560.7l-74.79,50V465.23l28.32-33.76-28.32-34.84V337.58l27.85-31.06L536.55,269V224.7l25.21-30.06-25.21-35.87V104.44c31,16.88,68.46,103.91,95.36,151.38,0,0-6.85,8.44-6.85,41.15V425.78Z"/><path class="cls-1" d="M497.93,534.33h0a0,0,0,0,1,0,0V664.52a0,0,0,0,1,0,0h0a16.88,16.88,0,0,1-16.88-16.88V551.21A16.88,16.88,0,0,1,497.93,534.33Z" transform="translate(978.99 1198.85) rotate(180)"/></g></g></svg>