<svg xmlns="http://www.w3.org/2000/svg" viewBox="0 0 933.63 933.63"><defs><style>.cls-1{fill:#fff;}</style></defs><g id="Layer_2" data-name="Layer 2"><g id="_1" data-name="1"><path class="cls-1" d="M287.7,90.36,436.56,387.11,265.82,435.16,436.56,671.53l16.57-181,195.36-44.31L557.57,63.3S417,1.75,287.7,90.36Z"/><polygon class="cls-1" points="264.82 159.82 369.26 357.51 185.7 411.43 467.81 789.46 497.07 525.95 709.48 477.14 640.28 139.25 587.54 102.86 668.75 457.66 470.8 502.63 449.65 714.67 239.08 424.67 415 377.03 284.72 126.59 264.82 159.82"/><path class="cls-1" d="M466.81,0C209,0,0,209,0,466.81S209,933.63,466.81,933.63s466.82-209,466.82-466.82S724.63,0,466.81,0Zm0,875.63C241,875.63,58,692.6,58,466.81S241,58,466.81,58,875.63,241,875.63,466.81,692.6,875.63,466.81,875.63Z"/><path class="cls-1" d="M586.68,97.42l7.88,35.26C729,184.11,824.44,314.31,824.44,466.81c0,197.51-160.12,357.63-357.63,357.63S109.19,664.32,109.19,466.81c0-136.47,76.14-254.92,188.54-315.2l-14-27.25C161.45,189.72,78.57,318.46,78.57,466.81c0,214.43,173.82,388.25,388.24,388.25S855.06,681.24,855.06,466.81C855.06,294.22,742.44,147.93,586.68,97.42Z"/></g></g></svg>