<svg xmlns="http://www.w3.org/2000/svg" viewBox="0 0 944.48 897.21"><defs><style>.cls-1{fill:#fff;}</style></defs><g id="Layer_2" data-name="Layer 2"><g id="_1" data-name="1"><path class="cls-1" d="M474.1,558.05a126.44,126.44,0,0,0-11.87,17.88A70.94,70.94,0,0,0,474.1,595.5Z"/><path class="cls-1" d="M474.1,537.21V514.27s-16.09,0-65.7,16.8c-48.49,16.75-112,14.6-147.41-13.91a1.49,1.49,0,0,0-2.33,1.69c35.09,89.06,74.6,81.66,74.6,81.66a10.05,10.05,0,0,1-.95-5.71c.22-1.28.82-2.07,2.74-2,67.82,4.42,82.87,6.13,104.24-4.95L474.1,897.21l-3-285.83c-12-14.52-23.94-36.19-23.94-36.19C459.86,549.87,474.1,537.21,474.1,537.21Zm-44.59,12.26a109.58,109.58,0,0,1-12.33,18.09,8.93,8.93,0,0,1-5.52,3c-11.68,1.57-52.5,6.57-69.49,2a2.11,2.11,0,0,1,.23-4.13c17.06-2.42,62.82-9.77,84.26-21.79A2.1,2.1,0,0,1,429.51,549.47Z"/><path class="cls-1" d="M428.36,608.16c-36.34,7.38-83,11.21-139,6.53a4.29,4.29,0,0,0-4,6.55c6.21,10,20.16,28.41,45.39,43.21a18.74,18.74,0,0,0,12.45,2.35c16.28-2.62,63.63-16.53,89.57-28.84Z"/><path class="cls-1" d="M435,651.94c-28.93,15.1-66.28,28.39-112.75,40.92-3.42.92-5.63,4.19-3,6.55,10.49,9.42,28.74,18,46,22.15,6.56,1.59,10.07.9,14-1.09,24.54-12.61,41.92-23.7,60.14-38.73Z"/><path class="cls-1" d="M440.36,692.06l3.46,27.33S418.4,751,400.17,764.94a9.38,9.38,0,0,1-5.78,1.82c-8.12,0-23.57-2.07-38.79-8a2.28,2.28,0,0,1-.35-4C376.72,742.14,427.91,705.94,440.36,692.06Z"/><path class="cls-1" d="M446.82,734.81l3,23.94s-12.09,20.62-23.88,35.1a12.76,12.76,0,0,1-6.16,4.11,160.71,160.71,0,0,1-25.47,5.29,2.68,2.68,0,0,1-2.37-4.43C404.39,784.68,440.24,745.09,446.82,734.81Z"/><path class="cls-1" d="M317.5,527.92c23.68,4.55,53.34,1.58,77.38-2.06a4.08,4.08,0,0,0,.48-8c-24.79-7-45.06-18.52-64.47-9.95-11,4.87-15.58,9.83-17.37,13.57C312.13,524.42,314.33,527.31,317.5,527.92Z"/><path class="cls-1" d="M340.31,371a62.6,62.6,0,0,0-57.8,38.58A52.22,52.22,0,1,1,338,496.09c.77,0,1.53.06,2.3.06a62.58,62.58,0,1,0,0-125.15Z"/><circle class="cls-1" cx="186.52" cy="524.76" r="36"/><path class="cls-1" d="M474.1,558.05A127.47,127.47,0,0,1,486,575.93,70.94,70.94,0,0,1,474.1,595.5Z"/><path class="cls-1" d="M474.1,537.21V514.27s16.09,0,65.69,16.8c48.5,16.75,112,14.6,147.42-13.91a1.48,1.48,0,0,1,2.32,1.69c-35.09,89.06-74.6,81.66-74.6,81.66a10.08,10.08,0,0,0,1-5.71c-.22-1.28-.82-2.07-2.74-2-67.82,4.42-82.88,6.13-104.24-4.95L474.1,897.21l2.95-285.83C489,596.86,501,575.19,501,575.19,488.34,549.87,474.1,537.21,474.1,537.21Zm44.59,12.26A109,109,0,0,0,531,567.56a8.93,8.93,0,0,0,5.52,3c11.68,1.57,52.5,6.57,69.48,2a2.11,2.11,0,0,0-.23-4.13c-17-2.42-62.82-9.77-84.26-21.79A2.1,2.1,0,0,0,518.69,549.47Z"/><path class="cls-1" d="M519.83,608.16c36.35,7.38,83,11.21,139,6.53a4.29,4.29,0,0,1,4,6.55c-6.22,10-20.16,28.41-45.39,43.21A18.75,18.75,0,0,1,605,666.8c-16.28-2.62-63.64-16.53-89.57-28.84Z"/><path class="cls-1" d="M513.22,651.94C542.14,667,579.5,680.33,626,692.86c3.42.92,5.63,4.19,3,6.55-10.49,9.42-28.74,18-46,22.15-6.57,1.59-10.08.9-13.95-1.09-24.54-12.61-41.93-23.7-60.14-38.73Z"/><path class="cls-1" d="M507.84,692.06l-3.47,27.33S529.8,751,548,764.94a9.36,9.36,0,0,0,5.78,1.82c8.11,0,23.56-2.07,38.79-8a2.28,2.28,0,0,0,.35-4C571.48,742.14,520.29,705.94,507.84,692.06Z"/><path class="cls-1" d="M501.37,734.81l-2.95,23.94s12.08,20.62,23.88,35.1a12.71,12.71,0,0,0,6.16,4.11,160.52,160.52,0,0,0,25.46,5.29,2.68,2.68,0,0,0,2.38-4.43C543.81,784.68,508,745.09,501.37,734.81Z"/><path class="cls-1" d="M630.69,527.92c-23.67,4.55-53.34,1.58-77.37-2.06a4.08,4.08,0,0,1-.48-8c24.78-7,45-18.52,64.47-9.95,11,4.87,15.58,9.83,17.37,13.57C636.07,524.42,633.86,527.31,630.69,527.92Z"/><polygon class="cls-1" points="405.26 394.01 541.35 394.01 474.1 507.41 405.26 394.01"/><path class="cls-1" d="M652,255.94a126.73,126.73,0,0,0,21.43,1.18A70.84,70.84,0,0,0,684.33,237Z"/><path class="cls-1" d="M634.08,266.49l-19.79,11.63s8.15,13.87,47.76,48.13c39,33.33,69.34,89.19,62.68,134.15a1.49,1.49,0,0,0,2.64,1.15c59-75.37,32.62-105.69,32.62-105.69a10.14,10.14,0,0,1-4.44,3.72c-1.22.45-2.2.34-3.11-1.35-30.55-60.71-36.7-74.56-57.07-87.37L944.48,84.14l-245,147.33c-6.45,17.68-19.07,39-19.07,39C652.21,272.36,634.08,266.49,634.08,266.49Zm33.15,32.24a109.62,109.62,0,0,1,21.84,1.47,8.89,8.89,0,0,1,5.35,3.26c7.27,9.27,32.26,41.93,36.92,58.9a2.11,2.11,0,0,1-3.68,1.89c-10.72-13.48-40.24-49.22-61.46-61.61A2.1,2.1,0,0,1,667.23,298.73Z"/><path class="cls-1" d="M718.42,270c24.77,27.59,51.73,65.92,76.05,116.57a4.29,4.29,0,0,0,7.67.12c5.47-10.42,14.29-31.77,14.27-61a18.74,18.74,0,0,0-4.29-11.93c-10.5-12.7-46.48-46.49-70.23-62.62Z"/><path class="cls-1" d="M752.81,242.11c27.67,17.29,58.06,42.76,92.4,76.49,2.52,2.48,6.46,2.73,7.16-.74,2.81-13.81.92-33.87-4.22-50.91-2-6.47-4.32-9.15-8-11.47-23.31-14.78-41.67-24.15-63.86-32.24Z"/><path class="cls-1" d="M784.68,217.15l21.81-16.83s40.08,5.93,61.39,14.57a9.37,9.37,0,0,1,4.49,4.06c4.12,7,10.15,21.37,12.79,37.48a2.28,2.28,0,0,1-3.31,2.34C860.09,246.66,803,220.85,784.68,217.15Z"/><path class="cls-1" d="M705.38,406.22c-8.06-22.71-25.65-46.79-41-65.67a4.08,4.08,0,0,0-7.11,3.62c6.49,24.94,6.85,48.23,24.08,60.63,9.79,7.05,16.37,8.45,20.49,8.1C705.09,412.63,706.47,409.26,705.38,406.22Z"/><path class="cls-1" d="M554.53,464a62.57,62.57,0,0,0,62.54,30.29,52.22,52.22,0,1,1,46.48-91.67c-.36-.67-.72-1.35-1.11-2A62.58,62.58,0,1,0,554.53,464Z"/><path class="cls-1" d="M525.22,227.24a62.58,62.58,0,0,0-2.33-69.45,52.22,52.22,0,1,1-102.77,1.57c-.43.63-.86,1.27-1.27,1.92a62.58,62.58,0,0,0,106.37,66Z"/><circle class="cls-1" cx="754.04" cy="524.76" r="36"/><circle class="cls-1" cx="472.54" cy="36.01" r="36"/><path class="cls-1" d="M652,255.94a127,127,0,0,1,9.41-19.29,70.75,70.75,0,0,1,22.88.32Z"/><path class="cls-1" d="M634.08,266.49l-19.79,11.63S606.15,264.24,595.5,213c-10.12-50.3-44.15-104-86.66-120.06a1.48,1.48,0,0,1,.28-2.86c94.56-14.85,108.2,23,108.2,23a10.06,10.06,0,0,0-5.41,2.07c-1,.84-1.37,1.76-.34,3.37,38.16,56.24,47.26,68.36,48.53,92.39L944.48,84.14l-248,142.24c-18.59-3-43.33-2.32-43.33-2.32C637.78,247.8,634.08,266.49,634.08,266.49Zm-12-44.65a109.55,109.55,0,0,0,9.35-19.79,8.89,8.89,0,0,0-.25-6.26c-4.55-10.87-20.92-48.6-33.47-60.93a2.11,2.11,0,0,0-3.44,2.29c6.56,15.93,23.4,59.11,23.9,83.69A2.1,2.1,0,0,0,622.06,221.84Z"/><path class="cls-1" d="M672.08,191.12c-12-35.07-32.39-77.28-64.79-123.18a4.3,4.3,0,0,1,3.62-6.77c11.77.3,34.71,3,60.25,17.26A18.75,18.75,0,0,1,679.5,88c6,15.37,18,63.24,20.5,91.84Z"/><path class="cls-1" d="M713.18,174.65c-1.63-32.59-9.09-71.53-21.83-117.94-.93-3.42.76-7,4.13-5.91,13.43,4.28,30,15.7,42.42,28.48,4.69,4.86,5.88,8.23,6.13,12.58,1.55,27.55.8,48.15-2.93,71.47Z"/><path class="cls-1" d="M750.5,159l25.32-10.86S790.15,110.21,793,87.4a9.35,9.35,0,0,0-1.36-5.91c-4.1-7-13.72-19.27-26.51-29.41a2.28,2.28,0,0,0-3.66,1.75C761.44,78.73,756.16,141.2,750.5,159Z"/><path class="cls-1" d="M790.63,142.89l22.14-9.58s11.66-20.86,18.16-38.37a12.71,12.71,0,0,0,.44-7.4A161.6,161.6,0,0,0,823,62.91a2.69,2.69,0,0,0-5,.2C812.14,81,796.16,132,790.63,142.89Z"/><path class="cls-1" d="M546.74,136.18c15.91,18.11,28.38,45.19,37.42,67.76a4.08,4.08,0,0,1-6.62,4.45c-18.63-17.81-38.8-29.47-41.24-50.55-1.39-12,.58-18.41,2.9-21.85C541,133.32,544.61,133.76,546.74,136.18Z"/><path class="cls-1" d="M292.43,255.94A126.55,126.55,0,0,1,271,257.12,71,71,0,0,1,260.14,237Z"/><path class="cls-1" d="M264,270.45s-12.62-21.3-19.07-39L0,84.14,249.1,270.86c-20.37,12.81-26.52,26.66-57.06,87.37-.91,1.69-1.9,1.8-3.11,1.35a10.09,10.09,0,0,1-4.44-3.72s-26.4,30.32,32.61,105.69a1.49,1.49,0,0,0,2.65-1.15c-6.66-45,23.66-100.82,62.67-134.15C322,292,330.18,278.12,330.18,278.12L310.4,266.49S292.27,272.36,264,270.45Zm14.25,32.19c-21.23,12.39-50.74,48.13-61.47,61.61a2.11,2.11,0,0,1-3.68-1.89c4.66-17,29.65-49.63,36.93-58.9a8.86,8.86,0,0,1,5.34-3.26,109.71,109.71,0,0,1,21.85-1.47A2.1,2.1,0,0,1,278.28,302.64Z"/><path class="cls-1" d="M226.06,270c-24.77,27.59-51.73,65.92-76.05,116.57a4.29,4.29,0,0,1-7.68.12c-5.46-10.42-14.28-31.77-14.26-61a18.73,18.73,0,0,1,4.28-11.93c10.51-12.7,46.49-46.49,70.24-62.62Z"/><path class="cls-1" d="M191.66,242.11c-27.66,17.29-58,42.76-92.39,76.49-2.53,2.48-6.46,2.73-7.17-.74C89.3,304.05,91.19,284,96.33,267c2-6.47,4.32-9.15,8-11.47,23.31-14.78,41.67-24.15,63.86-32.24Z"/><path class="cls-1" d="M159.8,217.15,138,200.32S97.9,206.25,76.6,214.89A9.37,9.37,0,0,0,72.11,219c-4.12,7-10.15,21.37-12.79,37.48a2.28,2.28,0,0,0,3.31,2.34C84.38,246.66,141.52,220.85,159.8,217.15Z"/><path class="cls-1" d="M126.21,189.92l-19.14-14.68s-23.9,0-42.36,2.82A12.7,12.7,0,0,0,58,181.28a160.77,160.77,0,0,0-17.46,19.28,2.69,2.69,0,0,0,2.62,4.3C61.72,201.25,114,190.39,126.21,189.92Z"/><path class="cls-1" d="M239.09,406.22c8.07-22.71,25.66-46.79,41-65.67a4.08,4.08,0,0,1,7.11,3.62c-6.48,24.94-6.85,48.23-24.07,60.63-9.79,7.05-16.37,8.45-20.5,8.1C239.39,412.63,238,409.26,239.09,406.22Z"/><path class="cls-1" d="M292.43,255.94a126.29,126.29,0,0,0-9.4-19.29,70.82,70.82,0,0,0-22.89.32Z"/><path class="cls-1" d="M291.28,224.06s-24.74-.65-43.33,2.32L0,84.14,284.37,210.83c1.27-24,10.38-36.15,48.54-92.39,1-1.61.65-2.53-.34-3.37a10.09,10.09,0,0,0-5.41-2.07s13.64-37.81,108.2-23a1.49,1.49,0,0,1,.28,2.86C393.13,109,359.09,162.66,349,213c-10.65,51.28-18.8,65.16-18.8,65.16L310.4,266.49S306.7,247.8,291.28,224.06Zm35.05-3.22c.5-24.58,17.34-67.76,23.9-83.69a2.11,2.11,0,0,0-3.45-2.29c-12.55,12.33-28.91,50.06-33.47,60.93a8.94,8.94,0,0,0-.24,6.26,109.55,109.55,0,0,0,9.35,19.79A2.1,2.1,0,0,0,326.33,220.84Z"/><path class="cls-1" d="M272.4,191.12c12-35.07,32.39-77.28,64.79-123.18a4.3,4.3,0,0,0-3.63-6.77c-11.76.3-34.7,3-60.24,17.26A18.75,18.75,0,0,0,265,88c-6,15.37-18,63.24-20.5,91.84Z"/><path class="cls-1" d="M231.3,174.65c1.63-32.59,9.09-71.53,21.82-117.94.94-3.42-.75-7-4.12-5.91-13.43,4.28-30,15.7-42.42,28.48-4.7,4.86-5.88,8.23-6.13,12.58-1.55,27.55-.8,48.15,2.93,71.47Z"/><path class="cls-1" d="M194,159l-25.32-10.86s-14.33-37.9-17.16-60.71a9.35,9.35,0,0,1,1.36-5.91c4.1-7,13.72-19.27,26.51-29.41A2.28,2.28,0,0,1,183,53.83C183,78.73,188.32,141.2,194,159Z"/><path class="cls-1" d="M153.85,142.89l-22.15-9.58s-11.65-20.86-18.16-38.37a12.71,12.71,0,0,1-.43-7.4,161.6,161.6,0,0,1,8.34-24.63,2.69,2.69,0,0,1,5,.2C132.34,81,148.32,132,153.85,142.89Z"/><path class="cls-1" d="M397.73,136.18c-15.91,18.11-28.37,45.19-37.41,67.76a4.08,4.08,0,0,0,6.62,4.45c18.63-17.81,38.8-29.47,41.24-50.55,1.39-12-.59-18.41-2.9-21.85C403.48,133.32,399.86,133.76,397.73,136.18Z"/><polygon class="cls-1" points="541.47 393.38 472.54 278.82 609.38 279.59 541.47 393.38"/><polygon class="cls-1" points="404.77 393.38 335.84 279.05 472.69 278.82 404.77 393.38"/></g></g></svg>