<svg xmlns="http://www.w3.org/2000/svg" viewBox="0 0 952.1 947.16"><defs><style>.cls-1{fill:#fff;}</style></defs><g id="Layer_2" data-name="Layer 2"><g id="_1" data-name="1"><path class="cls-1" d="M451.52,340.2s4.13-22.57,24.72-22.57V114.49s-45.47,0-74.35,19.58V423.81s-122.68-1.58-122.68,9.5V506.6c0,11.08,122.68,9.5,122.68,9.5V819.85c14.63,18.58,74.35,18.57,74.35,18.57V629.29c-20.59,0-24.72-20.58-24.72-20.58V340.2Z"/><path class="cls-1" d="M371.82,153.8s-28.48,13.66-27.69,31.07V295.64s.26,25.32-18.65,25.48c0,0-48.6-2.8-45.81,38.23,0,0-.86,34.4,48.81,34.4l43.34-1Z"/><path class="cls-1" d="M246,537.16s31.92,21.55,124.49,21.55V681S265,620.24,246,537.16Z"/><path class="cls-1" d="M380.22,751S217.14,694,159,505.31l20.17-21.37S131.69,431.73,159,353.4c0,0,9.47,74.39,81.89,110.93V341.53s-2.21-67.76,62.86-67.76c0,0,39-98.38-62.31-153.22a40.47,40.47,0,0,0-44.21,3.93c-26,20.42-71.85,51.7-89.27,34.28,0,0-155.47,161.4-73.58,352.48S284.21,775.9,380.22,751Z"/><path class="cls-1" d="M5.9,537.46c23.77,60,104.82,213.81,308.37,261.36,0,0,121.24,143.23,314.69,19.81,0,0,29.67,41.53,60.53,48.66,0,0-213.25,185.14-480.66-8.31,0,0-182.56-121.35-208.8-320A3.06,3.06,0,0,1,5.9,537.46Z"/><path class="cls-1" d="M500.57,340.2s-4.12-22.57-24.71-22.57V114.49s45.47,0,74.35,19.58V423.81s122.68-1.58,122.68,9.5V506.6c0,11.08-122.68,9.5-122.68,9.5V819.85c-14.64,18.58-74.35,18.57-74.35,18.57V629.29c20.59,0,24.71-20.58,24.71-20.58V340.2Z"/><path class="cls-1" d="M580.27,793.36S608.76,779.7,608,762.3V651.53s-.27-25.32,18.65-25.49c0,0,48.6,2.81,45.81-38.23,0,0,.86-34.39-48.81-34.39l-43.35,1Z"/><path class="cls-1" d="M706.1,410s-31.93-21.55-124.5-21.55V266.21S687.11,326.92,706.1,410Z"/><path class="cls-1" d="M571.87,196.19s163.08,57,221.24,245.67l-20.18,21.36s47.48,52.22,20.18,130.55c0,0-9.47-74.4-81.89-110.94V605.64s2.21,67.75-62.87,67.75c0,0-39,98.38,62.32,153.23a40.49,40.49,0,0,0,44.21-3.94c26-20.41,71.84-51.69,89.26-34.27,0,0,155.47-161.41,73.58-352.49S667.89,171.26,571.87,196.19Z"/><path class="cls-1" d="M946.19,409.7c-23.76-60-104.82-213.8-308.37-261.36,0,0-121.24-143.23-314.69-19.8,0,0-29.67-41.54-60.53-48.66,0,0,213.26-185.14,480.66,8.31,0,0,182.56,121.34,208.8,320A3.06,3.06,0,0,1,946.19,409.7Z"/></g></g></svg>