<svg xmlns="http://www.w3.org/2000/svg" viewBox="0 0 944.29 776.13"><defs><style>.cls-1{fill:#fff;}</style></defs><g id="Layer_2" data-name="Layer 2"><g id="_1" data-name="1"><path class="cls-1" d="M472.14,612.65c-142.77,0-258.51,17.22-258.51,38.45s115.74,42.33,258.51,42.33,258.52-21.1,258.52-42.33S614.92,612.65,472.14,612.65Zm0,68.11C346.69,680.76,245,666.5,245,648.9s101.7-31.85,227.15-31.85S699.3,631.31,699.3,648.9,597.6,680.76,472.14,680.76Z"/><path class="cls-1" d="M472.14,0,201.94,319.65l270.2,335.29L742.35,319.65ZM317.45,319.65l154.69-183,154.69,183-154.69,192Z"/><polygon class="cls-1" points="542.21 342.58 408.74 501.6 343.14 439.74 484.26 278.7 542.21 342.58"/><polygon class="cls-1" points="511.34 308.56 481.43 346.06 420.67 279.52 453.52 243.86 511.34 308.56"/><path class="cls-1" d="M472.14,556.18C211.39,556.18,0,603.05,0,660.87S211.39,776.13,472.14,776.13s472.15-57.44,472.15-115.26S732.9,556.18,472.14,556.18Zm0,185.46C243,741.64,57.28,702.8,57.28,654.89S243,568.14,472.14,568.14,887,607,887,654.89,701.27,741.64,472.14,741.64Z"/></g></g></svg>