<svg xmlns="http://www.w3.org/2000/svg" viewBox="0 0 880.22 931.04"><defs><style>.cls-1{fill:#fff;}</style></defs><g id="Layer_2" data-name="Layer 2"><g id="_1" data-name="1"><path class="cls-1" d="M424.49,514.68V100.22c-44.31,1.85-106.42,11.34-106.42,11.34-21.76,4.35-32.67,16.79-32.67,16.79s-16.78,14.07-41.31,43.74c5.54,11.47,18.59,21,18.59,21s37.19-43.91,60.53-51l1.83-.53c23.61-6.57,63-6.19,63-6.19V377.41L359.61,157.05A106.22,106.22,0,0,0,331,160.81a53.5,53.5,0,0,0-24.06,14.38l-48.58,50.3C222.73,204.53,121.06,0,121.06,0L72,209.67c-1.58,25.71,97.72,159.43,97.72,159.43l24.53-86.64-55-126.2,83.86,122.25c7.52,11.07.8,21.75.8,21.75l-55.39,83.85c-11,17-28.48,26.53-28.48,26.53S27.38,484,13.45,492.13,0,510,0,510v45.84c35.21-11.47,115.92-22.15,115.92-22.15L80.71,599.74c-8.31,15.82,1.58,26.9,1.58,26.9l37.19,41.14c12.26,12.66,26.11,0,26.11,0C159,657.89,195,641.67,195,641.67c9.49,19.38,17,83.47,17,83.47-.4,15.43,17,27.3,17,27.3,48.26,37.19,158.64,165,158.64,165,8.3,11.47,22.94,11.86,22.94,11.86h13.85V708.74a93.87,93.87,0,0,1-51.91-15.13,5.32,5.32,0,0,1-2.08-6.3l3.83-10.49a5.32,5.32,0,0,1,7.54-2.88c16.51,9.1,42.62,11.64,42.62,11.64V655.12c-45.1-1.19-72-22.15-72-22.15l-22.16,28.08c-1.58-18.19-24.72-22.54-24.72-22.54,10.09,2.37,16.81-4.75,16.81-4.75l32.05-29.28c29.27,34.82,70,23.74,70,23.74V584.73c-11.48,8.68-30.09,7.53-41.15-1.21l-26.85-21.35a6.56,6.56,0,0,0-8.07-.07l-35,26.83a8.41,8.41,0,0,1-9.83.28L192.37,513.74a8.4,8.4,0,0,1-3.64-6.16l-2-21s113.93,49.45,122.64,51,11.47-3.17,11.47-3.17l14.24-33.63,30.86,44.31c10.6,15.9,24.13,19.39,39.56,19.39s5.93-19,5.93-19l-13.05-16.62V502.81ZM367.59,817a2.59,2.59,0,0,1,4.78.86c1.43,8.63,7,22.74,27.88,24.91v26.9l-18.64-5.8s-17.16-5.8-18.22-29A34.89,34.89,0,0,1,367.59,817ZM132.06,474.36,65.3,492s55.16-34.92,70.15-45.17,17.38,2.56,17.38,2.56l15.59,60.37-24.93-31.65A11,11,0,0,0,132.06,474.36ZM338.67,783.48s-6.95,19-6.41,32.18c0,0-67.33-75.43-84.43-82.82C247.83,732.84,311.42,758.69,338.67,783.48Zm-103-184.77a90.31,90.31,0,0,1,11.79,10.22C269.14,631.14,286,634.21,286,634.21c-23.16,9.44-58.91,9.44-58.91,9.44L219,620.79a31,31,0,0,0-5.74-9.87l-45-52.25C201.81,575.42,224.69,590.76,235.69,598.71Zm99.86-166.8-14.39,31.2-51-3.07,57.12-35.3C332.1,421.75,337.92,426.78,335.55,431.91Z"/><path class="cls-1" d="M247.83,800.7s1.7,55.39,22.32,79.12L286,833.93S264.63,809,247.83,800.7Z"/><path class="cls-1" d="M306.73,861.11s-3.47,47.71,12.12,69.93l17.72-38S320.42,869.73,306.73,861.11Z"/><path class="cls-1" d="M455.74,514.68V100.22c44.3,1.85,106.41,11.34,106.41,11.34,21.76,4.35,32.67,16.79,32.67,16.79s16.78,14.07,41.31,43.74c-5.54,11.47-18.59,21-18.59,21S580.35,149.14,557,142l-1.83-.53c-23.61-6.57-63-6.19-63-6.19V377.41l28.49-220.36a106.2,106.2,0,0,1,28.63,3.76,53.5,53.5,0,0,1,24.06,14.38l48.58,50.3C657.49,204.53,759.16,0,759.16,0l49.06,209.67c1.58,25.71-97.71,159.43-97.71,159.43L686,282.46l55-126.2L657.1,278.51c-7.52,11.07-.79,21.75-.79,21.75l55.38,83.85c11,17,28.49,26.53,28.49,26.53S852.84,484,866.77,492.13,880.22,510,880.22,510v45.84C845,544.35,764.31,533.67,764.31,533.67l35.21,66.07c8.3,15.82-1.59,26.9-1.59,26.9l-37.18,41.14c-12.27,12.66-26.11,0-26.11,0-13.45-9.89-49.45-26.11-49.45-26.11-9.5,19.38-17,83.47-17,83.47.39,15.43-17,27.3-17,27.3-48.26,37.19-158.63,165-158.63,165-8.31,11.47-22.95,11.86-22.95,11.86H455.74V708.74a93.8,93.8,0,0,0,51.9-15.13,5.34,5.34,0,0,0,2.09-6.3l-3.84-10.49a5.31,5.31,0,0,0-7.53-2.88c-16.52,9.1-42.62,11.64-42.62,11.64V655.12c45.1-1.19,72-22.15,72-22.15l22.15,28.08c1.58-18.19,24.73-22.54,24.73-22.54-10.09,2.37-16.82-4.75-16.82-4.75l-32-29.28c-29.28,34.82-70,23.74-70,23.74V584.73c11.47,8.68,30.09,7.53,41.14-1.21l26.85-21.35a6.56,6.56,0,0,1,8.07-.07l35,26.83a8.43,8.43,0,0,0,9.84.28l111.18-75.47a8.44,8.44,0,0,0,3.65-6.16l2-21s-113.93,49.45-122.63,51-11.48-3.17-11.48-3.17l-14.24-33.63-30.85,44.31c-10.6,15.9-24.14,19.39-39.56,19.39s-5.94-19-5.94-19l13.06-16.62V502.81ZM512.63,817a2.59,2.59,0,0,0-4.78.86c-1.42,8.63-7,22.74-27.88,24.91v26.9l18.65-5.8s17.15-5.8,18.22-29A34.84,34.84,0,0,0,512.63,817ZM748.17,474.36,814.93,492s-55.16-34.92-70.15-45.17-17.39,2.56-17.39,2.56L711.8,509.8l24.94-31.65A11,11,0,0,1,748.17,474.36ZM541.55,783.48s7,19,6.42,32.18c0,0,67.32-75.43,84.42-82.82C632.39,732.84,568.81,758.69,541.55,783.48Zm103-184.77a90.31,90.31,0,0,0-11.79,10.22c-21.66,22.21-38.54,25.28-38.54,25.28,23.16,9.44,58.9,9.44,58.9,9.44l8.13-22.86a31,31,0,0,1,5.74-9.87l45-52.25C678.41,575.42,655.54,590.76,644.53,598.71Zm-99.86-166.8,14.39,31.2,51-3.07L553,424.74C548.12,421.75,542.31,426.78,544.67,431.91Z"/><path class="cls-1" d="M632.39,800.7s-1.69,55.39-22.32,79.12L594.2,833.93S615.6,809,632.39,800.7Z"/><path class="cls-1" d="M573.49,861.11S577,908.82,561.37,931l-17.72-38S559.81,869.73,573.49,861.11Z"/></g></g></svg>