<svg xmlns="http://www.w3.org/2000/svg" viewBox="0 0 991.91 816.8"><defs><style>.cls-1{fill:#fff;}</style></defs><g id="Layer_2" data-name="Layer 2"><g id="_1" data-name="1"><polygon class="cls-1" points="264.78 423.18 274.27 475.4 211.37 526.43 211.37 469.81 264.78 423.18"/><path class="cls-1" d="M274.27,325.86l145,129.55s21.17-9.4,77.51-9.4V634.87s-15.19,0-25.48-17.61c0,0-8.7-17.77-39.16-13.06,0,0-35.35,4.79-62.29-20.17a1.29,1.29,0,0,0-2.06,1.46c5.73,12.69,25.36,43.45,84.79,58.3l-40.09,44.84s-35.34-2.33-55.39,28.79l-3.69-111.08-42.2,34.82-2.63-69.63,34.28-15.82h-96L317,484,303.81,428.8,361,481.17l12.83-6.8-91.15-84.09Z"/><path class="cls-1" d="M496.76,640.63s-32.6,1-64.78,53.27c0,0-10.54,11.61,4.75,30.6,0,0,12.4,13.14,16.88,51.16,0,0,2.11,15.3,43.15,41.14Z"/><rect class="cls-1" x="474.62" y="88.1" width="44.28" height="103.65"/><polygon class="cls-1" points="454.29 379.1 470.91 359.14 496.76 359.14 496.76 283.78 419.85 373.73 385.5 344.29 440.3 244.76 496.76 244.76 496.76 219.44 424.29 219.44 351.81 348.41 414.31 404.58 496.76 404.58 496.76 379.1 454.29 379.1"/><polygon class="cls-1" points="728.75 423.18 719.26 475.4 782.16 526.43 782.16 469.81 728.75 423.18"/><path class="cls-1" d="M719.26,325.86l-145,129.55s-21.17-9.4-77.52-9.4V634.87s15.2,0,25.49-17.61c0,0,8.7-17.77,39.16-13.06,0,0,35.35,4.79,62.28-20.17a1.29,1.29,0,0,1,2.07,1.46C620,598.18,600.4,628.94,541,643.79l40.09,44.84s35.34-2.33,55.39,28.79l3.69-111.08,42.2,34.82L685,571.53l-34.28-15.82h96L676.53,484l13.19-55.17-57.16,52.37-12.83-6.8,91.14-84.09Z"/><path class="cls-1" d="M496.76,640.63s32.61,1,64.78,53.27c0,0,10.55,11.61-4.74,30.6,0,0-12.4,13.14-16.88,51.16,0,0-2.11,15.3-43.16,41.14Z"/><path class="cls-1" d="M22.69,0,142.62,107.17s17.52-7.78,64.12-7.78V255.62s-12.57,0-21.08-14.57c0,0-7.2-14.7-32.39-10.8,0,0-29.24,4-51.53-16.68a1.07,1.07,0,0,0-1.71,1.21c4.74,10.49,21,35.94,70.14,48.23L137,300.09s-29.23-1.92-45.81,23.82L88.14,232,53.23,260.82l-2.18-57.59,28.36-13.09H0l58-59.35L47.13,85.16l47.28,43.32L105,122.85,29.63,53.29Z"/><path class="cls-1" d="M206.74,260.39s-27,.87-53.58,44.07c0,0-8.73,9.6,3.92,25.31,0,0,10.26,10.87,14,42.32,0,0,1.74,12.66,35.69,34Z"/><path class="cls-1" d="M390.8,0,270.87,107.17s-17.52-7.78-64.13-7.78V255.62s12.58,0,21.09-14.57c0,0,7.2-14.7,32.39-10.8,0,0,29.24,4,51.53-16.68a1.07,1.07,0,0,1,1.71,1.21c-4.74,10.49-21,35.94-70.14,48.23l33.16,37.08s29.23-1.92,45.81,23.82L325.35,232l34.91,28.79,2.18-57.59-28.36-13.09h79.41l-58-59.35,10.9-45.63-47.28,43.32-10.62-5.63,75.4-69.56Z"/><path class="cls-1" d="M206.74,260.39s27,.87,53.59,44.07c0,0,8.73,9.6-3.92,25.31,0,0-10.26,10.87-14,42.32,0,0-1.74,12.66-35.7,34Z"/><path class="cls-1" d="M601.11,0,721,107.17s17.51-7.78,64.12-7.78V255.62s-12.57,0-21.08-14.57c0,0-7.2-14.7-32.4-10.8,0,0-29.24,4-51.52-16.68a1.07,1.07,0,0,0-1.71,1.21c4.74,10.49,21,35.94,70.14,48.23l-33.16,37.08s-29.24-1.92-45.82,23.82L666.56,232l-34.91,28.79-2.18-57.59,28.36-13.09H578.42l58-59.35L625.54,85.16l47.29,43.32,10.61-5.63L608,53.29Z"/><path class="cls-1" d="M785.16,260.39s-27,.87-53.59,44.07c0,0-8.72,9.6,3.93,25.31,0,0,10.25,10.87,14,42.32,0,0,1.75,12.66,35.7,34Z"/><path class="cls-1" d="M969.22,0,849.28,107.17s-17.51-7.78-64.12-7.78V255.62s12.57,0,21.08-14.57c0,0,7.2-14.7,32.4-10.8,0,0,29.24,4,51.52-16.68a1.07,1.07,0,0,1,1.71,1.21c-4.74,10.49-21,35.94-70.14,48.23l33.16,37.08s29.24-1.92,45.82,23.82l3-91.88,34.91,28.79,2.18-57.59-28.36-13.09h79.42l-58-59.35,10.91-45.63-47.29,43.32-10.61-5.63,75.4-69.56Z"/><path class="cls-1" d="M785.16,260.39s27,.87,53.59,44.07c0,0,8.73,9.6-3.93,25.31,0,0-10.25,10.87-14,42.32,0,0-1.75,12.66-35.7,34Z"/><polygon class="cls-1" points="539.24 379.1 522.62 359.14 496.76 359.14 496.76 283.78 573.68 373.73 608.03 344.29 553.23 244.76 496.76 244.76 496.76 219.44 569.24 219.44 641.72 348.41 579.22 404.58 496.76 404.58 496.76 379.1 539.24 379.1"/></g></g></svg>