<svg xmlns="http://www.w3.org/2000/svg" viewBox="0 0 769.06 939.19"><defs><style>.cls-1{fill:#fff;}</style></defs><g id="Layer_2" data-name="Layer 2"><g id="_1" data-name="1"><path class="cls-1" d="M304.62,710.66s7.05,16.46,19.78,20.42l-4.75-20.42Z"/><path class="cls-1" d="M297.29,670.31s4.57,18.5,16.67,31.85a5.91,5.91,0,0,0,10.23-3.74c.38-7.09,1.79-14,6.19-18.73,2.1-2.24,3.72-4.86,3.18-7.89l-7.92-45.2a8,8,0,0,0-8.65-6.55,106.66,106.66,0,0,0-21.88,4.43,7.86,7.86,0,0,0-5.33,8.75C291.27,642.18,293.34,658.82,297.29,670.31Z"/><path class="cls-1" d="M282.25,637.69a8.08,8.08,0,0,0-11-6.3c-12,4.91-19.27,10.44-22.9,13.73a7.91,7.91,0,0,0-2.59,6.56c3.57,39.78,24.31,60.45,32.13,66.92a1.83,1.83,0,0,0,3-1.41V693.72a9.7,9.7,0,0,1,3.53-7.49l3-2.5a9,9,0,0,0,3.06-8.9Z"/><path class="cls-1" d="M333.64,625.84c1.48,14.39,5.54,47.95,12.77,65.64a7.07,7.07,0,0,0,8.73,4.09c5.54-1.8,13.6-6.82,19.57-20.66V624.49a8.26,8.26,0,0,0-8.32-8.26A221.37,221.37,0,0,0,339.86,618,7.19,7.19,0,0,0,333.64,625.84Z"/><path class="cls-1" d="M347.34,719a11.08,11.08,0,0,0-11.08,11.08v63.48c0,27.43,3.17,48.53,17.9,58v-3.36a23.44,23.44,0,0,0-2-9.33c-1.85-4.23-4.3-12.23-4.3-24.76,3.18-27.07,1.58-25.84,1.58-48.52l5.23-4a9.52,9.52,0,0,0,3.74-7.57v-24A11.08,11.08,0,0,0,347.34,719Z"/><path class="cls-1" d="M299.87,735s16.24,19.52,28.9,26.9v45.89s-4.37,4.22-4.37,15.83v21.1s1.31,7.38-11.08,15.29V791.47l-9.06-8.16a13.36,13.36,0,0,1-4.39-9.89Z"/><path class="cls-1" d="M384.53,69.32s-119.48-5.63-159.83,43c0,0-24.92,20.18-41.54,29.67,0,0-31.41,28.49-34.19,115.12,0,0,3.52,42.73-7.16,79.52h18.81s14.24,1.19,19,17l29.86,14.66,19.2-34.65-32.44-25.11V241.32s-22.95-16.62,0-54.59c0,0-7.12,24.52,4.75,38a113.88,113.88,0,0,0,14.43-33s6-20,32.26-37.43A17.53,17.53,0,0,0,255,143.7c3.14-13.34,15.4-42.6,62.77-47.46,0,0,2.63,9.78,20,8.78,0,0,26.11-1.37,46.68-1.37Z"/><path class="cls-1" d="M247.23,346.76s36.85,26.19,58.19,36.65a10.86,10.86,0,0,0,10.28-.35c7.14-4.19,25.55-11.19,68.83-11.19v39.56c-34.42,0-44.48,11.87-51.43,3.16-7.3-9.13-31.65,19-31.65,19s-3.16,10.29-27.69,0l-28-10.28v-17a18.09,18.09,0,0,0-7.29-14.5l-11.95-8.62Z"/><path class="cls-1" d="M384.53,349.45s-34.76-.53-59.74,8.14a3.68,3.68,0,0,1-4.34-5.38l17.34-27.55s5.33-9,46.74-9Z"/><path class="cls-1" d="M319.92,122.16c-35.35,4.17-46.82,19.39-53.81,42.15-44.84,27.95-39.45,83.34-39.45,83.34-.17,38.5,19.35,54.28,54.75,68,28.48,11.08,42.32-2.66,49.17-10.76a16.72,16.72,0,0,1,9-5.4,215.35,215.35,0,0,1,44.95-5.46V119S341.14,119.66,319.92,122.16Z"/><path class="cls-1" d="M158.51,412.64c6.32-20.18,10.54-50.53,46.41-31.54l26.69,17.45a12.12,12.12,0,0,1,5.49,10.15v16.71s-1.58,15.82-23.74,7.91l-15.27-7.08a7,7,0,0,0-9.29,3.42l-3.92,8.49-8.58-3.27a5,5,0,0,0-6.24,2.34c-3.56,6.66-8.54,22.8-11.17,35.71a63.25,63.25,0,0,1-8.56,21c-6.94,11-19.38,23.83-27.69,28,0,0-5.8-69.09,4.22-108.13,0,0,15.14,1.06,15,14.24v10.73A3.65,3.65,0,0,0,148.9,440C152.76,429,157,418.49,158.51,412.64Z"/><path class="cls-1" d="M282,475.81a43.32,43.32,0,0,1,1.49,11.31c0,19.23-12.28,34.81-27.43,34.81s-27.43-15.58-27.43-34.81c0-15.89,8.4-29.29,19.86-33.46-3.17-1.54-5.12-2.35-5.12-2.35s-35.28-16.94-42.14,18.93,41.14,63.83,41.14,63.83,24.1,12,40.56-14.3C296.69,497.79,295.5,488.19,282,475.81Z"/><path class="cls-1" d="M256.06,465.63c-9.35,0-16.93,9.62-16.93,21.49s7.58,21.49,16.93,21.49S273,499,273,487.12,265.42,465.63,256.06,465.63Zm0,34.68c-5.27,0-9.55-5.91-9.55-13.19s4.28-13.19,9.55-13.19,9.55,5.91,9.55,13.19S261.34,500.31,256.06,500.31Z"/><path class="cls-1" d="M384.53,440.7s-40-.21-51.87,9.81c-15.49,13.11-26.15,71.2-26.15,71.2l20.26,10.77s4.08-33.75,14.54-54.27a16.34,16.34,0,0,1,10.28-8.39c5.8-1.57,15.91-4.19,32.94-4.19Z"/><path class="cls-1" d="M384.53,508.61s-17.15,20.71-21.89,36.53c0,0,3.43,14.83-10.42,17.46H333.66v4.11a7.31,7.31,0,0,0,4.56,6.78c8.24,3.36,26.61,9.91,46.31,10.69Z"/><path class="cls-1" d="M299.92,546.39l20,11.41s-8.16,18.43-18.84,26.94a15.9,15.9,0,0,1-9.15,3.42l-44.07,2.09a16.54,16.54,0,0,0-9.32,3.43c-9.34,7.23-34.57,23.63-62.1,15.29,0,0-24.64-10.67-39.09-36.58a9.54,9.54,0,0,1,2.09-11.8c9.78-8.52,28.55-28.16,27.74-52.69a4.37,4.37,0,0,1,3.09-4.37h0a4.33,4.33,0,0,1,5.31,2.62,67.64,67.64,0,0,0,41.47,40.24c34.82,11.94,55.95,15.1,55.95,15.1s11.24,2,17.21-3.07C294.53,554.44,297.39,549.81,299.92,546.39Z"/><polygon class="cls-1" points="316.48 0 316.48 18.99 184.35 18.99 184.35 58.55 42.73 215.21 42.73 291.17 0 357.81 0 202.55 179.03 0 316.48 0"/><rect class="cls-1" x="49.05" y="219.39" width="15.82" height="189.66"/><polygon class="cls-1" points="316.48 939.19 316.48 919.87 184.35 919.87 184.35 879.61 42.73 720.21 42.73 642.92 0 575.11 0 733.09 179.03 939.19 316.48 939.19"/><rect class="cls-1" x="49.05" y="522.97" width="15.82" height="192.99"/><path class="cls-1" d="M464.44,710.66s-7.05,16.46-19.78,20.42l4.75-20.42Z"/><path class="cls-1" d="M471.77,670.31s-4.58,18.5-16.67,31.85a5.91,5.91,0,0,1-10.23-3.74c-.39-7.09-1.79-14-6.19-18.73-2.1-2.24-3.73-4.86-3.18-7.89l7.92-45.2a8,8,0,0,1,8.65-6.55,106.58,106.58,0,0,1,21.87,4.43,7.87,7.87,0,0,1,5.34,8.75C477.79,642.18,475.72,658.82,471.77,670.31Z"/><path class="cls-1" d="M486.81,637.69a8.07,8.07,0,0,1,11-6.3c12,4.91,19.27,10.44,22.9,13.73a7.91,7.91,0,0,1,2.59,6.56c-3.57,39.78-24.31,60.45-32.14,66.92a1.82,1.82,0,0,1-3-1.41V693.72a9.71,9.71,0,0,0-3.54-7.49l-3-2.5a9,9,0,0,1-3.06-8.9Z"/><path class="cls-1" d="M435.42,625.84c-1.48,14.39-5.55,47.95-12.77,65.64a7.08,7.08,0,0,1-8.74,4.09c-5.53-1.8-13.59-6.82-19.57-20.66V624.49a8.26,8.26,0,0,1,8.33-8.26A221.49,221.49,0,0,1,429.2,618,7.19,7.19,0,0,1,435.42,625.84Z"/><path class="cls-1" d="M421.71,719a11.08,11.08,0,0,1,11.08,11.08v63.48c0,27.43-3.16,48.53-17.89,58v-3.36a23.44,23.44,0,0,1,2-9.33c1.84-4.23,4.3-12.23,4.3-24.76-3.19-27.07-1.59-25.84-1.59-48.52l-5.22-4a9.52,9.52,0,0,1-3.74-7.57v-24A11.08,11.08,0,0,1,421.71,719Z"/><path class="cls-1" d="M469.19,735s-16.24,19.52-28.9,26.9v45.89s4.37,4.22,4.37,15.83v21.1s-1.32,7.38,11.08,15.29V791.47l9.05-8.16a13.33,13.33,0,0,0,4.4-9.89Z"/><path class="cls-1" d="M384.53,69.32s119.47-5.63,159.82,43c0,0,24.92,20.18,41.54,29.67,0,0,31.42,28.49,34.2,115.12,0,0-3.53,42.73,7.15,79.52h-18.8s-14.24,1.19-19,17l-29.86,14.66L540.4,333.68l32.44-25.11V241.32s22.94-16.62,0-54.59c0,0,7.12,24.52-4.75,38a113.74,113.74,0,0,1-14.44-33s-6-20-32.25-37.43A17.54,17.54,0,0,1,514,143.7c-3.14-13.34-15.4-42.6-62.76-47.46,0,0-2.63,9.78-20,8.78,0,0-26.11-1.37-46.68-1.37Z"/><path class="cls-1" d="M521.82,346.76S485,373,463.63,383.41a10.86,10.86,0,0,1-10.28-.35c-7.13-4.19-25.54-11.19-68.82-11.19v39.56c34.42,0,44.48,11.87,51.43,3.16,7.29-9.13,31.64,19,31.64,19s3.17,10.29,27.7,0l28-10.28v-17a18.06,18.06,0,0,1,7.29-14.5l11.94-8.62Z"/><path class="cls-1" d="M384.53,349.45s34.76-.53,59.73,8.14a3.69,3.69,0,0,0,4.35-5.38l-17.35-27.55s-5.33-9-46.73-9Z"/><path class="cls-1" d="M449.14,122.16c35.34,4.17,46.82,19.39,53.81,42.15,44.83,27.95,39.45,83.34,39.45,83.34.16,38.5-19.35,54.28-54.75,68-28.48,11.08-42.33-2.66-49.17-10.76a16.78,16.78,0,0,0-9-5.4,215.22,215.22,0,0,0-44.94-5.46V119S427.92,119.66,449.14,122.16Z"/><path class="cls-1" d="M610.55,412.64c-6.32-20.18-10.55-50.53-46.42-31.54l-26.69,17.45A12.14,12.14,0,0,0,532,408.7v16.71s1.58,15.82,23.73,7.91L571,426.24a7,7,0,0,1,9.3,3.42l3.92,8.49,8.57-3.27a5,5,0,0,1,6.25,2.34c3.56,6.66,8.54,22.8,11.17,35.71a63.25,63.25,0,0,0,8.56,21c6.94,11,19.38,23.83,27.69,28,0,0,5.8-69.09-4.22-108.13,0,0-15.14,1.06-15,14.24v10.73a3.65,3.65,0,0,1-7.09,1.22C616.29,429,612,418.49,610.55,412.64Z"/><path class="cls-1" d="M487.05,475.81a43.32,43.32,0,0,0-1.49,11.31c0,19.23,12.28,34.81,27.43,34.81s27.43-15.58,27.43-34.81c0-15.89-8.39-29.29-19.86-33.46,3.18-1.54,5.12-2.35,5.12-2.35s35.29-16.94,42.14,18.93-41.14,63.83-41.14,63.83-24.09,12-40.56-14.3C472.36,497.79,473.56,488.19,487.05,475.81Z"/><path class="cls-1" d="M513,465.63c9.35,0,16.94,9.62,16.94,21.49s-7.59,21.49-16.94,21.49-16.93-9.62-16.93-21.49S503.64,465.63,513,465.63Zm0,34.68c5.28,0,9.55-5.91,9.55-13.19s-4.27-13.19-9.55-13.19-9.55,5.91-9.55,13.19S507.72,500.31,513,500.31Z"/><path class="cls-1" d="M384.53,440.7s40-.21,51.86,9.81c15.49,13.11,26.16,71.2,26.16,71.2l-20.26,10.77s-4.08-33.75-14.54-54.27a16.39,16.39,0,0,0-10.29-8.39c-5.8-1.57-15.91-4.19-32.93-4.19Z"/><path class="cls-1" d="M384.53,508.61s17.14,20.71,21.89,36.53c0,0-3.43,14.83,10.41,17.46h18.56v4.11a7.3,7.3,0,0,1-4.55,6.78c-8.24,3.36-26.62,9.91-46.31,10.69Z"/><path class="cls-1" d="M469.13,546.39l-20,11.41s8.16,18.43,18.83,26.94a15.9,15.9,0,0,0,9.15,3.42l44.08,2.09a16.51,16.51,0,0,1,9.31,3.43c9.35,7.23,34.57,23.63,62.11,15.29,0,0,24.63-10.67,39.08-36.58a9.53,9.53,0,0,0-2.09-11.8c-9.77-8.52-28.54-28.16-27.73-52.69a4.38,4.38,0,0,0-3.09-4.37h0a4.32,4.32,0,0,0-5.31,2.62A67.64,67.64,0,0,1,552,546.39c-34.81,11.94-55.94,15.1-55.94,15.1s-11.25,2-17.21-3.07C474.53,554.44,471.67,549.81,469.13,546.39Z"/><polygon class="cls-1" points="452.57 0 452.57 18.99 584.7 18.99 584.7 58.55 726.33 215.21 726.33 291.17 769.05 357.81 769.05 202.55 590.02 0 452.57 0"/><rect class="cls-1" x="704.18" y="219.39" width="15.82" height="189.66"/><polygon class="cls-1" points="452.57 939.19 452.57 919.87 584.7 919.87 584.7 879.61 726.33 720.21 726.33 642.92 769.05 575.11 769.05 733.09 590.02 939.19 452.57 939.19"/><rect class="cls-1" x="704.18" y="522.97" width="15.82" height="192.99"/><rect class="cls-1" x="374.71" y="769.09" width="19.63" height="54.44" rx="9.81"/></g></g></svg>