<svg xmlns="http://www.w3.org/2000/svg" viewBox="0 0 949.17 942.43"><defs><style>.cls-1{fill:#fff;}</style></defs><g id="Layer_2" data-name="Layer 2"><g id="_1" data-name="1"><path class="cls-1" d="M34.39,93s113.14,19.39,202.9,28.89C282.82,126.68,348.5,132.15,375.4,186c22.69,43.29,56.72,152.6,99.18,158.25v49.05s-52.5-14.24-96-122.64c-26.9-66.46-33.67-96.73-119.47-114.72C161,135.32,90.11,122.64,34.39,93Z"/><path class="cls-1" d="M474.58,264.28h0a11.36,11.36,0,0,1-11.36-11.36V208.39A11.37,11.37,0,0,1,474.58,197h0Z"/><path class="cls-1" d="M451.82,272.2l-.94-83.64a29.93,29.93,0,0,0-2.57-11.86c-8.75-19.73-40-82.81-87.87-96.81,0,0-29.35-8.66-61.83,3.79,0,0-105.19-4.54-151.87-14.82,0,0,85.45-21.37,146.37-31.65,0,0,75.17-15.83,118.69,26.9,0,0,34.59,43.89,62.78,43.89V92.31a11.59,11.59,0,0,1,0-23.17V58.57s-20.85-.79-60.41-37.19c0,0-26.11-32.44-117.1-17.4C212.41,18.22,56.74,61.89,0,72.44c0,0,101.64,24.9,248,38.77,55.39,6.12,112.36,12.24,141.63,74.74,19.34,46.87,57.49,144,84.94,144V299.89S451.82,298.31,451.82,272.2Zm-111.11-159a9.75,9.75,0,1,1,9.74-9.75A9.75,9.75,0,0,1,340.71,113.24Z"/><path class="cls-1" d="M914.78,93s-113.14,19.39-202.9,28.89c-45.53,4.81-111.21,10.28-138.11,64.08-22.69,43.29-56.72,152.6-99.19,158.25v49.05s52.51-14.24,96-122.64c26.9-66.46,33.67-96.73,119.47-114.72C788.19,135.32,859.06,122.64,914.78,93Z"/><path class="cls-1" d="M474.58,264.28h0A11.36,11.36,0,0,0,486,252.92V208.39A11.37,11.37,0,0,0,474.58,197h0Z"/><path class="cls-1" d="M497.35,272.2l.94-83.64a29.93,29.93,0,0,1,2.57-11.86c8.75-19.73,40-82.81,87.87-96.81,0,0,29.35-8.66,61.83,3.79,0,0,105.19-4.54,151.87-14.82,0,0-85.45-21.37-146.37-31.65,0,0-75.17-15.83-118.69,26.9,0,0-34.59,43.89-62.79,43.89V92.31a11.59,11.59,0,1,0,0-23.17V58.57s20.86-.79,60.42-37.19c0,0,26.11-32.44,117.1-17.4,84.66,14.24,240.33,57.91,297.07,68.46,0,0-101.64,24.9-248,38.77C645.77,117.33,588.8,123.45,559.53,186,540.19,232.82,502,330,474.58,330V299.89S497.35,298.31,497.35,272.2Zm111.11-159a9.75,9.75,0,1,0-9.75-9.75A9.75,9.75,0,0,0,608.46,113.24Z"/><path class="cls-1" d="M538.39,407.49s-15.83,15-26.9,17.41L506,432.81s20.57,14.71,44.31,3.88c0,0,11.07-12.64,21.36-12.61,0,0,8.7-3.14,4.75-12.63,0,0-2.38-15-21.37-14.24C555,397.21,532.85,391.67,538.39,407.49Z"/><path class="cls-1" d="M440.28,599.76c-30.83,17.25-24.53-9.5-24.53-9.5L408,586.72c-4.74-25.32,20.41-15.45,20.41-15.45,11.87,11.87,26.11,0,26.11,0l-10.29-8.7c-13.45,6.33-15.82-4-15.82-4,2.37-19,34.81-13.45,34.81-13.45,2.75-6.6,13.15-4,19.23-1.84a14.78,14.78,0,0,0,10.3-.05c17.69-6.8,8.45-14.72,8.45-14.72-40.35-24.53-6.33-31.28-6.33-31.28,23.87,1.44,23.32-11.43,21.37-18.34a3.28,3.28,0,0,1,3.16-4.18h38.77c43.52,0,50.29,33.23,50.29,33.23,16.28-11.87,20.13,6.33,20.13,6.33h7.12l5.54-4.75c4,11.08-4.75,64.88-4.75,64.88l-11.87-5.54c-5.54,3.16-12.66,0-12.66,0-19,28.48-34.57,10.44-34.57,10.44-22.71-13.3,0-26.27,0-26.27C584,541.21,593,527.76,593,527.76l-19-8.93a27,27,0,0,1-25.32,8.93v6.33c20.58,45.09-7,39.56-7,39.56l-9.61,10.28c-8.7,33.23-22.95,28.49-22.95,28.49C500.77,623,488,630,483.53,626.84a16.21,16.21,0,0,0-8.82-2.86c-13.81-.43-.13-17.36-.13-17.36,1.95-12.18-1.91-19.3-5.64-23.19a8.19,8.19,0,0,0-10.35-1.1l-2.49,1.6c11.87,21.36-.79,14.24-.79,14.24S449.58,594.55,440.28,599.76Z"/><path class="cls-1" d="M371.44,451l3.17-5.54s-2.45-22.94,32.8-15.82,14.67,34,14.67,34-9.49,3.95-17.41,0c0,0-7.12,27.69-19.78,20.57l-13.45,20.57s-5.54-17.41-17.4,4c0,0-13.72,32-23.08,10.06,0,0-13.32-48.83-22.81-10.06L320,445.47,331,433.6S349.29,425.69,371.44,451Z"/><path class="cls-1" d="M388.46,503.12c4.44,4.39,12.23,9,18.48,13.31a9.15,9.15,0,0,1,1.95,13.28c-4.17,5.14-11.27,12.07-22.58,18.37-20.09,11.2-28.28-42-4.83-47.08A7.69,7.69,0,0,1,388.46,503.12Z"/><path class="cls-1" d="M341.83,599.87a3.32,3.32,0,0,1,3.79-4.08c6.12,1.1,16.49,3.4,22.48,7.13,8.88,5.54,7.3,29,7.3,29S352.14,640.25,341.83,599.87Z"/><path class="cls-1" d="M422.08,676.24s10.29-26.9,29.28-16.62c0,0-2.38-8.7,0-11.07,0,0,30.06,4,35.6,13.84,0,0,25.32-10.68,31.65,9.89v11.08S447.08,689.46,422.08,676.24Z"/><path class="cls-1" d="M577.4,648s-19.23,10.29-28.73,0S555,627.59,555,627.59s4.75-22.09,19-21.71h24.72s10.49,6.81,0,26.06Z"/><path class="cls-1" d="M541.72,351.52c-3.39,4.91-7.6,10.65-12.61,16.82a161.9,161.9,0,1,1-109.66.21c-5-6.14-9.21-11.87-12.61-16.78a182.08,182.08,0,1,0,134.88-.25Z"/><path class="cls-1" d="M474.58,822.88s-236.06,3-338.92-227.14C101.52,526.59,83.36,393,158.05,261a21.66,21.66,0,0,0,2.4-15.27c-2.72-12.48-4.78-37.94,17.15-55.82,0,0,18.7-12.07,42.56-24.93,0,0,4.91,36-31.49,65.68l20.58-8.31s-2.92,17.51-33.29,39.23a23.06,23.06,0,0,0-6.68,7.42c-15.59,27.49-87.43,170.38-17,322.84C229,758,391,805.43,474.58,805.43Z"/><path class="cls-1" d="M394.06,889.58c-28.69,57.15-79.58,52.77-79.58,52.77,8-2.55,19-14.29,19-14.29-30.86,15-41-10.24-41-10.24,45.71-.79,66.12-14.24,82-37.6,40.68-64,80.43-50.6,80.43-50.6S417.73,843.05,394.06,889.58Z"/><path class="cls-1" d="M410.31,815.29s-34.84-1.59-39.28,24.3a5.64,5.64,0,0,0,7.54,6.25C387.21,842.63,401.05,834.66,410.31,815.29Z"/><path class="cls-1" d="M414.14,798.71s-17.94-4.9-6.72-25.26a5,5,0,0,1,7.43-1.57c7.22,5.44,19.11,17.2,4.86,27.83Z"/><path class="cls-1" d="M378.51,790.15s-17.63-16.64-6.67-40.9a4.49,4.49,0,0,1,6.07-2.22c12.1,6.11,21,33.09,6.17,44.12Z"/><path class="cls-1" d="M188.09,298.78s-28.43,14.49-37.39,5.52c0,0,15.77-38.75,69.57-24.51C220.27,279.79,201.81,293,188.09,298.78Z"/><path class="cls-1" d="M168.32,390.48s-33.21,17.26-47.16,7.12c17.53-39.74,31.32-47.08,86.35-40.47C207.51,357.13,185.51,379.77,168.32,390.48Z"/><path class="cls-1" d="M124.36,493.93s12.09-33.69,27.39-46.88c0,0,17.41-12.13,51.69-13.18,0,0-16.35,18.46-25.32,35.86,0,0-19,32.18-57,36.4Z"/><path class="cls-1" d="M143.84,581s12.85-16.35,24.09-44.83c0,0,12.83-22.16,45-30.07a112.48,112.48,0,0,1-9.5,41.45s-13.32,30.29-53.07,40Z"/><path class="cls-1" d="M180.76,651.18s3.22-19.51,6.39-30.06,8.91-26.9,59.55-44.84c0,0-4.06,26.22-18.36,49.06,0,0-17,25.32-41.78,31.65Z"/><path class="cls-1" d="M275.71,622.7s-12.61,19.66-29,34.29c0,0-20.58,22.24-21.63,45.93l5.27,6.29s34.82-4.22,45.37-32.71C275.71,676.5,289.42,644.86,275.71,622.7Z"/><path class="cls-1" d="M312.16,679.36a139.65,139.65,0,0,1-18.85,20.38,73.52,73.52,0,0,0-14.93,18.07c-4.08,7-8,15.81-8.48,24.2l4.61,4.76s30.43-3.19,39.65-24.73C314.16,722,324.15,696.11,312.16,679.36Z"/><path class="cls-1" d="M348.72,702.66s-5.81,9.61-14.88,23.67a38.51,38.51,0,0,0-6,18.79c-.34,6.22.89,17-.8,28.44l4.58,3.16C364.32,761.43,369.1,735.42,348.72,702.66Z"/><path class="cls-1" d="M357.1,800.58a115,115,0,0,1-26.82,8.5,16,16,0,0,0-10.74,7.29c-5,8-11.64,22.8-6.38,39.47,0,0,28.57-9.64,41.67-33,0,0,8.13-18,20.68-22.3Z"/><path class="cls-1" d="M303.84,777.49s-9.86,11.37-26,10.84c0,0-22.16-3-29.49,19.62-8.62,26.68-1.63,29.13-1.63,29.13s19.73.88,50.33-34.46c0,0,10.85-15.63,28.26-17.33Z"/><path class="cls-1" d="M255.89,744.92a45,45,0,0,1-31.41,3.34s-24.62-11.33-37.36,12c-15.32,28.06-12,36.34-12,36.34s20.83,7.65,63.21-23.12c0,0,19.78-17.27,39.46-14.84Z"/><path class="cls-1" d="M212.94,707.1s-16.88,2.11-32.18-7.92c0,0-24.26-22.15-82.81,17.94,0,0,45.52,28.71,70,18.46,19.12-8,40-19.63,58.33-14.35Z"/><path class="cls-1" d="M167.93,648.55s-18.34-.22-31-14.91c0,0-12.61-19.61-44.78-19.45,0,0-27.43.07-50.64,8.51,0,0,37.45,45.18,90.72,44,0,0,41.67-5.45,50.64,2.46Z"/><path class="cls-1" d="M131.25,580.74s-19.1-6.66-25.79-24.86c-1.77-10.84-4.35-25-35.08-34,0,0-28.87-7.63-50.4-9.83,0,0,14.41,56.8,69.48,73,19,7,50.46,10.55,52.54,20.1Z"/><path class="cls-1" d="M111.66,494s-16.55-11.64-18-31c.06-18.58,1.11-22.33-17.26-42.53,0,0-17-19.18-35.9-29.22,0,0-18.76,64.78,29.75,95.5,16.4,11.92,45.63,24,45,33.74Z"/><path class="cls-1" d="M112.3,392.78s-11.21-19.55-7.94-34.62c4.25-14.15,4.67-20.82-4.53-37.33,0,0-10.59-17.46-22.76-29.4,0,0-29,45.14,1.07,79.54,9.8,12.8,33.6,30.54,30.92,37.84Z"/><path class="cls-1" d="M113.71,278.53c-14.84-35.42,9-63.52,9-63.52,7.5,11.05,13.3,26,13.3,26a56.76,56.76,0,0,1,.28,33.92s-4.55,15.45,4.39,23.32l-3.85,8.9S123.09,298.44,113.71,278.53Z"/><path class="cls-1" d="M474.58,822.88s236.07,3,338.93-227.14C847.65,526.59,865.81,393,791.12,261a21.66,21.66,0,0,1-2.4-15.27c2.72-12.48,4.78-37.94-17.15-55.82,0,0-18.7-12.07-42.56-24.93,0,0-4.91,36,31.49,65.68l-20.58-8.31s2.92,17.51,33.29,39.23a23.06,23.06,0,0,1,6.68,7.42c15.59,27.49,87.43,170.38,17,322.84C720.14,758,558.17,805.43,474.58,805.43Z"/><path class="cls-1" d="M555.11,889.58c28.69,57.15,79.58,52.77,79.58,52.77-8-2.55-19-14.29-19-14.29,30.86,15,41-10.24,41-10.24-45.71-.79-66.12-14.24-82-37.6-40.68-64-80.43-50.6-80.43-50.6S531.44,843.05,555.11,889.58Z"/><path class="cls-1" d="M538.86,815.29s34.84-1.59,39.28,24.3a5.64,5.64,0,0,1-7.54,6.25C562,842.63,548.12,834.66,538.86,815.29Z"/><path class="cls-1" d="M535,798.71s17.94-4.9,6.72-25.26a5,5,0,0,0-7.43-1.57c-7.22,5.44-19.11,17.2-4.86,27.83Z"/><path class="cls-1" d="M570.66,790.15s17.63-16.64,6.67-40.9a4.49,4.49,0,0,0-6.07-2.22c-12.1,6.11-21,33.09-6.17,44.12Z"/><path class="cls-1" d="M761.08,298.78s28.43,14.49,37.39,5.52c0,0-15.77-38.75-69.57-24.51C728.9,279.79,747.36,293,761.08,298.78Z"/><path class="cls-1" d="M780.85,390.48s33.21,17.26,47.16,7.12c-17.53-39.74-31.32-47.08-86.35-40.47C741.66,357.13,763.66,379.77,780.85,390.48Z"/><path class="cls-1" d="M824.8,493.93s-12.09-33.69-27.38-46.88c0,0-17.41-12.13-51.69-13.18,0,0,16.35,18.46,25.31,35.86,0,0,19,32.18,57,36.4Z"/><path class="cls-1" d="M805.33,581s-12.85-16.35-24.1-44.83c0,0-12.82-22.16-45-30.07a112.48,112.48,0,0,0,9.5,41.45s13.31,30.29,53.07,40Z"/><path class="cls-1" d="M768.41,651.18s-3.22-19.51-6.39-30.06-8.91-26.9-59.55-44.84c0,0,4.06,26.22,18.35,49.06,0,0,17,25.32,41.78,31.65Z"/><path class="cls-1" d="M673.46,622.7s12.61,19.66,29,34.29c0,0,20.57,22.24,21.63,45.93l-5.28,6.29S684,705,673.46,676.5C673.46,676.5,659.75,644.86,673.46,622.7Z"/><path class="cls-1" d="M637,679.36a139.65,139.65,0,0,0,18.85,20.38,73.52,73.52,0,0,1,14.93,18.07c4.08,7,8,15.81,8.47,24.2l-4.61,4.76S644.23,743.58,635,722C635,722,625,696.11,637,679.36Z"/><path class="cls-1" d="M600.45,702.66s5.81,9.61,14.88,23.67a38.61,38.61,0,0,1,6,18.79c.34,6.22-.89,17,.8,28.44l-4.58,3.16C584.85,761.43,580.07,735.42,600.45,702.66Z"/><path class="cls-1" d="M592.07,800.58a115,115,0,0,0,26.82,8.5,16,16,0,0,1,10.74,7.29c5,8,11.63,22.8,6.38,39.47,0,0-28.57-9.64-41.67-33,0,0-8.13-18-20.68-22.3Z"/><path class="cls-1" d="M645.33,777.49s9.86,11.37,26,10.84c0,0,22.16-3,29.49,19.62,8.62,26.68,1.63,29.13,1.63,29.13s-19.73.88-50.33-34.46c0,0-10.85-15.63-28.26-17.33Z"/><path class="cls-1" d="M693.28,744.92a45,45,0,0,0,31.41,3.34s24.62-11.33,37.36,12c15.32,28.06,12,36.34,12,36.34s-20.83,7.65-63.21-23.12c0,0-19.78-17.27-39.46-14.84Z"/><path class="cls-1" d="M736.23,707.1s16.88,2.11,32.18-7.92c0,0,24.26-22.15,82.81,17.94,0,0-45.53,28.71-70,18.46-19.11-8-40-19.63-58.32-14.35Z"/><path class="cls-1" d="M781.23,648.55s18.35-.22,31-14.91c0,0,12.61-19.61,44.78-19.45,0,0,27.43.07,50.64,8.51,0,0-37.45,45.18-90.73,44,0,0-41.67-5.45-50.63,2.46Z"/><path class="cls-1" d="M817.92,580.74s19.1-6.66,25.79-24.86c1.77-10.84,4.35-25,35.08-34,0,0,28.87-7.63,50.4-9.83,0,0-14.41,56.8-69.49,73-19,7-50.45,10.55-52.54,20.1Z"/><path class="cls-1" d="M837.51,494s16.55-11.64,18-31c-.06-18.58-1.11-22.33,17.26-42.53,0,0,17-19.18,35.9-29.22,0,0,18.76,64.78-29.75,95.5-16.4,11.92-45.63,24-45,33.74Z"/><path class="cls-1" d="M836.86,392.78s11.22-19.55,7.95-34.62c-4.26-14.15-4.67-20.82,4.53-37.33,0,0,10.59-17.46,22.75-29.4,0,0,29,45.14-1.06,79.54-9.8,12.8-33.6,30.54-30.92,37.84Z"/><path class="cls-1" d="M835.46,278.53c14.84-35.42-9-63.52-9-63.52-7.5,11.05-13.31,26-13.31,26a56.8,56.8,0,0,0-.27,33.92s4.55,15.45-4.4,23.32l3.86,8.9S826.08,298.44,835.46,278.53Z"/></g></g></svg>