<svg xmlns="http://www.w3.org/2000/svg" viewBox="0 0 574.86 970.38"><defs><style>.cls-1{fill:#fff;}</style></defs><g id="Layer_2" data-name="Layer 2"><g id="_1" data-name="1"><polygon class="cls-1" points="287.62 0 48.13 144.36 48.13 839.04 287.62 970.38 287.62 940.31 96.06 834.29 96.06 154.93 287.62 35.85 287.62 0"/><polygon class="cls-1" points="0 426.34 0 517.81 0 609.27 33.88 638.07 33.88 517.81 33.88 397.54 0 426.34"/><polygon class="cls-1" points="287.62 104.8 287.62 194.99 255.88 212.4 255.88 645.57 225.82 645.57 194.17 619.08 194.17 163.35 287.62 104.8"/><polygon class="cls-1" points="159.36 588.52 175.18 603.52 175.18 174.84 159.36 184.84 159.36 588.52"/><rect class="cls-1" x="159.36" y="657.06" width="128.26" height="23.74"/><rect class="cls-1" x="252.72" y="697.83" width="34.9" height="22.95"/><rect class="cls-1" x="252.72" y="738.48" width="34.9" height="22.95"/><rect class="cls-1" x="252.72" y="781.13" width="34.9" height="22.95"/><polygon class="cls-1" points="287.62 819.68 207.62 819.68 207.62 851.73 287.62 896.21 287.62 819.68"/><polygon class="cls-1" points="287.62 0 526.73 144.36 526.73 839.04 287.62 970.38 287.62 940.31 478.8 834.29 478.8 154.93 287.62 35.85 287.62 0"/><polygon class="cls-1" points="574.86 426.34 574.86 517.81 574.86 609.27 540.99 638.07 540.99 517.81 540.99 397.54 574.86 426.34"/><polygon class="cls-1" points="287.62 104.8 287.62 194.99 318.98 212.4 318.98 645.57 349.05 645.57 380.69 619.08 380.69 163.35 287.62 104.8"/><polygon class="cls-1" points="415.51 588.52 399.68 603.52 399.68 174.84 415.51 184.84 415.51 588.52"/><rect class="cls-1" x="287.62" y="657.06" width="127.89" height="23.74" transform="translate(703.13 1337.86) rotate(180)"/><rect class="cls-1" x="287.62" y="697.83" width="35.53" height="22.95"/><rect class="cls-1" x="287.62" y="738.48" width="35.53" height="22.95" transform="translate(610.76 1499.9) rotate(180)"/><rect class="cls-1" x="287.62" y="781.13" width="35.53" height="22.95" transform="translate(610.76 1585.2) rotate(180)"/><polygon class="cls-1" points="287.62 819.68 367.24 819.68 367.24 851.73 287.62 896.21 287.62 819.68"/></g></g></svg>