<svg xmlns="http://www.w3.org/2000/svg" viewBox="0 0 970.81 803.54"><defs><style>.cls-1{fill:#fff;}</style></defs><g id="Layer_2" data-name="Layer 2"><g id="_1" data-name="1"><path class="cls-1" d="M0,372.87s133.42,39.57,200.57,46.54v18.37a899.41,899.41,0,0,0-100.28,3S17.8,403.47,0,372.87Z"/><path class="cls-1" d="M249.46,0S307.25,130.8,353,194.2l-17.11,17.11s-32.24-29.4-77.83-66.66C258.09,144.65,233,44.77,249.46,0Z"/><path class="cls-1" d="M57.36,34.48S107,112.28,141.23,158.7c5.79,7.87,3.56,16,9.34,24.65,29.43,44.19,83.72,86,122.25,117.67l-18.73,23.25s-62.22-35-121.51-53C132.58,271.24,51.82,144.65,57.36,34.48Z"/><path class="cls-1" d="M263.47,469.9c3-8.16,17.28-11,21.37,7.66,0,0,4.75,51,65.87,59.34,0,0,49.77,3.43,30.17,26.11l-45,43.89a354.64,354.64,0,0,0-57-26.09s-30.33-10.41-49.85-31.25Z"/><path class="cls-1" d="M427.25,216.86c-69.23,10.28-93.36,66.06-93.36,66.06-12.66,40.35-40,73.19-40,73.19,16.62-6.33,47.08-32.84,47.08-32.84-9.1,25.32-68,61.72-68,61.72-12.6,6.72-13.92,17-13.92,17-4.75,25.32,8.5,55,8.5,55S273,469.54,288,460.58l34.76-26.33a14.8,14.8,0,0,1,16-1.22l28.41,15.34a26.62,26.62,0,0,1,5.38,3.87c22.54,20.89,45.73,54,52.67,64.16a6.85,6.85,0,0,1,.67,6.5l-21.93,52.77c18.2-6.33,38-31.65,38-31.65,17.41-22.15,43.52-21.36,43.52-21.36V235.45S436.35,235.45,427.25,216.86Z"/><path class="cls-1" d="M371.75,623.14l25-24.52s26.6,27.28,49.4,35.61a8.24,8.24,0,0,0,9-2.25c4.88-5.47,14.18-17.6,26.28-41.28v84.66s-15.77,0-27.59-3.94a6,6,0,0,0-6.78,2.08L431.6,694.35s-6.33-35.6-13.45-42.72C418.15,651.63,391.81,640.55,371.75,623.14Z"/><path class="cls-1" d="M382.93,664.35c13.2,12.42,34.53,36.33,43.67,68a258.46,258.46,0,0,0,54.85,24.53v34c-11.23-.54-50.64-6.33-59.34,12.66l-20-24.66a17.48,17.48,0,0,1-3.9-10.29c-.65-15-4-57.44-20.81-100.48A3.42,3.42,0,0,1,382.93,664.35Z"/><path class="cls-1" d="M485.41,188s-72.21,2.37-72.21-60.93c0,0-6.12-47.47,44.51-70.41,0,0-.2-27.28,22.74-27.28V78.79s-40,2.37-40,49.06c0,40.35,44.94,40.35,44.94,40.35Z"/><circle class="cls-1" cx="392.63" cy="130.8" r="13.85"/><path class="cls-1" d="M970.81,372.87s-133.42,39.57-200.57,46.54v18.37a899.59,899.59,0,0,1,100.29,3S953,403.47,970.81,372.87Z"/><path class="cls-1" d="M721.35,0S663.56,130.8,617.78,194.2l17.12,17.11s32.23-29.4,77.82-66.66C712.72,144.65,737.8,44.77,721.35,0Z"/><path class="cls-1" d="M913.45,34.48s-49.66,77.8-83.87,124.22c-5.79,7.87-3.56,16-9.34,24.65C790.81,227.54,736.53,269.36,698,301l18.72,23.25s62.23-35,121.52-53C838.24,271.24,919,144.65,913.45,34.48Z"/><path class="cls-1" d="M707.34,469.9c-3-8.16-17.27-11-21.36,7.66,0,0-4.75,51-65.87,59.34,0,0-49.78,3.43-30.17,26.11l45,43.89a354.24,354.24,0,0,1,57-26.09s30.33-10.41,49.85-31.25Z"/><path class="cls-1" d="M543.56,216.86c69.23,10.28,93.36,66.06,93.36,66.06,12.66,40.35,40,73.19,40,73.19-16.62-6.33-47.08-32.84-47.08-32.84,9.1,25.32,68,61.72,68,61.72,12.59,6.72,13.91,17,13.91,17,4.75,25.32-8.49,55-8.49,55s-5.33,12.55-20.36,3.59l-34.77-26.33a14.78,14.78,0,0,0-16-1.22L603.7,448.37a26.41,26.41,0,0,0-5.39,3.87c-22.54,20.89-45.72,54-52.67,64.16a6.88,6.88,0,0,0-.66,6.5l21.92,52.77c-18.2-6.33-38-31.65-38-31.65-17.4-22.15-43.51-21.36-43.51-21.36V235.45S534.46,235.45,543.56,216.86Z"/><path class="cls-1" d="M599.06,623.14l-25-24.52s-26.6,27.28-49.4,35.61a8.24,8.24,0,0,1-9-2.25c-4.88-5.47-14.18-17.6-26.28-41.28v84.66s15.77,0,27.6-3.94a6,6,0,0,1,6.77,2.08l15.48,20.85s6.33-35.6,13.45-42.72C552.66,651.63,579,640.55,599.06,623.14Z"/><path class="cls-1" d="M587.89,664.35c-13.21,12.42-34.54,36.33-43.68,68a258.46,258.46,0,0,1-54.85,24.53v34c11.23-.54,50.64-6.33,59.34,12.66l20-24.66a17.61,17.61,0,0,0,3.9-10.29c.64-15,3.95-57.44,20.8-100.48A3.42,3.42,0,0,0,587.89,664.35Z"/><path class="cls-1" d="M485.41,188s72.21,2.37,72.21-60.93c0,0,6.12-47.47-44.52-70.41,0,0,.21-27.28-22.74-27.28V78.79s40,2.37,40,49.06c0,40.35-44.93,40.35-44.93,40.35Z"/><circle class="cls-1" cx="578.19" cy="130.8" r="13.85"/></g></g></svg>