<svg xmlns="http://www.w3.org/2000/svg" viewBox="0 0 947.83 706.44"><defs><style>.cls-1{fill:#fff;}</style></defs><g id="Layer_2" data-name="Layer 2"><g id="_1" data-name="1"><path class="cls-1" d="M159,246.07a90.94,90.94,0,0,1-3.18,13.26,11.47,11.47,0,0,1-11,7.85C120.1,266.83,42,270.53,30,330.36c0,0-10,46.88,63,65.95a5.9,5.9,0,0,1,3.84,8.29h0a5.88,5.88,0,0,1-6.54,3.18C69.8,403.34-12,381,1.5,311.37c0,0,6.72-80.65,146.39-78.72A11.46,11.46,0,0,1,159,246.07Z"/><path class="cls-1" d="M155.87,298.22s-26.52-4.45-25.27,31.21,26.05,33.12,26.05,33.12Z"/><path class="cls-1" d="M197.32,33.65C183.5,41.79,177.18,47.57,168.84,59c0,0-10.25-44.53,10.9-56.4s51.07,20.61,51.07,20.61C218.33,23.78,210.8,26.37,197.32,33.65Z"/><circle class="cls-1" cx="208.03" cy="54.22" r="27.66"/><circle class="cls-1" cx="265.39" cy="24.95" r="22.74"/><circle class="cls-1" cx="152.64" cy="86.66" r="22.74"/><polygon class="cls-1" points="247.96 29.51 160.14 76.77 166.36 86.66 253.5 39.59 247.96 29.51"/><circle class="cls-1" cx="341.72" cy="419.76" r="13.85"/><path class="cls-1" d="M269.72,447.45c-7.12-13.84-9.85-19.36-14.48-21.9a7.64,7.64,0,0,0-10.5,3.19c-10.61,20.23-13.2,42.5-13.79,54.13A27.92,27.92,0,0,0,235.07,499c10.42,16.78,26.74,27.44,26.74,27.44C276.05,538.22,294.25,540,294.25,540L349,541.81A20,20,0,0,0,360,539c8-4.82,23.18-9.18,32.9-12.85a20.6,20.6,0,0,0,13.26-17.9l.23-19.46a22.21,22.21,0,0,0-4.65-15.9l-15.67-18.62c-11.81-7.46-19-.47-38,4.85C348.05,459.1,306.91,469.61,269.72,447.45Z"/><path class="cls-1" d="M360.48,560.69a8.58,8.58,0,0,1,3.77-9.21c8.68-5.44,25.06-15.63,46.94-20.16,0,0,15.19,1.58,10.39-41.62-.46-4.18-1.06-8.34-3.24-11.94l-6.2-10.26,4.22-2.64s29,23.74,47.47-6.33a11,11,0,0,1,10-5.8v91.78s-27.43,1.58-38,28c0,0-15.63,35.23-40.19,67.35,0,0-11,13.35-6.22,35.5,0,0-15.83-2.11-19-13.18-6.31-18.93-19.94-35.55-26.24-53.81a12.15,12.15,0,0,1,4.11-13.59C355.22,589.43,364.46,578.64,360.48,560.69Z"/><path class="cls-1" d="M444.84,585.65s-19,35.34-30.59,46.42c0,0-25.79,22.63-15.77,44.25,0,0,5.22,13.24,39,17.46l1.05-4.74s-23.77-10.77-7.38-22.68c11.6-8.44,29,9,15.82,20.57,0,0-6.86,11,5.8,14.66,0,0,10,4.85,21.1,4.85V564S452.22,564.55,444.84,585.65Zm21.81,63.13-8.76,19.61a2.44,2.44,0,0,1-4.46-2l8.73-19.64a2.43,2.43,0,0,1,3.52-1.08l0,0A2.45,2.45,0,0,1,466.65,648.78Z"/><path class="cls-1" d="M414.14,263.52s15.4-11.88,59.71-11.68V167.76S345.52,103.48,278.47,83.15A29.58,29.58,0,0,0,256.75,85l-61.88,30.69a27.21,27.21,0,0,0-14.56,29.91c3.76,18.13,8.93,44,11.08,59,0,0-13.62,27.14,18.43,42.06,0,0-25.55-6.45-27.93,31.53v59.34s0,34.41,32.05,40.35c0,0,10.68,22.55,41.54,22.55,0,0-35.33-24.13,0-24.55l28.29,1.49a51.52,51.52,0,0,1,19,4.69c16.56,7.65,51.84,24.82,77.35,43.29,0,0,6.2,5.28,20.18,0,0,0,0,19.91,21.36,28.95,0,0,21.36,9,33.23-13.52,0,0,13.06-18.15-11.87-32.81,0,0-19-11.45-27.29,0,0,0,3.2-24.95-45.13-64a.69.69,0,0,1,.78-1.14c14.76,8.92,43.91,27.85,59.78,46.92,0,0,10.68-6.31,42.72-6.31V277s-36.79-.4-50.26,1.19c-8.86,1-8.79-3.5-9.08-3.56-14.1,5.67-49,31.6-61.82,49.85a1.33,1.33,0,0,1-2.38-1.11C353.45,312.09,367.6,290.54,414.14,263.52Zm33.71-73.19A10.85,10.85,0,1,1,437,201.18,10.85,10.85,0,0,1,447.85,190.33Zm-239.6-29.44a11.9,11.9,0,1,1,11.9-11.9A11.89,11.89,0,0,1,208.25,160.89ZM255.6,339.11c-.15,3-4.48,4.65-7.65,3L229,332c-4.33-2-7-5.63-7-9.54V300c0-13.85,10.91-11.41,10.91-11.41l20.1.78c2.48.22,4.36,1.85,4.33,3.79C257.14,307.88,256.15,328.53,255.6,339.11Zm2.71-202a13.85,13.85,0,1,1,13.85-13.84A13.84,13.84,0,0,1,258.31,137.09Z"/><path class="cls-1" d="M321.53,618.7l17,30.69a5.65,5.65,0,0,1-2.95,8L293,673.48a5.65,5.65,0,0,1-7.11-2.89l-11.57-24.65a5.65,5.65,0,0,1,2.22-7.26l37.14-22.09A5.64,5.64,0,0,1,321.53,618.7Z"/><path class="cls-1" d="M288.13,69.26l39.74-21.57s31.26-18.18,69.29,8.4l-54,31.57S293.87,66.88,288.13,69.26Z"/><polygon class="cls-1" points="362.29 96.95 411.93 64.93 430.13 75.8 382.07 105.86 362.29 96.95"/><polygon class="cls-1" points="401.85 114.36 418.68 122.25 458.7 92.99 446.85 85.66 401.85 114.36"/><polygon class="cls-1" points="473.85 103.95 473.85 150.33 437.01 131.76 473.85 103.95"/><polygon class="cls-1" points="473.85 75.59 473.85 47.69 430.27 47.69 473.85 75.59"/><path class="cls-1" d="M788.83,246.07A90.94,90.94,0,0,0,792,259.33a11.49,11.49,0,0,0,11,7.85c24.67-.35,102.82,3.35,114.79,63.18,0,0,10,46.88-63,65.95A5.9,5.9,0,0,0,851,404.6h0a5.88,5.88,0,0,0,6.54,3.18C878,403.34,959.85,381,946.33,311.37c0,0-6.72-80.65-146.39-78.72A11.47,11.47,0,0,0,788.83,246.07Z"/><path class="cls-1" d="M792,298.22s26.52-4.45,25.27,31.21-26.05,33.12-26.05,33.12Z"/><path class="cls-1" d="M750.51,33.65C764.33,41.79,770.66,47.57,779,59c0,0,10.25-44.53-10.89-56.4S717,23.22,717,23.22C729.5,23.78,737,26.37,750.51,33.65Z"/><circle class="cls-1" cx="739.81" cy="54.22" r="27.66"/><circle class="cls-1" cx="682.44" cy="24.95" r="22.74"/><circle class="cls-1" cx="795.19" cy="86.66" r="22.74"/><polygon class="cls-1" points="699.87 29.51 787.7 76.77 781.48 86.66 694.33 39.59 699.87 29.51"/><circle class="cls-1" cx="606.11" cy="419.76" r="13.85"/><path class="cls-1" d="M678.11,447.45c7.13-13.84,9.86-19.36,14.48-21.9a7.66,7.66,0,0,1,10.51,3.19c10.6,20.23,13.19,42.5,13.79,54.13A27.93,27.93,0,0,1,712.76,499C702.34,515.81,686,526.47,686,526.47,671.78,538.22,653.59,540,653.59,540l-54.74,1.78a20,20,0,0,1-11-2.83c-8-4.82-23.18-9.18-32.9-12.85a20.59,20.59,0,0,1-13.25-17.9l-.23-19.46a22.17,22.17,0,0,1,4.65-15.9l15.66-18.62c11.81-7.46,19-.47,38,4.85C599.78,459.1,640.93,469.61,678.11,447.45Z"/><path class="cls-1" d="M587.36,560.69a8.61,8.61,0,0,0-3.77-9.21c-8.69-5.44-25.07-15.63-47-20.16,0,0-15.19,1.58-10.39-41.62.47-4.18,1.07-8.34,3.24-11.94l6.21-10.26-4.22-2.64s-29,23.74-47.48-6.33a11,11,0,0,0-10-5.8v91.78s27.43,1.58,38,28c0,0,15.63,35.23,40.2,67.35,0,0,11,13.35,6.22,35.5,0,0,15.82-2.11,19-13.18,6.31-18.93,19.93-35.55,26.23-53.81a12.14,12.14,0,0,0-4.11-13.59C592.61,589.43,583.37,578.64,587.36,560.69Z"/><path class="cls-1" d="M503,585.65s19,35.34,30.6,46.42c0,0,25.79,22.63,15.77,44.25,0,0-5.22,13.24-39,17.46L509.32,689s23.78-10.77,7.39-22.68c-11.61-8.44-29,9-15.83,20.57,0,0,6.86,11-5.8,14.66,0,0-10,4.85-21.1,4.85V564S495.61,564.55,503,585.65Zm-21.81,63.13,8.76,19.61a2.44,2.44,0,0,0,4.46-2l-8.73-19.64a2.43,2.43,0,0,0-3.52-1.08l0,0A2.45,2.45,0,0,0,481.18,648.78Z"/><path class="cls-1" d="M533.7,263.52S518.29,251.64,474,251.84V167.76s128.33-64.28,195.38-84.61A29.58,29.58,0,0,1,691.08,85L753,115.66a27.2,27.2,0,0,1,14.55,29.91c-3.76,18.13-8.93,44-11.08,59,0,0,13.62,27.14-18.42,42.06,0,0,25.54-6.45,27.92,31.53v59.34s0,34.41-32.05,40.35c0,0-10.68,22.55-41.53,22.55,0,0,35.33-24.13,0-24.55l-28.3,1.49a51.52,51.52,0,0,0-19,4.69c-16.56,7.65-51.84,24.82-77.35,43.29,0,0-6.2,5.28-20.18,0,0,0,0,19.91-21.36,28.95,0,0-21.36,9-33.23-13.52,0,0-13.05-18.15,11.87-32.81,0,0,19-11.45,27.3,0,0,0-3.21-24.95,45.12-64a.69.69,0,0,0-.78-1.14c-14.75,8.92-43.91,27.85-59.77,46.92,0,0-10.68-6.31-42.73-6.31V277s36.79-.4,50.26,1.19c8.86,1,8.79-3.5,9.08-3.56,14.1,5.67,49,31.6,61.82,49.85a1.33,1.33,0,0,0,2.38-1.11C594.38,312.09,580.23,290.54,533.7,263.52ZM500,190.33a10.85,10.85,0,1,0,10.85,10.85A10.85,10.85,0,0,0,500,190.33Zm239.61-29.44a11.9,11.9,0,1,0-11.9-11.9A11.9,11.9,0,0,0,739.59,160.89ZM692.23,339.11c.15,3,4.49,4.65,7.66,3l19-10.12c4.32-2,7-5.63,7-9.54V300c0-13.85-10.9-11.41-10.9-11.41l-20.11.78c-2.48.22-4.35,1.85-4.33,3.79C690.69,307.88,691.68,328.53,692.23,339.11Zm-2.71-202a13.85,13.85,0,1,0-13.85-13.84A13.85,13.85,0,0,0,689.52,137.09Z"/><path class="cls-1" d="M626.3,618.7l-17,30.69a5.65,5.65,0,0,0,2.94,8l42.59,16.06a5.66,5.66,0,0,0,7.11-2.89l11.57-24.65a5.66,5.66,0,0,0-2.23-7.26l-37.14-22.09A5.65,5.65,0,0,0,626.3,618.7Z"/><path class="cls-1" d="M659.71,69.26,620,47.69s-31.25-18.18-69.29,8.4l54,31.57S654,66.88,659.71,69.26Z"/><polygon class="cls-1" points="585.54 96.95 535.9 64.93 517.71 75.8 565.76 105.86 585.54 96.95"/><polygon class="cls-1" points="545.98 114.36 529.16 122.25 489.13 92.99 500.98 85.66 545.98 114.36"/><polygon class="cls-1" points="473.98 103.95 473.98 150.33 510.82 131.76 473.98 103.95"/><polygon class="cls-1" points="473.98 75.59 473.98 47.69 517.56 47.69 473.98 75.59"/></g></g></svg>