<svg xmlns="http://www.w3.org/2000/svg" viewBox="0 0 956.78 885.68"><defs><style>.cls-1{fill:#fff;}</style></defs><g id="Layer_2" data-name="Layer 2"><g id="_1" data-name="1"><path class="cls-1" d="M478.39,0C296,0,214.56,72.57,191.67,97.93a1.62,1.62,0,0,0,2.1,2.42c104.12-68,218.05-61.88,261.85-56.19a1.68,1.68,0,0,1-.18,3.34c-114.88,2.88-175.89,23.64-230.27,59.09-33.84,20.79-47,18.94-55.82,17.44a39.67,39.67,0,0,0-12.43-1.09c-4.46.45-7.06,5-4.4,8.62,9.38,12.73,9.93,30.37,9.93,30.37s-3.95,58.55-54.59,60.14-45.49-32.23-45.49-32.23c2-16.83,25.18-14.19,26.11,0,0,0,1.71,19.57,33.36,13.24,0,0,41.67-14.77,16.88-62.77,0,0-25.2-39.67-84.92-23.21C2.1,131.34-6.34,188.31,3.69,218.9A79.68,79.68,0,0,0,18.4,243.85C36.5,265,74,287.54,145.58,256.88c31.13-16.15,76.59-47.45,101.8-73.32,0,0-37,8.48-65.51,3a1.73,1.73,0,0,1,.34-3.43c28.57-.13,66.83-8,84.35-20.65,29.68-24.91,102.66-83.4,211.83-83.4"/><path class="cls-1" d="M478.39,99.16c-50.46,0-118,0-245.77,127.59a1,1,0,0,0,1.26,1.48c42-23.57,118-82.28,185.85-82.28,0,0,21.72-22.52,58.66-22.52"/><circle class="cls-1" cx="478.39" cy="207.3" r="67.52"/><circle class="cls-1" cx="478.39" cy="403.25" r="54.33"/><circle class="cls-1" cx="478.39" cy="732.44" r="70.52"/><circle class="cls-1" cx="478.39" cy="511.91" r="35.08"/><path class="cls-1" d="M395.07,182s-53.8-6.86-134.51,51.16c-68.43,49.21-125.11,58.58-147.84,60a3.18,3.18,0,0,0-1.48,5.88c14.63,9.07,52.09,22.4,121.07-12.57,0,0,19.16-9.37,32.47-17.88l9,1.32A18.81,18.81,0,0,0,285.06,268c27.76-14.2,67.9-31.6,107.9-39.63"/><path class="cls-1" d="M339.49,261c-13.13,5.75-67,29.27-102.76,44a4,4,0,0,0,.53,7.63c16.71,4.33,46.61,9.35,73.55-1.08L362,288.59a3.39,3.39,0,0,0,1.17-5.32l-18.58-21.18A4.41,4.41,0,0,0,339.49,261Z"/><path class="cls-1" d="M380,302.88l12.13,12a2.18,2.18,0,0,1-.45,3.45,70.61,70.61,0,0,1-53.93,5.86,2.3,2.3,0,0,1-.31-4.3l38.17-17.76A3.91,3.91,0,0,1,380,302.88Z"/><path class="cls-1" d="M374.43,251.35c7.83,5.78,63.34,45.62,104,45.62V327s-27.41.09-46.87-12.78c0,0-32.76-21.51-60.67-59.18a2.62,2.62,0,0,1,1.5-4.18h0A2.61,2.61,0,0,1,374.43,251.35Z"/><path class="cls-1" d="M478.39,631.54c-107.69,0-291.62-75-282-311.25a2.54,2.54,0,0,0-2.53-2.65h0a2.53,2.53,0,0,0-2.5,2.08c-3,16.45-20.71,127.58,31,219.62,42.93,76.35,132.34,123.43,183.77,136.88,0,0,25.8-34,72.24-34Z"/><path class="cls-1" d="M478.39,825.18s-57,.58-82.32-50.85c0,0-165.82-29.93-243.11-174.07-58-108.14-50-200-43.42-281.27a3.36,3.36,0,0,0-2-3.32h0a3.36,3.36,0,0,0-4.38,1.62C86.67,351.5,32.15,537.44,135.14,695,244.07,861.66,428,885.68,478.39,885.68"/><path class="cls-1" d="M478.39,0C660.8,0,742.22,72.57,765.11,97.93a1.62,1.62,0,0,1-2.1,2.42c-104.11-68-218-61.88-261.85-56.19a1.68,1.68,0,0,0,.19,3.34c114.88,2.88,175.88,23.64,230.26,59.09,33.84,20.79,47,18.94,55.82,17.44a39.76,39.76,0,0,1,12.44-1.09c4.45.45,7,5,4.4,8.62-9.39,12.73-9.94,30.37-9.94,30.37s3.95,58.55,54.59,60.14,45.5-32.23,45.5-32.23c-2-16.83-25.19-14.19-26.11,0,0,0-1.72,19.57-33.37,13.24,0,0-41.67-14.77-16.88-62.77,0,0,25.2-39.67,84.93-23.21,51.69,14.24,60.13,71.21,50.11,101.8a79.85,79.85,0,0,1-14.72,24.95c-18.09,21.19-55.63,43.69-127.17,13-31.14-16.15-76.59-47.45-101.8-73.32,0,0,37,8.48,65.51,3a1.73,1.73,0,0,0-.35-3.43c-28.57-.13-66.83-8-84.35-20.65-29.67-24.91-102.66-83.4-211.83-83.4"/><path class="cls-1" d="M478.39,99.16c50.46,0,118,0,245.77,127.59a1,1,0,0,1-1.25,1.48c-42-23.57-118-82.28-185.86-82.28,0,0-21.72-22.52-58.66-22.52"/><path class="cls-1" d="M561.71,182s53.81-6.86,134.51,51.16c68.44,49.21,125.12,58.58,147.84,60a3.18,3.18,0,0,1,1.48,5.88c-14.63,9.07-52.09,22.4-121.07-12.57,0,0-19.15-9.37-32.47-17.88l-9,1.32A18.79,18.79,0,0,1,671.73,268c-27.76-14.2-67.9-31.6-107.91-39.63"/><path class="cls-1" d="M617.29,261c13.13,5.75,67,29.27,102.76,44a4,4,0,0,1-.53,7.63c-16.71,4.33-46.61,9.35-73.54-1.08l-51.2-22.88a3.38,3.38,0,0,1-1.16-5.32l18.57-21.18A4.41,4.41,0,0,1,617.29,261Z"/><path class="cls-1" d="M576.8,302.88l-12.14,12a2.19,2.19,0,0,0,.45,3.45,70.63,70.63,0,0,0,53.94,5.86,2.31,2.31,0,0,0,.31-4.3l-38.18-17.76A3.89,3.89,0,0,0,576.8,302.88Z"/><path class="cls-1" d="M582.35,251.35C574.52,257.13,519,297,478.39,297V327s27.41.09,46.87-12.78c0,0,32.76-21.51,60.68-59.18a2.63,2.63,0,0,0-1.5-4.18h0A2.64,2.64,0,0,0,582.35,251.35Z"/><path class="cls-1" d="M478.39,631.54c107.69,0,291.62-75,282-311.25a2.54,2.54,0,0,1,2.53-2.65h0a2.53,2.53,0,0,1,2.5,2.08c3,16.45,20.71,127.58-31,219.62-42.94,76.35-132.35,123.43-183.77,136.88,0,0-25.81-34-72.25-34Z"/><path class="cls-1" d="M478.39,825.18s57,.58,82.32-50.85c0,0,165.82-29.93,243.11-174.07,58-108.14,50-200,43.42-281.27a3.35,3.35,0,0,1,2-3.32h0a3.35,3.35,0,0,1,4.37,1.62c16.52,34.21,71,220.15-31.94,377.71C712.71,861.66,528.78,885.68,478.39,885.68"/></g></g></svg>