<svg xmlns="http://www.w3.org/2000/svg" viewBox="0 0 847.78 947.32"><defs><style>.cls-1{fill:#fff;}</style></defs><g id="Layer_2" data-name="Layer 2"><g id="_1" data-name="1"><path class="cls-1" d="M423.89,376.46c-102.77,0-186.08,83.32-186.08,186.09s83.31,186.09,186.08,186.09S610,665.32,610,562.55,526.66,376.46,423.89,376.46Zm0,333.66A147.57,147.57,0,1,1,571.46,562.55,147.57,147.57,0,0,1,423.89,710.12Z"/><circle class="cls-1" cx="423.89" cy="562.55" r="130.01"/><path class="cls-1" d="M470.63,302s39.13-87.25-52-120.81c-2.88-1.06-5.49,1.76-3.77,4.3,11.3,16.66,26.24,53.21-9.6,87.19C364.6,314.33,361.44,359,376.08,396.81H479.69S444.25,362.11,470.63,302Zm-28.76,5.27C420.52,347.34,440,386.9,440,386.9l-36.39-3.38c-19.52-48.84,14.77-88.71,14.77-88.71,40.61-46.41,28.48-71.95,28.48-71.95C474.85,258.73,441.87,307.25,441.87,307.25Z"/><path class="cls-1" d="M377.16,826.29s-39.13,87.25,52,120.8c2.87,1.06,5.48-1.76,3.76-4.29-11.3-16.67-26.23-53.22,9.61-87.2,40.64-41.67,43.81-86.28,29.17-124.15H368.09S403.53,766.15,377.16,826.29ZM405.91,821c21.36-40.09,1.84-79.65,1.84-79.65l36.4,3.38c19.51,48.84-14.77,88.71-14.77,88.71-40.62,46.42-28.49,72-28.49,72C372.94,869.54,405.91,821,405.91,821Z"/><path class="cls-1" d="M161.74,517.4s-87.25-39.13-120.81,52c-1,2.87,1.76,5.48,4.3,3.76,16.66-11.3,53.21-26.23,87.19,9.61,41.67,40.64,86.29,43.8,124.15,29.17V508.33S221.87,543.77,161.74,517.4ZM167,546.15c40.09,21.36,79.65,1.84,79.65,1.84l-3.38,36.4c-48.84,19.51-88.71-14.77-88.71-14.77C108.16,529,82.62,541.13,82.62,541.13,118.49,513.18,167,546.15,167,546.15Z"/><path class="cls-1" d="M686.05,610.87s87.25,39.13,120.8-52c1.06-2.88-1.76-5.49-4.29-3.77-16.67,11.3-53.22,26.24-87.2-9.6-41.67-40.65-86.28-43.81-124.15-29.17V619.93S625.91,584.49,686.05,610.87Zm-5.28-28.76c-40.09-21.35-79.65-1.84-79.65-1.84l3.38-36.39c48.84-19.52,88.71,14.77,88.71,14.77,46.42,40.61,72,28.48,72,28.48C729.3,615.09,680.77,582.11,680.77,582.11Z"/><path class="cls-1" d="M271.57,345.72s-34-89.37-122.2-48.65c-2.78,1.28-2.64,5.12.37,5.7,19.78,3.79,56.18,19.07,54.87,68.45.72,58.2,30,92,67.16,108.41L345,406.36S295.44,406.88,271.57,345.72ZM255,369.78c13.25,43.44,55,57.62,55,57.62l-28.12,23.34c-48.34-20.73-52.28-73.17-52.28-73.17-4.11-61.54-30.74-71-30.74-71C244,312.15,255,369.78,255,369.78Z"/><path class="cls-1" d="M576.22,782.55s34,89.37,122.2,48.64c2.77-1.28,2.63-5.12-.38-5.69-19.77-3.79-56.18-19.08-54.86-68.45-.73-58.2-30-92-67.16-108.41L502.75,721.9S552.35,721.38,576.22,782.55Zm16.6-24.06c-13.25-43.45-55-57.62-55-57.62l28.13-23.35c48.33,20.73,52.28,73.17,52.28,73.17,4.1,61.54,30.74,71,30.74,71C603.82,816.12,592.82,758.49,592.82,758.49Z"/><path class="cls-1" d="M205.48,716.46s-89.37,34-48.65,122.2c1.28,2.77,5.12,2.63,5.7-.38,3.79-19.77,19.08-56.18,68.45-54.86,58.2-.73,92-30,108.41-67.16L266.12,643S266.64,692.59,205.48,716.46Zm24.06,16.6c43.45-13.25,57.62-55,57.62-55l23.34,28.13c-20.73,48.33-73.17,52.28-73.17,52.28-61.54,4.1-71,30.74-71,30.74C171.91,744.06,229.54,733.06,229.54,733.06Z"/><path class="cls-1" d="M642.31,411.81s89.37-34,48.65-122.2c-1.29-2.78-5.13-2.64-5.7.37-3.79,19.78-19.08,56.18-68.45,54.87-58.2.72-92,30-108.41,67.16l73.26,73.26S581.14,435.68,642.31,411.81ZM618.25,395.2c-43.45,13.25-57.62,55-57.62,55L537.28,422.1c20.74-48.34,73.17-52.28,73.17-52.28,61.54-4.11,71-30.74,71-30.74C675.88,384.21,618.25,395.2,618.25,395.2Z"/><path class="cls-1" d="M423.89,0C246.66,0-36.47,126.29,3.89,456.53c0,0,42.47-349.73,420-349.73Z"/><path class="cls-1" d="M423.89,0c177.23,0,460.36,126.29,420,456.53,0,0-42.48-349.73-420-349.73Z"/></g></g></svg>