<svg xmlns="http://www.w3.org/2000/svg" viewBox="0 0 970.42 785"><defs><style>.cls-1{fill:#fff;}</style></defs><g id="Layer_2" data-name="Layer 2"><g id="_1" data-name="1"><path class="cls-1" d="M230.72,235.13c114.43,15.57,254.49,15.75,254.49,15.75V216.27h0a51.23,51.23,0,1,1,0-102.45h0V77c-68.8-3-128.37-10.38-158.62-18.51a3.26,3.26,0,0,1,1.2-6.38c64.8,7.11,157.42,6.64,157.42,6.64V0C353,0,213.63,63.63,213.63,63.63,74.37,114.26,0,212,0,212l330.73,98.32c71.2,15.83,154.48,15.83,154.48,15.83V275.42c-98.84-3.65-206.16-18.05-256.08-33C224.68,241.14,226.12,234.5,230.72,235.13Z"/><path class="cls-1" d="M7.7,213.13c-.77,13.51,12.4,19.76,14.64,35.06l.9,49.62A16.62,16.62,0,0,1,20.68,307a33.71,33.71,0,0,0-4.17,15.52c0,5.29,4.19,8.51,8.14,10.37a17.24,17.24,0,0,0,15.9-.39,13.34,13.34,0,0,0,6.92-11s1.54-5.86-5.25-14.88A21.26,21.26,0,0,1,38,293.81V249.35s14.77-8.44,15.29-29Z"/><path class="cls-1" d="M135.44,316.93a348.35,348.35,0,0,0-30.95,34.89,2.6,2.6,0,0,0-.13,3c3.29,5.11,14.71,21.74,31.21,33.62a2.57,2.57,0,0,0,3.11-.08c5.13-4,21.9-17.92,32.19-34.44a2.56,2.56,0,0,0-.14-2.92c-3.63-4.78-16.15-20.69-31.79-34.19A2.6,2.6,0,0,0,135.44,316.93Z"/><circle class="cls-1" cx="242.47" cy="384.38" r="14.77"/><path class="cls-1" d="M324.92,301.88l-43-12.69c-9,23.7-34.69,27-34.69,27C245.33,307,245,290,245.07,278.3L223.68,272c.11,8.56.63,32.57,3,44.21,0,0-81.11-2.86-91.48-70.33L64.88,225.09H62.24S53.8,254.63,115,253c0,0,7.92,76.9,117.1,84.87,0,0,16.88,58.61,71.73,35.4C303.82,373.31,339.16,358.54,324.92,301.88ZM298,349.57c-17.58,16.35-40.78,3-44.31-13.89,35.34-5.74,50.64-32.8,50.64-32.8C313.32,338.53,298,349.57,298,349.57Z"/><path class="cls-1" d="M392.31,355.56c16.09,27.8,66.06,114.7,92.9,114.7v97.2s-49,3.12-71.2-24.57a124.52,124.52,0,0,0-49.26-33.23s-29.28-8.7-44.31-24.13c0,0,19.07-62,62.17-130.17A5.67,5.67,0,0,1,392.31,355.56Z"/><path class="cls-1" d="M405.89,352.72s55.57,104,79.32,103.93V426.58s-23.94-8.24-50.84-71.58Z"/><path class="cls-1" d="M215.21,627.55c31.65,27.69,100.48,68,100.48,68L485.21,622V608.56c-61.65,0-79.32-18.2-82.52-31.65-5.5-19.78-20.54-25.32-20.54-25.32C371,545.44,351.48,537.71,341,533.7a8.16,8.16,0,0,0-10.32,4.18l-2.27,4.89a38.46,38.46,0,0,1-11.62,14.41C299.69,570.17,256.48,602.29,215.21,627.55Z"/><path class="cls-1" d="M454,661.41a30.68,30.68,0,0,1,2.85-13l-1.14.46L328.31,704.3s95.13,58.55,156.9,80.7V692.33A31.15,31.15,0,0,1,454,661.41Z"/><path class="cls-1" d="M739.7,235.13c-114.42,15.57-254.49,15.75-254.49,15.75V216.27h0a51.23,51.23,0,1,0,0-102.45h0V77C554,74,613.59,66.65,643.83,58.52a3.25,3.25,0,0,0-1.2-6.38c-64.8,7.11-157.42,6.64-157.42,6.64V0C617.41,0,756.8,63.63,756.8,63.63,896.05,114.26,970.42,212,970.42,212L639.7,310.27C568.49,326.1,485.21,326.1,485.21,326.1V275.42c98.84-3.65,206.17-18.05,256.08-33C745.75,241.14,744.31,234.5,739.7,235.13Z"/><path class="cls-1" d="M962.73,213.13c.76,13.51-12.4,19.76-14.65,35.06l-.89,49.62a16.62,16.62,0,0,0,2.56,9.23,33.71,33.71,0,0,1,4.17,15.52c0,5.29-4.19,8.51-8.14,10.37a17.26,17.26,0,0,1-15.91-.39,13.34,13.34,0,0,1-6.92-11s-1.54-5.86,5.26-14.88a21.33,21.33,0,0,0,4.24-12.82V249.35s-14.77-8.44-15.3-29Z"/><path class="cls-1" d="M835,316.93a349.67,349.67,0,0,1,31,34.89,2.62,2.62,0,0,1,.13,3c-3.29,5.11-14.71,21.74-31.21,33.62a2.58,2.58,0,0,1-3.12-.08c-5.12-4-21.9-17.92-32.19-34.44a2.56,2.56,0,0,1,.15-2.92c3.63-4.78,16.15-20.69,31.78-34.19A2.61,2.61,0,0,1,835,316.93Z"/><circle class="cls-1" cx="727.95" cy="384.38" r="14.77"/><path class="cls-1" d="M645.5,301.88l43-12.69c9,23.7,34.69,27,34.69,27,2-9.18,2.25-26.17,2.2-37.89l21.4-6.32c-.11,8.56-.64,32.57-3,44.21,0,0,81.1-2.86,91.47-70.33l70.36-20.77h2.63s8.44,29.54-52.74,27.95c0,0-7.93,76.9-117.1,84.87,0,0-16.88,58.61-71.74,35.4C666.6,373.31,631.26,358.54,645.5,301.88Zm26.9,47.69c17.58,16.35,40.78,3,44.31-13.89-35.34-5.74-50.64-32.8-50.64-32.8C657.11,338.53,672.4,349.57,672.4,349.57Z"/><path class="cls-1" d="M578.11,355.56c-16.08,27.8-66.06,114.7-92.9,114.7v97.2s49.05,3.12,71.2-24.57a124.5,124.5,0,0,1,49.27-33.23S635,501,650,485.53c0,0-19.08-62-62.18-130.17A5.67,5.67,0,0,0,578.11,355.56Z"/><path class="cls-1" d="M564.53,352.72s-55.56,104-79.32,103.93V426.58s23.94-8.24,50.84-71.58Z"/><path class="cls-1" d="M755.22,627.55c-31.65,27.69-100.49,68-100.49,68L485.21,622V608.56c61.65,0,79.32-18.2,82.52-31.65,5.51-19.78,20.54-25.32,20.54-25.32,11.19-6.15,30.68-13.88,41.14-17.89a8.15,8.15,0,0,1,10.31,4.18l2.28,4.89a38.34,38.34,0,0,0,11.61,14.41C670.73,570.17,714,602.29,755.22,627.55Z"/><path class="cls-1" d="M516.39,661.41a30.83,30.83,0,0,0-2.84-13l1.14.46L642.12,704.3S547,762.85,485.21,785V692.33A31.15,31.15,0,0,0,516.39,661.41Z"/></g></g></svg>