<svg xmlns="http://www.w3.org/2000/svg" viewBox="0 0 970.51 952.62"><defs><style>.cls-1{fill:#fff;}</style></defs><g id="Layer_2" data-name="Layer 2"><g id="_1" data-name="1"><polygon class="cls-1" points="485.26 0 259.52 179.37 234.2 420.66 42.73 556.43 0 845.01 269.01 952.62 485.26 855.23 485.26 807.78 266.85 903.31 55.84 819.69 87.78 585.71 276.76 445.62 300.02 202.31 485.26 55.38 485.26 0"/><polygon class="cls-1" points="485.26 0 711 179.37 736.31 420.66 927.79 556.43 970.51 845.01 701.5 952.62 485.26 855.23 485.26 807.78 703.66 903.31 914.67 819.69 882.73 585.71 693.75 445.62 670.49 202.31 485.26 55.38 485.26 0"/><path class="cls-1" d="M486.12,236.57s-14-16.89-7.44-123.17c0,0-21.38,30.8-24.53,49.59-3.44,20.57-4.58,67.25-3,84.66s15.44,47.47,35,47.47Z"/><path class="cls-1" d="M439.12,151.91s3.54,92.65,1.17,107.43c0,0-7.71,24.1-17.79,37.53a3.75,3.75,0,0,1-6.69-1.8C412.68,271.26,406.34,197.81,439.12,151.91Z"/><path class="cls-1" d="M403,198.18c2,20.38,5.61,65.62-1.08,77.16,0,0-21.36-4.69-25.31-50.21,0,0-4.3-19,15.75-32.09A6.92,6.92,0,0,1,403,198.18Z"/><path class="cls-1" d="M360,225.13s11.08,55,49.85,84.65c0,0,21.24-8.33,37.6-25.74,0,0,8.08,21.41,27.07,25.74,0,0-52.81,40.6-87.62,41.35,0,0-30.81,1-28.44,24.69V396.4s-7.95,16.61-26.15,18.19c0,0-20.57-.79-13.45-20.57,0,0-16.62,3.17-14.24-18.2,0,0,7.91-19.78,20.57-14.24,0,0,2.37-23.65,26.11-9.45l-12.66-16.66c-13.49-18.68-2.06-32.39-.79-56.17,0,0,15.42,24.09,32.92,42.13a2.57,2.57,0,0,0,3.56.12h0a2.56,2.56,0,0,0,.27-3.58c-4.88-5.83-19.56-24.48-28.05-47.38C346.55,270.59,336.23,249.75,360,225.13Z"/><circle class="cls-1" cx="486.26" cy="333.1" r="25.07"/><path class="cls-1" d="M452.45,339.22s-36.27,22.15-56.85,25.32c0,0-28.48-3-26.9,17.61,0,0,0,8.5,7.53,13.25-12.27,4.16,0,22.81,18.58,16.65,0,0,5.54,10.46,22.95.51,22.3-12.74,34.69-54.39,34.69-54.39s-26,24.78-33.9,25.57-13.84-5.33-8-9.29C410.55,374.45,441.08,355.28,452.45,339.22Z"/><path class="cls-1" d="M364.33,411.43c-51.43,24.53-24.69,40.81-24.69,40.81s-12,11.46,2.95,24.07c14.64,12.31,33.64,3.95,33.64,3.95,13.22,15.43,34.32,6.73,36.92-3.95,4.1-22.95,14-50.6,14-50.6C411.18,439.16,405.8,451,405.8,451c-13-5.54-24.44,6.33-24.44,6.33s-2.2-9.89-14.45-12.87c-7.89-1.92-12.24,0-12.24,0-1.58-13.45,22.56-22.74,22.56-22.74S365.89,418.55,364.33,411.43Z"/><path class="cls-1" d="M486.12,363.56s-13.5,2.74-13.6,39.56c-.09,33.23,6.32,38.77,13.6,38.77Z"/><path class="cls-1" d="M463.25,424.88c-4.35-10.29,4.6-61.32,4.6-61.32s-38.22,68-38.22,99.3c0,23.34,20.82,24.13,20.82,24.13s-2.23,17.41,17.4,22.13c0,0,.87,11.08,18.27,11.08V465.63s-11.6-1.19-15.54,3.95c2.66-6.45-4.36-18.58-13.5-22.72a2,2,0,0,1-.7-3.17C461.66,438.32,463.66,433.88,463.25,424.88Z"/><path class="cls-1" d="M486.12,236.57s14-16.89,7.44-123.17c0,0,21.38,30.8,24.53,49.59,3.45,20.57,4.58,67.25,3,84.66s-15.43,47.47-35,47.47Z"/><path class="cls-1" d="M533.12,151.91s-3.53,92.65-1.16,107.43c0,0,7.7,24.1,17.79,37.53a3.75,3.75,0,0,0,6.69-1.8C559.57,271.26,565.91,197.81,533.12,151.91Z"/><path class="cls-1" d="M569.23,198.18c-2,20.38-5.6,65.62,1.08,77.16,0,0,21.36-4.69,25.32-50.21,0,0,4.29-19-15.75-32.09A6.93,6.93,0,0,0,569.23,198.18Z"/><path class="cls-1" d="M612.24,225.13s-11.07,55-49.84,84.65c0,0-21.25-8.33-37.61-25.74,0,0-8.07,21.41-27.06,25.74,0,0,52.8,40.6,87.61,41.35,0,0,30.82,1,28.44,24.69V396.4s8,16.61,26.16,18.19c0,0,20.57-.79,13.45-20.57,0,0,16.61,3.17,14.24-18.2,0,0-7.91-19.78-20.57-14.24,0,0-2.38-23.65-26.11-9.45l12.66-16.66c13.48-18.68,2-32.39.79-56.17,0,0-15.43,24.09-32.92,42.13a2.58,2.58,0,0,1-3.57.12h0a2.58,2.58,0,0,1-.27-3.58c4.88-5.83,19.57-24.48,28.06-47.38C625.7,270.59,636,249.75,612.24,225.13Z"/><path class="cls-1" d="M519.79,339.22s36.28,22.15,56.85,25.32c0,0,28.48-3,26.9,17.61,0,0,0,8.5-7.52,13.25,12.27,4.16,0,22.81-18.59,16.65,0,0-5.54,10.46-22.94.51-22.31-12.74-34.7-54.39-34.7-54.39s26,24.78,33.91,25.57,13.84-5.33,8-9.29C561.7,374.45,531.17,355.28,519.79,339.22Z"/><path class="cls-1" d="M607.91,411.43c51.43,24.53,24.7,40.81,24.7,40.81s12,11.46-3,24.07C615,488.62,596,480.26,596,480.26c-13.23,15.43-34.32,6.73-36.93-3.95-4.1-22.95-14-50.6-14-50.6C561.06,439.16,566.44,451,566.44,451c13-5.54,24.44,6.33,24.44,6.33s2.2-9.89,14.45-12.87c7.89-1.92,12.24,0,12.24,0C619.16,431,595,421.71,595,421.71S606.35,418.55,607.91,411.43Z"/><path class="cls-1" d="M486.12,363.56s13.51,2.74,13.61,39.56c.09,33.23-6.33,38.77-13.61,38.77Z"/><path class="cls-1" d="M509,424.88c4.35-10.29-4.6-61.32-4.6-61.32s38.22,68,38.23,99.3c0,23.34-20.83,24.13-20.83,24.13s2.23,17.41-17.4,22.13c0,0-.86,11.08-18.27,11.08V465.63s11.61-1.19,15.54,3.95C499,463.13,506,451,515.16,446.86a2,2,0,0,0,.71-3.17C510.59,438.32,508.59,433.88,509,424.88Z"/><path class="cls-1" d="M775.35,736.89s21.66-3.54,110,55.92c0,0-15.74-34-30.36-46.25-16-13.39-55.68-38-71.49-45.44s-48.76-10.71-58.65,6.14Z"/><path class="cls-1" d="M872.16,739.2s-81.7-43.84-93.25-53.37c0,0-16.88-18.84-23.37-34.33a3.75,3.75,0,0,1,4.94-4.86C782.61,656,849.16,687.69,872.16,739.2Z"/><path class="cls-1" d="M850.52,684.64c-18.6-8.57-59.43-28.38-66-40,0,0,14.86-16.06,56.12,3.57,0,0,18.58,5.93,19.7,29.83A6.92,6.92,0,0,1,850.52,684.64Z"/><path class="cls-1" d="M849.05,633.9s-53-18.28-98.24.15c0,0-3.56,22.54,3.17,45.46,0,0-22.55-3.87-35.9,10.32,0,0-8.29-66.09,8.68-96.49,0,0,14.77-27.07-6.9-37L702.12,545.9s-10.31-15.27-2.46-31.77c0,0,11.09-17.34,24.55-1.19,0,0,5.68-15.93,22.9-3.07,0,0,13.06,16.83,1.87,25,0,0,19.2,14-5.06,27.3l20.77-2.49c22.94-2.17,29,14.62,48.85,27.75,0,0-28.58,1.11-53,7.07a2.57,2.57,0,0,0-1.9,3h0a2.57,2.57,0,0,0,3,2c7.49-1.26,31-4.49,55.06-.22C816.65,599.29,839.85,600.94,849.05,633.9Z"/><circle class="cls-1" cx="692.03" cy="688.15" r="25.07"/><path class="cls-1" d="M703.86,655.9s-.75-42.5,6.93-61.85c0,0,17-23.07-1.57-32.11,0,0-7.34-4.29-15.23-.21,2.62-12.7-19.68-11.55-23.78,7.59,0,0-11.81-.51-12.05,19.54-.29,25.68,29.35,57.45,29.35,57.45s-8.21-35-4.89-42.18,11.61-9.24,12.06-2.2C694.68,601.93,695.76,638,703.86,655.9Z"/><path class="cls-1" d="M686.18,543.35c4.87-56.77-22.7-42-22.7-42s-3.79-16.18-22.26-9.63c-18,6.39-20.43,27-20.43,27-20,3.59-23.17,26.19-15.28,33.84,17.72,15.15,36.57,37.66,36.57,37.66-3.53-20.56-11-31.18-11-31.18,11.34-8.38,6.91-24.28,6.91-24.28s9.65,3.1,18.41-6c5.65-5.84,6.2-10.56,6.2-10.56,12.4,5.44,8.19,31,8.19,31S679.25,541.09,686.18,543.35Z"/><path class="cls-1" d="M665.83,672.62s4.47-13-27.24-31.76C610,624,602,626.7,598.27,633Z"/><path class="cls-1" d="M624.51,621.86c11.08,1.45,50.56,35,50.56,35s-39.34-67.4-66.29-83.22c-20.13-11.82-31.36,5.75-31.36,5.75s-13.88-10.74-27.89,3.81c0,0-10-4.87-18.8,10.15L577.8,621s6.89-9.41,4.45-15.4c4.22,5.56,18.24,5.64,26.43-.14a2,2,0,0,1,3.09,1C613.73,613.68,616.55,617.66,624.51,621.86Z"/><path class="cls-1" d="M775.35,736.89s7.48,20.63,102.47,68.75c0,0-37.38,2.86-55.19-3.94-19.48-7.44-60.32-30.08-74.53-40.26S715,724.11,724.85,707.26Z"/><path class="cls-1" d="M824.58,820.27s-78.11-49.94-92.07-55.37c0,0-24.67-5.55-41.36-3.66a3.76,3.76,0,0,0-1.84,6.69C708.26,782.68,768.4,825.32,824.58,820.27Z"/><path class="cls-1" d="M766.4,828c-16.55-12.06-53.76-38-67.09-38.12,0,0-6.77,20.79,30.49,47.25,0,0,14.23,13.33,35.64,2.65A6.92,6.92,0,0,0,766.4,828Z"/><path class="cls-1" d="M721.39,851.46s-41.83-37.39-47.78-85.84c0,0,17.93-14.1,41.23-19.41,0,0-14.38-17.79-8.5-36.36,0,0-61.74,25-80,54.64,0,0-16.42,26.09-35.69,12L572.9,766.11s-18.36-1.55-28.93,13.34c0,0-9.73,18.15,10.93,22,0,0-11.14,12.73,8.49,21.5,0,0,21.06,3.18,22.69-10.54,0,0,21.61,9.93,21.37-17.73l8,19.35c9.29,21.08,26.9,18.17,48.05,29.11,0,0-13-25.49-19.68-49.72a2.57,2.57,0,0,1,1.7-3.13h0a2.58,2.58,0,0,1,3.23,1.58c2.55,7.16,11.21,29.26,26.66,48.17C675.37,840.05,688.13,859.5,721.39,851.46Z"/><path class="cls-1" d="M669.78,714s-37.47,20.07-50.61,36.21c0,0-11.86,26.07-28.81,14.29,0,0-7.31-4.31-7.61-13.19-9.8,8.48-19.67-11.55-5-24.46,0,0-6.21-10.07,11.18-20.05,22.27-12.78,64.46-2.39,64.46-2.39s-34.52,9.87-39.2,16.3-2.41,14.63,3.95,11.6C618.18,732.29,650.17,715.66,669.78,714Z"/><path class="cls-1" d="M562.9,753.44c-47.18,31.94-47.69.64-47.69.64s-16,4.58-19.27-14.73c-3.2-18.86,13.62-31,13.62-31-6.62-19.22,11.56-33,22.09-29.85,21.87,8.08,50.71,13.55,50.71,13.55-19.67,7-32.59,5.61-32.59,5.61-1.78,14-17.83,17.87-17.83,17.87s7.42,6.91,3.79,19c-2.34,7.77-6.2,10.55-6.2,10.55,10.8,8.18,31-7.94,31-7.94S557.55,748.49,562.9,753.44Z"/><path class="cls-1" d="M665.83,672.62s-9.2,10.26-41-8.29c-28.71-16.74-30.24-25.07-26.55-31.35Z"/><path class="cls-1" d="M601.37,661.31c6.66,9,55.21,27.07,55.21,27.07s-78-1.48-105-17.29c-20.13-11.81-10.27-30.17-10.27-30.17S525.18,634,531,614.71c0,0-9.12-6.35-.31-21.36L577.8,621s-4.85,10.61-11.28,11.4c6.91,1,13.82,13.17,12.77,23.15a2,2,0,0,0,2.37,2.21C589,655.88,593.81,656.41,601.37,661.31Z"/><path class="cls-1" d="M194.71,736.89s-21.67-3.54-110,55.92c0,0,15.74-34,30.35-46.25,16-13.39,55.69-38,71.5-45.44s48.75-10.71,58.64,6.14Z"/><path class="cls-1" d="M97.9,739.2s81.69-43.84,93.25-53.37c0,0,16.88-18.84,23.36-34.33a3.75,3.75,0,0,0-4.94-4.86C187.45,656,120.89,687.69,97.9,739.2Z"/><path class="cls-1" d="M119.53,684.64c18.6-8.57,59.43-28.38,66-40,0,0-14.85-16.06-56.12,3.57,0,0-18.58,5.93-19.7,29.83A6.92,6.92,0,0,0,119.53,684.64Z"/><path class="cls-1" d="M121,633.9s53.05-18.28,98.24.15c0,0,3.57,22.54-3.16,45.46,0,0,22.54-3.87,35.89,10.32,0,0,8.29-66.09-8.68-96.49,0,0-14.77-27.07,6.91-37l17.74-10.41s10.3-15.27,2.46-31.77c0,0-11.1-17.34-24.55-1.19,0,0-5.68-15.93-22.91-3.07,0,0-13.05,16.83-1.87,25,0,0-19.2,14,5.06,27.3l-20.77-2.49c-22.94-2.17-29,14.62-48.85,27.75,0,0,28.58,1.11,53,7.07a2.58,2.58,0,0,1,1.91,3h0a2.59,2.59,0,0,1-3,2c-7.49-1.26-31-4.49-55.05-.22C153.41,599.29,130.21,600.94,121,633.9Z"/><circle class="cls-1" cx="278.02" cy="688.15" r="25.07"/><path class="cls-1" d="M266.19,655.9s.75-42.5-6.93-61.85c0,0-17-23.07,1.58-32.11,0,0,7.33-4.29,15.23-.21-2.62-12.7,19.67-11.55,23.77,7.59,0,0,11.82-.51,12.05,19.54.3,25.68-29.35,57.45-29.35,57.45s8.21-35,4.89-42.18-11.6-9.24-12.06-2.2C275.37,601.93,274.29,638,266.19,655.9Z"/><path class="cls-1" d="M283.87,543.35c-4.87-56.77,22.7-42,22.7-42s3.8-16.18,22.26-9.63c18,6.39,20.43,27,20.43,27,20,3.59,23.17,26.19,15.28,33.84C346.82,567.77,328,590.28,328,590.28c3.53-20.56,11-31.18,11-31.18-11.34-8.38-6.91-24.28-6.91-24.28s-9.64,3.1-18.41-6c-5.65-5.84-6.19-10.56-6.19-10.56-12.41,5.44-8.2,31-8.2,31S290.8,541.09,283.87,543.35Z"/><path class="cls-1" d="M304.23,672.62s-4.47-13,27.23-31.76C360.08,624,368.1,626.7,371.79,633Z"/><path class="cls-1" d="M345.54,621.86c-11.07,1.45-50.56,35-50.56,35s39.34-67.4,66.3-83.22c20.12-11.82,31.35,5.75,31.35,5.75s13.88-10.74,27.89,3.81c0,0,10-4.87,18.8,10.15L392.26,621s-6.9-9.41-4.46-15.4c-4.22,5.56-18.23,5.64-26.43-.14a2,2,0,0,0-3.09,1C356.33,613.68,353.5,617.66,345.54,621.86Z"/><path class="cls-1" d="M194.71,736.89s-7.48,20.63-102.47,68.75c0,0,37.38,2.86,55.18-3.94,19.49-7.44,60.32-30.08,74.53-40.26s33.14-37.33,23.25-54.18Z"/><path class="cls-1" d="M145.47,820.27s78.12-49.94,92.07-55.37c0,0,24.68-5.55,41.37-3.66a3.75,3.75,0,0,1,1.83,6.69C261.79,782.68,201.65,825.32,145.47,820.27Z"/><path class="cls-1" d="M203.65,828c16.56-12.06,53.76-38,67.1-38.12,0,0,6.77,20.79-30.49,47.25,0,0-14.24,13.33-35.65,2.65A6.92,6.92,0,0,1,203.65,828Z"/><path class="cls-1" d="M248.66,851.46s41.84-37.39,47.79-85.84c0,0-17.94-14.1-41.23-19.41,0,0,14.37-17.79,8.5-36.36,0,0,61.74,25,80,54.64,0,0,16.42,26.09,35.69,12l17.75-10.41s18.35-1.55,28.93,13.34c0,0,9.73,18.15-10.94,22,0,0,11.14,12.73-8.48,21.5,0,0-21.07,3.18-22.7-10.54,0,0-21.6,9.93-21.37-17.73l-8,19.35c-9.28,21.08-26.89,18.17-48.05,29.11,0,0,13-25.49,19.69-49.72a2.59,2.59,0,0,0-1.71-3.13h0a2.56,2.56,0,0,0-3.22,1.58c-2.56,7.16-11.21,29.26-26.67,48.17C294.68,840.05,281.93,859.5,248.66,851.46Z"/><path class="cls-1" d="M300.27,714s37.47,20.07,50.61,36.21c0,0,11.87,26.07,28.81,14.29,0,0,7.32-4.31,7.61-13.19,9.81,8.48,19.68-11.55,5-24.46,0,0,6.21-10.07-11.17-20.05-22.28-12.78-64.47-2.39-64.47-2.39s34.52,9.87,39.21,16.3,2.41,14.63-4,11.6C351.87,732.29,319.89,715.66,300.27,714Z"/><path class="cls-1" d="M407.15,753.44c47.18,31.94,47.69.64,47.69.64s16,4.58,19.27-14.73c3.21-18.86-13.61-31-13.61-31,6.61-19.22-11.57-33-22.1-29.85C416.54,686.57,387.69,692,387.69,692c19.67,7,32.59,5.61,32.59,5.61,1.79,14,17.83,17.87,17.83,17.87s-7.41,6.91-3.78,19c2.33,7.77,6.19,10.55,6.19,10.55-10.8,8.18-31-7.94-31-7.94S412.5,748.49,407.15,753.44Z"/><path class="cls-1" d="M304.23,672.62s9.2,10.26,41-8.29c28.71-16.74,30.24-25.07,26.56-31.35Z"/><path class="cls-1" d="M368.69,661.31c-6.67,9-55.22,27.07-55.22,27.07s78-1.48,105-17.29c20.13-11.81,10.27-30.17,10.27-30.17S444.88,634,439,614.71c0,0,9.11-6.35.3-21.36L392.26,621s4.85,10.61,11.27,11.4c-6.91,1-13.82,13.17-12.76,23.15a2,2,0,0,1-2.38,2.21C381.09,655.88,376.24,656.41,368.69,661.31Z"/><circle class="cls-1" cx="485.26" cy="565.71" r="26.07"/></g></g></svg>