<svg xmlns="http://www.w3.org/2000/svg" viewBox="0 0 870.75 938.12"><defs><style>.cls-1{fill:#fff;}</style></defs><g id="Layer_2" data-name="Layer 2"><g id="_1" data-name="1"><path class="cls-1" d="M53.56,55.92S97.48,69,96.29,29.81,35.76,1.33,35.76,1.33s-43.91,13.06-34.42,51,57,43.92,57,43.92,51.32,3.56,66.61-28.49C124.92,67.79,71.37,91.53,53.56,55.92Z"/><circle class="cls-1" cx="189.05" cy="653.08" r="97.32"/><circle class="cls-1" cx="134.53" cy="20.32" r="18.99"/><path class="cls-1" d="M294.88,182.78v93.36S144,414.34,100.77,433.33c0,0-6.85-.53-6.33-12.66V374.25s43.89,18,86.62-47.94c0,0,16.94-40.28,52.35-56.19a15,15,0,0,1,11.72-.13l10.25,3.57,12.13-12.13.47-50.69Z"/><path class="cls-1" d="M272.52,75.46a12,12,0,0,0,7.81,2.88h78.9s19.52-.53,19.52-21.62c0,0-1.94-19.52-29.37-19.52H238.44s-58.32-5-93.94,39.5c-3.51,2.45-8.93,12-10.23,35,0,0-39,8.27-54.41,27.47,0,0-29.87,37.81-17.4,85.28,0,0,17.21,23.74,51.63,11.87,0,0-14.8-18,.63-25.11s39.1.63,40.28,13.68c0,0-37.35-7.82-37.08,7.87,0,0,.79,7,9.75,12.26a158.77,158.77,0,0,1-20.42,27.9,9.6,9.6,0,0,0,.59,13.84c17.22,14.78,38.45,12.44,44.63,25.78,0,0-52.06-24.79-61,19.52,0,0-3.85,20.57,22,27.42,0,0,21.1,9.5,55.91-39,0,0,23.21-33.9-13.55-57.91-18.09-9.61-18.62-22.26,14.33-12.93,15.82,6.35,31.93,14.93,50.39-2.48l29-25.32V202.3l43.14-42.67s19.1,4.69,34.93-14.3c0,0,29-34.29,38.5-51.69,0,0-46.75.38-91.21.38a10.34,10.34,0,0,1-9.11-6.1c-2.73-5.76-6.95-14.77-9.92-21.71h5.8ZM164.87,203.09s8.17-17.41-7.66-30.86-50.64,0-50.64,0c7.13-13.45,40.36-28.48,60.41-8.7S164.87,203.09,164.87,203.09Zm65.92-64.88c-25.31,6.33-29.69,33.65-29.69,33.65L166.29,142c17.41-2.38,70-17.2,70-17.2Z"/><path class="cls-1" d="M314.66,280.63s37.19,35.6,64.09,34V203.09l64.09-73.58s17.41-6.71,22.15,18.8c0,0-58.55,46.91-47.47,73.4,0,0,18.2-17,61.71-11.5l51-38.35,81.9,56.55-58.55,37.18S484.77,218.12,429,253.73c0,0-33.6,17.4-33.6,85.45H373.19A31.64,31.64,0,0,1,355.8,334l-52.21-34.35-23.91,22.11,76.92,45.93h68.83v-38s-1.58-56.17,59.34-56.17c29.28,0,45.49,11.75,58.55,23.73,0,0,93.36-26.9,132.93-64.88,0,0-29.58-13.29-87.71-59.73a293.93,293.93,0,0,1-40.91-40.06c-13.54-16-38.51-38.72-72.19-40.25,0,0,77.79-24.53,15.66-81.49,0,0,15.45,49.84-36,49.05,0,0-11.07-24.27-35.6-15.57,0,0-21.78,8.45-11.49,36.93-7.13,38.77-67.26,71.07-92.58,121.39Z"/><path class="cls-1" d="M581.3,37S589.21,67,571,76.5c0,0-9.49-15-24.52-10.29s-17.62,22.6-11.29,31.18,14.45,12.11,27.11,11.54C598.71,103.11,612,63.84,581.3,37Z"/><polygon class="cls-1" points="531.97 198.63 579.72 228.41 551.23 245.81 503.76 218.12 531.97 198.63"/><path class="cls-1" d="M288.85,358.53l60.63,36H454.71v-53.8s-3.75-39.56,36-39.56c0,0,36,0,36,42.72v63.3s.9,52.48-19,56.6H351.06s-47.47-6-18.2-51.06L218.08,515l-93.16-58.75,41.37-33.21,59,36.37,45.24-44.31s-15.7-16.68-38.91,0c-25.32,18.2-41.22,11.08-56.22.79l69-54.45A39.34,39.34,0,0,1,288.85,358.53Z"/><path class="cls-1" d="M239.5,528.28l72-58.55s11.87,16.61,57.76,16.61H489.52l-74.37,69.42-24.53-18H331.28s7.17-9.29-6.41-14.24S300.42,533,300.42,533l-21.74,21.74Z"/><path class="cls-1" d="M555.19,320.19a304.76,304.76,0,0,1,4.75,53.8s97.9,24.94,147.74,122.26H757s-29.4-33.65-30.07-80.33c-.79-55.68-68.81-108.86-68.81-108.86s-10.31-8.63-5.56-21.69C652.51,285.37,597.12,310.69,555.19,320.19Z"/><path class="cls-1" d="M716.6,338.39s-20.21-22.5-37.19-40.36c-15.3-16.08,0-25.73,0-25.73s34.81-32.82,31.19-43.1c0,0-61.26-32-107.15-80.89,0,0-15.82-10.89,4.75-28.3l22.95-23.62V48.2s1.3-17.59,26-17.59c0,0,29.61,2.37,29.61-19.78,0,0,2.17-9.5,11.67-9.5V96.39l-38.09,40a10.77,10.77,0,0,0,.92,15.71c15.43,12.83,49.89,39.47,91.35,58.81,5.2,2.43,5.82,8.1,5.38,13.83-1,12.94-14.89,38.53-31.33,56.65a37.61,37.61,0,0,0-9.3,18.52C715.78,308.49,714.91,321,716.6,338.39Z"/><path class="cls-1" d="M718.18,101.86V51.31A17.28,17.28,0,0,1,735.46,34h38.69A45.43,45.43,0,0,0,799,26.66l21.3-15.83V39.31s2.37,49.05-40.75,49.05h-34A22.25,22.25,0,0,0,737,90C732.9,91.72,727.48,95.29,718.18,101.86Z"/><path class="cls-1" d="M701.92,143.1a7.8,7.8,0,0,0,0,12c33.64,27.11,67.27,37.67,67.27,37.67l14.28-20c7.51-11.61,22.55-9,22.55-9h27.38c33.76,0,34.23-35.87,34.23-35.87V75.7h0c-5.54,0-11.7,2.93-14.47,7.73-12.68,22-40.33,20.43-40.33,20.43l-53.93-.65a22.76,22.76,0,0,0-14.73,5.18S721.26,126.63,701.92,143.1Z"/><path class="cls-1" d="M867.66,167.86v54.36s-1,18.58-26.84,18.58h-69.1s9.89-37.1,24.4-53a15.4,15.4,0,0,1,11.4-5h37a18.74,18.74,0,0,0,15.82-9S862.66,167.86,867.66,167.86Z"/><path class="cls-1" d="M867.66,245.81v54.37s-1,18.58-26.84,18.58H739.05c0-22.7,7.3-30.53,29.77-53a16.19,16.19,0,0,1,11.4-5h64.29s10.55.5,15.82-9C860.33,251.77,862.66,245.81,867.66,245.81Z"/><path class="cls-1" d="M739.05,338V364.5s-.19,25.31,23.83,25.31h66.74s17.53-1.58,24.25,12.66c0,0,5.14,13.06,16.22,13.06V363.31s-.39-24.92-36.39-24.92Z"/><path class="cls-1" d="M742.18,405.9h68s58.44-4.27,58.44,43.73v30.59S844,457.86,818.5,456.54c0,0-6.91-1.06-11.14,4.22-5.37,6.68,4.45,15.3,4.45,15.3l54.54,54.54a15,15,0,0,1,4.4,10.62V722.91s-31.52-16.61-31.52-69.23v-92.3A15.08,15.08,0,0,0,835.12,551L780.29,492.9S742.18,461.84,742.18,405.9Z"/><path class="cls-1" d="M560.2,401.68s67,14.19,117.66,97c0,0-32.45,8.28-50.67,19.05,0,0-33.23-32.6-83.87-43.26C543.32,474.47,560.2,453.93,560.2,401.68Z"/><path class="cls-1" d="M483.19,522.89s30.07-40.5,72-22.31c25.86,11.23,42.39,23.65,51.27,31.53a24,24,0,0,1,8.07,17.95v24.31a62.22,62.22,0,0,1-33.64,55.56c-12.7,6.48-30.18,11.79-54.18,13.86,0,0-40.35-34-3.17-53,0,0,9.5-18.15-20.57-20.94s-50.64,0-50.64,0,17.41-52.11,98.11-22.58C550.44,547.26,536.2,514.34,483.19,522.89Z"/><path class="cls-1" d="M640.64,546.47s-6.33-11.86,9.5-16.61c0,0,23-13.13,76.79-13.13l1,61.39s.33,53.85-15.5,69.67c0,0-35.6,40.1-70.42,57.51,0,0-78.1,12.07-115.3-40.15,0,0,77.71-4.74,100.17-44.3C626.88,620.85,647.76,587.62,640.64,546.47Z"/><path class="cls-1" d="M504.55,668.32s27.95,57.55,122.77,53.59c0,0-28.61,29.86-58.68,28.49-101.27,0-185.14-7.37-204.13,12.07l-30.65-33.76s-8.05-9,6.91-22.2c0,0,38-35.82,63.3-38.19"/><path class="cls-1" d="M427,784.75H388.18a19.71,19.71,0,0,0-19.71,19.72v51.37c0,23.73,33.23,22.94,33.23,22.94,0,20.57-19.78,20.57-19.78,20.57H364.51c-13.45,0-13.08-13.45-13.08-13.45V774.34l-39.14-47.43c-14.24,0-13.45,16.12-13.45,16.12V894.61c0,43.51,37,43.51,37,43.51h69.05c42.73,0,43.52-38.77,43.52-38.77V825.78C448.38,783.84,427,784.75,427,784.75Zm-22.94,66.34c12.66-4,9.49-24.53,6.33-18.57s-10.29,6.7-10.29,6.7-15,2.58-15-15.61c0-16.12,19.74-16,19.74-16,8,0,20.3,5.54,20,21C424.43,852.49,404.07,851.09,404.07,851.09Z"/><path class="cls-1" d="M472.11,799.17v81.19l83.08-90.19s-4.75-6.33-21.76-6.33H489.52S472.11,783.84,472.11,799.17Z"/><path class="cls-1" d="M619.28,821V781.46s-4.75-31.56,32.44-54.55c0,0,64.59-47.51,76.21-68.08v47.68a78,78,0,0,1-20.83,33.41S629.56,802.83,619.28,821Z"/><path class="cls-1" d="M749.83,778.3V516.73s69.62,19.67,69.62,79.69V783.84s-4,33.85,26.91,57.59c0,0-68.05,7.12-68.05-59.34V576.65a5.53,5.53,0,0,0-3.66-5.21h0a5.54,5.54,0,0,0-7.42,5.21V800.5S749.83,798.87,749.83,778.3Z"/></g></g></svg>