<svg xmlns="http://www.w3.org/2000/svg" viewBox="0 0 793.27 942.47"><defs><style>.cls-1{fill:#fff;}</style></defs><g id="Layer_2" data-name="Layer 2"><g id="_1" data-name="1"><path class="cls-1" d="M396.82,421.46,293.76,632.71l92,68.46a37,37,0,0,1,11.05-2.63V677l-66.06-49.58,66.06-136.62Z"/><polygon class="cls-1" points="396.82 539.88 365.57 607.28 396.82 631.66 396.82 539.88"/><path class="cls-1" d="M228.32,611.16,370.26,713.58a34.69,34.69,0,0,0-6.33,23.88s-23.1,3-47.94,8.44c0,0-9.95-22.59-32.29-14.66,0,0-20.2,7.49-13.82,28.59-45.94,16.49-96.57,42-118.35,71L143,794.65s-9.68-29,63.77-63.83l-59.08-34.28L163,740.79S143.64,751,136.17,767.86L102.89,627.44l139.25,88.61a425.82,425.82,0,0,1,42.73-15.88l-30.6-23.31L248,696.54l-33.9-22.68Z"/><circle class="cls-1" cx="396.82" cy="732.8" r="20.97"/><circle class="cls-1" cx="292.59" cy="753.77" r="12.95"/><path class="cls-1" d="M396.82,766.45v47s-115.52,0-186.6,49.67a4.22,4.22,0,0,0,.56,7.28c20.11,9.61,87.79,38,186,38v34s-138.15,1.15-227.41-51.29a13.44,13.44,0,0,1-6.19-8.18l-6.35-24.32a13.63,13.63,0,0,1,1.78-11c8-12.07,36.23-46.09,118.51-74.36,12.45,9.49,36.59,4,40.15-13.45,0,0,24.13-5.54,50.63-8.7C367.94,751.19,375.86,765.24,396.82,766.45Z"/><path class="cls-1" d="M384.18,2.34c5.72,8.43,17.26,31.22-7.43,51.31C360,69.37,354.49,89.94,365.57,111.31H418s-20.36-20.37-2.75-46.52c0,0,26.05-36.74-29.17-64.62A1.49,1.49,0,0,0,384.18,2.34Z"/><path class="cls-1" d="M397,388c-5.72-8.44-17.26-31.22,7.42-51.31C421.22,321,426.69,300.4,415.62,279H363.19s20.36,20.37,2.75,46.52c0,0-26.06,36.74,29.16,64.62A1.49,1.49,0,0,0,397,388Z"/><path class="cls-1" d="M197.77,201.59c8.43-5.72,31.21-17.26,51.31,7.42,15.72,16.79,36.29,22.26,57.65,11.18V167.76s-20.36,20.37-46.52,2.75c0,0-36.74-26-64.62,29.17A1.5,1.5,0,0,0,197.77,201.59Z"/><path class="cls-1" d="M583.42,188.75c-8.43,5.72-31.22,17.26-51.31-7.42-15.72-16.79-36.29-22.26-57.65-11.18v52.42s20.36-20.36,46.51-2.74c0,0,36.74,26,64.62-29.17A1.49,1.49,0,0,0,583.42,188.75Z"/><path class="cls-1" d="M249.71,63.36c10,1.92,34.28,9.87,31,41.53-.75,23,9.92,41.4,32.86,48.67l37.07-37.07s-28.8,0-34.83-30.95c0,0-7.56-44.4-66.32-25.07A1.49,1.49,0,0,0,249.71,63.36Z"/><path class="cls-1" d="M531.48,327c-10-1.92-34.28-9.87-31-41.53.75-23-9.92-41.4-32.86-48.67l-37.07,37.07s28.79,0,34.83,30.95c0,0,7.56,44.4,66.32,25.06A1.49,1.49,0,0,0,531.48,327Z"/><path class="cls-1" d="M258.78,336.06c1.92-10,9.87-34.28,41.53-31,23,.76,41.4-9.92,48.68-32.86l-37.08-37.07s0,28.8-30.94,34.84c0,0-44.41,7.55-25.07,66.31A1.49,1.49,0,0,0,258.78,336.06Z"/><path class="cls-1" d="M522.4,54.28c-1.91,10-9.86,34.28-41.53,31-23-.76-41.4,9.92-48.67,32.85l37.07,37.08s0-28.8,31-34.84c0,0,44.4-7.56,25.07-66.32A1.5,1.5,0,0,0,522.4,54.28Z"/><path class="cls-1" d="M390.59,101a94.16,94.16,0,1,0,94.16,94.16A94.16,94.16,0,0,0,390.59,101Zm0,168.83a74.67,74.67,0,1,1,74.67-74.67A74.67,74.67,0,0,1,390.59,269.84Z"/><circle class="cls-1" cx="390.59" cy="195.17" r="65.78"/><circle class="cls-1" cx="128.57" cy="359.35" r="30.99"/><circle class="cls-1" cx="20.44" cy="471.17" r="20.44"/><path class="cls-1" d="M396.82,421.46l103,211.25-91.92,68.46a37,37,0,0,0-11.05-2.63V677l66-49.58-66-136.62Z"/><polygon class="cls-1" points="396.82 539.88 428.05 607.28 396.82 631.66 396.82 539.88"/><path class="cls-1" d="M565.17,611.16,423.36,713.58a34.71,34.71,0,0,1,6.32,23.88s23.08,3,47.9,8.44c0,0,9.94-22.59,32.26-14.66,0,0,20.18,7.49,13.81,28.59,45.89,16.49,96.48,42,118.24,71l8.48-36.17s9.68-29-63.7-63.83l59-34.28-15.23,44.25s19.31,10.21,26.77,27.07l33.25-140.42L551.36,716.05a425.09,425.09,0,0,0-42.69-15.88l30.57-23.31,6.27,19.68,33.87-22.68Z"/><ellipse class="cls-1" cx="500.95" cy="753.77" rx="12.94" ry="12.95"/><path class="cls-1" d="M396.82,766.45v47s115.42,0,186.43,49.67a4.22,4.22,0,0,1-.56,7.28c-20.09,9.61-87.71,38-185.87,38v34s138,1.15,227.2-51.29A13.43,13.43,0,0,0,630.2,883l6.35-24.32a13.63,13.63,0,0,0-1.78-11c-8-12.07-36.19-46.09-118.4-74.36-12.44,9.49-36.55,4-40.11-13.45,0,0-24.11-5.54-50.59-8.7C425.67,751.19,417.77,765.24,396.82,766.45Z"/><ellipse class="cls-1" cx="664.82" cy="359.35" rx="30.96" ry="30.99"/><ellipse class="cls-1" cx="772.85" cy="471.17" rx="20.42" ry="20.44"/></g></g></svg>