<svg xmlns="http://www.w3.org/2000/svg" viewBox="0 0 946.24 821.6"><defs><style>.cls-1{fill:#fff;}</style></defs><g id="Layer_2" data-name="Layer 2"><g id="_1" data-name="1"><polygon class="cls-1" points="473.12 466.49 473.12 356.56 401.16 420.11 473.12 466.49"/><path class="cls-1" d="M360.91,395.28,473.12,290.84V0L359.58,282.53,0,284.87l273.7,198L142.58,821.6,473.12,611.28V578.05L198.57,754.88l68.84-165L382.53,476.17l90.59,59.53v-36L191.45,312.2h43.91Zm-5.05,62.9-70.65,76.21,25.29-70.84L90.76,313.39h49.1Z"/><circle class="cls-1" cx="295.31" cy="188.4" r="38.57"/><circle class="cls-1" cx="163.2" cy="523.44" r="38.57"/><circle class="cls-1" cx="473.12" cy="714.93" r="38.57"/><polygon class="cls-1" points="473.12 466.49 473.12 356.56 545.08 420.11 473.12 466.49"/><path class="cls-1" d="M585.33,395.28,473.12,290.84V0L586.66,282.53l359.58,2.34-273.7,198L803.66,821.6,473.12,611.28V578.05L747.67,754.88l-68.84-165L563.71,476.17,473.12,535.7v-36L754.79,312.2H710.88Zm5,62.9L661,534.39l-25.29-70.84L855.48,313.39h-49.1Z"/><circle class="cls-1" cx="650.93" cy="188.4" r="38.57"/><circle class="cls-1" cx="783.04" cy="523.44" r="38.57"/></g></g></svg>