<svg xmlns="http://www.w3.org/2000/svg" viewBox="0 0 977.38 501.44"><defs><style>.cls-1{fill:#fff;}</style></defs><g id="Layer_2" data-name="Layer 2"><g id="_1" data-name="1"><path class="cls-1" d="M178.59,0,351.7,156.29S389.53,108.23,396.38,75c0,0,10-50,58.55-60.55C462.65,13.26,460.6,3.57,451.3,4,440.13,4,270.23,4.36,206,3.37A135.69,135.69,0,0,1,178.59,0Z"/><path class="cls-1" d="M185.39,26.05,226,62.51l-92.78,125S101.53,229.3,72,234.76c0,0-31.65,8.09-50.11-8.79,0,0,28.48-17.94,48.53-45Z"/><path class="cls-1" d="M235.27,71.36l34.63,30.78-80.34,109.5S161.86,248.27,136,253c0,0-27.7,7.08-43.86-7.69,0,0,24.93-15.7,42.48-39.39Z"/><path class="cls-1" d="M281.3,111.9l29.3,26.33-70,92.26s-22.86,30.23-44.2,34.17c0,0-22.86,5.84-36.19-6.35,0,0,20.57-13,35.05-32.51Z"/><path class="cls-1" d="M82.88,258.85l44.55,9.95L76,336.38s-14.57,20.93-39.39,24.9c0,0-25.34,6-36.62-4.37,0,0,20.29-13.13,32.54-29.67Z"/><path class="cls-1" d="M140.09,272l42.54,9.95-49.42,66.59s-14.57,20.92-39.39,24.9c0,0-25.34,5.94-36.62-4.37,0,0,20.29-13.14,32.54-29.68Z"/><path class="cls-1" d="M194.85,284.53l42.54,10L190,359.07S175.4,380,150.59,384c0,0-25.34,5.94-36.62-4.38,0,0,20.29-13.13,32.53-29.67Z"/><path class="cls-1" d="M320.33,146.63l25,22.23-58,79.1s-20,26.46-38.69,29.91c0,0-20,5.11-31.68-5.56,0,0,18-11.34,30.68-28.45Z"/><path class="cls-1" d="M363.15,166.36,488.69,282.41V114.2H400.23a7,7,0,0,0-5.91,3.24Z"/><path class="cls-1" d="M614.23,166.36,488.69,282.41V114.2h88.46a7,7,0,0,1,5.91,3.24Z"/><path class="cls-1" d="M424.91,114.2s5.3,0,8.92-6.91l24.32-47.17A5.44,5.44,0,0,1,463,57.18H526.1a5.44,5.44,0,0,1,4.76,2.8l15.85,28.58H506.62l10,20.84a8.49,8.49,0,0,0,6,4.8Z"/><path class="cls-1" d="M447,262.84l32.23,29.59L437,347.29c-12.92,14.76-28,22.41-43.78,24.79a107.91,107.91,0,0,1-38-3.75s19.52-12.6,41.25-39.45Z"/><path class="cls-1" d="M386.07,388.4l36.84,9.09-35.84,47.78a62.4,62.4,0,0,1-8.35,9.14c-10.33,9.2-18.74,13.18-29.54,14.8a85.4,85.4,0,0,1-30.05-3s15.45-10,32.65-31.22Z"/><path class="cls-1" d="M433.73,400.22,469.12,409l-34.43,45.9a60.07,60.07,0,0,1-8,8.77c-9.92,8.84-18,12.66-28.37,14.22A82,82,0,0,1,369.43,475s14.83-9.58,31.36-30Z"/><path class="cls-1" d="M488.69,361.26c-11,12.54-17.93,18.2-33.54,22,0,0-20.92,2.88-37.93-2,0,0,16.57-10.7,35-33.49L488.69,300"/><polygon class="cls-1" points="488.69 400.22 442.06 465.04 488.69 501.44 488.69 400.22"/><path class="cls-1" d="M798.79,0,625.68,156.29S587.86,108.23,581,75c0,0-10-50-58.55-60.55-7.72-1.19-5.67-10.88,3.64-10.44,11.16,0,181.06.35,245.33-.64A135.66,135.66,0,0,0,798.79,0Z"/><path class="cls-1" d="M792,26.05,751.43,62.51l92.78,125s31.65,41.84,61.18,47.3c0,0,31.65,8.09,50.11-8.79,0,0-28.48-17.94-48.52-45Z"/><path class="cls-1" d="M742.11,71.36l-34.63,30.78,80.34,109.5s27.7,36.63,53.56,41.4c0,0,27.7,7.08,43.86-7.69,0,0-24.93-15.7-42.48-39.39Z"/><path class="cls-1" d="M696.08,111.9l-29.3,26.33,70,92.26s22.86,30.23,44.2,34.17c0,0,22.86,5.84,36.2-6.35,0,0-20.58-13-35.06-32.51Z"/><path class="cls-1" d="M894.5,258.85,850,268.8l51.42,67.58s14.57,20.93,39.39,24.9c0,0,25.34,6,36.62-4.37,0,0-20.29-13.13-32.54-29.67Z"/><path class="cls-1" d="M837.3,272l-42.55,9.95,49.42,66.59s14.57,20.92,39.39,24.9c0,0,25.34,5.94,36.62-4.37,0,0-20.29-13.14-32.54-29.68Z"/><path class="cls-1" d="M782.53,284.53l-42.54,10,47.42,64.59S802,380,826.8,384c0,0,25.33,5.94,36.62-4.38,0,0-20.29-13.13-32.54-29.67Z"/><path class="cls-1" d="M657.05,146.63l-25,22.23,58,79.1s20,26.46,38.69,29.91c0,0,20,5.11,31.68-5.56,0,0-18-11.34-30.68-28.45Z"/><path class="cls-1" d="M530.42,262.84l-32.23,29.59,42.19,54.86c12.93,14.76,28,22.41,43.78,24.79a107.91,107.91,0,0,0,38-3.75s-19.52-12.6-41.25-39.45Z"/><path class="cls-1" d="M591.31,388.4l-36.84,9.09,35.85,47.78a62.34,62.34,0,0,0,8.34,9.14c10.33,9.2,18.74,13.18,29.54,14.8a85.4,85.4,0,0,0,30-3s-15.44-10-32.64-31.22Z"/><path class="cls-1" d="M543.65,400.22,508.26,409l34.43,45.9a60.63,60.63,0,0,0,8,8.77c9.92,8.84,18,12.66,28.38,14.22A82,82,0,0,0,608,475s-14.84-9.58-31.36-30Z"/><path class="cls-1" d="M488.69,361.26c11,12.54,17.93,18.2,33.54,22,0,0,20.92,2.88,37.93-2,0,0-16.56-10.7-35-33.49L488.69,300"/><polygon class="cls-1" points="488.69 400.22 535.32 465.04 488.69 501.44 488.69 400.22"/></g></g></svg>