<svg xmlns="http://www.w3.org/2000/svg" viewBox="0 0 950.34 698.87"><defs><style>.cls-1{fill:#fff;}</style></defs><g id="Layer_2" data-name="Layer 2"><g id="_1" data-name="1"><polygon class="cls-1" points="185.14 698.87 107.6 634.55 237.36 409.85 39.56 409.85 0 378.96 256.58 378.96 475.09 0 475.09 97.83 170.9 623.47 211.04 652.35 185.14 698.87"/><polygon class="cls-1" points="219.96 637.71 196.8 620.1 475.09 135.88 475.09 189.89 219.96 637.71"/><polygon class="cls-1" points="58.88 424.55 206.13 424.55 158.82 504.79 58.88 424.55"/><path class="cls-1" d="M475.09,329.14l-214,369.73h214V675.69H331.52l143.57-71.21ZM461.27,582.33,315.15,656.11,461.27,396.6Z"/><polygon class="cls-1" points="765.2 698.87 842.74 634.55 712.98 409.85 910.78 409.85 950.34 378.96 693.76 378.96 475.25 0 475.25 97.83 779.44 623.47 739.29 652.35 765.2 698.87"/><polygon class="cls-1" points="730.38 637.71 753.54 620.1 475.25 135.88 475.25 189.89 730.38 637.71"/><polygon class="cls-1" points="891.46 424.55 744.21 424.55 791.51 504.79 891.46 424.55"/><path class="cls-1" d="M475.25,329.14l214,369.73h-214V675.69H618.82L475.25,604.48Zm13.81,253.19,146.13,73.78L489.06,396.6Z"/></g></g></svg>