<svg xmlns="http://www.w3.org/2000/svg" viewBox="0 0 924.13 909.47"><defs><style>.cls-1{fill:#fff;}</style></defs><g id="Layer_2" data-name="Layer 2"><g id="_1" data-name="1"><polygon class="cls-1" points="462.07 103.25 462.07 372.26 428.83 344.8 428.83 141.23 462.07 103.25"/><polygon class="cls-1" points="398.77 133.32 412.22 146.77 412.22 305.8 359.21 344.8 359.21 30.46 397.19 0 398.77 133.32"/><polygon class="cls-1" points="330.73 63.69 330.73 320.83 283.25 272.57 283.25 103.25 330.73 63.69"/><polygon class="cls-1" points="330.73 372.26 161.41 195.63 77.54 261.5 174.07 335.87 223.79 335.87 330.73 372.26"/><polygon class="cls-1" points="17.66 314.83 60.13 337.45 132.92 337.45 60.13 277.32 17.66 314.83"/><polygon class="cls-1" points="341.8 454.55 309.36 422.11 44.31 422.11 0 454.55 341.8 454.55"/><circle class="cls-1" cx="462.07" cy="453.55" r="52.22"/><polygon class="cls-1" points="462.07 103.25 462.07 372.26 495.3 344.8 495.3 141.23 462.07 103.25"/><polygon class="cls-1" points="525.36 133.32 511.91 146.77 511.91 305.8 564.92 344.8 564.92 30.46 526.95 0 525.36 133.32"/><polygon class="cls-1" points="593.41 63.69 593.41 320.83 640.88 272.57 640.88 103.25 593.41 63.69"/><polygon class="cls-1" points="593.41 372.26 762.73 195.63 846.59 261.5 750.07 335.87 700.34 335.87 593.41 372.26"/><polygon class="cls-1" points="906.47 314.83 864 337.45 791.21 337.45 864 277.32 906.47 314.83"/><polygon class="cls-1" points="582.33 454.55 614.77 422.11 879.82 422.11 924.13 454.55 582.33 454.55"/><polygon class="cls-1" points="462.07 806.22 462.07 537.21 428.83 564.67 428.83 768.24 462.07 806.22"/><polygon class="cls-1" points="398.77 776.15 412.22 762.7 412.22 603.67 359.21 564.67 359.21 879.01 397.19 909.47 398.77 776.15"/><polygon class="cls-1" points="330.73 845.78 330.73 588.64 283.25 636.9 283.25 806.22 330.73 845.78"/><polygon class="cls-1" points="330.73 537.21 161.41 713.85 77.54 647.98 174.07 573.6 223.79 573.6 330.73 537.21"/><polygon class="cls-1" points="17.66 594.64 60.13 572.02 132.92 572.02 60.13 632.15 17.66 594.64"/><polygon class="cls-1" points="341.8 454.92 309.36 487.36 44.31 487.36 0 454.92 341.8 454.92"/><polygon class="cls-1" points="462.07 806.22 462.07 537.21 495.3 564.67 495.3 768.24 462.07 806.22"/><polygon class="cls-1" points="525.36 776.15 511.91 762.7 511.91 603.67 564.92 564.67 564.92 879.01 526.95 909.47 525.36 776.15"/><polygon class="cls-1" points="593.41 845.78 593.41 588.64 640.88 636.9 640.88 806.22 593.41 845.78"/><polygon class="cls-1" points="593.41 537.21 762.73 713.85 846.59 647.98 750.07 573.6 700.34 573.6 593.41 537.21"/><polygon class="cls-1" points="906.47 594.64 864 572.02 791.21 572.02 864 632.15 906.47 594.64"/><polygon class="cls-1" points="582.33 454.92 614.77 487.36 879.82 487.36 924.13 454.92 582.33 454.92"/></g></g></svg>