<svg xmlns="http://www.w3.org/2000/svg" viewBox="0 0 947.89 946.04"><defs><style>.cls-1{fill:#fff;}.cls-2{fill:#606060;}</style></defs><g id="Layer_2" data-name="Layer 2"><g id="_1" data-name="1"><path class="cls-1" d="M473.93,0s-63.29,50-63.29,124.34V188.8L421.71,185v-56c0-23.58,5.81-72.65,52.22-105.85Z"/><path class="cls-1" d="M473.93,35.25c-6.33,0-46.41,37.4-46.41,90.15v58s19-5.86,37-6.91v-64.3S463.65,93,473.93,90.9Z"/><path class="cls-1" d="M384.18,125.58a357,357,0,0,0-107.9,47.92l2.87.42,24,15.38a330.14,330.14,0,0,1,81-35Z"/><path class="cls-1" d="M129.51,271.7l-18.09-12.85-3.17-9.5s-12-6-14.24-6.33c-4.22-.53.46-1.58.46-1.58l13.78,1.05s1.59-5.67-5.8-11c0,0-3.16-12.19-5.27-17.47-1.22-3-7.91-7-13.34-9.76a477,477,0,0,0-25.58,41.37l1.47.57,30.06-3.7s2.84,1.59-25.32,7.39c0,0,11.08,7.91,0,16.35a79.54,79.54,0,0,0-18.78,3.94A472.1,472.1,0,0,0,0,473.44a478.16,478.16,0,0,0,3.79,60.07l20.07-1.3L39,541.31c15.67,16.14,37.05,3.66,41.7.63a401.63,401.63,0,0,1-5.87-68.5A397.25,397.25,0,0,1,129.51,271.7Z"/><path class="cls-1" d="M196.16,292.54a333.47,333.47,0,0,1,93.12-94.38c-3.83-7.51-13.82-14.74-13.82-14.74L267,181.77l-1-1.2a361.14,361.14,0,0,0-91.77,94.9Z"/><path class="cls-1" d="M134.08,682.8l-20,4.88L124.26,666A396.72,396.72,0,0,1,83.79,557.92H59.46l-11.08,5.54L53.13,554l-48-10.54q2.49,16.88,6.18,33.34l17.27-2.23L36,577.7l5.45-6.33v15L17.9,602.78A472.44,472.44,0,0,0,103.47,769a27,27,0,0,1,25,16h21.16v15.2L134,803.65q10.78,11.08,22.27,21.48c27.3-18.72,39.56-17.18,39.56-17.18l21.1-21.37v-7.79A401.31,401.31,0,0,1,134.08,682.8Z"/><path class="cls-1" d="M277,751.37l-13.7,13.06a357.14,357.14,0,0,0,150.87,63.24l-2.15-28.55a329.83,329.83,0,0,1-135-59Z"/><path class="cls-1" d="M257.53,745.44h14l-4-12.64c-76.22-60.73-125.08-154.32-125.08-259.36A329.87,329.87,0,0,1,186.65,308l-23-15.58a357.5,357.5,0,0,0-48.88,181c0,111.51,50.82,211.14,130.55,277Z"/><path class="cls-1" d="M184.76,827.67l-8.7,14.41q8.74,7.08,17.83,13.74Z"/><path class="cls-1" d="M419.74,905.43a54,54,0,0,1,12.82-35A397.21,397.21,0,0,1,225,785.4l-13.6,21.75L190.8,820.6l7.11,38.14A471.41,471.41,0,0,0,438.06,946,54.06,54.06,0,0,1,419.74,905.43Z"/><path class="cls-1" d="M230,67l23.27,9.31c-2.68-2.68-2.34-13.06-1.53-21.62Q240.73,60.6,230,67Z"/><path class="cls-1" d="M272.5,44.35c5.48,27.22-4.42,43.07-4.42,43.07l-14.77,12.66,2.11-17.41c.46-3.83-18.82-9.9-29.7-13q-2.9,1.78-5.76,3.61A121.17,121.17,0,0,0,233.79,79s-15.3,3.16-19,11.92c-.93,2.21-2.41-5.73-7.26-9.45A476.35,476.35,0,0,0,91.79,193.11l3.8,2.44s15.3-1.06,13.72,7.91c0,0-.53,34.81,22.15,55.39v9.54A401.29,401.29,0,0,1,234.52,154.1l3-19.9,12.14-17.43a41.43,41.43,0,0,0-2.25,28.07,397.1,397.1,0,0,1,143-61.74C402.21,43.74,427.92,13.42,440.05.71A471.13,471.13,0,0,0,272.5,44.35Z"/><path class="cls-1" d="M484.43,849.09l21.94,9.28s3.43-10.72,2.38-17.62Z"/><path class="cls-1" d="M509,831.68,440.7,855.82s-4.23-8.31-2.64-17.28c0,0,57.56-16.88,72.32-20.57A26,26,0,0,1,509,831.68Z"/><path class="cls-1" d="M451.05,862.37l23.17-9.06,19.7,8.44A72.73,72.73,0,0,0,451.05,862.37Z"/><path class="cls-1" d="M437.7,830.36s48.63-14.5,73-17.67c0,0,1.72-4.48,0-7.91l-75,2.64S433.12,821.66,437.7,830.36Z"/><path class="cls-1" d="M435,800.09,511.5,799s3-4.74,1.2-10c0,0-7.12,1.16-38.48-8.76,0,0-34.64,4.22-40.25,2.11C434,782.36,431.47,789.67,435,800.09Z"/><path class="cls-1" d="M513.3,783.88s2.7-8.64,0-15.76c0,0-25.65-11-35.94-17.66l-44.25-1s-1,5.53,0,9C433.11,758.42,502.15,785.4,513.3,783.88Z"/><path class="cls-1" d="M433.11,765l28.43,10.28s-15.11,3.17-28.57,0A10.75,10.75,0,0,1,433.11,765Z"/><path class="cls-1" d="M489.23,750.46l24.07,12.12s3-8.15,0-12.12Z"/><path class="cls-1" d="M426.07,474.05s-59.3,20.78-49.83,50.75L379,533s8.31-14.24,24.92,10.43c0,0,13.45-21.94,34,6,0,0,17.81-24,36,0V515.2s-6.33-13.06-21.75,3.16c0,0,3.16-16.61,21.75-30.06V462.19s-8.3,1.18-13.45,12.26c0,0-7.91,19-17.4,20.57C443.08,495,430.81,493.44,426.07,474.05Z"/><path class="cls-1" d="M444.4,555.37c3.86-4.66,12.63-12,23.18-.06a9.47,9.47,0,0,1,2.4,6.29v12.55a6.14,6.14,0,0,1-6.13,6.14l-15.43-1a6.13,6.13,0,0,1-6.13-6.14V561.32A9.33,9.33,0,0,1,444.4,555.37Z"/><path class="cls-1" d="M413.67,595.58c2.18.94,4.37,1.71,6,0,3.94-4,8.29-9,11.44-10.82a9,9,0,0,0,4.44-7.77V561.48a11.94,11.94,0,0,0-2.41-7.22c-4.89-6.49-16.37-17.66-26.09-5a11.82,11.82,0,0,0-2.38,7.18S400.08,589.71,413.67,595.58Z"/><path class="cls-1" d="M379.77,540.37c3.45-3.63,10-7.2,16.94,6.37A11.63,11.63,0,0,1,398,552v21.82a6.83,6.83,0,0,1-9.7,6.21c-5.38-2.49-14.25-10.53-11.46-33.3A11.25,11.25,0,0,1,379.77,540.37Z"/><path class="cls-1" d="M403,688.47s-27,.95-55.67-19.15c-8.51-6-14.35,3.74-7.65,9.06,16.41,13.06,50.83,23.33,50.83,23.33-30.42-4.53-47.22-11.79-54.93-16a6.16,6.16,0,0,0-8.42,2.54h0a6.15,6.15,0,0,0,2.9,8.45c29.29,13.28,68,15.54,68,15.54,8.7.79,8.31-4.35,8.31-4.35.79-28.49,23.73-40.75,23.73-40.75V614.49c4.75-14.24,34.42-17.89,34.42-17.89v29.76c0,9.1,9.49,9.89,9.49,9.89v87.83c-142,0-172.08-30.86-172.08-30.86l30.67-46.31c32.63,28.1,57.34,35,73.77,35.37C406.29,682.28,404.55,685.11,403,688.47Z"/><path class="cls-1" d="M408.45,677.44s-4.2-5.74-4.49-67.81a2.36,2.36,0,0,1,4-1.74l8.74,8.09a9.68,9.68,0,0,1,3.09,7.09v43.27A49.46,49.46,0,0,0,408.45,677.44Z"/><path class="cls-1" d="M518.7,744.25l-91-1a7.12,7.12,0,0,1-7.12-7.12h0a7.12,7.12,0,0,1,7.12-7.12l91,1a7.12,7.12,0,0,1,7.12,7.12h0A7.12,7.12,0,0,1,518.7,744.25Z"/><circle class="cls-1" cx="473.58" cy="905.29" r="40.68"/><path class="cls-2" d="M473.93,925.75a31.27,31.27,0,0,1-30.85-26.19,31.69,31.69,0,0,0-.42,5.09,31.28,31.28,0,0,0,62.55,0,31.69,31.69,0,0,0-.42-5.09A31.29,31.29,0,0,1,473.93,925.75Z"/><path class="cls-1" d="M357.63,220.08S316.88,243,325.11,310.25a1.35,1.35,0,0,0,2.69.09c1.57-11.15,4.18-28.26,12.42-41.95,11.91-19.78,5.93,11.42,5.93,11.42s-10.68,38,6.33,47.08c0,0,11.08,10.29-8.3,24.13l-26.11,15.43s-22.16,8.31-18.2,34.42c0,0,14.24,51.43-2.77,66.06-15.83,7.52-20.57,7.52-17.8,24.53,0,0,11.07,27.3,43.12,32.84,0,0,15.43,4.74,28.88-15,0,0,4.35-11.47,68.44-41.53,0,0,11.47-5.54,16.22-17,0,0,16.22-37.16,38-37.16V182.42S425.27,180.57,357.63,220.08ZM417.24,421c-4.45-7.47,4.22-17.31,4.22-17.31-15.29,11.9-14.24,30.83-14.24,30.83-5.27,20-40.61,30.82-40.61,30.82-53.81,16.22-51.7-39.47-51.7-39.47.53-11.36-4.22-8.66-4.22-8.66,9-16.22,69.63-37.85,69.63-37.85C408.8,368.5,422,384.72,422,384.72,436.76,401.48,417.24,421,417.24,421Z"/><path class="cls-1" d="M474,0s63.3,50,63.3,124.34V188.8L526.17,185v-56c0-23.58-5.8-72.65-52.22-105.85Z"/><path class="cls-1" d="M474,35.25c6.33,0,46.42,37.4,46.42,90.15v58s-19-5.86-37-6.91v-64.3S484.24,93,474,90.9Z"/><path class="cls-1" d="M563.71,125.58a357.1,357.1,0,0,1,107.9,47.92l-2.88.42-24,15.38a329.91,329.91,0,0,0-81-35Z"/><path class="cls-1" d="M818.37,271.7l18.1-12.85,3.16-9.5s12-6,14.25-6.33c4.22-.53-.47-1.58-.47-1.58l-13.78,1.05s-1.58-5.67,5.81-11c0,0,3.16-12.19,5.27-17.47,1.22-3,7.91-7,13.33-9.76a474.66,474.66,0,0,1,25.59,41.37l-1.47.57-30.06-3.7s-2.84,1.59,25.31,7.39c0,0-11.07,7.91,0,16.35a79.45,79.45,0,0,1,18.78,3.94,472,472,0,0,1,45.7,203.27,478.16,478.16,0,0,1-3.79,60.07L924,532.21l-15.13,9.1c-15.67,16.14-37.06,3.66-41.7.63a401.63,401.63,0,0,0,5.87-68.5A397.25,397.25,0,0,0,818.37,271.7Z"/><path class="cls-1" d="M751.73,292.54a333.47,333.47,0,0,0-93.12-94.38c3.83-7.51,13.82-14.74,13.82-14.74l8.44-1.65,1-1.2a361.14,361.14,0,0,1,91.77,94.9Z"/><path class="cls-1" d="M813.81,682.8l20,4.88L823.62,666a396.4,396.4,0,0,0,40.47-108.07h24.34l11.07,5.54L894.76,554l48-10.54q-2.5,16.88-6.18,33.34l-17.28-2.23-7.38,3.16-5.45-6.33v15L930,602.78A472.44,472.44,0,0,1,844.42,769a27,27,0,0,0-25,16H798.27v15.2l15.64,3.45q-10.78,11.08-22.27,21.48C764.34,806.41,752.07,808,752.07,808L731,786.58v-7.79A401.13,401.13,0,0,0,813.81,682.8Z"/><path class="cls-1" d="M670.84,751.37l13.71,13.06a357.25,357.25,0,0,1-150.87,63.24l2.15-28.55a329.73,329.73,0,0,0,135-59Z"/><path class="cls-1" d="M690.36,745.44h-14l4-12.64c76.22-60.73,125.09-154.32,125.09-259.36A330,330,0,0,0,761.24,308l23-15.58a357.4,357.4,0,0,1,48.89,181c0,111.51-50.82,211.14-130.55,277Z"/><path class="cls-1" d="M763.12,827.67l8.71,14.41q-8.75,7.08-17.83,13.74Z"/><path class="cls-1" d="M528.15,905.43a54,54,0,0,0-12.82-35,397.21,397.21,0,0,0,207.59-85l13.59,21.75,20.57,13.45L750,858.74A471.45,471.45,0,0,1,509.83,946,54.06,54.06,0,0,0,528.15,905.43Z"/><path class="cls-1" d="M717.85,67l-23.27,9.31c2.68-2.68,2.33-13.06,1.53-21.62Q707.15,60.6,717.85,67Z"/><path class="cls-1" d="M675.39,44.35c-5.48,27.22,4.42,43.07,4.42,43.07l14.77,12.66-2.11-17.41c-.46-3.83,18.81-9.9,29.69-13q2.9,1.78,5.77,3.61A121.17,121.17,0,0,1,714.1,79s15.29,3.16,19,11.92c.93,2.21,2.42-5.73,7.27-9.45A476.71,476.71,0,0,1,856.1,193.11l-3.81,2.44s-15.29-1.06-13.71,7.91c0,0,.53,34.81-22.15,55.39v9.54A401.29,401.29,0,0,0,713.37,154.1l-3-19.9-12.13-17.43a41.49,41.49,0,0,1,2.25,28.07,397.17,397.17,0,0,0-143-61.74C545.67,43.74,520,13.42,507.84.71A471.13,471.13,0,0,1,675.39,44.35Z"/><path class="cls-1" d="M544.94,688.47s27,.95,55.66-19.15c8.51-6,14.36,3.74,7.66,9.06-16.42,13.06-50.83,23.33-50.83,23.33,30.42-4.53,47.22-11.79,54.93-16a6.14,6.14,0,0,1,8.41,2.54h0a6.15,6.15,0,0,1-2.9,8.45c-29.28,13.28-68,15.54-68,15.54-8.7.79-8.31-4.35-8.31-4.35-.79-28.49-23.73-40.75-23.73-40.75V614.49c-4.75-14.24-34.42-17.89-34.42-17.89v29.76c0,9.1-9.5,9.89-9.5,9.89v87.83c142,0,172.09-30.86,172.09-30.86l-30.67-46.31C582.73,675,558,682,541.6,682.28,541.6,682.28,543.33,685.11,544.94,688.47Z"/><path class="cls-1" d="M539.44,677.44s4.2-5.74,4.49-67.81a2.36,2.36,0,0,0-4-1.74L531.22,616a9.69,9.69,0,0,0-3.1,7.09v43.27A49.37,49.37,0,0,1,539.44,677.44Z"/><path class="cls-1" d="M590.26,220.08S631,243,622.78,310.25a1.35,1.35,0,0,1-2.69.09c-1.58-11.15-4.18-28.26-12.42-41.95-11.91-19.78-5.94,11.42-5.94,11.42s10.68,38-6.33,47.08c0,0-11.07,10.29,8.31,24.13l26.11,15.43S652,374.76,648,400.87c0,0-14.24,51.43,2.77,66.06,15.82,7.52,20.57,7.52,17.8,24.53,0,0-11.08,27.3-43.12,32.84,0,0-15.43,4.74-28.88-15,0,0-4.35-11.47-68.44-41.53,0,0-11.47-5.54-16.22-17,0,0-16.22-37.16-38-37.16V182.42S522.61,180.57,590.26,220.08ZM530.64,421c4.46-7.47-4.22-17.31-4.22-17.31,15.3,11.9,14.24,30.83,14.24,30.83,5.28,20,40.62,30.82,40.62,30.82,53.8,16.22,51.69-39.47,51.69-39.47-.52-11.36,4.22-8.66,4.22-8.66-9-16.22-69.62-37.85-69.62-37.85-28.49-10.81-41.67,5.41-41.67,5.41C511.13,401.48,530.64,421,530.64,421Z"/><path class="cls-1" d="M522.08,474.05s59.63,20.78,50.11,50.75l-2.77,8.2s-8.35-14.24-25.06,10.43c0,0-13.53-21.94-34.22,6,0,0-17.9-24-36.21,0V515.2s6.37-13.06,21.89,3.16c0,0-3.19-16.61-21.89-30.06V462.19s8.36,1.18,13.53,12.26c0,0,8,19,17.51,20.57C505,495,517.3,493.44,522.08,474.05Z"/><path class="cls-1" d="M503.64,555.37c-3.89-4.66-12.7-12-23.32-.06a9.48,9.48,0,0,0-2.41,6.29v12.55a6.15,6.15,0,0,0,6.17,6.14l15.52-1a6.15,6.15,0,0,0,6.16-6.14V561.32A9.28,9.28,0,0,0,503.64,555.37Z"/><path class="cls-1" d="M534.55,595.58c-2.2.94-4.4,1.71-6.07,0-4-4-8.34-9-11.51-10.82a9,9,0,0,1-4.46-7.77V561.48a11.89,11.89,0,0,1,2.42-7.22c4.92-6.49,16.47-17.66,26.24-5a11.77,11.77,0,0,1,2.39,7.18S548.21,589.71,534.55,595.58Z"/><path class="cls-1" d="M568.63,540.37c-3.46-3.63-10-7.2-17,6.37a11.51,11.51,0,0,0-1.27,5.27v21.82a6.86,6.86,0,0,0,9.74,6.21c5.42-2.49,14.34-10.53,11.53-33.3A11.14,11.14,0,0,0,568.63,540.37Z"/></g></g></svg>