<svg xmlns="http://www.w3.org/2000/svg" viewBox="0 0 986.24 773.01"><defs><style>.cls-1{fill:#fff;}</style></defs><g id="Layer_2" data-name="Layer 2"><g id="_1" data-name="1"><path class="cls-1" d="M83.08,169.32s-20,26.41-35.12,50.37a13.42,13.42,0,0,1-15.05,5.74L0,216S34.81,188.31,83.08,169.32Z"/><path class="cls-1" d="M348.13,44.31S167-20.57,11.87,319.65c0,0,41.14,9.87,61.71-28.11,23.31-39.22,76.58-140.63,162.6-189.62a11.05,11.05,0,0,0,5.47-8.2l1.25-9.85S288.79,53.8,348.13,44.31Z"/><path class="cls-1" d="M359.21,58.55S205.71,79.12,93.36,290.37h30.86s36.4,0,60.92-38c0,0,83.08-148.75,220-146.38,0,0-128.18,32.44-191.47,132.93h72.79s56.17-79.13,158.24-89.41c0,0-73,14.45-136.3,88.82h87.83s34.23-33.85,84.86-37v-108s-15.78.1-34.73,2C446.32,95.37,401.93,48.26,359.21,58.55Z"/><path class="cls-1" d="M353.67,257.93s22.22,11.11,4.17,39.56c-27.11,42.73-40.15,81.5-34.61,139.26,6.44,67.17,46.33,108.62,51.87,112.57,23.47,23.61,51.36,42.5,71.93,65.45,0,0,7.12-31.65-32.44-65.67,0,0-74.79-57.32-48.95-116.9a5.45,5.45,0,0,1,10.31.9c4.39,18.23,6.2,46.37,42,71.48,33.23,19.78,63.08,53.22,63.09,120.47V773S266.64,756.4,180,595.78s-2.77-310.94,24.13-337.85c0,0,18.41,13.45,2.58,41.15,0,0-72.47,126.6-12.14,256a4.05,4.05,0,0,0,5.6,1.86l23.24-12.57a4,4,0,0,0,1.74-5.26c-10.3-22-61.15-147.42,46-281.22,0,0,23.15,10.25,8.12,42.73C252.75,344.38,219.07,432.93,265.1,520a4.06,4.06,0,0,0,5.42,1.75l29.76-15.06a4,4,0,0,0,1.94-5.07C294.09,480.68,256.39,366.65,353.67,257.93Z"/><circle class="cls-1" cx="492.71" cy="340.22" r="115.12"/><path class="cls-1" d="M520.8,25.85C535.31,12.15,561,0,561,0H475.52c-1,4.66-2.12,9.45-3.43,14.24h34.16V26.53H469.1a384,384,0,0,1-19.69,50.22,328.1,328.1,0,0,1,91,0c-11.48-12.48-18.85-33.75-21.66-43A7.78,7.78,0,0,1,520.8,25.85Z"/><path class="cls-1" d="M903.16,169.32s20,26.41,35.12,50.37a13.42,13.42,0,0,0,15.05,5.74L986.24,216S951.43,188.31,903.16,169.32Z"/><path class="cls-1" d="M638.11,44.31S819.3-20.57,974.37,319.65c0,0-41.14,9.87-61.71-28.11-23.31-39.22-76.57-140.63-162.6-189.62a11.05,11.05,0,0,1-5.47-8.2l-1.25-9.85S697.45,53.8,638.11,44.31Z"/><path class="cls-1" d="M627,58.55s153.5,20.57,265.85,231.82H862s-36.39,0-60.92-38c0,0-83.08-148.75-220-146.38,0,0,128.18,32.44,191.48,132.93h-72.8s-56.17-79.13-158.24-89.41c0,0,73,14.45,136.3,88.82H590.05s-34.23-33.85-84.86-37v-108s15.79.1,34.73,2C539.92,95.37,584.31,48.26,627,58.55Z"/><path class="cls-1" d="M632.57,257.93s-22.22,11.11-4.16,39.56c27.11,42.73,40.14,81.5,34.6,139.26-6.44,67.17-46.33,108.62-51.86,112.57-23.48,23.61-51.37,42.5-71.94,65.45,0,0-7.12-31.65,32.44-65.67,0,0,74.79-57.32,49-116.9a5.45,5.45,0,0,0-10.31.9c-4.39,18.23-6.2,46.37-42,71.48C535,524.36,505.19,557.8,505.19,625.05V773S719.6,756.4,806.24,595.78,809,284.84,782.11,257.93c0,0-18.41,13.45-2.58,41.15,0,0,72.47,126.6,12.14,256a4.05,4.05,0,0,1-5.6,1.86l-23.24-12.57a4,4,0,0,1-1.74-5.26c10.3-22,61.15-147.42-46-281.22,0,0-23.16,10.25-8.13,42.73,26.55,43.72,60.23,132.27,14.2,219.29a4.06,4.06,0,0,1-5.42,1.75L686,506.64a4,4,0,0,1-1.94-5.07C692.15,480.68,729.85,366.65,632.57,257.93Z"/></g></g></svg>