<svg xmlns="http://www.w3.org/2000/svg" viewBox="0 0 796.54 928.97"><defs><style>.cls-1{fill:#fff;}</style></defs><g id="Layer_2" data-name="Layer 2"><g id="_1" data-name="1"><path class="cls-1" d="M195.09,573.23s-18.2,7.91-21.36,12.66,32.44,13.45,32.44,13.45A37.06,37.06,0,0,0,195.09,573.23Z"/><path class="cls-1" d="M157.9,541.58c3.25,2.4-19.78,16.62-33.23,6.33,0,0-22.94-19.78-26.11-41.14C94.49,502.87,126.34,518.23,157.9,541.58Z"/><ellipse class="cls-1" cx="162.88" cy="491.34" rx="10.65" ry="15.43" transform="translate(-87.37 38.22) rotate(-10.57)"/><path class="cls-1" d="M634.88,141c8.7,3.15,19.42,8.14,26.1,1.74,4.72-4.52,3.9-12.73-.12-17.88s-10.32-7.91-16.46-10.16l1.56-9.48c-7.81-.58-16.91-1.94-20.71-8.79-3-5.51-1.42-12.74-4.58-18.19-1.36-2.36-3.5-4.15-5.42-6.09-6.31-6.39-10.37-14.62-14.32-22.69-5.71.43-8.84,9.44-14.4,8.07-3.73-.91-4.72-5.85-7.74-8.21a13.51,13.51,0,0,0-5.43-2.08l-35.67-7.88c-1.67-.37-3.47-.73-5.07-.1a7.69,7.69,0,0,0-3.46,3.51c-7.58,12.83-4.6,30.1,4.61,41.82S557.31,103,571.88,106.2c3.54.76,7.62,1.7,9.26,4.93,1.54,3-.25,8.89-3.57,8.18-12.6-2.66-6.13-8.15-7.53-8.13-9.81.14-20.81-7.18-27.54-.05-5.17,5.47-4,14.77.61,20.71s11.76,9.27,18.72,12.14c.76-1.88,3.13-2.39,5.14-2.64,0,0,18.19,10.18,13.44-3,0,0,14,12.13,26.11,4.75C606.52,143.08,640.82,152.84,634.88,141Z"/><path class="cls-1" d="M655.32,97.65c-2.18.5-4.6,1.17-5.73,3.1a8,8,0,0,0-.76,4.13,8.09,8.09,0,0,0,.66,3.79,8.47,8.47,0,0,0,2.58,2.58,31.51,31.51,0,0,0,7.54,4.57,10.73,10.73,0,0,0,8.59-.1,16.08,16.08,0,0,0,3.56-2.82l6.52-6.27a5.5,5.5,0,0,0,2-3.16,3.69,3.69,0,0,0-1.65-3.19,10.2,10.2,0,0,0-3.47-1.39,87,87,0,0,0-14.59-2.43Z"/><path class="cls-1" d="M669.48,118.5a3.3,3.3,0,0,0-1.65,2.58,3.15,3.15,0,0,0,1.53,2.58,7,7,0,0,0,2.95.92,17.54,17.54,0,0,0,7.13-.63,6.58,6.58,0,0,0,2.73-1.43,3,3,0,0,0,.9-2.83c-.47-1.6-2.41-2.15-4-2.45-2.64-.48-5.49-.93-7.9.24Z"/><path class="cls-1" d="M684.58,126.5c-5.31,0-11.29.06-14.93,3.92a5.23,5.23,0,0,0-1.64,3.72,6.5,6.5,0,0,0,.87,2.56,31.08,31.08,0,0,0,23.38,16.08c3.11.37,6.45.21,9.1-1.45s4.33-5.18,3.09-8.05a10.56,10.56,0,0,0-1.71-2.5c-2.72-3.26-5.53-6.59-9.23-8.66C693.51,132.12,688,126.49,684.58,126.5Z"/><path class="cls-1" d="M748,207.87a21.07,21.07,0,0,0-10.13,2.74,18.73,18.73,0,0,0-7.91,8.9c-1.44,3.77-1.08,8.36,1.51,11.45a15.27,15.27,0,0,0,4.43,3.37,39.11,39.11,0,0,0,28.58,3.58c3.4-.9,7.37-3.49,6.47-6.89a7.44,7.44,0,0,0-1.73-2.78l-9-10.58c1.09-.79,2.69-.31,3.7.59s1.69,2.11,2.63,3.09a14.75,14.75,0,0,0,4.32,2.76c2.73,1.33,5.69,2.67,8.7,2.24s5.83-3.45,4.87-6.34a7.93,7.93,0,0,0-2.67-3.26c-6.09-5.16-12.26-10.38-19.43-13.9a6.87,6.87,0,0,0-3.92-1,7.35,7.35,0,0,0-3,1.41S752.08,207.65,748,207.87Z"/><path class="cls-1" d="M768.9,351a9.14,9.14,0,0,0-2.71,10.54,14.48,14.48,0,0,0,1.93,3.08,22.2,22.2,0,0,0,6.4,5.86,11.93,11.93,0,0,0,8.4,1.49,5.31,5.31,0,0,0,3.27-1.93,5.92,5.92,0,0,0,.91-2.82,16.47,16.47,0,0,0-10.55-16.85c-2.72-1-6.11-1-8.12,1"/><path class="cls-1" d="M742.37,315.67c5.78-2,8.46.57,10.17,4.12a12.47,12.47,0,0,1,.93,4.88,68.65,68.65,0,0,1-1,14.53,22.81,22.81,0,0,1-3.12,9c-2.13,3.19-5.49,5.32-8.74,7.36-3.85,2.41-8.08,4.92-12.61,4.48a4.82,4.82,0,0,1-3.5-1.63,6.07,6.07,0,0,1-.91-3c-.59-5.12-.94-10.27-1-15.42-.09-4,0-8.14,1.41-11.9a13.23,13.23,0,0,1,8.34-8Z"/><path class="cls-1" d="M684.38,420.86c-1.29-4.35,8.3-3.59,12.83-3.64a56.82,56.82,0,0,1,43.61,20.1c.92,1.11,1.85,2.4,1.76,3.84-.19,2.63-3.39,3.74-6,4.09-16.09,2.14-33.61-1.2-45.54-12.2C691,433.05,685.88,425.94,684.38,420.86Z"/><path class="cls-1" d="M659.57,341.8c2.28-.43-1.51,4.39-2.27,6.58a25.48,25.48,0,0,0-1.68,7A8.45,8.45,0,0,0,658,362a3.48,3.48,0,0,0,1.92,1,4.43,4.43,0,0,0,1.72-.27,36.07,36.07,0,0,0,12.17-6.39c1.65-1.33,3.29-2.85,5.35-3.27,1.28-.25,2.7-.09,3.78-.82a3.61,3.61,0,0,0,1.19-3.74,10.55,10.55,0,0,0-1.92-3.66l-7.95-11.24a22.29,22.29,0,0,0-4.56-5.2,7.5,7.5,0,0,0-6.53-1.49c-3.36,1-4.9,4.83-5.88,8.2a7.18,7.18,0,0,0-.4,3.39S657.5,342.19,659.57,341.8Z"/><path class="cls-1" d="M613.85,311.8c-5.48-.41-9.24,1-11.89,4.66s-3.42,8.45-3.4,13c0,4.22.8,8.75,3.79,11.71,1.74,1.72,4,2.72,6.2,3.86a46.3,46.3,0,0,1,19.62,20.11,5.25,5.25,0,0,0,1.45,2.06c1.79,1.29,4.22-.2,5.88-1.65,4.57-4,9.09-8.3,11.84-13.71s3.48-12.23.42-17.48c-1.75-3-4.55-5.25-6.37-8.19-1.09-1.77-1.8-3.76-2.91-5.51-2.5-3.94-6.84-6.42-11.34-7.62Z"/><path class="cls-1" d="M556,226.61c-.19-2.11-2.2-3.76-4.24-4.33-1.22-.35-2.54-.31-3.74-.74s-2.31-1.62-2-2.86,1.5-1.67,2.58-2.07l5.49-2c2-.74,4.23-1.46,6.14-.56s2.7,2.87,3.09,4.81.44,4,1.18,5.8C564.47,224.64,556.35,230.62,556,226.61Z"/><path class="cls-1" d="M569.92,240.56c6.19-5.09,16.2-3.18,21.64,2.71s6.9,14.57,5.91,22.53c-.47,3.78-1.56,7.72-4.35,10.32-4.84,4.49-13.28,2.92-17.63-2-.88-1-1.73-2.19-3.49-1.83a4.5,4.5,0,0,0-3.29,3.16,25.75,25.75,0,0,1-17.56,17c3.09,3.83,5.79,8.11,6.84,12.92s.22,10.21-3.06,13.86-9.25,5-13.34,2.26c.44,2.07-2,3.66-4.09,3.77s-4.28-.56-6.3,0c-3.39,1-4.79,4.92-6.09,8.21-4.79,12.1-14.32,21.68-23.14,31.14a9.64,9.64,0,0,1-5.59,3.06c-7.29,1.06-9.67-7-9.13-13.13a41.12,41.12,0,0,1,6.63-18.94c2.11-3.2,4.77-6.32,5.12-10.14a27.9,27.9,0,0,1-20.77-19.33c-3,1-4,5-3,8s3.49,5.26,5.62,7.62,4.11,5.24,3.91,8.42a3.91,3.91,0,0,1-1.29,2.86,4.69,4.69,0,0,1-1.87.78,17.12,17.12,0,0,1-12.37-1.86,13.34,13.34,0,0,0-3.37-1.7,10.51,10.51,0,0,0-4.71.37,57.29,57.29,0,0,1-50-13.32c-3.63-3.3-7.06-8.12-5.42-12.75.55-1.55,1.62-2.86,2.3-4.36.62-1.34.91-2.8,1.41-4.19,2.44-6.79,9.75-10.88,16.93-11.54s14.31,1.5,21.11,3.89c1.75.62,3.6,1.33,4.69,2.84s.9,4-.8,4.78l10.64-3.1c-4.61-6.65-9.3-16.14.17-21.43a12.16,12.16,0,0,1,6-1.41c3.51,0,7.83-1,11.22.79,2.33,1.25,3.8,3.61,5.17,5.88l12.53,20.76c5.72-4.9,14.39-3.25,21.53-.88a12.89,12.89,0,0,1,5.45,2.9c1.49,1.57,2.15,3.79,3.66,5.34,3.5,3.59,10.87.81,11.12-4.19-1.16-9.82-34.39-8.1-45-21.1a10.64,10.64,0,0,1-2.49-4.88,13.9,13.9,0,0,1,.34-4.8c1-5.19,2.1-10.63,5.54-14.63s9-6,14.42-5.93,10.56,1.95,15.28,4.51c-2.21-4.67,1.07-10.34,5.49-13s9.74-3.3,14.67-4.82a41.64,41.64,0,0,0,12.82-6.56,2.43,2.43,0,0,1,2.16-.4C564.71,229.78,570.53,232.46,569.92,240.56Z"/><path class="cls-1" d="M571.29,289.56c-2,3.44-7.11,4.67-8.1,8.53-.65,2.51.58,5.15,2.22,7.15,2.4,2.93,6.06,5.11,9.82,4.73,4.39-.45,7.68-4.09,10.51-7.48a9.89,9.89,0,0,0,2.21-3.58,7.5,7.5,0,0,0,0-3.3c-.6-3.51-1.89-5-5.68-8.62C582.31,287,576.4,280.84,571.29,289.56Z"/><path class="cls-1" d="M558.78,391.25s-15.56,9.69-3.43,25.95C555.35,417.2,595.44,386.24,558.78,391.25Z"/><path class="cls-1" d="M461.73,369.63s-13.72,2.9-7.39,16.88,9.23,16.35,20.31,21.36,6.07-24,6.07-24S476,369.36,461.73,369.63Z"/><path class="cls-1" d="M383.93,406s-4.22,23.21,19.78,33,0-25.32,0-25.32S383.35,388.9,383.93,406Z"/><path class="cls-1" d="M622.52,404.18a4.1,4.1,0,0,0-6-3.26c-8.88,4.62-26.33,15.17-30.6,28.57-5.8,18.2-10,20.81,14.5,20.31C623.94,449.33,623.68,417.29,622.52,404.18Z"/><path class="cls-1" d="M607.05,458s-11.34-1.32-9.29,12.92c0,0,2.87,13.45.8,24,0,0,11.92,7.39,19.3-24.79C617.86,470.11,619.71,458.77,607.05,458Z"/><path class="cls-1" d="M515.53,464.88s6.07,15.78,7.65,27.65,4.22,14,18.2,17.67c0,0,21.36,5.8,23.21-10.29,1.32-11.56-9.89-16-16.29-17.64a18.32,18.32,0,0,1-7.8-4.23C535.49,473.53,525.76,466,515.53,464.88Z"/><path class="cls-1" d="M510,502c-.85-.51-1,21.77,16.66,31.61a2.45,2.45,0,0,0,3.62-2.19C530.1,525.17,527.39,512.35,510,502Z"/><path class="cls-1" d="M435.74,552.52c-1.46,11.55,0,34.07,31.52,41,0,0,24.8,6.59,5-25.58,0,0-8.44-13.72-19.61-7.12a46.17,46.17,0,0,1-12-9.75A2.79,2.79,0,0,0,435.74,552.52Z"/><path class="cls-1" d="M617.32,584.9a27.46,27.46,0,0,0,3.29-7.92c.77-3.53,3-7.88,9.65-6.91,10.81,1.58,5,19,5,19s-5,15.29-18.87,16.73a3.12,3.12,0,0,1-3.66-2.86A31.84,31.84,0,0,1,617.32,584.9Z"/><path class="cls-1" d="M666.6,531.35s-13.87-3.48-15.72,5.75,7.86,10.28,7.86,10.28-1.58,14.25,13.19,10c8.87-2.54,21.22-9.31,27.27-13.52a3.41,3.41,0,0,0-1.37-6.16C689.75,536.36,681.16,533.93,666.6,531.35Z"/><path class="cls-1" d="M571.71,679.25s10.58,28.65,12.35,58.55c3,1.18,30.9,10.55,42.19,26.24,0,0,29.32,37.59,58,46,0,0-23.41-30.76-23.94-55,0,0,12.66-5.11,21.1-22,0,0-19.74,1.05-36.61-2.64C644.81,730.42,626,699.3,571.71,679.25Z"/><path class="cls-1" d="M747.52,266.11a43.41,43.41,0,0,1-24.22,2.47c-11.1-2-29.59-4.83-45.44-4.32,0,0-34.81-6.33-64.09-54.59,0,0-4.74-11.08,9.5-11.87,0,0-.79,28.49,29.27,33.23,0,0-3.95,23.74,16.62,25.32s28.48-12.66,28.48-12.66,4.75,7.91,13.45-8.7c0,0,19,13.45,9.5-10.29,0,0,12.65-2.37,4.74-19,0,0,22.95-8.7,0-25.31,0,0-14.24,2.37-9.49,13.45,0,0-15.81-8-7.91-7.92,0,0,11.07-5.53,19-14.24,0,0,1.58-10.28-11.08-7.91,0,0-16.62,4-46.68-4,0,0-28.49-17.4-67.26,7.13,0,0-8.7,7.12-17.4-4,0,0-8.71-20.57-41.94-1.58,0,0-44.3,30.85-66.46,35.6,0,0,.79-9.49,15.83-17.41,0,0,11.07-11.34,15.82-26.24,0,0,38.77,6.46,28.48-49.71,0,0-12.21-30.86-25.09-32.44,0,0,10.85-22.15-4.18-40.35l-5.54,5.54s-11.87-19-25.32-5.54c0,0-11.07,1.58-10.68-5.3S478.48,15,478.48,15A676.9,676.9,0,0,0,411.22,0s3.17,15-9.49,19.78c0,0-15.83,2.37-18.2,16.62,0,0-26.11-38.77-26.9-3.17,0,0-6.33-21.36-16.62-25.32,0,0-11.86,6.33-6.33,24.53,0,0-29.27-19.78-24.52-8.7,0,0-26.11-26.9-54.6-15,0,0-30.85-7.12-41.93,15.83,0,0-8.7-1.58-14.24,17.4,0,0-11.08,15.83-31.65,11.87,0,0-4,4.75-7.12,15.83l-5.54-2.38s-14.24,33.23-13.45,0c0,0-23.57-4.74-16.45,17.41,0,0,6.95,36.4-11.24,4.75,0,0-10.29,1.58-10.29,13.45L89.2,110.77S82.87,140,71,127.38,66.26,153,66.26,153s0,18.74-26.91,6.87c0,0-18.19,20.58,4,28.49l-3.16,13.45s9.49,11.87-1.59,34.81-18.19,42.73,15,12.66c0,0,8.7,4.75-4.75,14.24A34.7,34.7,0,0,0,34.61,288s0,8.7-11.87,8.7S10.87,319.65,1.38,332.31s33.23-13.45,33.23-13.45-4,14.24-15,21.36-3.16,21.36-3.16,21.36,4.75,16.62-4,30.07S3,411.43,10.87,420.92c0,0,9.5-15.82,15-10.28,0,0,6.33,7.91-2.37,10.28,0,0-19,14.24-10.29,32.44,0,0,24.53-9.49,30.07-22.94l.79,11.87c16.09-7.52,17.28-33.84,27.23-45.1,11.83-18-2.44-36.51,21-41.15a16.42,16.42,0,0,1,4.74,6.33c1.91,4.86,1,11.93-12.66,19,0,0-30.06,27.7.79,41.94,0,0-30.43,12.86-14.61,44.51,0,0,19.36-14.45,26.48-35S109,411.43,109,411.43,96.32,428,101.07,442.29c0,0,7.91-4,14.24-20.58l10.29.8s2.37-13.45,18.19-15c0,0,3.17,11.87,22.16-2.37,0,0,15-15,15-28.48,0,0-15.82-3.17-26.11,5.53s-4.23-4.74-4.23-4.74,9-7.12,9.77-18.2c0,0,11.08,15,23.74-12.66,0,0-2.38,17.41,23.73.79,0,0-34.07,46.68,22.92,11.08,0,0-1.56,34,25.35-2.38,0,0,3.16-18.19-11.08-20.57,0,0-15-4-26.11,4,0,0-7.12-15.83-30.07-3.17,0,0-12.86-19.4-34.23,5.12,0,0-14.82,12.29-22.73,5.17,0,0,1.58-20-28.49-12.87l-6.33-.58s5.49-17.5,33.82-2.5,27.11-18.19,44.51-21.36c0,0,37.19-2.25,100.49,15.16,0,0,11.86,12.66,40.35-7.92,0,0,5.54,17.41-15,22.95,0,0-8.7-3.17-19,19.78s-38.77,39.56-38.77,39.56-35.61,47.47-33.23,80.7c0,0,12.66-4,12.66,17.41,0,0-22.16,65.67,34.81,138.46,0,0,34,49.06-50.64,44.31,0,0,16.62,27.69,49.06,20.57,0,0,41.14-2.79,61.71-28.69,0,0,45.1,27.9,3.17,35.81,0,0-71.21,7.91-93.37,16.62,0,0-38-23.7-55.38-22.9,0,0-14.24,2.32-26.11,18.15,0,0-9.5,15.82-19,15.82,0,0-23.74-19-15.83-43.51,0,0-18.19,15-10.28,43.51,0,0-3.17,26.11,15.82,25.32,0,0,15.83,11.08,40.35-18.2,0,0,18.41-9.24,46.1,18.45,0,0-5.74,16.37-19.19,8.46,0,0-21.37-17.41-41.15,11.07,0,0-39.56,18.2-53.8,38h27.69s15,19,38.77,27.69c0,0-10.28-18.2-13.45-32.44,0,0,10.29,0,18.2-13.45,0,0,10.29-6.33,15.82,7.12,0,0-13.45,11.87,15,26.9,0,0,4.74,6.65,1.58,21.13,0,0-4.75,27.93,22.94,44.54,0,0-5.53-35.6,9.5-70.41,0,0-22.16-13.45-.79-35.61,0,0,41.14-28.48,57-34A29.17,29.17,0,0,0,271.18,739s9.49,4,19.78,18.2c0,0,4.75,8.7,39.56,2.37s53.8-30.07,53.8-30.07,23.11,12,9.95,25.49c0,0-4.41,25.94-45.55,22.78,0,0-57.76-10.29-82.29,15.82s3.17,26.11,3.17,26.11,14.86,8.23-6.5,35.37c0,0-12.49,14.48-16.45,32.68,0,0,27.28-23.25,48.64-35.68,0,0,8.33-4.68,15.45-16.54s19-20.57,45.89-17.41c0,0,50.64,11.87,62.5-10.29,0,0,5.33-18.15,17.2-24.48,0,0,18.41,3.12,7.33,16.57s-10.28,30.07,15,35.61c0,0-11.87,25.32-24.53,31.64,0,0-42.73-12-72-14.1,0,0-26.9-4.09-35.61,10.94,0,0-22.94,35.6-56.17,48.26,0,0,41.14,11.08,91-30.85,0,0,49.84,6.33,60.92,14.24,0,0,5.54,17.41-18.2,27.69,0,0,16.62,12.66,33.23,0,0,0,17.41-38,44.31-57,0,0,17.78-14.4,24.11-27.06l28.9,15.75s14.24,10.05,4.75,20.57c0,0-22.16,27.14-22.95,36.63,0,0,26.9-7.12,35.61-15L575,875.63s25.32,8.15,53.81,6.57c-40-17.45-59.35-40.35-85.46-47.47,0,0-3.16-23.74-24.52-21.37l-21.37-13.45s6.33-52.22-39.56-64.09c0,0,1.59-45.09-41.14-61.71,0,0-106-53-104.44-146.37,0,0,39.56,96.9,126.6,143.79,0,0-7.92-35.4,19-13.24,0,0,30.07,27.69,36.4,71.2,0,0,32.44,17.41,31.65,45.89l41.93,10.29s-8.7,38.77,82.29,62.51c0,0-40.14-24.53-52-64.09,0,0-3.38-29-40.56-29.28,0,0,7.91-75.16-30.86-98.9,0,0-20.57-11.87-16.62-38.77,0,0-87,6.33-127.38-49.84,0,0-31.65-38.77-41.14-73.59,0,0-16.62-11.86-8.71-26.9s19-31.65,21.37-33.23-7.92,15.83,19,25.32c0,0,16.62-22.94,3.17-37.19l11.08,9.5s-5.54-23.74-22.16-31.65c0,0,16.62-33.23,15-45.1,0,0,22.22,18.17,57.75,4,4-1.58-15.82-26.11-52.22-23.74,0,0,3.39-37.27,12.37-47.47,15.33-17.41,59.63-26.9,59.63-26.9s52.22-5.54,94.55-58.55c0,0,22.25,13.05,78.78,87.82,0,0,4.7,8.71,20.52,5.54,0,0-1.58,21.36,23,4,0,0-1.59,14.24,17.4-4,0,0,17.41-7.12,49.06-1.58,0,0,27.69-14.24,55.38-52.22C796.54,241.32,767.92,257.81,747.52,266.11Zm-82.2-83.37c5,.89,9.89,2.62,14.83,3.95a187.19,187.19,0,0,0,18.49,3.69c.89,1.76.12,4-1.22,5.4a22.1,22.1,0,0,1-4.84,3.35,4.92,4.92,0,0,0-2,1.85c-.58,1.17-.24,2.56,0,3.84a24,24,0,0,1-.74,12c-2.31-3.67-2.33-8.38-4.33-12.23-2.65-5.11-8.24-7.87-13.48-10.28-3.24-1.49-6.6-3-10.17-3a6.65,6.65,0,0,1-2.67-.29,6,6,0,0,1-1.93-1.7,23.29,23.29,0,0,0-7-5.42l-.1,0C654.93,181.85,660.28,181.85,665.32,182.74ZM57,396.4c-4.36,10.68-10.29,6.33-10.29,6.33-8.7-11.48,10.29-17,10.29-17C62.56,387.3,57,396.4,57,396.4ZM423.94,124.74a51,51,0,0,1,5.55-14.27c3.26-1.11,3.36,4.64,3.36,4.64,2.15.51,4.4.18,6.6.35a14.35,14.35,0,0,1,6.32,2.06c.76.46,1.56,1.21,1.36,2.07s-1.05,1.12-1.8,1.36l-11.2,3.59-7.89,2.52a2.19,2.19,0,0,1-1.77,0C423.73,126.67,423.77,125.59,423.94,124.74Zm-69.5,1c2.53-.64,5.2-.38,7.81-.24,11.2.63,17.37-8.29,17.37-8.29,3.32-4.36,4.93-9.75,6.47-15,.72,3.2,1.64,6.69,4.33,8.56,4.21,2.92,11.18.7,14.19,4.85,2,2.77.67,6.92-2,9.07s-6.2,2.78-9.58,3.21-6.92.79-9.85,2.55-5.08,4.94-7.89,7.1c-3.87,3-8.94,3.92-13.81,3.91-3.31,0-6.76-.48-9.49-2.36s-4.49-5.46-3.4-8.58A8.16,8.16,0,0,1,354.44,125.77Zm-34.1-17.44a4.66,4.66,0,0,1,1.51-1.88A48.86,48.86,0,0,1,333.49,99s3.94,4.3,13.74,7.2c1.19.36,2.46,1.77,1.7,2.75a2,2,0,0,1-1.39.58c-5.54.7-11.37-.85-16.65,1-2.17.74-4.21,2-6.5,2.08S319.57,110.48,320.34,108.33ZM292.45,26a92.43,92.43,0,0,0,22,13.13c-.76,3.62-5.12,5-8.75,5.64-3.27.61-5.5,2.64-9.81,1.82C295.82,39.5,281.12,30.56,292.45,26ZM278,47.37c2.16-2.8,4.19,5.45,4.19,5.45.17,2.5-.36,5,0,7.51a3.48,3.48,0,0,0,.67,1.74,3.92,3.92,0,0,0,2.24,1l11.08,2.47c.54.12,1.24.57.95,1a.92.92,0,0,1-.68.32l-19.38,2.6a1.6,1.6,0,0,1-1.26-.18,1.55,1.55,0,0,1-.41-1.09C274.67,61.22,273.68,53,278,47.37ZM214.63,115c.63-2,2.81-3.08,4.76-3.9,3.53-1.48,7.23-3,11-2.64,0,0-4.25,4.84,2,8.31a9.11,9.11,0,0,0,3.55.8l8.11.8a2.4,2.4,0,0,1-.58,2.81,7,7,0,0,1-2.72,1.43l-11.84,4.11a11.73,11.73,0,0,1-2.84.72c-3.85.32-6.88-3.06-9.23-6.13C215.43,119.5,213.94,117.25,214.63,115ZM185.1,160.27a31.58,31.58,0,0,0,6.71-2.34,31.65,31.65,0,0,0,5.13-3.65c-.5,5.34,3.17,10.43,7.91,12.93s10.32,2.85,15.67,2.5c-1.06,4.3-7.08,6.52-7,10.94a3.7,3.7,0,0,1-.19,2.15,1.89,1.89,0,0,1-2.67.16,9.46,9.46,0,0,1-1.79-2.39c-2.18-3.23-6.24-4.7-10.12-5.08a26.46,26.46,0,0,0-19.24,5.83,2.85,2.85,0,0,1-1.37.77,2.73,2.73,0,0,1-1.36-.28l-3.46-1.35a3.25,3.25,0,0,1-1.67-1.09,3.18,3.18,0,0,1-.35-1.83L171.25,164Zm-1.23,68.19a5.33,5.33,0,0,1,1.95-4.71,9.88,9.88,0,0,1,4.8-2.2,39.68,39.68,0,0,1,8.55-.51c2.32,1.61,3.61,5,2.11,7.36s-4.92,2.71-7.41,4.15a8.32,8.32,0,0,0-4,6C190.73,234.58,184.55,232.46,183.87,228.46Zm-62.05-79.91c1.49-16.68,8.35-13.6,8.35-13.6,1.38,2.1,2.82,4.64,1.92,7-1.15,3-5.4,3.72-6.82,6.6-.62,1.24-1.23,3.15-2.57,2.78C121.67,151,121.72,149.62,121.82,148.55Zm-6.14,32.21,2.81-4.08a10.44,10.44,0,0,0,11.59,2,10.73,10.73,0,0,1,3.39-1.4c2.09-.2,3.85,1.41,5.5,2.7a22.54,22.54,0,0,0,16.84,4.41c2.16-.32,4.34-1,6.5-.62a7.61,7.61,0,0,1,6.06,8.61,20.25,20.25,0,0,0-17.55,24.13A5.57,5.57,0,0,1,151,219c-.4,1.58-2.23,2.36-3.85,2.41s-3.25-.39-4.86-.2c5.66-6.91,5.12-18.09-1.18-24.44a10.9,10.9,0,0,0-4.74-3c-3.1-.86-6.53.26-9.57-.8-3.46-1.2-5.5-4.87-8.82-6.43a7.7,7.7,0,0,1-2.31-1.25C114.48,184.17,114.7,182.1,115.68,180.76Zm191.69,86.37c-.91,1.8-2.78,2.88-4.58,3.79a99.92,99.92,0,0,1-57,10.11c-8.52-1-17-3.18-25.55-2.89-4.59.15-9.13,1-13.71,1.43-29.2,2.91-50-7.52-50-7.52.75,6.16-.15,12.77-3.83,17.76a21.19,21.19,0,0,1-13.14,7.92c-12.25,2.33-25.57-6.15-28.65-18.23,5.37,3.75,11,7.54,17.37,8.86s13.91-.42,17.56-5.85c2.83-4.22,2.8-9.95.72-14.59s-5.95-8.28-10.26-11a30,30,0,0,0,9.43-12.61,24.72,24.72,0,0,0,6.48,16.81c2.71,2.93,6.46,5.27,10.44,5,10.57-.78,13.12-17.61,23.45-20-2.77,5-.88,11.48,2.95,15.68s9.18,6.62,14.38,8.92c4.89,2.16,9.9,4.35,15.23,4.71s11.14-1.46,14.13-5.89c3.28-4.87,2.41-11.33,1.28-17.09-.53-2.69-1.12-5.46-2.64-7.75-2.45-3.7-7-5.74-9-9.74-2.33-4.78.77-11.34,5.94-12.59-1.38,5.74,2,12.13,7.35,14.58A14.76,14.76,0,0,0,252,233.67a16.73,16.73,0,0,0,3.58-16.46c-2.32-7.14-9-12.21-11.37-19.33a18.44,18.44,0,0,1,6.57-20.33l9.55,36.64c.76,2.91,1.54,5.88,3.23,8.36a25.18,25.18,0,0,0,6.46,5.92q7.15,5.1,14.62,9.73c9.59,6,20.5,12.51,23,23.51A8.05,8.05,0,0,1,307.37,267.13Zm114.41-61.78c.22-1,.44-2,.67-2.95-8.19.61-15.85,4.11-23.31,7.55L369,223.86c-2.23,1-4.55,2.07-7,2.08-4.83,0-8.67-3.95-11.47-7.89s-5.43-8.39-9.84-10.35c-4-1.77-8.59-1.12-12.82-2.11a28.4,28.4,0,0,1-9.86-5c-4.39-3.16-8.55-6.8-11.35-11.43s-4.07-10.39-2.45-15.54c3-9.49,15.32-16.43,28.47-19.49-1.58,3.46-9.87,5.62-8,10.17,0,0,1.94,4.71,9.91,3.6-5,1.69-10.6,3.83-12.84,8.64-2.92,6.28,1.86,14,8.29,16.59s13.72,1.26,20.38-.62c-1.56,5.16,2.51,10.85,7.7,12.26s10.84-.66,15-4.1,7.07-8.09,9.92-12.66c-1.25,4.68,3.39,9.12,8.14,10.05,7.71,1.52,16.16-3.87,17.91-11.53.66-2.86.47-5.86,1.05-8.75s2.24-5.86,5.07-6.67c-3.54,3-2.59,9.16.79,12.37s8.27,4.17,12.9,4.65a7.45,7.45,0,0,0,4.54-.52c3.69-2.16,1.53-7.74,1.95-12,.7-7.28,9.56-10.56,16.86-10.72a6.09,6.09,0,0,1,3.36.6c1.63,1,2.05,3.27,1.58,5.13a25.22,25.22,0,0,1-2.48,5.16,20,20,0,0,0-2.2,10.44,22.14,22.14,0,0,1,16.5,9.43A209,209,0,0,0,421.78,205.35Zm42.64-84.48s-4.05-9.16,4.94-11.94c7.15-2.21,11.72-9.28,14.54-16.22,1.31-3.23,2.62-6.92,5.78-8.4a6.48,6.48,0,0,1,8,2.32,2.9,2.9,0,0,1,.25,3.16A4.65,4.65,0,0,1,495.78,91c-3.51,1.42-5.91,4.86-6.91,8.52s-.81,7.52-.4,11.29a3.28,3.28,0,0,0,.51,1.67c.68.87,2,.83,3.09.82a16.08,16.08,0,0,1,13.56,7.58,3.66,3.66,0,0,1,.69,2.14c-.09,1.2-1.17,2-2.19,2.68-3,1.81-7.08,2.91-9.68.62a11.77,11.77,0,0,1-2.38-3.68,28.73,28.73,0,0,0-3.44-5.22c-2.35,4.41-6.47,8-11.37,9S466.78,125.27,464.42,120.87Z"/></g></g></svg>