<svg xmlns="http://www.w3.org/2000/svg" viewBox="0 0 749.78 928.97"><defs><style>.cls-1{fill:#fff;}</style></defs><g id="Layer_2" data-name="Layer 2"><g id="_1" data-name="1"><path class="cls-1" d="M309.36,0V286.17A179.19,179.19,0,0,1,296.44,353L248.83,471.56l15.44,11.91A10.81,10.81,0,0,1,268,495.21L237,596a45.55,45.55,0,0,1-24.1,27.79L42.33,704.18S193.69,422.71,240.5,326.47a133.53,133.53,0,0,0,13.44-56.74c.3-23.73.69-57.06.8-76.51a42.61,42.61,0,0,1,3.94-17.67l12.7-23.46V33.63S292.75,0,309.36,0Z"/><path class="cls-1" d="M231.22,696.68s31.86,21.74,74.14,29.05V431.53Z"/><path class="cls-1" d="M373.89,361s-27.74,1.86-38.42-16.17V890.51L361.58,929V425.16s2.07-12.75,12.31-12.75Z"/><path class="cls-1" d="M438.42,0V286.17A179.19,179.19,0,0,0,451.34,353l47.6,118.56-15.43,11.91a10.81,10.81,0,0,0-3.72,11.74l31,100.74a45.55,45.55,0,0,0,24.1,27.79l170.52,80.44S554.09,422.71,507.28,326.47a133.53,133.53,0,0,1-13.44-56.74c-.3-23.73-.69-57.06-.8-76.51a42.61,42.61,0,0,0-3.94-17.67l-12.7-23.46V33.63S455,0,438.42,0Z"/><path class="cls-1" d="M516.56,696.68s-31.86,21.74-74.14,29.05V431.53Z"/><path class="cls-1" d="M373.89,361s27.74,1.86,38.42-16.17V890.51L386.2,929V425.16s-2.07-12.75-12.31-12.75Z"/><path class="cls-1" d="M373.47,296.66a23,23,0,0,1-23-23,23.59,23.59,0,0,1,.48-4.71,23,23,0,0,0,22.53,18.31l.42,0v-185l-.42,0a23,23,0,0,0-22.53,18.31,23.59,23.59,0,0,1-.48-4.71,23,23,0,0,1,23-23h.42V70.42h-7.56a30.86,30.86,0,0,0-30.86,30.85V290a30.86,30.86,0,0,0,30.86,30.86h7.56V296.65Z"/><path class="cls-1" d="M381.45,70.42h-7.56V92.8A23,23,0,0,1,396,120.51a23,23,0,0,0-22.11-18.29v185A23,23,0,0,0,396,268.94a23,23,0,0,1-22.11,27.71v24.19h7.56A30.86,30.86,0,0,0,412.31,290V101.27A30.86,30.86,0,0,0,381.45,70.42Z"/><path class="cls-1" d="M87.93,578.82A318.11,318.11,0,0,1,54.38,436.18c0-133.66,82.08-248.13,198.58-295.81V82.28C105.81,132.55,0,272,0,436.18A372.1,372.1,0,0,0,57.16,634.91Z"/><path class="cls-1" d="M158.05,671.73l-52.93,24.35A373.18,373.18,0,0,0,307.36,804.16V748.73A318.64,318.64,0,0,1,158.05,671.73Z"/><path class="cls-1" d="M661.85,578.82A318.11,318.11,0,0,0,695.4,436.18c0-133.66-82.08-248.13-198.58-295.81V82.28c147.15,50.27,253,189.73,253,353.9a372.1,372.1,0,0,1-57.16,198.73Z"/><path class="cls-1" d="M591.73,671.73l52.93,24.35A373.18,373.18,0,0,1,442.42,804.16V748.73A318.64,318.64,0,0,0,591.73,671.73Z"/></g></g></svg>