<svg xmlns="http://www.w3.org/2000/svg" viewBox="0 0 993.62 920.47"><defs><style>.cls-1{fill:#fff;}</style></defs><g id="Layer_2" data-name="Layer 2"><g id="_1" data-name="1"><polyline class="cls-1" points="7.91 81.25 325.41 81.25 461.94 197.77 410.08 243.63 297.91 151.46 173.5 151.46 343.28 301.25 293.38 345.15 0 81.25"/><polygon class="cls-1" points="49.05 440.45 0 386.49 304.26 386.49 666.42 81.25 992.62 81.25 687.21 354.89 649.31 316.99 812 168.3 698.29 168.3 369.14 440.45 49.05 440.45"/><polygon class="cls-1" points="580.75 311.11 657.73 386.49 993.62 386.49 938.81 440.45 605.9 440.45 525.86 360.41 580.75 311.11"/><polygon class="cls-1" points="507.69 0 602.9 71.75 507.69 150.5 507.69 0"/><polygon class="cls-1" points="507.69 0 412.48 71.75 507.69 150.5 507.69 0"/><polyline class="cls-1" points="985.7 839.22 668.21 839.22 531.68 722.69 583.54 676.84 695.7 769 820.12 769 650.33 619.22 700.23 575.31 993.62 839.22"/><polygon class="cls-1" points="944.56 480.01 993.62 533.98 689.35 533.98 327.2 839.22 1 839.22 306.41 565.58 344.31 603.48 181.62 752.17 295.33 752.17 624.47 480.01 944.56 480.01"/><polygon class="cls-1" points="412.86 609.36 335.89 533.98 0 533.98 54.8 480.01 387.71 480.01 467.75 560.06 412.86 609.36"/><polyline class="cls-1" points="485.92 920.47 390.71 848.72 485.92 769.97 485.92 920.47"/><polyline class="cls-1" points="485.92 920.47 581.13 848.72 485.92 769.97 485.92 920.47"/></g></g></svg>