<svg xmlns="http://www.w3.org/2000/svg" viewBox="0 0 975.77 711.13"><defs><style>.cls-1{fill:#fff;}</style></defs><g id="Layer_2" data-name="Layer 2"><g id="_1" data-name="1"><path class="cls-1" d="M375.89,316c8,8.81,21.94,25.19,31.85,41.71a9.35,9.35,0,0,1-7.3,14.12c-11.28.89-26.94-.51-36.28-12.64,0,0-19.66-23.47-2.19-43.15A9.34,9.34,0,0,1,375.89,316Z"/><path class="cls-1" d="M737.62,440.7s7.91,42.73,3.16,60.93c0,0,29.27-15,44.31-46.68C785.09,455,766.71,446.77,737.62,440.7Z"/><path class="cls-1" d="M656.59,426.47s14.8,42.26,12.83,61.54c0,0,27.45-19.93,37.76-54.53C707.18,433.48,687.18,428.05,656.59,426.47Z"/><path class="cls-1" d="M593.05,427.79s19.09,33.6,20.39,50.28c0,0,20.23-21.16,23.65-52.13C637.09,425.94,619.27,424.42,593.05,427.79Z"/><path class="cls-1" d="M539.69,441.44s20.71,21.65,24.85,33.94c0,0,11.2-19.73,7.91-43.67C572.45,431.71,558.76,433.94,539.69,441.44Z"/><path class="cls-1" d="M484.16,599.55s22.2-17,27.77-27.76c0,0,7.52,19.8,1.07,41.41C513,613.2,500.69,609.19,484.16,599.55Z"/><path class="cls-1" d="M534.9,619.23s21-28.15,24.38-42.25c0,0,14.35,20.9,13,47.89C572.3,624.87,556.89,625.72,534.9,619.23Z"/><path class="cls-1" d="M593.94,627.54S617,591.1,620.83,575.2c0,0,18.28,22.53,16.82,52.95C637.65,628.15,615.83,631.58,593.94,627.54Z"/><path class="cls-1" d="M179.81,372.07s-45.05,27.49-98.08,44.11c0,0,40.32,50.63,128.15,106,0,0-76.33,116.93,2,188.93,0,0-128.22-27.47-55-176.27,0,0-123.64-85.87-156.87-137.3,0,0,111-32,151.12-54.06C151.12,343.5,164.78,358,179.81,372.07Z"/><path class="cls-1" d="M975.77,372.07c-30.86-33-98.9-46.09-98.9-46.09,7.12,15.82,4.75,55.38,4.75,55.38,4.74,9.5,21.36,15.83,21.36,15.83-9.5-40.35,26.11-15,26.11-15,6.33,23.74-15.83,28.49-15.83,28.49-25.31-2.38-41.93-22.55-41.93-22.55,3.56-24.92-5.93-65.28-5.93-65.28-24.93-15.43-149.54-52.22-149.54-52.22C685,221.93,606.67,218.37,606.67,218.37s-90.2-17.8-116.31-38-58.48-41.54-58.48-41.54c-11-11.87-9.05-32.84-9.05-32.84-22,4.75-28.63,20.57-28.63,20.57-11.11-25.32-42.69-47.47-42.69-47.47v34.81c-11.08-6.33-64.88-28.48-64.88-28.48C243.9,79.12,82.49,0,82.49,0S70.23,66.46,143.81,156.66c0,0,41.54,40.35,76,62.9,0,0,39.16,16.62,45.1,54.59,0,0,26.11-45.09-22.55-85.45S164,127,132,73.58c-12.27-20.57,13.84-34,30.46-9.49,0,0,11.07,24.53,38.77,34.81,0,0,101.27,32.44,126.59,70.42,0,0,7.91,24.72-37.19,17.41,0,0,14.24,22.15,23.74,33.23,0,0-22.16,7.12-10.29,40.35,0,0,4.75,15-15,40.35,0,0,56.18-6.33,83.87-44.31,0,0,9.12,45.73,69.25,109.82,0,0,30.44-10.13,71.34-10.13,0,0-65.59-51.42-81.42-104.44,0,0,36.56-9.49,14.41-42.72l23.74,29.27s-29.51,4.17-15,30.28c0,0,21.71,44.89,74.93,85.24,0,0,43.69-.79,80.87-3.16,0,0,50.64-2.38,76-25.32,0,0,11.08,49.84-93.36,42.72,0,0-163.78-16.2-230.25,85.08h64.09S399,485.8,394.23,502.42c0,0,26.9,2.37,26.9,30.06h-7.91s-.79-22.15-27.69-20.57c0,0-33.23,4-15.83,58.55,0,0-30.85-29.27-82.28-45.89l34.81-60.92S236,422.51,209.09,399.56l42.72-27.49s-43.89-30.26-60.5-59.14l47.05-13.85S207.51,256.35,175.07,269c0,0-26.11,12.66-51.43,16.22,0,0,40.35,57,83.07,86.84l-44.3,25.12s74.37,55.38,124.22,74.37l-43.52,76s128.6,38,133.8,137.67c0,0,26.22-17.54,31.86-55.58-1.32,11-3.81,60.25,55.88,65.86,67.25,6.33,163,6.33,163,6.33s36.39.56,64.29-18.2c0,0,62.47-44.72,13.41-35.23,0,0,3.79-36.77-15.2-58.13,0,0-20.27,53.55-70.41,52.76-83.87-1.33-150.71-19.15-170.49-61.09L470,592.45C429,478.07,522.41,436,522.41,436c124.22-56.18,286.41,15,286.41,15,11.87,32.44-7.12,78.33-7.12,78.33,26.11-7.91,70.42-50.64,70.42-50.64,49.85,19,41.94-22.15,41.94-22.15C946.49,439.91,975.77,372.07,975.77,372.07Zm-303.24-46.3c-17.41-11.87-49.64,1-49.64,1-34,14.24-55.46,7-55.46,7-38.68-13.52-71.25-81.08-71.25-81.08s71.89,24.75,121.08,52.55c0,0,19.83,10.1,35.7,7.73,0,0,23.73-.4,20.57-14.64-4.95-22.29,8.36-.8,8.36-.8C691.73,312.93,672.53,325.77,672.53,325.77Z"/></g></g></svg>