<svg xmlns="http://www.w3.org/2000/svg" viewBox="0 0 907.6 907.6"><defs><style>.cls-1{fill:#fff;}</style></defs><g id="Layer_2" data-name="Layer 2"><g id="_1" data-name="1"><path class="cls-1" d="M453.8,0C203.17,0,0,203.17,0,453.8S203.17,907.6,453.8,907.6,907.6,704.42,907.6,453.8,704.42,0,453.8,0Zm0,887.14c-239.33,0-433.34-194-433.34-433.34S214.47,20.46,453.8,20.46s433.34,194,433.34,433.34S693.13,887.14,453.8,887.14Z"/><path class="cls-1" d="M453.8,47.28c-224.52,0-406.52,182-406.52,406.52s182,406.52,406.52,406.52,406.52-182,406.52-406.52S678.31,47.28,453.8,47.28Zm0,794.72C239.4,842,65.6,668.19,65.6,453.8S239.4,65.6,453.8,65.6,842,239.4,842,453.8,668.19,842,453.8,842Z"/><path class="cls-1" d="M460,559.21S598.65,621.92,621.2,661.09c0,0-4.75,11.8-51-17.84,0,0,6.33,7.29,9,11l-19-9s3.56,14.77-19.06.53c0,0,6.92,16.88,5.34,27.43,0,0-15.82-5.28-37.45-22.15,0,0-4.75,3.16-4.22,6.32,0,0-12.66,0-20.57-17.93a349.61,349.61,0,0,0-9,47.47c-1.47,13.51-7.91,30.35-11.07,48.53,0,0-8.44-14.24-12.66-45.89-6.33-15.3-13.72-28.48-11.08-57,0,0-22.68,16.88-40.62,26.9s-28.48,17.41-28.48,17.41,5.8-24.26,22.68-43.25c0,0-70.15,31.12-63.82,10L269,655.81s15-11.13,56.87-27.06a185.79,185.79,0,0,0,23.75-11C373.21,604.7,427.12,575.68,460,559.21Z"/><path class="cls-1" d="M453.8,90.23C253,90.23,90.23,253,90.23,453.8a362,362,0,0,0,81.21,229c20.91-11.92,72.62-40,118.64-53.8,59.34-17.8,132.68-68.83,170.72-84.26C502.52,569.7,571.92,598.91,622,636.6c0,0,55,34,114.24,46.12A362,362,0,0,0,817.37,453.8C817.37,253,654.59,90.23,453.8,90.23Zm0,412.94c-107.09,0-193.91-86.82-193.91-193.91S346.71,115.35,453.8,115.35s193.91,86.82,193.91,193.91S560.89,503.17,453.8,503.17Z"/><path class="cls-1" d="M445.77,129.39s5.82,34-45.58,71.07c-10.68,7.2-39.68,26.71-40.67,36.34-.44,4.2-1.58,8.25,1.55,11.09,12.18,11.1,22.12,10.9,27.91,18.38,0,0,4.25-12.66,123.18-37.18,0,0,14.49,30.85,27.15,19.78s-3.16-26.9-3.16-26.9l-46.46-49.08a3.51,3.51,0,0,0-4.75-.32h0a3.52,3.52,0,0,0-.81,4.55l23.2,38.6s-76.83,4.71-106.11,19.74c0,0,31.86-40.11,64.43-65.81A12.83,12.83,0,0,0,467,150.76Z"/><path class="cls-1" d="M470.86,258.45c2.19,11.22.38,29.2.21,43.23a1.87,1.87,0,0,0,2,1.9c7.06-.36,31.56-2,49.66-8,0,0-4.09,14.43-10.29,23a13.65,13.65,0,0,1-10.69,5.58l-28.85.79a2.62,2.62,0,0,0-2.55,2.67L470,361.52a2.62,2.62,0,0,0,2.83,2.57c10.89-.89,47-6.25,68.84-5.46a32.21,32.21,0,0,1,11.76,2.67c7.39,3.22,20,10,25.89,20.49,0,0,6.19,16.09-36.79,9.1,0,0-37.19-4.36-68.84-4.36,0,0-5.28-.75-5.43,5.16C467.26,428.5,463,479.5,463,479.5S462.56,492,457,492s-6.25-4.91-6.71-12.59l-.38-88.5s-.16-5.14-7.52-4.36c0,0-46.41,3.75-88.26,10.5a9.07,9.07,0,0,1-6.81-1.6,37.4,37.4,0,0,1-7.41-6.91s8.7-3.56,23.73-4.75c0,0-16.09-.92-27.29,3.83-5.63-.07-8.58-6.07-16.22-10.16,0,0,22.15-7.91,73.58-6.73,0,0,32.72-.17,50.35-3.53a5.17,5.17,0,0,0,4.21-5.42c-.51-7.4-1.55-22.43-2.23-31.26a4.43,4.43,0,0,0-4.4-4.1c-10.59-.08-38.84-.75-48.72-5.53,0,0,3.43-13.73,47.37-15.49a2.5,2.5,0,0,0,2.39-2.63,115.2,115.2,0,0,0-3.44-21.35,8.72,8.72,0,0,1,1.14-7,102.29,102.29,0,0,1,17.79-20.29A7.74,7.74,0,0,1,470.86,258.45Z"/><path class="cls-1" d="M394.4,277c5.26,3,17.66,11.1,15.15,18.94,0,0-22.15,35.4-36,44.1,0,0-8.1,1.08-23.73,17.62,0,0-11.87,2-6.33-6.73l5.14-6.72s-6.63,4.7-9.89,8.31c0,0,23.24-41.16,51.78-74.85A3.08,3.08,0,0,1,394.4,277Z"/></g></g></svg>