<svg xmlns="http://www.w3.org/2000/svg" viewBox="0 0 708.45 964.12"><defs><style>.cls-1{fill:#fff;}</style></defs><g id="Layer_2" data-name="Layer 2"><g id="_1" data-name="1"><path class="cls-1" d="M537.41,650.82c-44.82,23.32-82.4-17-49.17-41.82,0,0,11.31-8.46,18-1.34,0,0,5.31,9.91-7.22,18.35-10.11,6.81-15.82,1.85-15.82,1.85s-.05,13.42,15.3,15.56c21.75,3,47.07-12,57-37.88,7.12-22.25-17.67-31.75-38.77-35.44-56.17-6.33-132.13,25.77-132.13,25.77-2,31.19-3.87,66-4,99.19,21.23-5.82,100.86-24.77,194.46-15q9-8.85,17.34-18.4C577.87,663.48,553.67,663.93,537.41,650.82Z"/><path class="cls-1" d="M410.68,381.4l34.42,2.37,58.53,76.68-4.31,23.2-104.25-1.94s-4,29.46-6.52,64.13c55.87-18.59,136.09-57.5,193.9,1.37-52.7-20.64-93.21-23-195.27,16.41l-1.59,21.26c33.5-10.56,90.52-33.24,143-27,36,3.93,77.15,33.6,22.16,84.24,0,0,.69,14.45,52.14,6.77A313.92,313.92,0,0,0,669.53,455c0-137.14-87.56-253.81-209.82-297.21C443.43,208,421.25,310.06,410.68,381.4Z"/><path class="cls-1" d="M277,760.51c0-23.92-.78-34.12-.78-34.12-49.23-1.35-79.71-5.69-98.1-9.83A319,319,0,0,0,277,760.51Z"/><path class="cls-1" d="M299.93,376.46S315.35,271.26,352,139.71C178.9,140.9,38.92,281.59,38.92,455A313.87,313.87,0,0,0,98.05,638.84c88.72-1.63,179.73-23.64,179.73-23.64l1.42-26.69c-52.6,10-108.56,7.07-108.56,7.07s67.52-3.91,108.93-20.92c4.62-47.17,8-99,6.12-102.06l-93.13-63.28,7.68-33.79S255.63,375.35,299.93,376.46Z"/><path class="cls-1" d="M276,709.56c-.79-33.23,1.16-83.91,1.16-83.91-67.72,16.7-112.63,38-163.26,33.42a316.49,316.49,0,0,0,48.05,45.8C210.15,712.89,276,709.56,276,709.56Z"/><path class="cls-1" d="M381,753q.3,8.28.62,15.91c30.57-2.83,61.87-10,89.29-20.93C448.49,747.29,412.55,747.52,381,753Z"/><path class="cls-1" d="M379.79,712c.2,10.6.46,18.86.77,28.57,25.39-6.36,72.54-13.13,133.6-13.77,11.31-6.67,27.88-18.23,37.52-29C523.47,695.09,444.53,697.53,379.79,712Z"/><path class="cls-1" d="M278.11,786.05c-151.29-34.57-264.17-170-264.17-331.73C13.94,266.38,166.29,114,354.23,114c2.18,0,4.36,0,6.54.08,1.34-4.38,2.78-9,4.3-13.85q-5.4-.17-10.84-.17C158.59,100.09,0,258.68,0,454.32,0,624.11,119.47,766,278.93,800.52Z"/><path class="cls-1" d="M469.34,119.22l-3.64,13.51c133.18,46.16,228.81,172.7,228.81,321.59,0,178.13-136.88,324.27-311.2,339,.17,4.41.39,9.2.62,14,181.73-15.09,324.52-167.36,324.52-353C708.45,299,608.46,167,469.34,119.22Z"/><path class="cls-1" d="M440,394.37c-85.19-5.1-157.45-8.74-229.87-8.62l-3.75,17.7,92.78,63v19.78s41.29-15.41,83.65,7.54l4.13-23.36,103,2.16,2.05-11.3ZM388.55,455s-.67-20.46-10-23.63c0,0-4.23,26.91-4.76,36.93,0,0-32.7-13.72-63.19-4l1-37.2s-10.6,4.33-12.71,22.21l-60.66-42.73s117.57,3.22,187.2,7.44l38.81,43.15Z"/><path class="cls-1" d="M394.13,44.16s11.19-26.47,17.44-32.89c0,0,6.09-13.74,28.81-10.88L459.94,3.3s24.28,1.25,21.37,20.28c0,0-5.37,28.55-6.87,34.9,0,0-10.84-6.38-39.93-12.32C405.8,42.43,394.13,44.16,394.13,44.16Z"/><path class="cls-1" d="M394.13,53.18s36.09-6.33,77.76,13.71c-23.21,76-62.77,239-73.37,313.85,0,0-12-4.67-8.39-22.16,10-64.35,48.71-226.28,67.35-289,0,0-27.79,19.51-39.39,20.57a256.91,256.91,0,0,1-19.52-27.43s-67.52,236.31-73.85,308c0,0-9.2,2.64-8-20C323.14,296.87,376.42,94.85,394.13,53.18Z"/><path class="cls-1" d="M384.31,117.77s15.1-15.55,35-24.4a82.5,82.5,0,0,1,22.5,29.37s-17.93,18.45-39.74,26.65C402.08,149.39,389.45,136.51,384.31,117.77Z"/><path class="cls-1" d="M367.51,179.48s15.1-15.55,35-24.39A82.51,82.51,0,0,1,425,184.46s-17.93,18.45-39.75,26.65C385.27,211.11,372.65,198.22,367.51,179.48Z"/><path class="cls-1" d="M350.18,248.16s15.09-15.55,35-24.39a82.51,82.51,0,0,1,22.5,29.37s-17.94,18.45-39.75,26.65C367.94,279.79,355.31,266.91,350.18,248.16Z"/><path class="cls-1" d="M333.05,321.22S349,304.8,370,295.46a87.2,87.2,0,0,1,23.77,31s-18.95,19.49-42,28.15C351.82,354.63,338.48,341,333.05,321.22Z"/><path class="cls-1" d="M422.57,964.12s-2.37-37.19,4.35-53c0,0-29.67,22.95-28.09,53Z"/><path class="cls-1" d="M385.59,964.12s11.72-75.39,29.86-118.7a3.43,3.43,0,0,0-5.72-3.63c-19.71,22-51.78,64.07-71,122.33Z"/><path class="cls-1" d="M316.64,964.12s7-16.61,11-26.5c0,0-29.69-22.87-67.14-55.46a2.86,2.86,0,0,0-4.6,3.19c7.91,18,22.69,49.08,36.53,63.74C292.42,949.09,303.29,964.12,316.64,964.12Z"/><path class="cls-1" d="M277,964.12s-27.68-25.76-38.76-41.36c0,0,.79,21.58,8.7,41.36Z"/><path class="cls-1" d="M333.05,922.76l-36.28-34.59c-7-92.31-11.61-279.57,2.37-387.3,11.47-6.7,23.74-7.1,34.82-6.25,0,0-7.52,15.74,1.18,28,7.06,9.94,8.59,17.41-.39,30.85,0,0-13.45,15.79,3.95,34.82,12.41,13.56,13.53,29.48,4,44.54,0,0-11.8,15.06-1.65,35.11,8.77,17.3,6,28.2-6,45.74-5.72,8.38-17.7,26.84.49,45.63C352,777.4,352,794.2,338.05,817.75c-14.72,24.81-1,47.4-1,47.4S363.43,902.37,333.05,922.76Z"/><path class="cls-1" d="M365.07,499.1s14.78,3,13.15,11.66c0,0-22.92,236.72-1,341L367,866.15C346.89,793.6,360.39,551.53,365.07,499.1Z"/></g></g></svg>