<svg xmlns="http://www.w3.org/2000/svg" viewBox="0 0 831.23 941.6"><defs><style>.cls-1{fill:#fff;}</style></defs><g id="Layer_2" data-name="Layer 2"><g id="_1" data-name="1"><path class="cls-1" d="M428.07,85.79s3.26-23.44-9.62-34.3A13,13,0,0,1,416.85,33c8.36-9.61,23.83-22.47,51.33-32.24,0,0,24.27-7.56,24.11,24.48-.09,16.55-.37,787-.05,909.42a6.89,6.89,0,0,1-11.68,5l-57.74-53.85a16.19,16.19,0,0,1-3.07-19.11c3-5.77,7.7-14.11,7.13-24.89Z"/><path class="cls-1" d="M748.51,411S545.57,443.76,453,440.65c-105.64-3.57-203.39,14.24-203.39,14.24C154,463.19,59.34,454.7,0,464.19l34.9,24.16a44.48,44.48,0,0,0,29.58,7.7L110,491.68,79.14,503.55S78,519,106.44,515.41L72,522.54c7.79,12.62,26.11,17.8,32.05,26.11,0,0,223.12-67.65,506.77-58.16l176.83,11.87s54.59,5.93,41.54-52.22C819.71,408.6,779.36,361.13,748.51,411Z"/><path class="cls-1" d="M453,224.65S296.33,230.58,324.81,316c0,0,11.48,43.91,90.09,5.93,38.1-15,89.91-3.95,120.77,67.64,0,0,54.59,170.52-125.22,187.72,0,0-72.58,2-104.63-106.52l-16.61-1.68S283,393.85,318.51,322c0,0-20.47,12.93-48.29,79.52V377.74s-9.49,7.13-13.06,23.74c0,0-4.06-11.88-4.54-37.26a2.13,2.13,0,0,0-4.1-.77c-9.35,22.86-29,88.38,4.46,178.89,0,0,19.61,62.09,60,91.76,0,0,32.59,32.85,66.32,28.11l-13.71,3.93s47.87,17.8,98.51,6.33S546,635.28,593.43,592.56c0,0-26.11,37.18-45.1,64.09,0,0,39.56-29.28,57-41.15,0,0,28.48-32.44,36.39-62.5,0,0,25.44-94.92,9.44-173a56.33,56.33,0,0,0-16.36-29.53c-9.88-9.4-24-23.87-33.43-38,0,0,18.1,13.56,43.25,42.72C644.59,355.19,601.63,238.62,453,224.65Z"/></g></g></svg>