<svg xmlns="http://www.w3.org/2000/svg" viewBox="0 0 847.16 958.95"><defs><style>.cls-1{fill:#fff;}</style></defs><g id="Layer_2" data-name="Layer 2"><g id="_1" data-name="1"><polygon class="cls-1" points="496.85 0 847.16 435.17 554.63 595.24 813.36 958.95 563.38 776.97 414.09 829.19 458.11 952.62 291.17 792.79 433.73 677.27 291.17 560.18 496.85 414.59 414.09 340.22 153.5 533.27 286.48 696.93 0 531.69 292.75 224.7 51.69 0 165.77 0 397.44 225.7 137.67 496.88 443.08 265.85 628.22 446.24 414.09 583.91 537.44 688.19 441.5 759.56 563.38 710.5 674.11 800.7 504.64 578.58 776.48 419.34 433.73 0 496.85 0"/><polygon class="cls-1" points="384.53 0 726.56 392.44 678.86 420.92 266.54 0 384.53 0"/></g></g></svg>