<svg xmlns="http://www.w3.org/2000/svg" viewBox="0 0 953.51 728.34"><defs><style>.cls-1{fill:#fff;}</style></defs><g id="Layer_2" data-name="Layer 2"><g id="_1" data-name="1"><path class="cls-1" d="M244.93,20.6s-34.62-4.64-70.88,12A69.18,69.18,0,0,0,141.52,64C118.21,109.28,71.84,228.38,181,293.09a32.16,32.16,0,0,0,29.47,1.7c14.7-6.55,41.14-16.74,65.17-18.23,0,0,27.48,1.58,28.67,30.07,0,0,2.37,27.48-19,31,0,0-45.1-8.89-78.44,6.49-6.44,3-13.15,5.33-20.23,5.53l-5.62.16a50.53,50.53,0,0,1-33.34-11.37c-23.59-19.23-67-59-76.37-98.32,0,0-40.35-107.27,52.22-217.6C123.5,22.56,155.92-26.87,244.93,20.6Z"/><path class="cls-1" d="M286.47,270s28.48,8.18,30.85,35.48c0,0,2.53,22.55-12.93,32.23l34.3,1s28.09-5.14,21.17-46.29c0,0-3.18-28.28-22.17-39.56C337.69,252.82,286.47,252.67,286.47,270Z"/><path class="cls-1" d="M311.39,349.87s-42.72-11-116.31,15.1L218,396.82S284.09,361.06,311.39,349.87Z"/><path class="cls-1" d="M181.44,368.4l24.72,34S104.87,445.59.6,324.39a2.41,2.41,0,0,1,3.06-3.64C34.61,339.22,116.79,382.82,181.44,368.4Z"/><path class="cls-1" d="M304.35,235.42S271.22,221.24,254,208.2a30.74,30.74,0,0,1-9.83-12.72c-4.51-10.9-12.31-34.44-11.68-65.78a2.93,2.93,0,0,1,5.49-1.36c8.42,15.33,25.24,44.59,32.23,46.59,0,0,29.27,22.51,72.79,31.21C343,206.14,318.51,218.8,304.35,235.42Z"/><path class="cls-1" d="M476.75,628.65c-4.35,0-6.18,10.09-6.9,16.41a30,30,0,0,1-2.7,9.46,119.13,119.13,0,0,0-7,18.44c-4.75-14.25-20.78-33.24-20.78-33.24-4.19-15.69,1.06-33.12,5.09-43.12a28.94,28.94,0,0,1,8.78-11.81c20.78-16.56,23.52-44,23.52-44V155.5c-9.49,1.59-17.4,14.25-17.4,14.25-14.25,15-34.23,19-34.23,19-72,24.52-87.08,61.13-87.08,61.13,46.14,24.69,26.36,78.91,26.36,78.91,17.11.68,24-19.94,25.59-25.52a1.38,1.38,0,0,1,1.75-.95,1.4,1.4,0,0,1,1,1.55,81.42,81.42,0,0,1-14.85,34.81c-16.89,23.34-54.14,11.2-54.14,11.2a7.52,7.52,0,0,0,2.49,7.8c9,7.49,6.55,14.52,6.55,14.52-13.45,44.41-2.37,64.19-2.37,64.19a98.41,98.41,0,0,0-1,18A32.39,32.39,0,0,0,333.59,469l9.51,16.74A12.57,12.57,0,0,0,354.64,492c28.66-1.4,39,5,42.32,8.2a4,4,0,0,0,6.87-2.45,40.66,40.66,0,0,0-.88-11.54,14.74,14.74,0,0,0-12.3-11.67,143.63,143.63,0,0,1-22.69-5,29,29,0,0,1-18.78-19.14,58.57,58.57,0,0,0-6.14-14c9.49,0,9.49-25.52,9.49-25.52.79-17,11.87-14,11.87-14,53.8,6.33,54.6,66.46,54.6,66.46,1.58,11.08-2.38,64.09-2.38,64.09,15.83,13.45,34-11.87,34-11.87-16.61,45.1-53.8,20.58-53.8,20.58-26.11-10.29-35.88-1.59-35.88-1.59V563l8.14,2.79c28.27-16,36.18-2.79,40.8,8.28-5.79,29.53-5.79,29.53-2,69.21,17.05,24.85,54.61,78,68.85,85.08Zm-27.7-136c-4.5-2.93-12.67-11.66,1.28-32.17a3,3,0,0,1,5.54,1.55c.42,9.14.52,23.4-2.41,29.39A3.05,3.05,0,0,1,449.05,492.62Z"/><path class="cls-1" d="M708.58,20.6s34.61-4.64,70.88,12A69.18,69.18,0,0,1,812,64c23.31,45.32,69.68,164.42-39.44,229.13a32.16,32.16,0,0,1-29.47,1.7c-14.71-6.55-41.14-16.74-65.17-18.23,0,0-27.49,1.58-28.67,30.07,0,0-2.38,27.48,19,31,0,0,45.09-8.89,78.44,6.49,6.44,3,13.14,5.33,20.23,5.53l5.62.16a50.51,50.51,0,0,0,33.33-11.37c23.6-19.23,67-59,76.38-98.32,0,0,40.35-107.27-52.22-217.6C830,22.56,797.59-26.87,708.58,20.6Z"/><path class="cls-1" d="M667,270s-28.48,8.18-30.86,35.48c0,0-2.52,22.55,12.94,32.23l-34.3,1s-28.09-5.14-21.18-46.29c0,0,3.19-28.28,22.18-39.56C615.82,252.82,667,252.67,667,270Z"/><path class="cls-1" d="M642.12,349.87s42.72-11,116.3,15.1l-22.94,31.85S669.41,361.06,642.12,349.87Z"/><path class="cls-1" d="M772.07,368.4l-24.72,34s101.29,43.23,205.55-78a2.41,2.41,0,0,0-3-3.64C918.9,339.22,836.72,382.82,772.07,368.4Z"/><path class="cls-1" d="M649.16,235.42s33.13-14.18,50.31-27.22a30.71,30.71,0,0,0,9.82-12.72C713.81,184.58,721.6,161,721,129.7a2.93,2.93,0,0,0-5.49-1.36c-8.41,15.33-25.24,44.59-32.22,46.59,0,0-29.28,22.51-72.79,31.21C610.47,206.14,635,218.8,649.16,235.42Z"/><path class="cls-1" d="M476.75,628.65c4.36,0,6.19,10.09,6.91,16.41a29.75,29.75,0,0,0,2.7,9.46,120.4,120.4,0,0,1,7,18.44c4.75-14.25,20.78-33.24,20.78-33.24,4.18-15.69-1.06-33.12-5.1-43.12a28.83,28.83,0,0,0-8.77-11.81c-20.79-16.56-23.53-44-23.53-44V155.5c9.5,1.59,17.41,14.25,17.41,14.25,14.24,15,34.23,19,34.23,19,72,24.52,87.08,61.13,87.08,61.13-46.15,24.69-26.36,78.91-26.36,78.91-17.11.68-24-19.94-25.59-25.52a1.38,1.38,0,0,0-1.75-.95,1.4,1.4,0,0,0-1,1.55,81.48,81.48,0,0,0,14.84,34.81c16.9,23.34,54.14,11.2,54.14,11.2a7.5,7.5,0,0,1-2.49,7.8c-8.95,7.49-6.55,14.52-6.55,14.52,13.45,44.41,2.38,64.19,2.38,64.19a98.41,98.41,0,0,1,1,18,32.27,32.27,0,0,1-4.2,14.59l-9.5,16.74A12.58,12.58,0,0,1,598.86,492c-28.66-1.4-39,5-42.31,8.2a4.09,4.09,0,0,1-3.06,1.18,4,4,0,0,1-3.82-3.63,40.67,40.67,0,0,1,.89-11.54,14.74,14.74,0,0,1,12.3-11.67,143.63,143.63,0,0,0,22.69-5,29,29,0,0,0,18.78-19.14,58.57,58.57,0,0,1,6.14-14c-9.5,0-9.5-25.52-9.5-25.52-.79-17-11.86-14-11.86-14-53.81,6.33-54.6,66.46-54.6,66.46-1.58,11.08,2.38,64.09,2.38,64.09-15.83,13.45-34-11.87-34-11.87,16.62,45.1,53.81,20.58,53.81,20.58,26.11-10.29,35.88-1.59,35.88-1.59V563l-8.15,2.79c-28.26-16-36.17-2.79-40.79,8.28,5.79,29.53,5.79,29.53,2,69.21-17.05,24.85-54.61,78-68.86,85.08Zm27.71-136c4.49-2.93,12.67-11.66-1.28-32.17a3,3,0,0,0-5.55,1.55c-.41,9.14-.51,23.4,2.42,29.39A3,3,0,0,0,504.46,492.62Z"/></g></g></svg>