<svg xmlns="http://www.w3.org/2000/svg" viewBox="0 0 969.11 927.82"><defs><style>.cls-1{fill:#fff;}</style></defs><g id="Layer_2" data-name="Layer 2"><g id="_1" data-name="1"><path class="cls-1" d="M484.91,14.76,460,.52s-62.72-4.37-88.83,12.24c0,0-9.68,17.24-10.87,65.9,0,0,68.84-52.45,124.62-53.24Z"/><path class="cls-1" d="M349.61,16S280.13,47.53,248.25,68.06a62.76,62.76,0,0,0-8.7,6.79c-13.65,12.66-70.53,61.3-176,99.07,0,0,31.52,57.08,199.9-33.44a5.6,5.6,0,0,1,7.13,1.58h0a5.58,5.58,0,0,1-.77,7.56C256.8,161.08,210.55,197,136,204.26c0,0-60.53,2.1-81.89,23.79,0,0,24.92,22.66,97.31,7.62,0,0,73.59-16.78,136.49-89.57,0,0,33.75-41.49,57.71-58.94C345.61,87.16,342.49,63.42,349.61,16Z"/><path class="cls-1" d="M484.91,39.33S431.5,43.25,378.1,100.21c0,0-37,45.89-80.27,89.2L300,236.67s30.6-26.63,49.48-47.5a1,1,0,0,1,1.62,1.23c-11,17.18-41.18,59.62-61.15,79,0,0-34,23.11-19.8,57.52,0,0,29.67-10.49,73.2-86.06C384,160.74,456.42,74.66,484.91,74.66"/><path class="cls-1" d="M282,204.26l4.75,46.3s-58.15,33.63-34.42,90c0,0-182.77,114.52-250.41,222.52,0,0-9.5-30.42,14.24-78.11,0,0,14.24-31.08,48.66-57.19,0,0,68.83-55.78,86.63-79.51,0,0-78.33,38-103.25,72.39,0,0,9.5-27.29,40.35-55.78,0,0-61.71,47.87-79.51,75.56,0,0,0-59.75,93.75-124C102.75,316.4,222.15,244.25,282,204.26Z"/><path class="cls-1" d="M484.91,86S416.07,146.1,384.84,228.05c0,0-20.14,54.14-50.66,98.84,0,0,24.93,47.85,75.37,40.73,0,0,17.2-151.1,75.36-267.41Z"/><path class="cls-1" d="M322.32,340.55s21.36,46.48,78.32,43.11c0,0-42.72,38.18-78.32,69S266.61,512,266.61,512s-23.81-3.56-17.88-19c0,0,5.94-29.67,5.94-77.15l-9.82-9.09a6.13,6.13,0,0,1,.66-9.54C261,386.48,301.49,358.07,322.32,340.55Z"/><path class="cls-1" d="M220.13,420.29S110.37,482.09,45,588.46a1.13,1.13,0,0,0,.23,1.46c2.2,1.78,10.76,5,39.68-11.42C38.67,647.33,42.23,702.59,26.86,760.65c-1.54,5.83,5.85,10,10.57,6.26,17.13-13.56,49.41-42.62,86.24-93.34a38.87,38.87,0,0,0,6.61-15.18c4.35-21.74,19.77-82.32,60.3-108.38,0,0-63.59,87.83-47.22,170.91,0,0,46.2-108,99.52-185.15,0,0-19.07-9.49-27.38-16.61C215.5,519.16,214.19,463.92,220.13,420.29Z"/><path class="cls-1" d="M484.91,506.87V151.25s-38,99.31-40.35,175.64c0,0,3.56,48.66-27.3,81.89l-36.79,33.65v58.44l59.34-50.55v31.42A21.29,21.29,0,0,1,432,498.25l-53.14,43.33a8.34,8.34,0,0,0-3.07,6.46v5.54h40.68a7.55,7.55,0,0,1,7.38,5.95c4.76,22.08,23.65,100.11,61.09,143.06V626C445.74,531,484.91,506.87,484.91,506.87Z"/><circle class="cls-1" cx="395.9" cy="597.31" r="21.63"/><path class="cls-1" d="M369.63,634.67c5.11,6.63,23.26,26.81,44.08,9.57a6.86,6.86,0,0,1,9.54.79l6.42,7.37a6.87,6.87,0,0,1-.55,9.59c-8.7,8-27.81,22-44.3,10.27,0,0-17.34-13.4-20.37-35.72a2.52,2.52,0,0,1,1.34-2.55l.18-.1A2.88,2.88,0,0,1,369.63,634.67Z"/><path class="cls-1" d="M379.07,687.58c2.49.73,6.44,1.75,12.1,2.82a2.52,2.52,0,0,1,1.24,4.31,77.71,77.71,0,0,1-8,6.57,2.51,2.51,0,0,1-3.45-.57c-1.66-2.26-4.24-6.26-5.06-10.28A2.5,2.5,0,0,1,379.07,687.58Z"/><path class="cls-1" d="M391.42,749.18c-3.05-5.95-7.78-20.13,4.48-36.57a205.89,205.89,0,0,1,29.45-27.36,10.12,10.12,0,0,1,12.63.42,63.28,63.28,0,0,1,17.26,23.77v20.39a5.35,5.35,0,0,0,5.35,5.35h24.32v22.53c-17.41,0-42.33,2-53.55-14.24-7.77-8.71-15.68-19.78-28.74-7.52a46.5,46.5,0,0,0-8.2,13.13A1.66,1.66,0,0,1,391.42,749.18Z"/><path class="cls-1" d="M484.91,771c-17.41,0-41.54,0-48.5,17.22-4.75,12.38-16.64,16-26.27,3.56a4.25,4.25,0,0,0-4.93-1.35h0a4.26,4.26,0,0,0-2.53,5.06c2,7.38,7.86,23.35,22.1,25.17,0,0,11.63,2.77,22.94-10.64a9.14,9.14,0,0,1,10.14-2.53,68,68,0,0,0,27.05,4.07"/><path class="cls-1" d="M484.91,820.84a78.1,78.1,0,0,1-26.62-3.06,7.39,7.39,0,0,0-6.79,1.41,62.25,62.25,0,0,0-8.38,8.33,16.24,16.24,0,0,0-.44,20.09c8.37,11.16,28.38,28.78,42.23,28.78"/><path class="cls-1" d="M467.5,892.48S429.66,847,395.9,817.84c0,0-41.67-31.39-52.8-85.61-9.56-42-8.67-112.2-22.39-144.19a22.54,22.54,0,0,0-26-13c-18.89,4.5-80.57,46.15-94.68,153.91-3,24.85-15.61,55.44-51.48,71.21,0,0-62.24,26.43-69.12,90.91a9.66,9.66,0,0,0,9.43,11H439.71a9.58,9.58,0,0,1,6.72,2.75c6.79,6.66,24.91,23.1,38.48,23.1V905.14S477.39,904.61,467.5,892.48Zm-355.78-22c9-34.45,52.2-53,52.2-53,30.07-15.73,55.43-35.08,59-83.37,5.74-77.25,51.22-125,71-135.11a7.74,7.74,0,0,1,10.94,4.67c7.08,23.75,8,97.05,15,129,12.18,63.25,53.16,96.58,53.16,96.58,19.94,17.35,35.13,32.8,42.87,41a3.66,3.66,0,0,1-2.66,6.17h-297A4.72,4.72,0,0,1,111.72,870.46Z"/><path class="cls-1" d="M484.2,14.76,509.12.52S571.84-3.85,598,12.76c0,0,9.68,17.24,10.87,65.9,0,0-68.84-52.45-124.62-53.24Z"/><path class="cls-1" d="M619.5,16S689,47.53,720.86,68.06a62.76,62.76,0,0,1,8.7,6.79c13.65,12.66,70.53,61.3,176,99.07,0,0-31.52,57.08-199.9-33.44a5.6,5.6,0,0,0-7.13,1.58h0a5.58,5.58,0,0,0,.77,7.56c13,11.46,59.3,47.35,133.86,54.64,0,0,60.53,2.1,81.89,23.79,0,0-24.92,22.66-97.31,7.62,0,0-73.59-16.78-136.49-89.57,0,0-33.75-41.49-57.71-58.94C623.5,87.16,626.62,63.42,619.5,16Z"/><path class="cls-1" d="M484.2,39.33S537.61,43.25,591,100.21c0,0,37,45.89,80.27,89.2l-2.12,47.26s-30.6-26.63-49.48-47.5a1,1,0,0,0-1.62,1.23c11,17.18,41.18,59.62,61.15,79,0,0,34,23.11,19.8,57.52,0,0-29.67-10.49-73.2-86.06C585.08,160.74,512.68,74.66,484.2,74.66"/><path class="cls-1" d="M687.15,204.26l-4.75,46.3s58.15,33.63,34.42,90c0,0,182.77,114.52,250.41,222.52,0,0,9.5-30.42-14.24-78.11,0,0-14.24-31.08-48.66-57.19,0,0-68.83-55.78-86.63-79.51,0,0,78.33,38,103.25,72.39,0,0-9.5-27.29-40.35-55.78,0,0,61.71,47.87,79.51,75.56,0,0,0-59.75-93.76-124C866.35,316.4,747,244.25,687.15,204.26Z"/><path class="cls-1" d="M484.2,86S553,146.1,584.27,228.05c0,0,20.14,54.14,50.66,98.84,0,0-24.93,47.85-75.37,40.73,0,0-17.21-151.1-75.36-267.41Z"/><path class="cls-1" d="M646.79,340.55S625.43,387,568.46,383.66c0,0,42.73,38.18,78.33,69S702.5,512,702.5,512s23.81-3.56,17.88-19c0,0-5.94-29.67-5.94-77.15l9.82-9.09a6.13,6.13,0,0,0-.66-9.54C708.07,386.48,667.62,358.07,646.79,340.55Z"/><path class="cls-1" d="M749,420.29s109.76,61.8,175.09,168.17a1.13,1.13,0,0,1-.23,1.46c-2.2,1.78-10.76,5-39.68-11.42,46.28,68.83,42.72,124.09,58.09,182.15,1.54,5.83-5.85,10-10.57,6.26-17.13-13.56-49.41-42.62-86.24-93.34a38.73,38.73,0,0,1-6.61-15.18c-4.35-21.74-19.77-82.32-60.3-108.38,0,0,63.59,87.83,47.22,170.91,0,0-46.2-108-99.52-185.15,0,0,19.07-9.49,27.38-16.61C753.61,519.16,754.92,463.92,749,420.29Z"/><path class="cls-1" d="M484.2,506.87V151.25s38,99.31,40.35,175.64c0,0-3.56,48.66,27.3,81.89l36.79,33.65v58.44L529.3,450.32v31.42a21.29,21.29,0,0,0,7.84,16.51l53.14,43.33a8.34,8.34,0,0,1,3.07,6.46v5.54H552.67a7.55,7.55,0,0,0-7.38,5.95c-4.76,22.08-23.65,100.11-61.09,143.06V626C523.36,531,484.2,506.87,484.2,506.87Z"/><circle class="cls-1" cx="573.21" cy="597.31" r="21.63"/><path class="cls-1" d="M599.48,634.67c-5.11,6.63-23.27,26.81-44.08,9.57a6.86,6.86,0,0,0-9.54.79l-6.42,7.37A6.87,6.87,0,0,0,540,662c8.7,8,27.81,22,44.3,10.27,0,0,17.34-13.4,20.37-35.72a2.52,2.52,0,0,0-1.34-2.55l-.18-.1A2.88,2.88,0,0,0,599.48,634.67Z"/><path class="cls-1" d="M590,687.58c-2.49.73-6.44,1.75-12.1,2.82a2.52,2.52,0,0,0-1.24,4.31,76.64,76.64,0,0,0,8,6.57,2.52,2.52,0,0,0,3.45-.57c1.66-2.26,4.24-6.26,5.06-10.28A2.5,2.5,0,0,0,590,687.58Z"/><path class="cls-1" d="M577.69,749.18c3-5.95,7.78-20.13-4.48-36.57a205.89,205.89,0,0,0-29.45-27.36,10.14,10.14,0,0,0-12.64.42,63.38,63.38,0,0,0-17.25,23.77v20.39a5.35,5.35,0,0,1-5.35,5.35H484.2v22.53c17.41,0,42.33,2,53.55-14.24,7.77-8.71,15.68-19.78,28.74-7.52a46.5,46.5,0,0,1,8.2,13.13A1.66,1.66,0,0,0,577.69,749.18Z"/><path class="cls-1" d="M484.2,771c17.41,0,41.54,0,48.5,17.22,4.75,12.38,16.64,16,26.27,3.56a4.24,4.24,0,0,1,4.92-1.35h0a4.25,4.25,0,0,1,2.54,5.06c-2,7.38-7.86,23.35-22.1,25.17,0,0-11.63,2.77-22.94-10.64a9.14,9.14,0,0,0-10.14-2.53,68,68,0,0,1-27.05,4.07"/><path class="cls-1" d="M484.2,820.84a78.1,78.1,0,0,0,26.62-3.06,7.39,7.39,0,0,1,6.79,1.41,62.25,62.25,0,0,1,8.38,8.33,16.24,16.24,0,0,1,.44,20.09c-8.37,11.16-28.38,28.78-42.23,28.78"/><path class="cls-1" d="M501.61,892.48s37.84-45.52,71.6-74.64c0,0,41.67-31.39,52.8-85.61,9.56-42,8.67-112.2,22.39-144.19a22.54,22.54,0,0,1,26-13c18.89,4.5,80.57,46.15,94.68,153.91,3,24.85,15.61,55.44,51.48,71.21,0,0,62.24,26.43,69.12,90.91a9.66,9.66,0,0,1-9.44,11H529.4a9.62,9.62,0,0,0-6.73,2.75c-6.78,6.66-24.9,23.1-38.47,23.1V905.14S491.72,904.61,501.61,892.48Zm355.78-22c-9.06-34.45-52.2-53-52.2-53-30.07-15.73-55.43-35.08-59-83.37-5.74-77.25-51.22-125-71-135.11a7.74,7.74,0,0,0-10.94,4.67c-7.08,23.75-8,97.05-15,129-12.18,63.25-53.16,96.58-53.16,96.58-19.94,17.35-35.13,32.8-42.87,41a3.66,3.66,0,0,0,2.66,6.17h297A4.73,4.73,0,0,0,857.39,870.46Z"/></g></g></svg>