<svg xmlns="http://www.w3.org/2000/svg" viewBox="0 0 944.75 906.35"><defs><style>.cls-1{fill:#fff;}</style></defs><g id="Layer_2" data-name="Layer 2"><g id="_1" data-name="1"><polygon class="cls-1" points="775.02 370.94 609.27 362.61 609.27 306.77 572.53 362.61 557.05 250.06 526.57 330.26 493.74 268.79 491.5 328.26 401.96 239.88 405.93 283.03 65.71 67.03 0 0 347.46 191.25 335.93 128.12 449.47 239.88 427.33 77.32 515.87 239.88 564.18 0 609.27 237.88 666.04 188.97 655.21 296.27 775.02 370.94"/><path class="cls-1" d="M149.16,148.73l369.71,230.2s-28.28,12.5-70.4,49.91Z"/><path class="cls-1" d="M425.3,518.18S406.73,541,413.85,565.49L432,621.67s7.92-40.35,100.49-117.1c0,0,81.49-69.63,131.34-88.62,0,0-60.13-42.72-115.52-6.33C548.35,409.62,480.68,444.6,425.3,518.18Z"/><polygon class="cls-1" points="397.76 703.95 360.31 533.05 324.97 548.88 352.4 501.3 275.38 504.04 333.02 463.37 278.27 441.15 324.26 431.46 238.97 356.48 275.91 357.4 65.71 67.03 0 0 198.79 322.07 152.02 317.72 251.65 408.57 135.08 421.76 259.98 471.34 102.9 575.78 274.33 557.84 249.54 631.69 324.97 588.44 397.76 703.95"/><path class="cls-1" d="M149.16,148.73,397.93,492.3s7.61-23.86,50.54-63.46Z"/><path class="cls-1" d="M749.32,575.54C699.89,601.62,608.48,556,608.48,556c-58.81-28.22-.88-69.05-.88-69.05,77.63-58.11,127.48-32.23,127.48-32.23,19.78,7.92,67.25,38,67.25,38C829.76,508.3,815,523.56,815,523.56S789.28,554.45,749.32,575.54Z"/><path class="cls-1" d="M567.34,574.07s26.9,16.74,59.34,23.86l-59.34,21.36Z"/><path class="cls-1" d="M542,546.5s-10.28,189.1,0,223.12c0,0-41.14-59.34-58.17-104.23a69.07,69.07,0,0,1,8.33-68.71S515.91,567.87,542,546.5Z"/><path class="cls-1" d="M842.39,540.77c-16.57,15.94-48.34,46.94-63.58,64.89a33.44,33.44,0,0,0-7.89,20.07c-.74,15.42-1.71,43.08.55,48.16,0,0,6.51,39.56,40,17.4l86.55-65.67s24.52-19,0-47.47L863,541.24A14.54,14.54,0,0,0,842.39,540.77Z"/><path class="cls-1" d="M831.19,715.06S883,676.89,903,657.9l35.45,33.39s14.24,14.25,0,30.86c0,0-20.16,24.11-32.82,32.81,0,0-9.12,14.66-31.64,0A183.6,183.6,0,0,1,831.19,715.06Z"/><path class="cls-1" d="M739.2,772.62c22.94-7.12,46.51-43.82,46.51-43.82-46.68-10-38-79.44-38-79.44s-23.74-20.57-53.81,8.7c-33.38,32.51-13.45,57-13.45,57S704.55,750.31,739.2,772.62Z"/><path class="cls-1" d="M805.49,728.8s0,32.58-47.47,58.86l23.74,20.73s28.1,27.11,64.88,1c0,0,25.32-20.73,10.28-35.77Z"/><path class="cls-1" d="M716.88,787.66s-32.44-31.55-53-50.9c0,0-21.36-23.38-48.27,0s-7.91,43.94-7.91,43.94,28.6,33.16,46.68,49.85C654.37,830.55,700.54,824.22,716.88,787.66Z"/><path class="cls-1" d="M619.56,830.55s-14.24,26.11-41.93,26.11c-5.94-3.37-15.83-13.06-15.83-13.06s-25.9-23.82,1-42.76c0,0,16.8-13.81,40.31,10.3C603.11,811.14,615.6,825,619.56,830.55Z"/><path class="cls-1" d="M595,872.91s27.39-6,36-30.49l32.86,31.64s17.58,18.08,0,27.37c-18.6,9.82-33.83,2.9-42.31-3C621.56,898.43,602.73,884,595,872.91Z"/><path class="cls-1" d="M730.65,798.9l27.37,24s19,17.67,1.85,33.76C741.5,873.9,717,889.12,691.56,869.32c-17-13.21-24-23.74-24-23.74S714.3,838.57,730.65,798.9Z"/></g></g></svg>