<svg xmlns="http://www.w3.org/2000/svg" viewBox="0 0 970.02 847.05"><defs><style>.cls-1{fill:#fff;}</style></defs><g id="Layer_2" data-name="Layer 2"><g id="_1" data-name="1"><polygon class="cls-1" points="0 0 423.3 223.12 481.06 156.66 463.65 292.75 145.58 128.18 368.7 449.41 224.7 466.81 384.53 557.01 348.03 607.26 481.06 626.64 499.25 744.13 525.36 737.85 540.79 779.27 460.09 803.87 437.54 668.18 241.71 643.25 321.23 569.67 79.12 439.95 279.69 415.38 0 0"/><polygon class="cls-1" points="368.52 263.22 377.01 285.77 239.34 213.63 418.18 469.42 316.67 483.22 427.48 546.93 404.31 586.29 476.7 600.53 479.47 616.09 375.56 600.26 406.93 551.26 274.34 475.31 391.27 459.26 187.78 167.74 368.52 263.22"/><path class="cls-1" d="M957.36,647.21,899.6,604.48,875.08,633s-15,19.78-.79,30.06l4.21,2.53a3.59,3.59,0,0,0,5.21-1.82l.86-1.08a12.83,12.83,0,0,1,17.79-2.35l5.73,4.3a12.84,12.84,0,0,1,2.57,18l-5.52,7.33c-18.2,16.62-38-2.37-38-2.37-35.6-27.69-14.24-61.71-14.24-61.71l18.36-21.18a19.17,19.17,0,0,0-1.92-27l-2.52-2.19a19.18,19.18,0,0,0-25.71.51l-27,25.36-6.33-3.17,27.55-29.3c7.9-8.4,5.5-22.32-5-27.08-12.72-5.78-27.3.21-27.3.21,8.7-16.62-3.5-20.74-3.5-20.74l-52.64-6.16c-8.7-23-5.37-88.78-5.37-88.78,0,11.07,14.83,25.48,14.83,25.48,26.9,28.48,44.72,67.3,44.72,67.3,16.62,19.78,44.68-1.63,44.68-1.63-3.16-5.54-3.95-26.9-3.95-26.9s7.91-52.22-28.49-98.64-100.48-86.5-100.48-86.5C686,290.37,667,251.6,667,251.6l-18.2-3.16c-37.19-118.68-92.36-134.13-92.36-134.13-28.49-15-58.76-47.06-58.76-47.06-24.53,37.19,27.69,91,27.69,91,41.94,43.52,87.83,122.64,87.83,122.64l-4,14.24-21.36-17.41-23,24.53,11.87,14.24c-27.13,1.18-33.81,9.39-35.46,13.5,5.21-26.55-24.67-46.73-24.67-46.73-4.75-27.69,10.28-88.61,10.28-88.61l-18.19-19.78C489,234.2,492.13,304.62,492.13,304.62,508,314.11,504,326,504,326c-30.07-3.17-113.93-51.83-113.93-51.83l49.84,96.14-57-22.55s41.54,91.38,71.21,131.73l-71.21,13.06,71.21,46.28-17.8,34.42L485,585.1,590.24,835.52s5.54,14.24,26.11,11.07l34.81-9.49-106-303,117.1,298.28,19-6.54L553.05,499.25S761.14,640.09,865.58,739.78c0,0,69.63-30.86,91.78-51.43C957.36,688.35,985.85,669.36,957.36,647.21ZM525,456.5a13.1,13.1,0,0,0-10.48,6.05,95.25,95.25,0,0,0-10.22,22.72s-5.81-13.27-2-38.73A9.32,9.32,0,0,1,514.13,439c13.17,3.87,37.28,11.57,58.18,21.6C572.31,460.59,542.31,455.79,525,456.5Zm76.36-96.76s-22.68-35.87,38-32.71C639.3,327,616.09,338.64,601.32,359.74ZM720,496.88l-7.91,15s5.25,10.68,12.17,15.42a2.93,2.93,0,0,1-1.39,5.35c-3.49.16-10.51-3.23-24.58-17.07a10.25,10.25,0,0,1-1.35-13l8-12.05s-1.59-17.41,21.36-102.07C726.33,388.48,713.67,480.26,720,496.88Z"/><path class="cls-1" d="M734.68,804.91a1091.29,1091.29,0,0,0,116.66-58.8C837,731,822.13,717.56,802.53,700.66Z"/><polygon class="cls-1" points="662.72 736.74 695.23 817.66 773.26 711.29 662.72 736.74"/><path class="cls-1" d="M677.43,712.7l113.08-22.58c-24.67-20.82-52.57-43-78.6-62.83Z"/><polygon class="cls-1" points="619.52 629.2 654.52 716.32 693.75 634.7 619.52 629.2"/><path class="cls-1" d="M610.67,606.93l22.9-37.29c-31.45-22.46-52.82-36.95-52.82-36.95l29.82,74.22Z"/><path class="cls-1" d="M644.47,578.45l-18.08,33.77,74.74,8.14.08-.17C681,605,661.59,590.77,644.47,578.45Z"/><circle class="cls-1" cx="780.13" cy="493.09" r="12.88"/></g></g></svg>