<svg xmlns="http://www.w3.org/2000/svg" viewBox="0 0 841.85 817.32"><defs><style>.cls-1{fill:#fff;}</style></defs><g id="Layer_2" data-name="Layer 2"><g id="_1" data-name="1"><polygon class="cls-1" points="420.92 214.42 259.52 61.71 353.67 0 0 0 0 176.44 64.09 132.92 64.09 75.96 197.8 75.96 420.92 288 420.92 214.42"/><polygon class="cls-1" points="420.92 326.77 322.02 415.38 366.33 457.32 420.92 406.68 420.92 326.77"/><polygon class="cls-1" points="405.89 304.62 314.11 388.48 314.11 218.37 405.89 304.62"/><polygon class="cls-1" points="457.9 56.97 518.82 56.97 474.1 97.94 457.9 56.97"/><path class="cls-1" d="M420.92,87v96.53L485,124.22s-20.43-49.85-22.8-74.37H420.92V68h21.93Z"/><path class="cls-1" d="M420.92,68V49.85H365.75c-2.38,24.52-19.41,63.29-19.41,63.29l74.58,70.42V87L396,68Z"/><polygon class="cls-1" points="87.03 95.74 156.13 95.74 156.13 136.88 87.03 185.93 87.03 95.74"/><polygon class="cls-1" points="184.14 95.74 184.14 178.44 223.07 152.7 223.07 132.6 184.14 95.74"/><polygon class="cls-1" points="288.53 414.86 288.53 193.85 248.44 155.87 248.44 797.69 292.22 768.32 292.22 506.11 420.92 629.54 420.92 540.92 288.53 414.86"/><polygon class="cls-1" points="223.07 178.44 223.07 439.12 184.14 467.08 184.14 205.03 223.07 178.44"/><polygon class="cls-1" points="156.13 165.32 156.13 425.94 87.03 474.57 87.03 212.53 156.13 165.32"/><polygon class="cls-1" points="64.1 166.32 64.1 423.94 0 469.57 0 212.53 64.1 166.32"/><polygon class="cls-1" points="156.13 453.94 156.13 755.2 87.03 803.83 87.03 501.15 156.13 453.94"/><polygon class="cls-1" points="223.07 470.84 223.07 768.79 184.14 795.16 184.14 497.44 223.07 470.84"/><polygon class="cls-1" points="362.37 598.42 362.37 774.73 313.22 809.41 313.22 552 362.37 598.42"/><polygon class="cls-1" points="420.92 653.27 420.92 817.32 383.9 783.03 383.9 618.52 420.92 653.27"/><polygon class="cls-1" points="64.1 454.94 64.1 758.2 0 803.83 0 501.15 64.1 454.94"/><polygon class="cls-1" points="420.92 214.42 259.52 61.71 353.67 0 0 0 0 176.44 64.09 132.92 64.09 75.96 197.8 75.96 420.92 288 420.92 214.42"/><polygon class="cls-1" points="420.92 326.77 322.02 415.38 366.33 457.32 420.92 406.68 420.92 326.77"/><polygon class="cls-1" points="405.89 304.62 314.11 388.48 314.11 218.37 405.89 304.62"/><polygon class="cls-1" points="87.03 95.74 156.13 95.74 156.13 136.88 87.03 185.93 87.03 95.74"/><polygon class="cls-1" points="184.14 95.74 184.14 178.44 223.07 152.7 223.07 132.6 184.14 95.74"/><polygon class="cls-1" points="288.53 414.86 288.53 193.85 248.44 155.87 248.44 797.69 292.22 768.32 292.22 506.11 420.92 629.54 420.92 540.92 288.53 414.86"/><polygon class="cls-1" points="223.07 178.44 223.07 439.12 184.14 467.08 184.14 205.03 223.07 178.44"/><polygon class="cls-1" points="156.13 165.32 156.13 425.94 87.03 474.57 87.03 212.53 156.13 165.32"/><polygon class="cls-1" points="64.1 166.32 64.1 423.94 0 469.57 0 212.53 64.1 166.32"/><polygon class="cls-1" points="156.13 453.94 156.13 755.2 87.03 803.83 87.03 501.15 156.13 453.94"/><polygon class="cls-1" points="223.07 470.84 223.07 768.79 184.14 795.16 184.14 497.44 223.07 470.84"/><polygon class="cls-1" points="362.37 598.42 362.37 774.73 313.22 809.41 313.22 552 362.37 598.42"/><polygon class="cls-1" points="420.92 653.27 420.92 817.32 383.9 783.03 383.9 618.52 420.92 653.27"/><polygon class="cls-1" points="64.1 454.94 64.1 758.2 0 803.83 0 501.15 64.1 454.94"/><polygon class="cls-1" points="420.92 214.42 582.33 61.71 488.18 0 841.85 0 841.85 176.44 777.76 132.92 777.76 75.96 644.04 75.96 420.92 288 420.92 214.42"/><polygon class="cls-1" points="420.92 326.77 519.82 415.38 475.52 457.32 420.92 406.68 420.92 326.77"/><polygon class="cls-1" points="435.96 304.62 527.74 388.48 527.74 218.37 435.96 304.62"/><polygon class="cls-1" points="754.81 95.74 685.71 95.74 685.71 136.88 754.81 185.93 754.81 95.74"/><polygon class="cls-1" points="657.7 95.74 657.7 178.44 618.78 152.7 618.78 132.6 657.7 95.74"/><polygon class="cls-1" points="553.32 414.86 553.32 193.85 593.41 155.87 593.41 797.69 549.63 768.32 549.63 506.11 420.92 629.54 420.92 540.92 553.32 414.86"/><polygon class="cls-1" points="618.78 178.44 618.78 439.12 657.7 467.08 657.7 205.03 618.78 178.44"/><polygon class="cls-1" points="685.71 165.32 685.71 425.94 754.81 474.57 754.81 212.53 685.71 165.32"/><polygon class="cls-1" points="777.75 166.32 777.75 423.94 841.85 469.57 841.85 212.53 777.75 166.32"/><polygon class="cls-1" points="685.71 453.94 685.71 755.2 754.81 803.83 754.81 501.15 685.71 453.94"/><polygon class="cls-1" points="618.78 470.84 618.78 768.79 657.7 795.16 657.7 497.44 618.78 470.84"/><polygon class="cls-1" points="479.47 598.42 479.47 774.73 528.63 809.41 528.63 552 479.47 598.42"/><polygon class="cls-1" points="420.92 653.27 420.92 817.32 457.94 783.03 457.94 618.52 420.92 653.27"/><polygon class="cls-1" points="777.75 454.94 777.75 758.2 841.85 803.83 841.85 501.15 777.75 454.94"/></g></g></svg>