<svg xmlns="http://www.w3.org/2000/svg" viewBox="0 0 957.49 826.89"><defs><style>.cls-1{fill:#fff;}</style></defs><g id="Layer_2" data-name="Layer 2"><g id="_1" data-name="1"><path class="cls-1" d="M347.21,335.79a234,234,0,0,1,270.66-4C636.12,317.17,645,311,676.7,290.52a302.29,302.29,0,0,0-387.31,3.87C318.86,313.49,326.67,319.2,347.21,335.79Z"/><path class="cls-1" d="M478.75,397.31V296.64s-46.41,3.74-72.52,43.11c0,0-15.42,25.12-43.91,16.81,0,0,0,45.1-7.12,53.41,0,0-17.8,17.8-39.16,20.17,0,0,24.92,52.22,21.36,64.09,0,0,30.86-22.55,48.66-48.66l-9.5,48.66L348,527.74a13.07,13.07,0,0,0-2.52,4.72c-.73,2.34-3.38,6.68-12.42,12.77a12.28,12.28,0,0,0-4.35,14.1l16.35,40.61a27.59,27.59,0,0,0,12.77,14.12L380.52,626s34-11.08,49.05-20.58l-7.12,23.74L390,652.87C413,682.14,413,682.14,407.42,724.41c0,0,50.87,60.59,71.33,69.29V762.05c-18.32-16.61-30.77-24.32-29.19-67,0,0,5.33-17.62,14.83-21.57,0,0,5.77,20.57,14.36,26.11V526.44s-33.35-2.8-14.36-40.52c0,0-6.1,31.65,14.36,33.23V410.71s-60.78-2.59-27.39-70C451.36,340.75,439.07,397.31,478.75,397.31ZM347.92,465.12l-8.62-19.86s21.14-18.05,32.42-18.87Zm85.17,186c-3.14,5.56-7.73,13.22-11.79,18.17a4.1,4.1,0,0,1-6.8-.63l-3.9-7.2a4.1,4.1,0,0,1,.79-4.93A48.72,48.72,0,0,1,428.86,646,3.54,3.54,0,0,1,433.09,651.11Zm-12.8-76s1.21,21.36-34.4,27.69c-3,.33-25.94,1.26-33.43-25.71,0,0-4.75-16.82,15.82-26.7,24.49-8.3,24.49-15.67,38.35-17,0,0,22.82,1.52,26.92,17A32.56,32.56,0,0,0,420.29,575.12Z"/><path class="cls-1" d="M478.75,397.31V296.64s46.4,3.74,72.51,43.11c0,0,15.43,25.12,43.91,16.81,0,0,0,45.1,7.12,53.41,0,0,17.81,17.8,39.17,20.17,0,0-24.93,52.22-21.36,64.09,0,0-30.86-22.55-48.66-48.66l9.49,48.66,28.55,33.51a13.38,13.38,0,0,1,2.52,4.72c.73,2.34,3.37,6.68,12.42,12.77a12.28,12.28,0,0,1,4.34,14.1l-16.35,40.61a27.55,27.55,0,0,1-12.77,14.12L577,626s-34-11.08-49.05-20.58L535,629.13l32.44,23.74c-23,29.27-23,29.27-17.41,71.54,0,0-50.87,60.59-71.32,69.29V762.05c18.31-16.61,30.76-24.32,29.18-67,0,0-5.33-17.62-14.82-21.57,0,0-5.78,20.57-14.36,26.11V526.44s32.58-2.28,14.36-40.52c0,0,6.09,31.65-14.36,33.23V410.71s59.48.05,27.39-70C506.14,340.75,518.42,397.31,478.75,397.31Zm130.83,67.81,8.62-19.86s-21.15-18.05-32.42-18.87Zm-85.17,186c3.13,5.56,7.72,13.22,11.78,18.17a4.11,4.11,0,0,0,6.81-.63l3.89-7.2a4.09,4.09,0,0,0-.79-4.93A48.75,48.75,0,0,0,528.64,646,3.53,3.53,0,0,0,524.41,651.11Zm12.79-76s-1.2,21.36,34.4,27.69c3,.33,25.95,1.26,33.44-25.71,0,0,4.75-16.82-15.83-26.7-24.48-8.3-24.48-15.67-38.35-17,0,0-22.82,1.52-26.92,17A32.56,32.56,0,0,1,537.2,575.12Z"/><path class="cls-1" d="M955.54,88.86c-2.48,18.07-17.38,23.22-17.38,23.22l-21,7.12-1.56,20-35.92,36a32.51,32.51,0,0,1-18.38,9.13c-56.17,8.21-66.75,46.4-66.75,46.4C785.73,269.1,776.75,283,776.75,283H826.6c10.68-1.19,30.86-15.43,30.86-15.43l51-36.79c-14.24,19-23.17,41.91-23.17,41.91a124.44,124.44,0,0,0-26.68,24c24.3,20.32,68.91,10.92,91.13,4.4a3.07,3.07,0,0,1,2.79,5.32c-28.1,23-58.89,26.45-77.65,25.88a53.5,53.5,0,0,1-25.51-7.53,56.39,56.39,0,0,0-37-7.32c-28.48,8.31-58,6-58,6-77.14,40.27-112.1,91.11-112.1,91.11-36.78-10.5-34.69-23.61-37.78-56.78,10.2-7.19,26.45-19,26.45-19s41.21-35.6,75.77-48.65c21.07-8,22.55-17.8,22.55-17.8,2.24-40.36,21.36-52.22,21.36-52.22-16.61-16.62-58.15-23.17-58.15-23.17-49.77-8.48-42.77-62.43-39.21-79.59a4,4,0,0,1,4.58-3.19,3.9,3.9,0,0,1,3.15,3.69c1.27,41.75,24.36,42.52,24.36,42.52,28.48-.4,36.79-21.15,36.79-21.15a48.52,48.52,0,0,1-8.5,27.48c18.8,0,54.79,16.57,54.79,16.57,21.36-19,73.58-35.56,73.58-35.56,47.74-17,41.54-73.58,41.54-73.58,0-34-37.67-60.14-54.7-70.24A2.08,2.08,0,0,1,830.14,0c97.93,9.46,86.47,86.46,86.47,86.46,18.56,6.76,30.22-22.52,35.6-42.94a2.47,2.47,0,0,1,4.85.5C957.71,57,957.92,74.67,955.54,88.86ZM641.93,394.79l51.21-55c-32,14-68.94,45.25-68.94,45.25S627.87,391.69,641.93,394.79Z"/><path class="cls-1" d="M2,88.86c2.48,18.07,17.38,23.22,17.38,23.22l21,7.12,1.56,20,35.93,36a32.48,32.48,0,0,0,18.38,9.13c56.16,8.21,66.75,46.4,66.75,46.4,8.83,38.34,17.8,52.22,17.8,52.22H130.89C120.21,281.79,100,267.55,100,267.55L49,230.76c14.25,19,23.18,41.91,23.18,41.91a124.23,124.23,0,0,1,26.67,24C74.55,317,29.94,307.56,7.72,301a3.06,3.06,0,0,0-2.78,5.32c28.09,23,58.88,26.45,77.64,25.88a53.54,53.54,0,0,0,25.52-7.53,56.39,56.39,0,0,1,37-7.32c28.48,8.31,58,6,58,6,77.15,40.27,112.1,91.11,112.1,91.11C352,404,349.89,390.92,353,357.75c-10.19-7.19-26.45-19-26.45-19s-41.21-35.6-75.77-48.65c-21.06-8-22.55-17.8-22.55-17.8-2.24-40.36-21.36-52.22-21.36-52.22C223.47,203.46,265,196.91,265,196.91c49.78-8.48,42.77-62.43,39.22-79.59a4,4,0,0,0-4.59-3.19,3.92,3.92,0,0,0-3.15,3.69c-1.27,41.75-24.36,42.52-24.36,42.52-28.48-.4-36.79-21.15-36.79-21.15a48.52,48.52,0,0,0,8.5,27.48c-18.79,0-54.78,16.57-54.78,16.57-21.37-19-73.58-35.56-73.58-35.56-47.74-17-41.54-73.58-41.54-73.58,0-34,37.66-60.14,54.7-70.24A2.08,2.08,0,0,0,127.36,0C29.42,9.47,40.88,86.47,40.88,86.47,22.33,93.23,10.67,64,5.28,43.53A2.46,2.46,0,0,0,.44,44C-.22,57-.43,74.67,2,88.86ZM315.57,394.79l-51.21-55c32,14,68.94,45.25,68.94,45.25S329.62,391.69,315.57,394.79Z"/><path class="cls-1" d="M397.44,741.44c-85.63-34.75-146-118.74-146-216.84a232.81,232.81,0,0,1,34.44-122.22c-11.1-12.2-30.53-31.88-51.83-45.84A300.9,300.9,0,0,0,183,524.6c0,161.33,126.37,293.14,285.53,301.86C447,810.15,416.68,769.2,397.44,741.44Z"/><path class="cls-1" d="M733.55,351.94c-20.5,11.8-40,30.1-53,43.68a232.87,232.87,0,0,1,38.75,129c0,104.73-68.82,193.38-163.7,223.21-19.42,27.58-47.2,64.25-67.25,79.08C654,825.28,787.7,690.57,787.7,524.6A300.9,300.9,0,0,0,733.55,351.94Z"/></g></g></svg>