<svg xmlns="http://www.w3.org/2000/svg" viewBox="0 0 960.53 576"><defs><style>.cls-1{fill:#fff;}</style></defs><g id="Layer_2" data-name="Layer 2"><g id="_1" data-name="1"><polygon class="cls-1" points="480.26 0 480.26 66 87.03 533.11 480.26 533.11 480.26 576 0 576 480.26 0"/><polygon class="cls-1" points="480.26 515.94 131.34 515.94 313.32 295.91 369.49 365.7 423.67 301.57 480.26 368.7 480.26 515.94"/><polygon class="cls-1" points="327.75 278.88 370.49 330.17 408.64 282.88 367.69 230.87 327.75 278.88"/><polygon class="cls-1" points="480.26 330.17 384.53 210.46 480.26 96.77 480.26 330.17"/><polyline class="cls-1" points="960.53 576 480.26 0 480.26 66 873.5 533.11"/><polyline class="cls-1" points="873.5 533.11 480.26 533.11 480.26 576 960.53 576"/><polyline class="cls-1" points="829.19 515.94 647.21 295.91 591.04 365.7 536.86 301.57 480.26 368.7 480.26 515.94 829.19 515.94"/><polygon class="cls-1" points="632.78 278.88 590.04 330.17 551.89 282.88 592.84 230.87 632.78 278.88"/><polygon class="cls-1" points="480.26 330.17 576 210.46 480.26 96.77 480.26 330.17"/></g></g></svg>