<svg xmlns="http://www.w3.org/2000/svg" viewBox="0 0 963.82 963.27"><defs><style>.cls-1{fill:#fff;}</style></defs><g id="Layer_2" data-name="Layer 2"><g id="_1" data-name="1"><path class="cls-1" d="M481.91,256.14c-124.54,0-225.49,101-225.49,225.5S357.37,707.13,481.91,707.13s225.5-101,225.5-225.49S606.45,256.14,481.91,256.14Zm0,9.87a16,16,0,1,1-16,16A16,16,0,0,1,481.91,266Zm-199,232.09a16,16,0,1,1,16-16A16,16,0,0,1,282.86,498.1Zm199.05,199a16,16,0,1,1,16-16A16,16,0,0,1,481.91,697.15Zm0-42A173.52,173.52,0,1,1,655.43,481.64,173.51,173.51,0,0,1,481.91,655.15ZM681,498.1a16,16,0,1,1,16-16A16,16,0,0,1,681,498.1Z"/><path class="cls-1" d="M481.91,0S446,205.71,424.4,232.62c0,0,22.7-6.92,57.51-6.92s57.51,6.92,57.51,6.92C517.81,205.71,481.91,0,481.91,0Z"/><path class="cls-1" d="M0,481.64s205.71,35.9,232.62,57.51c0,0-6.92-22.7-6.92-57.51s6.92-57.51,6.92-57.51C205.71,445.74,0,481.64,0,481.64Z"/><path class="cls-1" d="M481.91,963.27s35.9-205.71,57.51-232.61c0,0-22.69,6.91-57.51,6.91s-57.51-6.91-57.51-6.91C446,757.56,481.91,963.27,481.91,963.27Z"/><path class="cls-1" d="M963.82,481.64s-205.71-35.9-232.61-57.51c0,0,6.91,22.69,6.91,57.51s-6.91,57.51-6.91,57.51C758.11,517.54,963.82,481.64,963.82,481.64Z"/><path class="cls-1" d="M606.92,524.21c-30.65-34.16-28.48-74.55-28.48-74.55s24,51.47,22.15-25.53c-1.74-70.69-95.73-78.91-118.68-78.91v180s23.82,5.14,27.9,49.58a3.48,3.48,0,0,1-5.94,2.77c-4.28-4.29-11.15-8.23-22-8.23v65.51c48.27,0,53.8-23,53.8-23-6.33-12.66,3.71-29.28,3.71-29.28,10.83,6.33,25.57,0,25.57,0,16.61-7.91,35.6-26.11,35.6-26.11A28.45,28.45,0,0,0,606.92,524.21Zm-60.55,34.22c-17.4,4.75-32-30.44-32-30.44,7.91-2.37,35.21-22.95,35.21-22.95,24.92-19.78,35.21,12.66,35.21,12.66C578.44,546.19,546.37,558.43,546.37,558.43Z"/><path class="cls-1" d="M481.91,525.22v-180c-22.94,0-116.93,8.22-118.68,78.91-1.9,77,22.15,25.53,22.15,25.53s2.17,40.39-28.48,74.55a28.47,28.47,0,0,0,6.33,32.26s19,18.2,35.6,26.11c0,0,14.74,6.33,25.57,0,0,0,10,16.62,3.71,29.28,0,0,5.54,23,53.8,23V569.34c-10.81,0-17.68,3.94-22,8.23A3.47,3.47,0,0,1,454,574.8C458.09,530.36,481.91,525.22,481.91,525.22Zm-64.46,33.21s-32.07-12.24-38.39-40.73c0,0,10.28-32.44,35.2-12.66,0,0,27.3,20.58,35.21,22.95C449.47,528,434.86,563.18,417.45,558.43Z"/><path class="cls-1" d="M343.5,697.15H266.84V620.74a254.82,254.82,0,0,1-29.9-64.18c-13.7-9.61-52.58-21.19-98.24-32.35,19.27,157,143.73,281.41,300.72,300.65-11.07-45.34-22.56-84.06-32.14-98.16A254.78,254.78,0,0,1,343.5,697.15Z"/><path class="cls-1" d="M726.87,556.61A254.62,254.62,0,0,1,697,620.74v76.41H620.32a254.62,254.62,0,0,1-63.78,29.55c-9.57,14.1-21.07,52.82-32.14,98.16,157-19.24,281.45-143.66,300.72-300.64C779.41,535.4,740.5,547,726.87,556.61Z"/><path class="cls-1" d="M266.84,267h75.29a254.77,254.77,0,0,1,64.61-30.27c9.64-13.35,21.3-52.38,32.53-98.31C282.35,157.73,158,282.14,138.7,439.06c45.66-11.16,84.55-22.74,98.24-32.35a254.92,254.92,0,0,1,29.9-64.17Z"/><path class="cls-1" d="M524.56,138.43c11.23,45.93,22.89,85,32.52,98.31A254.77,254.77,0,0,1,621.69,267H697v75.52a254.69,254.69,0,0,1,29.89,64.14c13.63,9.61,52.54,21.21,98.25,32.38C805.85,282.13,681.47,157.73,524.56,138.43Z"/></g></g></svg>