<svg xmlns="http://www.w3.org/2000/svg" viewBox="0 0 949.45 949.45"><defs><style>.cls-1{fill:#fff;}</style></defs><g id="Layer_2" data-name="Layer 2"><g id="_1" data-name="1"><path class="cls-1" d="M448.74,437C497.12,227.11,325.14,98.31,285.49,84.91l-.08-.17s0,.09-.05.13l-.13-.05.08.18c-4.66,12.52-10.26,44-9.47,84.2-35.58-19.89-66.54-29.12-80.4-29.78l-.12-.14a.61.61,0,0,0,0,.14h-.14l.13.14c-.94,11.95,1.31,39,9.95,72.54-33.11-8.15-59.79-9.5-71.87-7.47l-.15-.11a.59.59,0,0,0,0,.13l-.14,0,.16.11c1.81,13.26,11.76,43.67,31.47,78.67-40.75-.69-72.39,5.82-84.91,11.79l-.18-.07.06.13-.13.06.18.06C96.8,334.18,237.9,520,445.83,447.75Zm-33.07-34.41a308.22,308.22,0,0,0-65.22-61.33,425.63,425.63,0,0,1-25.38-47.51C369,330.3,398.09,371.76,415.67,402.57ZM310.17,256.7a398.76,398.76,0,0,1-15.25-56.22c74.84,56.38,111.06,131.8,128.34,184C395.51,325.26,353.71,284.39,310.17,256.7Zm.39,61.06a321.36,321.36,0,0,0-44.32-17.82,400.61,400.61,0,0,1-35.73-62.82,350.77,350.77,0,0,1,60.66,31.59A312,312,0,0,0,310.56,317.76Zm20.76,35.09a273,273,0,0,0,70.16,69.64c-37.49-17.11-78.1-50.74-112.6-92.58A378.42,378.42,0,0,1,331.32,352.85Zm51.14,77.61C320.59,413,246.69,364,196.36,302A343.17,343.17,0,0,1,247.84,314C276.42,360.88,319.28,405.2,382.46,430.46ZM292.55,100c124.15,92.51,146.2,222.18,148,292.9-19.65-108-88.32-176.29-149.15-214.43C288.05,151.49,288.11,124.88,292.55,100Zm-86.18,52a360.79,360.79,0,0,1,70.27,35.67,377,377,0,0,0,7.57,54.15,359.41,359.41,0,0,0-62.13-25.09C214.05,195.16,208.55,173.36,206.37,152Zm-59.65,62.59a373.69,373.69,0,0,1,63.49,15.11,384.44,384.44,0,0,0,25.09,62,359.58,359.58,0,0,0-52.45-7.44C167.13,262.07,154.59,238.59,146.72,214.54ZM95.38,301.11a359.85,359.85,0,0,1,78.79-1.81c40.24,64.13,112.09,136.85,224.68,147.6C306.87,454.7,158.56,394.58,95.38,301.11Z"/><path class="cls-1" d="M474.73,0C212.54,0,0,212.54,0,474.73S212.54,949.45,474.73,949.45,949.45,736.91,949.45,474.73,736.91,0,474.73,0Zm0,921C228.27,921,28.48,721.18,28.48,474.73S228.27,28.48,474.73,28.48,921,228.27,921,474.73,721.18,921,474.73,921Z"/><path class="cls-1" d="M74.58,481.73h0c26.78-13.06,360.57-6.75,382.54-22h0c12.34-19,4.56-358.76,17.61-385.53V481.73Z"/><path class="cls-1" d="M500.72,524.61C452.34,734.48,624.32,863.29,664,876.68l.08.17a.5.5,0,0,0,.05-.13l.13,0-.08-.17c4.67-12.53,10.27-44,9.47-84.2,35.59,19.88,66.54,29.11,80.4,29.77l.12.15a.71.71,0,0,0,0-.14h.14l-.13-.15c.94-11.94-1.31-39-9.95-72.54C777.32,757.65,804,759,816.08,757l.15.12a.59.59,0,0,0,0-.14l.14,0-.16-.11c-1.81-13.27-11.76-43.68-31.47-78.67,40.76.68,72.39-5.82,84.91-11.8l.18.07-.06-.13.13,0-.18-.07c-17-38.76-158.14-224.55-366.07-152.33ZM533.79,559A308.27,308.27,0,0,0,599,620.36a424.6,424.6,0,0,1,25.38,47.5C580.45,631.3,551.37,589.83,533.79,559ZM639.29,704.9a398.39,398.39,0,0,1,15.25,56.22c-74.84-56.39-111.06-131.81-128.34-184C554,636.33,595.75,677.21,639.29,704.9Zm-.39-61.06a323.89,323.89,0,0,0,44.32,17.82A400.16,400.16,0,0,1,719,724.48a351.47,351.47,0,0,1-60.66-31.59A312,312,0,0,0,638.9,643.84Zm-20.76-35.1A272.78,272.78,0,0,0,548,539.11c37.49,17.1,78.11,50.73,112.6,92.57A379.3,379.3,0,0,1,618.14,608.74ZM567,531.13c61.87,17.51,135.77,66.51,186.11,128.49a344.24,344.24,0,0,1-51.49-12.07C673,600.71,630.18,556.39,567,531.13Zm89.91,330.5c-124.15-92.5-146.19-222.18-148-292.89C528.54,676.72,597.21,745,658,783.16,661.41,810.11,661.35,836.72,656.91,861.63Zm86.18-52A359.68,359.68,0,0,1,672.82,774a377.15,377.15,0,0,0-7.57-54.15,358.61,358.61,0,0,0,62.13,25.09C735.41,766.44,740.91,788.24,743.09,809.64Zm59.65-62.58a374.64,374.64,0,0,1-63.49-15.12,384.44,384.44,0,0,0-25.09-62,358.16,358.16,0,0,0,52.46,7.44C782.33,699.53,794.87,723,802.74,747.06Zm51.34-86.58a360.5,360.5,0,0,1-78.79,1.82C735.05,598.16,663.2,525.45,550.61,514.7,642.59,506.9,790.9,567,854.08,660.48Z"/><path class="cls-1" d="M874.88,479.87h0c-26.78,13.05-360.57,6.75-382.54,22h0c-12.33,19-4.55,358.76-17.61,385.54V479.87Z"/><path class="cls-1" d="M430.91,506.79C221,458.4,92.24,630.39,78.85,670l-.18.08.13,0s0,.08,0,.13l.17-.09c12.53,4.67,44,10.27,84.2,9.48-19.88,35.58-29.11,66.53-29.77,80.4l-.15.12h.14s0,.09,0,.14l.14-.13c12,.94,39.05-1.31,72.54-10-8.14,33.11-9.5,59.78-7.46,71.87l-.12.15.14,0s0,.09,0,.13l.11-.15c13.27-1.81,43.68-11.77,78.67-31.47-.69,40.75,5.82,72.38,11.79,84.91l-.06.18.12-.06.06.12.07-.17c38.75-17,224.55-158.14,152.32-366.07Zm-34.4,33.07a308.27,308.27,0,0,0-61.34,65.22,425.48,425.48,0,0,1-47.5,25.38C324.23,586.52,365.69,557.44,396.51,539.86ZM250.63,645.35a398.43,398.43,0,0,1-56.22,15.26c56.38-74.84,131.81-111.06,184-128.35C319.19,560,278.32,601.81,250.63,645.35Zm61.06-.39a324,324,0,0,0-17.82,44.33A401,401,0,0,1,231.05,725a351.47,351.47,0,0,1,31.59-60.66A312,312,0,0,0,311.69,645Zm35.1-20.75a272.78,272.78,0,0,0,69.63-70.16c-17.11,37.49-50.73,78.1-92.57,112.6A376.81,376.81,0,0,1,346.79,624.21Zm77.6-51.14c-17.5,61.87-66.5,135.76-128.48,186.1A342.88,342.88,0,0,1,308,707.69C354.82,679.11,399.13,636.25,424.39,573.07ZM93.89,663c92.51-124.14,222.18-146.19,292.9-148-108,19.64-176.28,88.31-214.43,149.14C145.42,667.48,118.81,667.42,93.89,663Zm52,86.19a360.6,360.6,0,0,1,35.67-70.28,376.89,376.89,0,0,0,54.15-7.56,359.64,359.64,0,0,0-25.09,62.12C189.09,741.48,167.29,747,145.88,749.16Zm62.59,59.64a373.92,373.92,0,0,1,15.12-63.49,383,383,0,0,0,62-25.08,359.58,359.58,0,0,0-7.44,52.45C256,788.4,232.53,800.93,208.47,808.8ZM295,860.15a361.1,361.1,0,0,1-1.81-78.79c64.14-40.25,136.85-112.1,147.6-224.68C448.63,648.66,388.52,797,295,860.15Z"/><path class="cls-1" d="M475.66,880.94h0c-13.06-26.77-6.75-360.57-22-382.53h0c-19-12.34-358.77-4.56-385.54-17.61H475.66Z"/><path class="cls-1" d="M518.55,454.8c209.87,48.39,338.67-123.59,352.06-163.25l.18-.08-.13,0c0-.05,0-.09,0-.13l-.17.08c-12.52-4.67-44-10.27-84.2-9.47,19.88-35.59,29.12-66.54,29.78-80.4l.14-.13h-.14s0-.09,0-.13l-.14.12c-12-.94-39.05,1.32-72.54,9.95,8.14-33.1,9.5-59.78,7.46-71.86l.12-.16-.14,0a.59.59,0,0,0,0-.13l-.11.15c-13.27,1.82-43.68,11.77-78.67,31.47.69-40.75-5.82-72.38-11.79-84.9l.06-.18-.12,0-.06-.12-.06.18C621.35,102.87,435.55,244,507.78,451.9ZM553,421.73a308,308,0,0,0,61.34-65.21,423.84,423.84,0,0,1,47.5-25.38C625.23,375.07,583.77,404.15,553,421.73ZM698.83,316.24A397,397,0,0,1,755.05,301c-56.38,74.83-131.81,111.05-184,128.34C630.27,401.58,671.14,359.78,698.83,316.24Zm-61.06.39a322.73,322.73,0,0,0,17.82-44.33,401.35,401.35,0,0,1,62.82-35.72,351.83,351.83,0,0,1-31.59,60.66A312,312,0,0,0,637.77,316.63Zm-35.09,20.75A273,273,0,0,0,533,407.55c17.11-37.5,50.73-78.11,92.57-112.6A378.23,378.23,0,0,1,602.68,337.38Zm-77.61,51.14c17.5-61.87,66.5-135.76,128.48-186.1a344.11,344.11,0,0,1-12.06,51.48C594.64,282.49,550.33,325.34,525.07,388.52Zm330.5-89.9c-92.51,124.14-222.18,146.19-292.9,148C670.66,427,739,358.32,777.1,297.49,804,294.11,830.65,294.17,855.57,298.62Zm-52-86.19a360.6,360.6,0,0,1-35.67,70.28,375.55,375.55,0,0,0-54.15,7.57,359.72,359.72,0,0,0,25.09-62.13C760.37,220.11,782.17,214.62,803.58,212.43ZM741,152.79a373.69,373.69,0,0,1-15.12,63.49,384,384,0,0,0-62,25.09,359.51,359.51,0,0,0,7.44-52.46C693.46,173.19,716.94,160.66,741,152.79Zm-86.57-51.34a360.38,360.38,0,0,1,1.81,78.78c-64.13,40.25-136.85,112.1-147.6,224.68C500.83,312.94,561,164.63,654.42,101.45Z"/><path class="cls-1" d="M473.8,80.65h0c13.06,26.77,6.75,360.57,22,382.54h0c19,12.33,358.77,4.55,385.54,17.61H473.8Z"/></g></g></svg>