<svg xmlns="http://www.w3.org/2000/svg" viewBox="0 0 503.21 895.32"><defs><style>.cls-1{fill:#fff;}</style></defs><g id="Layer_2" data-name="Layer 2"><g id="_1" data-name="1"><polygon class="cls-1" points="109.19 282.92 109.19 558.26 74.53 528.94 68.04 552.73 136.09 610.48 136.09 170.57 202.55 84.87 202.55 450.66 223.12 450.66 223.12 58.57 267.43 0 305.51 33.81 305.51 452.41 328.82 452.41 328.82 55.05 409.85 130.22 409.85 454.99 430.42 454.99 430.42 194.31 503.21 258.65 503.21 722.84 331.47 876.75 332.47 683.09 276.2 629.81 425.67 629.81 425.67 607.9 254.85 607.9 241.86 596.26 208.88 596.26 307.45 691.83 305.45 895.32 0 610.48 58.13 354.88 109.19 282.92"/></g></g></svg>