<svg xmlns="http://www.w3.org/2000/svg" viewBox="0 0 952.85 861.99"><defs><style>.cls-1{fill:#fff;}</style></defs><g id="Layer_2" data-name="Layer 2"><g id="_1" data-name="1"><path class="cls-1" d="M476.55,12.9C239.39,12.9,47.13,200.27,47.13,431.4S239.39,849.89,476.55,849.89,906,662.52,906,431.4,713.71,12.9,476.55,12.9Zm0,813.56c-223.88,0-405.37-176.88-405.37-395.06S252.67,36.34,476.55,36.34,881.93,213.21,881.93,431.4,700.43,826.46,476.55,826.46Z"/><path class="cls-1" d="M476.55,60.75c-210,0-380.32,165.94-380.32,370.65S266.5,802.05,476.55,802.05,856.88,636.1,856.88,431.4,686.6,60.75,476.55,60.75Zm0,729.8C273,790.55,108,629.75,108,431.4S273,72.24,476.55,72.24,845.08,233,845.08,431.4,680.09,790.55,476.55,790.55Z"/><path class="cls-1" d="M183.08,125.89l-8.69-37A8,8,0,0,1,177,81l11.5-9.74A8,8,0,0,1,196.8,70l10.72,4.56a11.72,11.72,0,0,0,11-1C239.46,59.84,321,9.64,405.1.07a11,11,0,0,1,9.81,4l11.55,14.34L265.06,82.27Z"/><path class="cls-1" d="M85.45,271.63l-3.58-5.37-47.06,8.53S0,328.48,0,431.4,34.81,588,34.81,588l47.06,8.54,3.58-5.37L54.59,431.4ZM57.19,554.14a10.06,10.06,0,1,1-10.06-10.06A10.05,10.05,0,0,1,57.19,554.14ZM47.13,298.59a10.06,10.06,0,1,1-10.06,10.06A10.05,10.05,0,0,1,47.13,298.59Z"/><path class="cls-1" d="M183.08,736.1l-8.69,37A8,8,0,0,0,177,781l11.5,9.74A8,8,0,0,0,196.8,792l10.72-4.56a11.72,11.72,0,0,1,11,1c20.94,13.7,102.5,63.9,186.58,73.47a11,11,0,0,0,9.81-4l11.55-14.34-161.4-63.83Z"/><path class="cls-1" d="M769.76,125.89l8.69-37A8,8,0,0,0,775.84,81l-11.5-9.74A8,8,0,0,0,756.05,70l-10.72,4.56a11.72,11.72,0,0,1-11-1C713.39,59.84,631.83,9.64,547.75.07a11,11,0,0,0-9.82,4L526.38,18.44,687.79,82.27Z"/><path class="cls-1" d="M867.4,271.63l3.58-5.37,47,8.53s34.82,53.69,34.82,156.61S918,588,918,588l-47,8.54-3.58-5.37L898.25,431.4Zm28.25,282.51a10.06,10.06,0,1,0,10.06-10.06A10.06,10.06,0,0,0,895.65,554.14Zm10.06-255.55a10.06,10.06,0,1,0,10.06,10.06A10.06,10.06,0,0,0,905.71,298.59Z"/><path class="cls-1" d="M769.76,736.1l8.69,37a8,8,0,0,1-2.61,7.92l-11.5,9.74a8,8,0,0,1-8.29,1.26l-10.72-4.56a11.72,11.72,0,0,0-11,1c-20.94,13.7-102.5,63.9-186.58,73.47a11,11,0,0,1-9.82-4l-11.55-14.34,161.41-63.83Z"/><path class="cls-1" d="M560.56,350.08c-13.72-.86-58.93,1.2-113.53,33.9,0,0-45.47,28.69-57.34,71.42l-33.06,3.74S332.31,418,255.56,434.62c0,0-19-26.9,8.7-61.72,0,0-.79-106.81,51.43-153.49,0,0,29.28-38,114.73-53l36.39-44.31,47.27,34.6,27.9,1,21.36-18.19L572.25,163s15.62,15.25,61.51,20l-6.6,6.6A12.13,12.13,0,0,1,616,192.9l-9.13-2s-28.82,77.7,55.64,105a15.37,15.37,0,0,1,10.56,12.59l5,37.48s-21.37.79-38.77,5.54c0,0-1-18.78,2.16-26.69l12.06-1.79-.21-1.44a8.61,8.61,0,0,0-5.63-6.83c-19.36-6.88-89.08-38.3-66.51-127.87-16.52-12.11-28.53-16.57-75.21-15.78l-36.77-26.9L440.7,179.06S365.29,184.64,324,229.49c0,0-49.26,55.22-39,142.25,0,0-8.7,8.28-6.12,23.95,0,0,56-12.29,81.29,31.22l15.61-1.79s22.16-50.63,60.93-75.95c26.62-17.39,55.85-25.26,71.55-28.48a11.83,11.83,0,0,0,9.23-13.83l-3.24-16.74H522s26,36.79,33.86,38.11c0,0,40.68,3,66,8.28v19.78S583.12,361,572,372.11a61.3,61.3,0,0,0-3.1-15.9A9.48,9.48,0,0,0,560.56,350.08Z"/><path class="cls-1" d="M299.86,378.05c45.9.3,63.3,23.73,63.3,23.73l6.33-1c19-40.33,44.31-58.73,44.31-58.73C436.88,323.16,469,311.93,488,306.5a19.2,19.2,0,0,0,13.81-20.9l-1.69-13.18,26.23,2.37c12.89,23.74,36,42.92,36,42.92,22.36,2.18,60.13,10.09,60.13,10.09v-6.53c-84.45-40.74-57.55-126-57.55-126C553,176,503.42,183.8,503.42,183.8l-30.28-24.52L447,191.72c-31.66,2-61,12.64-69,15.75a2.92,2.92,0,0,0-1.84,3.13h0a2.94,2.94,0,0,0,3.64,2.44c3.54-.9,8.93-1.42,10.11,3.18a6.81,6.81,0,0,1-4.75,8c-9.12,2.81-31.32,11.9-47.29,37.09,0,0-2.38,5.54-9.1,3.17,0,0-6.11-1.2-5.13-5.92a3.09,3.09,0,0,0-2-3.49h0a3.12,3.12,0,0,0-3.77,1.34c-5.95,10-28.72,53.15-21.54,118.44A3.58,3.58,0,0,0,299.86,378.05Z"/><path class="cls-1" d="M688.49,214.28c-15.83-21.65-40.09-30.84-54.19-20.53s-12.72,36.22,3.1,57.86,40.09,30.84,54.19,20.53S704.31,235.92,688.49,214.28Zm-7.63,38.08c-6.81,5-19.17-.35-27.61-11.9s-9.76-24.94-3-29.92,19.17.35,27.61,11.9S687.67,247.38,680.86,252.36Z"/><path class="cls-1" d="M661.89,363.25c-8.48,1.54-29.45,5.76-40.82,11.74a4.12,4.12,0,0,0-1.94,5.09l2,5.27a4.12,4.12,0,0,0,5.22,2.47c8.41-2.92,28.54-10.29,38.6-17.05a4.15,4.15,0,0,0,1.69-4.57h0A4.13,4.13,0,0,0,661.89,363.25Z"/><path class="cls-1" d="M666.4,383.05c-10.48,1.9-36.41,7.11-50.47,14.51a5.1,5.1,0,0,0-2.4,6.29l2.41,6.52a5.1,5.1,0,0,0,6.46,3.06c10.39-3.62,35.28-12.72,47.72-21.09a5.12,5.12,0,0,0,2.09-5.65h0A5.09,5.09,0,0,0,666.4,383.05Z"/><path class="cls-1" d="M660,410.06c-7.79,2-27.05,7.19-37.27,13.48a3.85,3.85,0,0,0-1.49,4.86l2.15,4.78a3.85,3.85,0,0,0,5,2c7.64-3.24,25.92-11.36,34.87-18.29a3.87,3.87,0,0,0,1.29-4.35h0A3.85,3.85,0,0,0,660,410.06Z"/><path class="cls-1" d="M348.92,465.68s-13.18-22.1-49.05-24.21c0,0-28.39-2.49-53.71,5.6a7,7,0,0,0-3.74,2.88c-3.36,5.12-11.91,20.54,1.54,27.92,0,0,14.24,32.7,33.75,46.42,0,0,10,5.8,10.55,14.24,0,0-5.27,12.13,40.09,9,0,0,6.86,0,9-4.49,0,0-2.11,18.2-.79,28a20.76,20.76,0,0,1-9,11.6s-15,6.33-10.55,17.67c0,0,1.58,14-1.05,22.68,0,0-4.49,6.86,9,22.69,0,0,30.33,40.08,56.71,55.64,0,0,9.49,5,38,7.39,22.67,1.52,41.15,5,49.59-5.28l24.52-31.91-5.8-4.74-32.7,26.37s-35-1-59.55-6.22c0,0-33-18.84-44.1-34.66,0,0-6.33-7.39-4.48-27.43,0,0-1.32-9-7.92-6.59L335.31,622a2.45,2.45,0,0,1-2.67.53h0a2.45,2.45,0,0,1-1.5-2.46c.36-4.36,1.19-15.64.7-20.51a2,2,0,0,1,1.52-2.12h0a1.94,1.94,0,0,1,2.25,1.29c.9,2.85,3.65,8.19,11.47,7,0,0,2.05-15.57,1.05-25.11,0,0,5.54-4.75,34-8.17,0,0-1.58-15.25-15-12.61s-18.52,4.49-18.52,4.49-4.42-15.62,13-19.58c0,0,14.24-4.95,24.79,11.93s28,37.18,28,37.18,6.07,1.32,8.44-15.29c0,0,2.64-20.37,17.41-23,0,0,.95-4.83-3.16-11.17a3.5,3.5,0,0,1,1.74-5.17l19.88-7.34-17.8-23.64-23.23,5.35a4.56,4.56,0,0,1-4.06-1.36l-3-3.17a4.55,4.55,0,0,1-.29-5.89l8.82-15.6L399.3,474.18,393.74,483a3.57,3.57,0,0,1-5.09.38l-1.75-1.54s-4.22-10.55-17.67-8.18c0,0-18.72,7.12-26.37,21.63,0,0-6.33,14-6.33,28.48,0,0-17.5,7.12-41.59,3.16,0,0-23.29-6.85-40.17-52.48,0,0-2.11-6.86,5-8.28,0,0,7.16,35.85,43.11,51.09a2.67,2.67,0,0,0,3-.66h0a2.68,2.68,0,0,0-.19-3.83c-6.4-5.64-25.63-24.3-30.67-48.81,0,0,42.78-10.14,62,16.77Z"/><ellipse class="cls-1" cx="380.8" cy="620.93" rx="8.44" ry="9.79" transform="translate(-313.98 402.19) rotate(-41)"/><ellipse class="cls-1" cx="371.75" cy="651.26" rx="7.31" ry="8.48" transform="translate(-336.1 403.7) rotate(-41)"/><ellipse class="cls-1" cx="421.94" cy="650.21" rx="10.71" ry="12.43" transform="translate(-323.09 436.37) rotate(-41)"/><path class="cls-1" d="M287.21,641.65c6.33,33.49,40.64,35.34,50.24,36a2.59,2.59,0,0,0,2.77-2.59h0a2.61,2.61,0,0,0-1-2c-4.34-3.58-22.35-19.48-26.74-39.85,0,0-4.75-17.93.21-31.12,0,0-2-6-6-5C300.13,598.66,280.21,604.59,287.21,641.65Z"/><path class="cls-1" d="M404,461l20.58,13.45s18.72-55.91,93.36-80.7c0,0,13.45,38.5,9.76,80.7h3.42s10-31.12,2.91-84.66c0,0,7.38-2.64,8.44,4,0,0,7.38,46.68,0,76.48a19.35,19.35,0,0,1-12.66,13.45S475.24,500,461.27,503.45l15.28,22.42,64.11-20.57s25.32-8.44,29-35.61c0,0-11.66-2.63-11.4-12.12,0,0,3.22-45.63-3.11-72.27,0,0-1.31-3.69,8.18-5.54-.53-10.81-1.85-21.63-18.2-17.59C545.14,362.17,438.42,377.6,404,461Z"/><path class="cls-1" d="M675.43,405.55s-23.14,26.64-31.62,36.56c-10.48,12.25-71.93,95.39-74.5,127.71a2.23,2.23,0,0,0,4,1.59c3.69-4.59,9.73-12.28,15.66-20.75,0,0,24.29-34.81,45.42-48.64,0,0,3.11,5.92,14.19-2.52,0,0,39-28,54.79-29L690.2,453.61s-12.54,2.9-40.49,33.75a.77.77,0,0,1-1.26-.87,144.85,144.85,0,0,1,47-51s10.45-14.85-13.71-25.52C681.76,409.94,676.48,409.24,675.43,405.55Z"/><path class="cls-1" d="M626.9,532.2S582.59,567,579.43,599.72c-.93,7.73,6.86,10.28,12.66,2.11,0,0,25.32-33.73,41.67-57.75C640.35,536.42,634.81,525.87,626.9,532.2Z"/><path class="cls-1" d="M703.32,507s21.43-16.61,40.81-1.58,21.36,15.82,21.36,15.82,10.29,8.31-3.56,25.72c0,0-22.36,31.25-52.1,51.15a122.6,122.6,0,0,0-17.3,14c-9.75,9.5-26.29,24.39-40.85,31.65a1.76,1.76,0,0,1-2.46-2.15c4.1-11.79,19.23-48.33,57.09-75.31a2.5,2.5,0,0,0,.44-3.68h0a2.47,2.47,0,0,0-3.25-.42c-10,6.72-57.75,41.22-73.45,94.1a19.86,19.86,0,0,1-10.85,12.53c-9.18,4.12-24.87,10.77-43.2,17,0,0-21.36,9.89-12.26-12.66S628.1,560,703.32,507Z"/><path class="cls-1" d="M556.19,647.78h0c14.24-6.35,21.75-28.36,17-52.18s-20-41.13-35.56-41.65c0,0-16.09-.13-29.18,1.29-18.53,3.7-28.94,29.75-23.26,58.17s25.18,47.88,43.82,44.78A136.36,136.36,0,0,0,556.19,647.78Zm-9.81-11.93c-12.6,1.46-25.29-13-28.33-32.17s4.7-36,17.31-37.45,25.29,12.94,28.33,32.17S559,634.39,546.38,635.85Z"/><path class="cls-1" d="M485.83,566.59a2.48,2.48,0,0,0-2.4-4c-11.9,2.17-35.67,11.6-35.08,52.37s36.42,45.45,53.29,45.25a2.48,2.48,0,0,0,1.27-4.59c-8.53-5.44-23.22-17.71-26.65-43.54C473,587.92,480.69,573.36,485.83,566.59Z"/><path class="cls-1" d="M463.38,572.24s-30.85,11.65-20,50.68c0,0-19.25-6.59-11.34-43,2.11-11.38,16.34-31.92,38.24-11.38Z"/></g></g></svg>