<svg xmlns="http://www.w3.org/2000/svg" viewBox="0 0 974.12 497.32"><defs><style>.cls-1{fill:#fff;}</style></defs><g id="Layer_2" data-name="Layer 2"><g id="_1" data-name="1"><path class="cls-1" d="M487.06,21.64a69.43,69.43,0,1,0,69.43,69.43A69.43,69.43,0,0,0,487.06,21.64Zm0,116.52a47.09,47.09,0,1,1,47.09-47.09A47.09,47.09,0,0,1,487.06,138.16Z"/><path class="cls-1" d="M487.06,331.62a82.85,82.85,0,1,0,82.85,82.85A82.85,82.85,0,0,0,487.06,331.62Zm0,121.64a38.79,38.79,0,1,1,38.79-38.79A38.79,38.79,0,0,1,487.06,453.26Z"/><path class="cls-1" d="M487.06,266.91s-139.23-.31-217.56,77.53c0,0,85.4-39.07,217.56-38.92Z"/><path class="cls-1" d="M.35,72.76A1,1,0,0,1,1.24,71C11.51,73.05,42,77.88,74.6,70.16c40.08-9.5,77-22.68,77-22.68s28.48,16.88,44.83,22.15c0,0-77.54,30.54-122.9,29.48C73.54,99.11,31.29,100.66.35,72.76Z"/><path class="cls-1" d="M35.16,124.42a1,1,0,0,1,.89-1.79c10.28,2.08,37,4,72.36-1.81,40.65-6.7,78-21.68,78-21.68s39.16,22.18,62.51,28.91c0,0-93.5,23.82-138.86,22.76C110.07,150.81,66.1,152.32,35.16,124.42Z"/><path class="cls-1" d="M217.28,158.91S138.21,180.57,84.41,174a.86.86,0,0,0-.6,1.55c8.64,6.17,38.51,24.59,87.58,24.91,0,0,54.19-2.37,101.27-14.24C272.66,186.2,243,174.33,217.28,158.91Z"/><path class="cls-1" d="M234.54,213.45s-45.75,9.54-88.81,5.45a.86.86,0,0,0-.6,1.55c8.64,6.17,38.51,24.59,87.58,24.92,0,0,29.27,1.6,57-5.69C289.68,239.68,260.25,228.88,234.54,213.45Z"/><path class="cls-1" d="M255.65,209.15a547.19,547.19,0,0,1,73.58-16.22s47.08-7.52,59.74,5.14c0,0,21.27,21.93,28.66,31.41,0,0-25.5-2.13-69.8,3.4C347.83,232.88,307.48,238,255.65,209.15Z"/><path class="cls-1" d="M243.18,151.85s47.06-15.1,93.46-21.43c0,0,11.19,30.86,26.22,43.52C362.86,173.94,296.79,190.71,243.18,151.85Z"/><path class="cls-1" d="M339.12,112.62c3.52-1.06,14.25-13.48,14.25-13.48-1.06,28,15.82,51.71,28.48,64.51,34.81,36.79,54.23,68,58.12,76a60.57,60.57,0,0,1,5.08,13.81,1.66,1.66,0,0,0,3.09.41c13.88-24.35-.36-55.23-25.68-83.83C375.26,117.37,389,58.42,389,58.42,291.26,64,207,91.07,207,91.07c51.17,32.25,99.43,27.09,99.43,27.09S327.78,116.05,339.12,112.62Z"/><path class="cls-1" d="M181.4,42.5c9.36,5.87,38,20.59,80.58,13.55,0,0,62.09-14.24,116.3-17.41,0,0,14.12.66,27.7-10.28,6.23-4.65,20.23-17.51,27.08-24.74a2.07,2.07,0,0,0-1.44-3.5C362.91-1.67,242.43,16.23,181.77,38.8A2.08,2.08,0,0,0,181.4,42.5Z"/><path class="cls-1" d="M973.77,72.76a1,1,0,0,0-.9-1.79c-10.27,2.08-40.76,6.91-73.35-.81-40.09-9.5-77-22.68-77-22.68S794,64.36,777.67,69.63c0,0,77.54,30.54,122.9,29.48C900.57,99.11,942.83,100.66,973.77,72.76Z"/><path class="cls-1" d="M939,124.42a1,1,0,0,0-.9-1.79c-10.27,2.08-37,4-72.35-1.81-40.65-6.7-78-21.68-78-21.68s-39.16,22.18-62.5,28.91c0,0,93.49,23.82,138.86,22.76C864.05,150.81,908,152.32,939,124.42Z"/><path class="cls-1" d="M756.84,158.91S835.9,180.57,889.7,174a.86.86,0,0,1,.61,1.55c-8.64,6.17-38.52,24.59-87.58,24.91,0,0-54.2-2.37-101.28-14.24C701.45,186.2,731.12,174.33,756.84,158.91Z"/><path class="cls-1" d="M739.58,213.45s45.74,9.54,88.81,5.45a.86.86,0,0,1,.6,1.55c-8.64,6.17-38.52,24.59-87.58,24.92,0,0-29.28,1.6-57-5.69C684.43,239.68,713.87,228.88,739.58,213.45Z"/><path class="cls-1" d="M718.46,209.15a547.19,547.19,0,0,0-73.58-16.22s-47.08-7.52-59.73,5.14c0,0-21.27,21.93-28.66,31.41,0,0,25.49-2.13,69.8,3.4C626.29,232.88,666.64,238,718.46,209.15Z"/><path class="cls-1" d="M730.94,151.85s-47.07-15.1-93.46-21.43c0,0-11.19,30.86-26.22,43.52C611.26,173.94,677.32,190.71,730.94,151.85Z"/><path class="cls-1" d="M635,112.62c-3.51-1.06-14.24-13.48-14.24-13.48,1,28-15.82,51.71-28.48,64.51-34.82,36.79-54.24,68-58.12,76a61.23,61.23,0,0,0-5.09,13.81,1.66,1.66,0,0,1-3.09.41c-13.88-24.35.36-55.23,25.69-83.83,47.2-52.63,33.49-111.58,33.49-111.58,97.71,5.54,182,32.65,182,32.65-51.16,32.25-99.43,27.09-99.43,27.09S646.33,116.05,635,112.62Z"/><path class="cls-1" d="M792.72,42.5c-9.37,5.87-38,20.59-80.59,13.55,0,0-62.08-14.24-116.29-17.41,0,0-14.12.66-27.71-10.28-6.22-4.65-20.22-17.51-27.08-24.74A2.07,2.07,0,0,1,542.5.12C611.2-1.67,731.69,16.23,792.34,38.8A2.08,2.08,0,0,1,792.72,42.5Z"/><path class="cls-1" d="M487.06,266.91s139.23-.31,217.56,77.53c0,0-85.41-39.07-217.56-38.92Z"/></g></g></svg>