<svg xmlns="http://www.w3.org/2000/svg" viewBox="0 0 868.49 916.36"><defs><style>.cls-1{fill:#fff;}</style></defs><g id="Layer_2" data-name="Layer 2"><g id="_1" data-name="1"><path class="cls-1" d="M434.25,771.62V916.36s-60.72-97.45-129.24-165C225.43,673,58,500.36,58,304.32c0,0,26.43,19.68,46.72,42.67,0,0,9.24,113.63,68.58,180.09,0,0-17.8-27.86,5.94-72.68,28,105.24,48.66,139.14,110.27,214.66,53.51,61.76,85.45,90.23,111.66,128.43C401.14,797.49,419.1,779.1,434.25,771.62Z"/><path class="cls-1" d="M240.74,169.22s33.91,28.54,67.83,14.74c0,0-24.92-11.74-26.11-28.35C282.46,155.61,264.21,157.62,240.74,169.22Z"/><path class="cls-1" d="M328.75,127.7s-26.11-.44-26.11,27.91c0,0,7.12,23.81,43.91,16.06,0,0,42.72-16.06,74.77-16.06,0,0,3.56-27.91-22.55-27.91,0,0-7.12-12,4.75-18.16,0,0-22.55-4.35-48.66,6.9C375,121.19,362.06,149.67,328.75,127.7Z"/><path class="cls-1" d="M378.59,187.73A175.34,175.34,0,0,1,413,184s1.82,87.81-5.27,148.68C399.58,402.47,424.63,527,424.63,527s9.74,66.51-16.37,117.72c0,0-26.23,55.61,26,55.61v30.46s-47.35.32-67.61-26.69c-4-5.35-4.8-12.49-2.81-18.88,6.45-20.62,22.82-75.2,21.88-143.32C385.71,541.93,375.26,353.81,378.59,187.73Z"/><path class="cls-1" d="M434.25.14s-49-2.44-49,13.25c0,0,1.77,10.75,49,9.69"/><path class="cls-1" d="M348.36,346c-7.7-7.31-25.6-19.05-19.8-26.43,0,0,5.33-6.12,12.45,1,0,0,23.74-1.59,9.5-33.23s-75.86-14.75-68.05,29.27c5.44,30.65,31.2,42.88,60.25,43.78C349.84,360.62,353.53,350.92,348.36,346Z"/><path class="cls-1" d="M288.56,376.5C276,380.15,256.7,378,248.78,389.57a6,6,0,0,0,5.13,9.35c4.37-.2,10.87-1.44,20.38-5.07a22,22,0,0,1,27,9.68c7.46,13.2-5.39,46.28-42.84,59.46-46.83,16.49-113.75-40.93-75.83-92,26.4-35.54,71.45-40.11,107.43-16.55C310.68,368,298.5,373.61,288.56,376.5Z"/><circle class="cls-1" cx="335.47" cy="387.57" r="19.58"/><path class="cls-1" d="M343.38,504.66c39.75,28.57,0,60.66,0,60.66-19.51,15.3-54.75,22.2-74.9-12.66-27.74-48,19.57-73.73,19.57-73.73,39-28,23.69-63.41,23.69-63.41s26.37,15.83,23.73,49.06c0,0,0,15.82-17.05,26.9-12.89,8.37-7.85,18.62-7.85,18.62S326.51,492.53,343.38,504.66Z"/><path class="cls-1" d="M277.09,66.71c-32,29.77-145.35,42.83-145.35,42.83C58.15,124,0,137.81,0,137.81c1.19,32,28.48,102.06,58,127.63s90.38,88.37,90.38,88.37c20.18-19,49.85-49.49,97.82-78.73,33.56-20.45,76.81-36,94.58-42a24.45,24.45,0,0,0,15.57-15.74c3.44-10.89,4.47-23.91,4.47-23.91-37.86,12.65-71.69,16.92-94.4,12.37a102.18,102.18,0,0,1-38.32-16.54c-42.17-29.48-84.47-36-84.47-36s9.5-15.43,73.59-20.18S320.44,88.12,320.44,88.12c32-23.57,113.81-21.41,113.81-21.41V31C297.76,31,277.09,66.71,277.09,66.71ZM164.92,219.4c31.56,16.85,47.49,18,59.4,18.9a3.83,3.83,0,0,1,1.93,6.94c-20.2,14.36-42.2,32.55-52.18,41a9.84,9.84,0,0,1-12.25.38c-23.68-17.8-63.92-71.87-63.92-71.87C132.49,199.13,164.92,219.4,164.92,219.4Z"/><path class="cls-1" d="M196.9,257s-20.66-7.44-47.74-28.89L180.57,271Z"/><path class="cls-1" d="M434.25,771.62V916.36s60.71-97.45,129.23-165c79.59-78.42,247-251,247-447.07,0,0-26.43,19.68-46.73,42.67,0,0-9.24,113.63-68.58,180.09,0,0,17.8-27.86-5.93-72.68-28,105.24-48.66,139.14-110.28,214.66-53.5,61.76-85.45,90.23-111.66,128.43C467.35,797.49,449.4,779.1,434.25,771.62Z"/><path class="cls-1" d="M627.76,169.22S593.84,197.76,559.92,184c0,0,24.93-11.74,26.11-28.35C586,155.61,604.28,157.62,627.76,169.22Z"/><path class="cls-1" d="M539.75,127.7s26.11-.44,26.11,27.91c0,0-7.12,23.81-43.92,16.06,0,0-42.72-16.06-74.76-16.06,0,0-3.56-27.91,22.54-27.91,0,0,7.13-12-4.74-18.16,0,0,22.55-4.35,48.66,6.9C493.46,121.19,506.43,149.67,539.75,127.7Z"/><path class="cls-1" d="M489.9,187.73A175.21,175.21,0,0,0,455.52,184s-1.81,87.81,5.27,148.68C468.92,402.47,443.86,527,443.86,527s-9.74,66.51,16.37,117.72c0,0,26.24,55.61-26,55.61v30.46s47.34.32,67.6-26.69c4-5.35,4.81-12.49,2.81-18.88-6.45-20.62-22.82-75.2-21.88-143.32C482.78,541.93,493.23,353.81,489.9,187.73Z"/><path class="cls-1" d="M434.25.14s49-2.44,49,13.25c0,0-1.76,10.75-49,9.69"/><path class="cls-1" d="M520.14,346c7.7-7.31,25.6-19.05,19.79-26.43,0,0-5.33-6.12-12.45,1,0,0-23.73-1.59-9.49-33.23s75.85-14.75,68,29.27c-5.43,30.65-31.19,42.88-60.24,43.78C518.66,360.62,515,350.92,520.14,346Z"/><path class="cls-1" d="M579.93,376.5c12.54,3.65,31.87,1.49,39.78,13.07a6,6,0,0,1-5.12,9.35c-4.37-.2-10.88-1.44-20.38-5.07a22,22,0,0,0-27,9.68c-7.45,13.2,5.39,46.28,42.84,59.46,46.83,16.49,113.75-40.93,75.84-92-26.41-35.54-71.46-40.11-107.44-16.55C557.81,368,570,373.61,579.93,376.5Z"/><circle class="cls-1" cx="533.02" cy="387.57" r="19.58"/><path class="cls-1" d="M525.11,504.66c-39.75,28.57,0,60.66,0,60.66,19.52,15.3,54.75,22.2,74.9-12.66,27.75-48-19.57-73.73-19.57-73.73-39-28-23.68-63.41-23.68-63.41S530.38,431.35,533,464.58c0,0,0,15.82,17.06,26.9,12.89,8.37,7.84,18.62,7.84,18.62S542,492.53,525.11,504.66Z"/><path class="cls-1" d="M591.41,66.71c32,29.77,145.35,42.83,145.35,42.83,73.58,14.45,131.73,28.27,131.73,28.27-1.18,32-28.48,102.06-58,127.63s-90.39,88.37-90.39,88.37c-20.17-19-49.84-49.49-97.82-78.73-33.56-20.45-76.8-36-94.57-42a24.47,24.47,0,0,1-15.58-15.74c-3.43-10.89-4.47-23.91-4.47-23.91,37.87,12.65,71.7,16.92,94.4,12.37a102.22,102.22,0,0,0,38.33-16.54c42.16-29.48,84.46-36,84.46-36s-9.49-15.43-73.58-20.18S548.05,88.12,548.05,88.12c-32-23.57-113.8-21.41-113.8-21.41V31C570.73,31,591.41,66.71,591.41,66.71ZM703.57,219.4c-31.55,16.85-47.49,18-59.39,18.9a3.83,3.83,0,0,0-1.94,6.94c20.21,14.36,42.2,32.55,52.18,41a9.85,9.85,0,0,0,12.26.38c23.68-17.8,63.91-71.87,63.91-71.87C736,199.13,703.57,219.4,703.57,219.4Z"/><path class="cls-1" d="M671.6,257s20.65-7.44,47.73-28.89L687.93,271Z"/></g></g></svg>