<svg xmlns="http://www.w3.org/2000/svg" viewBox="0 0 722.62 915.84"><defs><style>.cls-1{fill:#fff;}</style></defs><g id="Layer_2" data-name="Layer 2"><g id="_1" data-name="1"><polygon class="cls-1" points="361.31 494.13 266.57 444.24 266.57 401.93 361.31 453.26 361.31 494.13"/><path class="cls-1" d="M126.57,262.3S89.38,309,89.38,377.82V545.55l41.93-26.9s26.11,80.71,36.4,91.78l28.48-20.57s7.91,72.79,54.59,125c0,0,23,23,23.74,61.72,1.41,26.47,22.16,82.28,86.79,91.78v47.47c-21.91,0-102.62-18.75-121.18-104.44,0,0-9.92-59.34-33.44-94.27,0,0-35-54.48-33.44-70.3l-25.32,23.73s-30.86-35.6-42.73-87L40.47,616s18.05-99.69,4.6-163.78S50.61,330.34,67.22,305c0,0-73.58-38-65.67-150.33S5.17,33.6,1,15.44C.37,12.9-5.57-12.25,21.33,7.53c32.91,24.2,163,141.63,193.06,166.16,0,0,38-22,146.92-22V434.78L266.57,381V335.09l75.2,42.73V195.05s-75.16-8.71-151.12,34L41.11,88.23c0,75.17-8.7,143.21,38,173.28C79.09,261.51,100.46,271,126.57,262.3Z"/><polygon class="cls-1" points="361.31 494.13 456.06 444.24 456.06 401.93 361.31 453.26 361.31 494.13"/><path class="cls-1" d="M300.63,819.31s20.45,39.36,43.52,12.66c23.47-27.16,0-50.64-13.45-49.85-13.72-.58-26.9,12.66-11.29,30.94C328,821.16,325.42,837.51,300.63,819.31Z"/><path class="cls-1" d="M175.62,517.33s50.11,23.38,83.87,29.71,71.68,30,71.68,30L288,611.75S196.72,575.88,175.62,517.33Z"/><path class="cls-1" d="M596.06,262.3S633.25,309,633.25,377.82V545.55l-41.94-26.9s-26.11,80.71-36.39,91.78l-28.49-20.57s-7.91,72.79-54.59,125c0,0-22.95,23-23.74,61.72-1.4,26.47-22.15,82.28-86.79,91.78v47.47c27.15,0,108.15-18.25,121.19-104.44,0,0,9.91-59.34,33.44-94.27,0,0,35-54.48,33.44-70.3l25.32,23.73s30.85-35.6,42.72-87L682.15,616s-18-99.69-4.6-163.78S672,330.34,655.4,305c0,0,73.58-38,65.67-150.33s-3.61-121.1.6-139.26c.59-2.54,6.52-27.69-20.38-7.91-32.91,24.2-163,141.63-193,166.16,0,0-38-22-146.93-22V434.78L456.06,381V335.09l-75.21,42.73V195.05s75.17-8.71,151.12,34L681.51,88.23c0,75.17,8.7,143.21-38,173.28C643.53,261.51,622.17,271,596.06,262.3Z"/><path class="cls-1" d="M422,819.31S401.55,858.67,378.48,832c-23.48-27.16,0-50.64,13.45-49.85,13.71-.58,26.9,12.66,11.28,30.94C394.66,821.16,397.2,837.51,422,819.31Z"/><path class="cls-1" d="M547,517.33S496.89,540.71,463.14,547s-71.68,30-71.68,30l43.19,34.76S525.91,575.88,547,517.33Z"/></g></g></svg>