<svg xmlns="http://www.w3.org/2000/svg" viewBox="0 0 905.8 952.62"><defs><style>.cls-1{fill:#fff;}</style></defs><g id="Layer_2" data-name="Layer 2"><g id="_1" data-name="1"><path class="cls-1" d="M452.81,0,0,253.19V682l452.81,270.6V440.33L283.24,348.71l169.57-93.78ZM49.86,288.45,201,368.7V566.44L49.86,647.21ZM420.92,873.26,92.79,681.38l144.57-76.9,183.56,106Zm0-386.88V666.2L242.11,563.34V391.44Zm0-263.26L237,325.4,98.69,251.6,420.92,74.37Z"/><path class="cls-1" d="M453,0,905.8,253.19V682L453,952.62V440.33l169.57-91.62L453,254.93Zm403,288.45L704.78,368.7V566.44l151.16,80.77ZM484.87,873.26,813,681.38l-144.58-76.9-183.56,106Zm0-386.88V666.2L663.69,563.34V391.44Zm0-263.26,184,102.28L807.1,251.6,484.87,74.37Z"/></g></g></svg>