<svg xmlns="http://www.w3.org/2000/svg" viewBox="0 0 908.31 909.76"><defs><style>.cls-1{fill:#fff;}</style></defs><g id="Layer_2" data-name="Layer 2"><g id="_1" data-name="1"><path class="cls-1" d="M.18,435.6V441h99.7S251.39,439.9,343,343l-52-52S179,408.08,5.65,429.75A6,6,0,0,0,.18,435.6Z"/><path class="cls-1" d="M354.82,354.82l71.81,71.81-19.37,19.55H176.62s-.06-4.62,6.87-6C183.49,440.14,279.86,425.5,354.82,354.82Z"/><path class="cls-1" d="M289,303.37l-55-56.58s-2.64,3.3,1.67,8.25c5.79,6.65,31.51,41.21,37.32,65.21Z"/><path class="cls-1" d="M264.84,322.36s-15.55-49.7-69.36-102.31l-91.65-93.91s-7.12,5.53,2,16.22C155.52,210.3,200.34,287,210.62,372.41Z"/><path class="cls-1" d="M435.54,0H441V99.69S440,251.32,343,343l-52-52S408,178.81,429.69,5.47A6,6,0,0,1,435.54,0Z"/><path class="cls-1" d="M354.82,354.82l71.81,71.81L446,407.08V176.44s-4.62-.06-6,6.86C440,183.3,425.5,279.86,354.82,354.82Z"/><path class="cls-1" d="M303.31,288.79l-56.57-55s3.3-2.63,8.24,1.68c6.65,5.79,41.21,31.51,65.21,37.31Z"/><path class="cls-1" d="M322.3,264.66S272.61,249.1,220,195.3l-93.91-91.65s5.54-7.12,16.22,2c67.95,49.71,144.6,94.52,230.05,104.81Z"/><path class="cls-1" d="M435.6,909.76H441V810.07S439.9,658.56,343,566.93l-52,52S408.08,731,429.75,904.3A6,6,0,0,0,435.6,909.76Z"/><path class="cls-1" d="M354.82,555.13l71.81-71.81,19.55,19.37V733.32s-4.62.06-6-6.86C440.14,726.46,425.5,630.09,354.82,555.13Z"/><path class="cls-1" d="M303.37,621l-56.58,55s3.3,2.64,8.25-1.68c6.65-5.79,41.21-31.51,65.21-37.31Z"/><path class="cls-1" d="M322.36,645.1s-49.7,15.56-102.31,69.36l-93.91,91.65s5.53,7.12,16.22-2C210.3,754.43,287,709.61,372.41,699.32Z"/><path class="cls-1" d="M0,474.4V469H99.69s151.63,1,243.27,98l-52,52s-112.13-117-285.47-138.7A6,6,0,0,1,0,474.4Z"/><path class="cls-1" d="M354.82,555.13l71.81-71.81L407.08,464H176.44s-.06,4.61,6.86,6C183.3,470,279.86,484.44,354.82,555.13Z"/><path class="cls-1" d="M288.79,606.64l-55,56.57s-2.63-3.3,1.68-8.25c5.79-6.64,31.51-41.2,37.31-65.2Z"/><path class="cls-1" d="M264.66,587.65S249.1,637.34,195.3,690l-91.65,93.92s-7.12-5.54,2-16.22C155.34,699.7,200.15,623,210.44,537.59Z"/><path class="cls-1" d="M908.13,435.6V441H808.44S656.93,439.9,565.29,343l52-52s112,117.14,285.35,138.81A6,6,0,0,1,908.13,435.6Z"/><path class="cls-1" d="M553.5,354.82l-71.82,71.81,19.37,19.55H731.69s.06-4.62-6.87-6C724.82,440.14,628.45,425.5,553.5,354.82Z"/><path class="cls-1" d="M619.34,303.37l55-56.58s2.64,3.3-1.67,8.25c-5.79,6.65-31.51,41.21-37.31,65.21Z"/><path class="cls-1" d="M643.47,322.36s15.56-49.7,69.36-102.31l91.65-93.91s7.12,5.53-2,16.22C752.79,210.3,708,287,697.69,372.41Z"/><path class="cls-1" d="M472.77,0h-5.44V99.69s1,151.63,98,243.27l52-52S500.29,178.81,478.62,5.47A6,6,0,0,0,472.77,0Z"/><path class="cls-1" d="M553.5,354.82l-71.82,71.81-19.36-19.55V176.44s4.61-.06,6,6.86C468.35,183.3,482.81,279.86,553.5,354.82Z"/><path class="cls-1" d="M605,288.79l56.58-55s-3.3-2.63-8.25,1.68c-6.65,5.79-41.21,31.51-65.21,37.31Z"/><path class="cls-1" d="M586,264.66S635.7,249.1,688.32,195.3l93.91-91.65s-5.54-7.12-16.22,2c-67.94,49.71-144.6,94.52-230,104.81Z"/><path class="cls-1" d="M472.71,909.76h-5.44V810.07s1.14-151.51,98.09-243.14l52,52S500.23,731,478.56,904.3A6,6,0,0,1,472.71,909.76Z"/><path class="cls-1" d="M553.5,555.13l-71.82-71.81-19.55,19.37V733.32s4.62.06,6-6.86C468.17,726.46,482.81,630.09,553.5,555.13Z"/><path class="cls-1" d="M605,621l56.57,55s-3.3,2.64-8.25-1.68c-6.64-5.79-41.2-31.51-65.2-37.31Z"/><path class="cls-1" d="M586,645.1s49.69,15.56,102.3,69.36l93.92,91.65s-5.54,7.12-16.22-2c-68-49.71-144.61-94.53-230.06-104.82Z"/><path class="cls-1" d="M908.31,474.4V469H808.62s-151.63,1-243.26,98l52,52s112.13-117,285.48-138.7A6,6,0,0,0,908.31,474.4Z"/><path class="cls-1" d="M553.5,555.13l-71.82-71.81L501.24,464H731.87s.06,4.61-6.86,6C725,470,628.45,484.44,553.5,555.13Z"/><path class="cls-1" d="M619.52,606.64l55,56.57s2.64-3.3-1.68-8.25c-5.79-6.64-31.51-41.2-37.31-65.2Z"/><path class="cls-1" d="M643.65,587.65S659.21,637.34,713,690l91.65,93.92s7.12-5.54-2-16.22C753,699.7,708.16,623,697.87,537.59Z"/></g></g></svg>