<svg xmlns="http://www.w3.org/2000/svg" viewBox="0 0 947.68 578.27"><defs><style>.cls-1{fill:#fff;}</style></defs><g id="Layer_2" data-name="Layer 2"><g id="_1" data-name="1"><path class="cls-1" d="M167.27,2.67S202.5-8,221.49,13.35L332.42,167.64s16.43,27.56,45.1,27.29c33-.3,73.4,0,73.4,0l-91.39,34.42s-25.45,9.1-41.8-14.11Z"/><path class="cls-1" d="M341.73,253.09S323.17,259,289.41,208l-79.6,97.32v273h33.41V435.86s-2.56-61.9,55.6-47.66V358.65a42.57,42.57,0,0,1,3.68-17.33Z"/><path class="cls-1" d="M278.27,191.37,107.93,403.81S82.73,443,36.58,431.11L252.91,155.4Z"/><path class="cls-1" d="M240.66,138.7l-87,109.35s-19.2,26-47.36,18.41l118-150.91Z"/><path class="cls-1" d="M190.24,333.35v62.92l-146,182h-39a5.22,5.22,0,0,1-4.08-8.47Z"/><polygon class="cls-1" points="190.24 433.35 76.67 578.27 190.24 578.27 190.24 433.35"/><path class="cls-1" d="M297.84,415.05s-10.24-5.12-19.57-1.16-12.5,16.82-12.5,26.32V578.27s19.78-10.68,32.07-32Z"/><path class="cls-1" d="M304.54,416.47V536s26.9-15.83,20.57-59.74C325.11,476.21,318,441,304.54,416.47Z"/><path class="cls-1" d="M559.28,354.83a85,85,0,0,0-79.92-86v40a2.21,2.21,0,0,1-2.21,2.2h-6.62a2.21,2.21,0,0,1-2.21-2.2v-40c-44.62,2.85-79.93,40.64-79.93,86h0a85,85,0,0,0,79.92,86v-40a2.2,2.2,0,0,1,2.21-2.2h6.62a2.2,2.2,0,0,1,2.21,2.2v40c44.62-2.84,79.93-40.63,79.93-86Z"/><path class="cls-1" d="M281.2,62l69.07,99.88c5.58,8.07,15.59,13.75,25,10.84,43.83-13.63,98.62-42.07,98.62-42.07Zm89.35,75.81-22.48-32.51,62.7,22.34s-17.83,9.26-32.1,13.7C375.62,142.29,372.37,140.44,370.55,137.82Z"/><path class="cls-1" d="M780.41,2.67S745.18-8,726.19,13.35L615.26,167.64s-16.43,27.56-45.1,27.29c-33-.3-73.4,0-73.4,0l91.39,34.42s25.45,9.1,41.8-14.11Z"/><path class="cls-1" d="M606,253.09S624.51,259,658.27,208l79.6,97.32v273H704.46V435.86S707,374,648.86,388.2V358.65a42.57,42.57,0,0,0-3.68-17.33Z"/><path class="cls-1" d="M669.41,191.37,839.75,403.81S865,443,911.1,431.11L694.77,155.4Z"/><path class="cls-1" d="M707,138.7l87,109.35s19.2,26,47.36,18.41l-118-150.91Z"/><path class="cls-1" d="M757.44,333.35v62.92l146,182h39a5.21,5.21,0,0,0,4.08-8.47Z"/><polygon class="cls-1" points="757.45 433.35 871 578.27 757.45 578.27 757.45 433.35"/><path class="cls-1" d="M649.84,415.05s10.24-5.12,19.57-1.16,12.5,16.82,12.5,26.32V578.27s-19.78-10.68-32.07-32Z"/><path class="cls-1" d="M643.14,416.47V536s-26.9-15.83-20.57-59.74C622.57,476.21,629.69,441,643.14,416.47Z"/><path class="cls-1" d="M666.48,62l-69.07,99.88c-5.58,8.07-15.58,13.75-24.95,10.84-43.83-13.63-98.62-42.07-98.62-42.07Zm-89.35,75.81,22.48-32.51-62.7,22.34s17.83,9.26,32.1,13.7C572.06,142.29,575.31,140.44,577.13,137.82Z"/></g></g></svg>