<svg xmlns="http://www.w3.org/2000/svg" viewBox="0 0 859.25 921.77"><defs><style>.cls-1{fill:#fff;}</style></defs><g id="Layer_2" data-name="Layer 2"><g id="_1" data-name="1"><path class="cls-1" d="M429.63,448V181.2s-19-7.12-41.54-24.92c0,0-78.86-58.81-103.12-66.73,0,0-18.46,7.92-75.43,62.77,0,0-11.61,9.5-11.61,33.23v53.81s1.61,24.18,21.1,25.31c0,0-5.8,13.72-24.79,26.38,0,0-11.39,7.24-11.6,23.21-.22,16.35-.13,24.26,14.24,35.86,0,0,41.67,36.4,63.82,37.19a42.58,42.58,0,0,0,22.95-8.7s-10.29,13.84-24,20.57c-7.41,3.64-19.52,11.08-19.52,28.64v49.64s1.58,44.09,34.82,44.62c0,0-8.39,56.91,30.16,90.67,0,0,15.33,18,43.15,6.91,0,0,60.93,65.94,81.37,65.94V473c-9.63,1.58-21,12.87-21,12.87-67.76,59.45-125,37.16-125,37.16,90.2-5.93,117.89-55.78,117.89-55.78-40-13.05-83.47-39.16-83.47-39.16C348.92,425.63,403.37,442.35,429.63,448ZM304.55,329a7.43,7.43,0,0,1-8.26-.93c-10.9-9.24-41.78-36.37-61.7-63.36,0,0,62.51,17.41,101.28,40.36,0,0,13.05,9.89,26.11,5.53,16.87-5.62,44.31-7.91,44.31-7.91s-49.64,26.69-80.5,83.66c0,0,20-33,8.12-67.83A124.41,124.41,0,0,0,304.55,329Z"/><path class="cls-1" d="M13.05,158.65S127.25,61.07,195.82,10.3c0,0,12.66-10.3,34.73-10.3H429.63V19.8H227.85a34.34,34.34,0,0,0-20.7,6.92L80.7,121.86s130.55-38.5,148.35-32.31L20.18,250V493.59l96.13-36.67L57,555.05,244.3,723.58l84.45-30.86-28.49,77.14,65.28,59.34V671.36s19,23.73,33.23,32V857.69l30.86,26.11v38l-163.78-146L286,731.88l-45.1,21.37L24.3,559.54l42.16-60.27L0,524.75V239.36l156.66-117.5Z"/><polygon class="cls-1" points="429.63 38.78 334.68 38.78 429.63 100.5 429.63 38.78"/><polygon class="cls-1" points="429.63 38.78 524.57 38.78 429.63 100.5 429.63 38.78"/><path class="cls-1" d="M429.63,448V181.2s19-7.12,41.53-24.92c0,0,78.86-58.81,103.13-66.73,0,0,18.46,7.92,75.42,62.77,0,0,11.61,9.5,11.61,33.23v53.81s-1.61,24.18-21.1,25.31c0,0,5.8,13.72,24.79,26.38,0,0,11.39,7.24,11.61,23.21.22,16.35.12,24.26-14.25,35.86,0,0-41.67,36.4-63.82,37.19a42.6,42.6,0,0,1-22.95-8.7s10.29,13.84,24,20.57c7.42,3.64,19.52,11.08,19.52,28.64v49.64s-1.58,44.09-34.81,44.62c0,0,8.38,56.91-30.17,90.67,0,0-15.33,18-43.15,6.91,0,0-60.92,65.94-81.36,65.94V473c9.62,1.58,21,12.87,21,12.87,67.75,59.45,125,37.16,125,37.16-90.19-5.93-117.89-55.78-117.89-55.78,40-13.05,83.48-39.16,83.48-39.16C510.33,425.63,455.88,442.35,429.63,448ZM554.7,329A7.43,7.43,0,0,0,563,328c10.9-9.24,41.78-36.37,61.7-63.36,0,0-62.51,17.41-101.28,40.36,0,0-13.05,9.89-26.11,5.53-16.86-5.62-44.3-7.91-44.3-7.91s49.63,26.69,80.49,83.66c0,0-20-33-8.12-67.83A124.41,124.41,0,0,1,554.7,329Z"/><path class="cls-1" d="M846.2,158.65S732,61.07,663.43,10.3c0,0-12.66-10.3-34.73-10.3H429.63V19.8H631.4a34.39,34.39,0,0,1,20.71,6.92l126.44,95.14S648,83.36,630.2,89.55L839.08,250V493.59l-96.14-36.67,59.35,98.13L615,723.58l-84.45-30.86L559,769.86,493.71,829.2V671.36s-19,23.73-33.23,32V857.69L429.63,883.8v38l163.78-146-20.18-43.92,45.1,21.37L835,559.54l-42.17-60.27,66.46,25.48V239.36L702.59,121.86Z"/></g></g></svg>