<svg xmlns="http://www.w3.org/2000/svg" viewBox="0 0 948.06 883.02"><defs><style>.cls-1{fill:#fff;}</style></defs><g id="Layer_2" data-name="Layer 2"><g id="_1" data-name="1"><path class="cls-1" d="M182.13,217.2C179.38,184.44,177.27,82.47,245,0c0,0,67.65,96.13,100.88,98.51,0,0,56.18-28.49,127.78-28.49v33.23s-98.11-1.18-156.26,38l-19-41.54-13.06,14.24S256.44,83.65,243.83,51c0,0-38,46.29-58.32,166.39A1.71,1.71,0,0,1,182.13,217.2Z"/><polygon class="cls-1" points="268.76 236.18 320.98 282.46 337.59 259.32 268.76 236.18"/><path class="cls-1" d="M473.68,240.11a412.12,412.12,0,0,1-47.08-4.93s-47.87-13.25-78.14,29.67c0,0-17.2,22-9.87,57.82,0,0,9.29,40.1-43.72,54.74,0,0,31.42,13.76,69.81-7.17a12,12,0,0,0,5.17-15.37c-7.28-16.57-17.28-51.75,14.42-75.41,0,0,21.37-15.33,46.27-9,0,0,23.75,5.68,43.14,8Z"/><path class="cls-1" d="M253.72,189.49s-72,56.18-76.74,125.81,4,109.18,14.24,125c0,0-12.41,40.35,23.46,70.42,0,0,15.31,17.4,25.59,34,0,0,44.31,51.43,69.63,55.38,0,0-7.12-20.57-6.73-39.56l21,39.56s8.7,18.2,24.53,26.9c0,0,32.44,19,53.8,36.4,0,0,27.69,24.36,71.21,24.36V645.23s-129.76-34-142.42-98.11c0,0-28.48-11.87-28.09-45.89V435.56s-.39-14.64,13.06-14.64h11.16s16.95-13.43,45.43-6.3a103.62,103.62,0,0,1,15-11.4,18.42,18.42,0,0,1,20.09.34c13.81,9.33,41.45,25.67,65.75,25.67V290s-18.2-1.58-32.44,8.7l-9.49-3.16s4.74-9.5,17.8-13.06c0,0-59.74-22.15-72.79,28.09,0,0-3.31,17.95,2.56,32,5.93,14.25,16.84,11.87,16.84,11.87s8.68,0,9.08-16.22c0,0-2.77-21.36,7.52-18.2,0,0,15.82,3.17,13.05,19s5.54,22.16,5.54,22.16,11.87,13.84,34,23.34l-3.16,5.14s-40-19-45.1-36c0,0-16.22,19.78-33.84,6.52,0,0-1,34.62-75.74,31.46,0,0-27.3-3.17-31.65,6.72,0,0,9.28,7.92,9.28,24.53v47.41s1.43,20.55-11.22,26.64a3.66,3.66,0,0,1-5.18-3.36V423.3s1.58-26.51-16.62-26.51c0,0-19,0-12.66,29.28v67.25s-6.92-35.41-17.4-45.89c0,0,5.14-49.06-13.46-63.3,0,0-9.49-5.93-8.3-32.83,0,0,.79-60.14,8.7-94.55,0,0-3.56,15.43,14.24,25.71,0,0-3.16-29.67,7.91-46.28S253.72,189.49,253.72,189.49Z"/><path class="cls-1" d="M375.57,430.81s-28.48-14.24-38,0c0,0,15.83,36.4,34,46.68A58.93,58.93,0,0,0,384.27,451s18.62,38.37,44.73,45.49c0,0-5.54-28.48,0-64.88C419.69,424.75,398.53,400.44,375.57,430.81Z"/><path class="cls-1" d="M440.45,438.64S435.7,472,463.39,487c0,0,4-32.61,7.12-48.35C470.47,438.62,440.39,431.27,440.45,438.64Z"/><path class="cls-1" d="M334.7,439.29c2.78,6.49,5.93,17.06,2.15,26,0,0-31.19-13-26-32.12,0,0,4.08-3.18,13.91-1.64A13,13,0,0,1,334.7,439.29Z"/><path class="cls-1" d="M295.1,651.81h0a39.56,39.56,0,0,0-58,17L168.1,825l130.65-110A39.56,39.56,0,0,0,295.1,651.81Zm-5.28,47.43L217,767.83l57.63-99.57C287.75,667.59,299,687.79,289.82,699.24Z"/><path class="cls-1" d="M175.65,611.24s34.56-11.9,20.06-46.73c-9.24-24.4-36.4-29.26-49.58-20.12L0,619.44l175.65-8.2m-13.87-13.85-92.55,8.25,102.25-39.91C180.69,572.86,175.23,594.27,161.78,597.39Z"/><path class="cls-1" d="M282,718.7c74,45.79,145.05,50,145.05,50L421.46,756c-50.35-8.43-92.39-24.2-127.29-44.74Z"/><path class="cls-1" d="M160.88,550C140.62,495,137.17,441.32,143,405.61c11.87,233.53,263.48,285.51,263.48,285.51-13.45-21.36-57-48.26-57-48.26-227.87-99.7-181.19-320.19-181.19-320.19-65.4,70.64-34.7,187.28-19.35,232.17Z"/><path class="cls-1" d="M183.28,598.43l-14,1.81a320.84,320.84,0,0,0,67.14,84.49l3.95-13.6A305.27,305.27,0,0,1,183.28,598.43Z"/><polygon class="cls-1" points="131.87 418.92 0 445.06 135.04 486.99 133.04 463.17 93.63 452.96 131.88 446.25 131.87 418.92"/><path class="cls-1" d="M433.81,741.62s-10-18.06,22.06-21.58l19.51,113.51V699.82s-84.8-1.86-61.83,48.27L475.38,883v-40.8Z"/><path class="cls-1" d="M440.14,621.44s11.07,16.79,30.37,8c0,0-9.49-34.41-7.91-49.65C462.6,579.76,446.16,598.81,440.14,621.44Z"/><path class="cls-1" d="M383.65,602.84c7.88,7.59,24.21,21.23,47.35,10.65,0,0-12.42-41.84-15.87-75.86,0,0-23.08,15.93-34.78,52.06A12.77,12.77,0,0,0,383.65,602.84Z"/><path class="cls-1" d="M346.88,555.43a42.47,42.47,0,0,0,9.27,7c10.44,5.57,22.52-4.1,19.71-15.6-2.58-10.53-4.6-25.63-5.87-38.2,0,0-17.22,12.19-25.43,37.56A9,9,0,0,0,346.88,555.43Z"/><path class="cls-1" d="M334.43,536.34a95.68,95.68,0,0,1,11.69-20.66s-10.9-11.28-11.69-23.94C320.19,496.48,303.17,524.18,334.43,536.34Z"/><path class="cls-1" d="M764.93,217.2C767.68,184.44,769.78,82.47,702,0c0,0-67.65,96.13-100.88,98.51,0,0-56.18-28.49-127.78-28.49v33.23s98.11-1.18,156.26,38l19-41.54,13.06,14.24S690.62,83.65,703.23,51c0,0,38,46.29,58.32,166.39A1.71,1.71,0,0,0,764.93,217.2Z"/><polygon class="cls-1" points="679.3 236.18 627.08 282.46 610.47 259.32 679.3 236.18"/><path class="cls-1" d="M473.38,240.11a412.12,412.12,0,0,0,47.08-4.93s47.86-13.25,78.14,29.67c0,0,17.2,22,9.87,57.82,0,0-9.29,40.1,43.72,54.74,0,0-31.42,13.76-69.81-7.17a12,12,0,0,1-5.17-15.37c7.27-16.57,17.28-51.75-14.42-75.41,0,0-21.37-15.33-46.27-9,0,0-23.76,5.68-43.14,8Z"/><path class="cls-1" d="M693.34,189.49s72,56.18,76.74,125.81-4,109.18-14.24,125c0,0,12.41,40.35-23.47,70.42,0,0-15.3,17.4-25.58,34,0,0-44.31,51.43-69.63,55.38,0,0,7.12-20.57,6.72-39.56l-21,39.56s-8.71,18.2-24.53,26.9c0,0-32.44,19-53.8,36.4,0,0-27.69,24.36-71.21,24.36V645.23s129.76-34,142.42-98.11c0,0,28.48-11.87,28.08-45.89V435.56s.4-14.64-13-14.64H619.67s-16.95-13.43-45.43-6.3a103.62,103.62,0,0,0-15-11.4,18.42,18.42,0,0,0-20.09.34c-13.81,9.33-41.45,25.67-65.75,25.67V290s18.2-1.58,32.44,8.7l9.49-3.16s-4.74-9.5-17.8-13.06c0,0,59.74-22.15,72.79,28.09,0,0,3.31,17.95-2.56,32-5.93,14.25-16.84,11.87-16.84,11.87s-8.69,0-9.08-16.22c0,0,2.77-21.36-7.52-18.2,0,0-15.82,3.17-13,19s-5.54,22.16-5.54,22.16-11.87,13.84-34,23.34l3.16,5.14s40-19,45.1-36c0,0,16.22,19.78,33.84,6.52,0,0,1,34.62,75.74,31.46,0,0,27.3-3.17,31.65,6.72,0,0-9.28,7.92-9.28,24.53v47.41s-1.43,20.55,11.21,26.64a3.66,3.66,0,0,0,5.19-3.36V423.3s-1.58-26.51,16.62-26.51c0,0,19,0,12.66,29.28v67.25s6.92-35.41,17.4-45.89c0,0-5.14-49.06,13.45-63.3,0,0,9.5-5.93,8.31-32.83,0,0-.79-60.14-8.7-94.55,0,0,3.56,15.43-14.24,25.71,0,0,3.16-29.67-7.92-46.28S693.34,189.49,693.34,189.49Z"/><path class="cls-1" d="M572.49,430.81s28.48-14.24,38,0c0,0-15.83,36.4-34,46.68A58.93,58.93,0,0,1,563.79,451s-18.62,38.37-44.73,45.49c0,0,5.54-28.48,0-64.88C528.37,424.75,549.53,400.44,572.49,430.81Z"/><path class="cls-1" d="M507.61,438.64S512.36,472,484.67,487c0,0-4-32.61-7.13-48.35C477.59,438.62,507.67,431.27,507.61,438.64Z"/><path class="cls-1" d="M613.36,439.29c-2.78,6.49-5.93,17.06-2.15,26,0,0,31.19-13,26-32.12,0,0-4.08-3.18-13.92-1.64A13,13,0,0,0,613.36,439.29Z"/><path class="cls-1" d="M649.31,715.06,780,825l-69-156.2a39.56,39.56,0,0,0-58-17h0A39.56,39.56,0,0,0,649.31,715.06Zm24.17-46.8,57.62,99.57-72.86-68.59C649.07,687.79,660.31,667.59,673.48,668.26Z"/><line class="cls-1" x1="948.06" y1="619.44" x2="772.41" y2="611.24"/><path class="cls-1" d="M772.41,611.24s-34.56-11.9-20.06-46.73c9.24-24.4,36.4-29.26,49.58-20.12l146.13,75.05"/><path class="cls-1" d="M776.58,565.73l102.24,39.91-92.54-8.25C772.83,594.27,767.37,572.86,776.58,565.73Z"/><path class="cls-1" d="M666.11,718.7c-74,45.79-145.05,50-145.05,50L526.6,756C577,747.57,619,731.8,653.88,711.26Z"/><path class="cls-1" d="M787.18,550c20.26-55,23.71-108.71,17.92-144.42C793.24,639.14,541.63,691.12,541.63,691.12c13.45-21.36,57-48.26,57-48.26,227.87-99.7,181.19-320.19,181.19-320.19,65.4,70.64,34.7,187.28,19.35,232.17Z"/><path class="cls-1" d="M764.78,598.43l14,1.81a320.67,320.67,0,0,1-67.15,84.49l-3.94-13.6A305.52,305.52,0,0,0,764.78,598.43Z"/><polyline class="cls-1" points="948.06 445.06 813.02 486.99 815.02 463.17 854.43 452.96 816.18 446.25 816.19 418.92 948.06 445.06"/><path class="cls-1" d="M472.68,883v-40.8l41.57-100.6s10-18.06-22.06-21.58L472.68,833.55V699.82s84.8-1.86,61.83,48.27L472.68,883"/><path class="cls-1" d="M507.92,621.44s-11.07,16.79-30.38,8c0,0,9.5-34.41,7.92-49.65C485.46,579.76,501.9,598.81,507.92,621.44Z"/><path class="cls-1" d="M564.41,602.84c-7.88,7.59-24.21,21.23-47.35,10.65,0,0,12.41-41.84,15.87-75.86,0,0,23.08,15.93,34.78,52.06A12.77,12.77,0,0,1,564.41,602.84Z"/><path class="cls-1" d="M601.18,555.43a42.72,42.72,0,0,1-9.27,7c-10.44,5.57-22.52-4.1-19.71-15.6,2.58-10.53,4.6-25.63,5.87-38.2,0,0,17.22,12.19,25.43,37.56A9,9,0,0,1,601.18,555.43Z"/><path class="cls-1" d="M613.63,536.34a96.2,96.2,0,0,0-11.69-20.66s10.9-11.28,11.69-23.94C627.87,496.48,644.88,524.18,613.63,536.34Z"/></g></g></svg>