<svg xmlns="http://www.w3.org/2000/svg" viewBox="0 0 936.09 763"><defs><style>.cls-1{fill:#fff;}</style></defs><g id="Layer_2" data-name="Layer 2"><g id="_1" data-name="1"><path class="cls-1" d="M328.44,187.83c66.36-15.43,86.64-17.4,104.44-35,0,0-41.54-59.27-58.6-92.36a7.34,7.34,0,0,0-13.22.38C350,85.53,329.59,137.73,328.44,187.83Z"/><path class="cls-1" d="M623.56,195S599,72.81,523.28,2.43a8.93,8.93,0,0,0-15,5.27c-6,44-30,161.89-115,177,0,0-151.76,28.27-184.44,61.5,0,0-22.53,56.55-49.68,68.67,0,0-72.87,26.88-159.2,101.82,0,0,30.37,58.07,101.81,89.07a90.6,90.6,0,0,0,60.75,4.15c52.72-14.95,175.52-42.9,259.24-7.81C470,520.93,561.06,593.6,505.67,679.91c0,0-35.63,50.39-23.4,83.09,0,0,387.36-175.61,453.82-294.29C936.09,468.71,752.53,248.76,623.56,195ZM93.45,426.33,65,443.42s-13.06-4.87-19-17.09c0,0,20.14-15.26,52.22-28.83Zm243.3-108.49L281,302.72c21.36-15.26,120.79-37,120.79-37C367.08,278.82,336.75,317.84,336.75,317.84ZM459,199.3c43.34-30,53-70.54,54.92-92a4.39,4.39,0,0,1,8.32-1.51c18,37.27,37.64,122.65,37.64,122.65-33.23-4.12-51-40.59-51-40.59C481.54,195.35,459,199.3,459,199.3ZM553.58,681s77.5-110.58-50.68-189.3C555.12,475.44,599,473.37,599,473.37s-7.1-21-28.46-39.55c0,0,68.83-11.89,118.68-7.49a472.51,472.51,0,0,0-67.67-86.17s33.25-1.17,57.36.56c0,0-7.36-38-30-75,0,0,117.49,76,226.68,204.13C875.56,469.9,775,577.15,553.58,681Z"/></g></g></svg>