<svg xmlns="http://www.w3.org/2000/svg" viewBox="0 0 955.59 776.86"><defs><style>.cls-1{fill:#fff;}</style></defs><g id="Layer_2" data-name="Layer 2"><g id="_1" data-name="1"><path class="cls-1" d="M441,98.77s-15.43,186.31,153.1,412.41l41.53-26.57S553.22,357.87,546.1,286l-9.49,32.32S484.52,221.85,441,98.77Z"/><path class="cls-1" d="M297.43,249.49S355.32,336,400.16,374c0,0,74.37,64.88,142.42,145.58,0,0,48.52,64.35,134,69.63,0,0-36.92-22.16-62.24-53.81,0,0,131.34-84.13,167.21-100.22,0,0,27.82-17.53,58.89-9.62,0,0,25.51,6.46,45,20.17,0,0,12.93-12.26,34.82,5.81,13,10.76,28.65,30.26,35.34,41.14,0,0-45.37-25.32-108.14-8.44,0,0,2.64-27.43-37.45-28S767.28,480,769.39,483.69c0,0-67,29-68,64.88,0,0-18.46,47.47,118.69,87,0,0-83.34.53-161.94-7.91,0,0,23.21,25.32,27.43,42.73s-77.54-24.93-116-59.61c-29.33-26.41-155-144.07-168.27-157.18-50.77-50.25-131.87-105-250-173,0,0-182-99.17-146.64-280.62C63.63,127.12,243.1,270.55,315.23,326.51,310.87,313.07,300.47,292.22,297.43,249.49Z"/><ellipse class="cls-1" cx="808.37" cy="482.51" rx="18.99" ry="13.05"/><path class="cls-1" d="M912.6,495.56s-23-10.68-54.2,4.35c-12.26,5.94-12.57,15.78,13,12.27C891.63,509.41,912.6,495.56,912.6,495.56Z"/><path class="cls-1" d="M616.69,664.09s6.33,64.88,0,89.4c0,0,40.35-25.31,35.6-74.37C652.29,679.12,632.51,671.21,616.69,664.09Z"/><path class="cls-1" d="M593,649.06s13.45,77.16-33.23,106.43c0,0-21.55,14.62-38,21.37,0,0,31.86-119.1,36.5-153.12C558.24,623.74,577.19,638.93,593,649.06Z"/><path class="cls-1" d="M347.28,767.74S488.51,632,518.18,589.32l24.74,22.36S521.74,728.57,462,753.49C462,753.49,408.6,776.86,347.28,767.74Z"/><path class="cls-1" d="M466.36,540.66l38,35.21S421.65,676,318,714.33s-179.6,21-179.6,21S340.55,628.88,466.36,540.66Z"/><path class="cls-1" d="M454.91,529.19,425.42,501.1c-250.67,53.81-250.71,53.73-388.5,96.74,0,0,93.57,57.15,232.82,12.45C321.37,593.27,402.34,555.38,454.91,529.19Z"/><path class="cls-1" d="M413,488.44l-27.9-26.71c-78.33-4.61-249-11.27-368.1-57.16,0,0,47.08,86.24,155.87,104.05C172.82,508.62,266.18,523.25,413,488.44Z"/><path class="cls-1" d="M363.73,442.76S304.55,385.4,196.55,341.88c0,0-127.38-48.08-180.6-108.81,0,0,13.26,87.63,101.09,139.46,0,0,47.87,29.27,130.94,44.31C248,416.84,331.72,433.5,363.73,442.76Z"/></g></g></svg>