<svg xmlns="http://www.w3.org/2000/svg" viewBox="0 0 950.93 914.04"><defs><style>.cls-1{fill:#fff;}</style></defs><g id="Layer_2" data-name="Layer 2"><g id="_1" data-name="1"><polygon class="cls-1" points="450.17 379.14 475.71 423.03 475.71 379.14 450.17 379.14"/><path class="cls-1" d="M475.71,364.84h-176s-17.88.17-17.88-17c0,0,0-15.19,24.79-21.58,19-6.8,57-27,79-47.66,3.47-3.25,8.36-4.5,13.1-4.5h77v19h-71.2a9.82,9.82,0,0,0-6.77,2.71c-7.11,6.79-26.31,24.34-39.41,29h82.29l7.87,11.74a5.66,5.66,0,0,0,4.7,2.5h22.52Z"/><circle class="cls-1" cx="475.71" cy="128.01" r="36.54"/><circle class="cls-1" cx="475.71" cy="689.56" r="33.22"/><circle class="cls-1" cx="248.63" cy="684.56" r="44.63"/><path class="cls-1" d="M297,379.14c-16.82,0-26.33-12.32-26.91-19.57h-2.87a7.88,7.88,0,0,0-4.95,1.74C249.75,371.37,183.22,422.4,103,441.86c0,0-62.17,11.19-98.7,35.46A9.68,9.68,0,0,0,0,485.37v1.11H475.71v-18h-363s108-28.11,144.79-70.83l3.24,7a5.64,5.64,0,0,0,5.12,3.28H428.19a7.23,7.23,0,0,1,5.91,3,464.15,464.15,0,0,1,26.09,41.44S465.41,463,475.71,463v-17.4s-3.44,1.48-6.08-3.48c0,0-18.63-36.06-27.43-49.8a26.09,26.09,0,0,0-22.75-13.13Z"/><path class="cls-1" d="M475.71,881.09C257.33,879.9,78,713.64,56.23,500.72H23.12C45.05,731.86,239.12,912.84,475.71,914Z"/><path class="cls-1" d="M475.71,33V0C227.64,1.26,26.33,200.16,21.16,447.29a282.71,282.71,0,0,1,33.4-12.24C66,211.83,250,34.19,475.71,33Z"/><path class="cls-1" d="M421.71,139.93a55.31,55.31,0,0,1,54-67.23v-16C265.41,57.91,93.53,221.28,78.77,428.11c29.31-8,59.12-15.6,82.42-28.56C185,267.41,289.41,163.29,421.71,139.93Z"/><path class="cls-1" d="M475.71,779a320.45,320.45,0,0,1-177.33-54.75,63.66,63.66,0,1,1-89-89.81,320.92,320.92,0,0,1-35-70.43c-43.8-4.91-71.65-17.37-89.15-29.95C120.93,717.56,282,856.22,475.71,857.35Z"/><path class="cls-1" d="M475.71,501.72h-401c39.17,39.17,103.26,42.73,103.26,42.73C335.12,559,407,641.1,407,641.1h68.72V615.21H416.14a16.6,16.6,0,0,1-12.23-5.38c-16.42-17.87-37-32.94-37-32.94H475.71V566.76H363.17l-5.33,3.65A338.37,338.37,0,0,0,323.14,550H475.71V538.91H309.84l-4.74,3.17c-49.59-16.36-106.55-21.63-106.55-21.63H475.71Z"/><polygon class="cls-1" points="500.76 379.14 475.22 423.03 475.22 379.14 500.76 379.14"/><path class="cls-1" d="M475.22,364.84h176s17.88.17,17.88-17c0,0,0-15.19-24.79-21.58-19-6.8-57-27-79-47.66-3.46-3.25-8.35-4.5-13.1-4.5h-77v19h71.2a9.8,9.8,0,0,1,6.77,2.71c7.11,6.79,26.31,24.34,39.41,29H510.31l-7.86,11.74a5.68,5.68,0,0,1-4.7,2.5H475.22Z"/><circle class="cls-1" cx="702.3" cy="684.56" r="44.63"/><path class="cls-1" d="M653.9,379.14c16.81,0,26.33-12.32,26.9-19.57h2.87a7.86,7.86,0,0,1,5,1.74c12.56,10.06,79.09,61.09,159.28,80.55,0,0,62.16,11.19,98.69,35.46a9.68,9.68,0,0,1,4.34,8.05v1.11H475.22v-18h363s-108-28.11-144.79-70.83l-3.24,7a5.64,5.64,0,0,1-5.12,3.28H522.74a7.2,7.2,0,0,0-5.9,3,461.36,461.36,0,0,0-26.1,41.44S485.52,463,475.22,463v-17.4s3.45,1.48,6.08-3.48c0,0,18.63-36.06,27.43-49.8a26.09,26.09,0,0,1,22.75-13.13Z"/><path class="cls-1" d="M475.22,881.09c218.39-1.19,397.69-167.45,419.49-380.37h33.1C905.88,731.86,711.81,912.84,475.22,914Z"/><path class="cls-1" d="M475.22,33V0C723.29,1.26,924.61,200.16,929.77,447.29a282.06,282.06,0,0,0-33.4-12.24C885,211.83,701,34.19,475.22,33Z"/><path class="cls-1" d="M529.23,139.93a55.31,55.31,0,0,0-54-67.23v-16c210.31,1.23,382.18,164.6,396.94,371.43-29.31-8-59.12-15.6-82.41-28.56C765.94,267.41,661.52,163.29,529.23,139.93Z"/><path class="cls-1" d="M475.22,779a320.45,320.45,0,0,0,177.33-54.75,63.66,63.66,0,1,0,89-89.81,320.48,320.48,0,0,0,35-70.43c43.81-4.91,71.65-17.37,89.15-29.95C830,717.56,668.91,856.22,475.22,857.35Z"/><path class="cls-1" d="M475.22,501.72h401C837.08,540.89,773,544.45,773,544.45,615.81,559,543.94,641.1,543.94,641.1H475.22V615.21h59.57A16.6,16.6,0,0,0,547,609.83c16.42-17.87,37-32.94,37-32.94H475.22V566.76H587.76l5.33,3.65A339.67,339.67,0,0,1,627.79,550H475.22V538.91H641.09l4.75,3.17c49.58-16.36,106.55-21.63,106.55-21.63H475.22Z"/></g></g></svg>