<svg xmlns="http://www.w3.org/2000/svg" viewBox="0 0 978.69 916.22"><defs><style>.cls-1{fill:#fff;}</style></defs><g id="Layer_2" data-name="Layer 2"><g id="_1" data-name="1"><polygon class="cls-1" points="199.38 335.47 199.38 384.53 96.53 428.83 268.43 515.87 268.43 697.85 345.82 636.13 345.82 916.22 302.98 916.22 302.98 720 225.97 788.04 225.97 542.56 0 427.25 199.38 335.47"/><polygon class="cls-1" points="435.17 593.78 435.17 916.22 494.5 916.22 494.5 617.85 435.17 593.78"/><polygon class="cls-1" points="232.62 447.82 401.93 529.32 401.93 372.67 256.06 303.82 400.93 242.11 400.93 154.41 232.62 154.41 232.62 447.82"/><rect class="cls-1" x="232.62" width="94.95" height="117.1"/><polygon class="cls-1" points="363.96 0 363.96 117.1 435.17 117.1 435.17 196.22 477.89 196.22 477.89 0 363.96 0"/><rect class="cls-1" x="515.87" width="101.27" height="196.22"/><rect class="cls-1" x="651.96" width="93.36" height="196.22"/><polygon class="cls-1" points="435.17 230.24 745.32 230.24 745.32 454.82 523.78 560.68 523.78 432.17 628.22 382.53 628.22 345.36 494.5 406.68 494.5 572.86 435.17 543.56 435.17 345.36 348.03 306.99 435.17 271.38 435.17 230.24"/><polygon class="cls-1" points="779.3 335.47 779.3 384.53 882.16 431.83 712.26 515.87 712.26 696.85 640.86 636.13 640.86 916.22 683.71 916.22 683.71 724 754.72 787.04 754.72 543.56 978.69 429.25 779.3 335.47"/><polygon class="cls-1" points="575.44 578.78 575.44 916.22 524.8 916.22 524.8 602.85 575.44 578.78"/></g></g></svg>