<svg xmlns="http://www.w3.org/2000/svg" viewBox="0 0 951.07 951.07"><defs><style>.cls-1{fill:#fff;}</style></defs><g id="Layer_2" data-name="Layer 2"><g id="_1" data-name="1"><polygon class="cls-1" points="475.54 405.1 475.54 333.89 405.12 264.26 475.54 191.47 475.54 139.25 358.44 257.14 322.62 221.33 306.8 237.15 475.54 405.1"/><rect class="cls-1" x="457.63" y="7.42" width="35.81" height="35.81" transform="translate(121.38 343.67) rotate(-45)"/><polygon class="cls-1" points="449.55 92.7 463.27 106.42 452.99 116.7 439.39 103.11 409.68 133.53 422.92 146.77 412.63 157.06 399.52 143.94 369.63 174.56 382.38 187.31 372.1 197.59 359.47 184.96 337.87 207.09 361.39 231.24 475.54 115.35 475.54 66.09 449.55 92.7"/><rect class="cls-1" x="457.63" y="268.51" width="35.81" height="35.81" transform="translate(-63.25 420.14) rotate(-45)"/><polygon class="cls-1" points="475.54 405.1 475.54 333.89 545.95 264.26 475.54 191.47 475.54 139.25 592.63 257.14 628.45 221.33 644.27 237.15 475.54 405.1"/><polygon class="cls-1" points="501.52 92.7 487.8 106.42 498.08 116.7 511.68 103.11 541.39 133.53 528.15 146.77 538.44 157.06 551.55 143.94 581.44 174.56 568.69 187.31 578.97 197.59 591.6 184.96 613.21 207.09 589.68 231.24 475.54 115.35 475.54 66.09 501.52 92.7"/><polygon class="cls-1" points="475.54 545.97 475.54 617.18 545.95 686.81 475.54 759.6 475.54 811.82 592.63 693.93 628.45 729.74 644.27 713.92 475.54 545.97"/><rect class="cls-1" x="457.63" y="907.85" width="35.81" height="35.81" transform="translate(1466.39 1244.1) rotate(135)"/><polygon class="cls-1" points="501.52 858.37 487.8 844.65 498.08 834.37 511.68 847.96 541.39 817.54 528.15 804.3 538.44 794.01 551.55 807.13 581.44 776.51 568.69 763.76 578.97 753.48 591.6 766.11 613.21 743.98 589.68 719.83 475.54 835.72 475.54 884.98 501.52 858.37"/><rect class="cls-1" x="457.63" y="646.75" width="35.81" height="35.81" transform="translate(1281.77 798.38) rotate(135)"/><polygon class="cls-1" points="475.54 545.97 475.54 617.18 405.12 686.81 475.54 759.6 475.54 811.82 358.44 693.93 322.62 729.74 306.8 713.92 475.54 545.97"/><polygon class="cls-1" points="449.55 858.37 463.27 844.65 452.99 834.37 439.39 847.96 409.68 817.54 422.92 804.3 412.63 794.01 399.52 807.13 369.63 776.51 382.38 763.76 372.1 753.48 359.47 766.11 337.87 743.98 361.39 719.83 475.54 835.72 475.54 884.98 449.55 858.37"/><polygon class="cls-1" points="545.97 475.54 617.18 475.54 686.81 405.12 759.6 475.54 811.82 475.54 693.93 358.44 729.74 322.62 713.92 306.8 545.97 475.54"/><rect class="cls-1" x="907.85" y="457.63" width="35.81" height="35.81" transform="translate(607.4 -515.32) rotate(45)"/><polygon class="cls-1" points="858.37 449.55 844.65 463.27 834.37 452.99 847.96 439.39 817.54 409.68 804.3 422.92 794.01 412.63 807.13 399.52 776.51 369.63 763.76 382.38 753.48 372.1 766.11 359.47 743.98 337.87 719.83 361.39 835.72 475.54 884.98 475.54 858.37 449.55"/><rect class="cls-1" x="646.75" y="457.63" width="35.81" height="35.81" transform="translate(530.93 -330.7) rotate(45)"/><polygon class="cls-1" points="545.97 475.54 617.18 475.54 686.81 545.95 759.6 475.54 811.82 475.54 693.93 592.63 729.74 628.45 713.92 644.27 545.97 475.54"/><polygon class="cls-1" points="858.37 501.52 844.65 487.8 834.37 498.08 847.96 511.68 817.54 541.39 804.3 528.15 794.01 538.44 807.13 551.55 776.51 581.44 763.76 568.69 753.48 578.97 766.11 591.6 743.98 613.21 719.83 589.68 835.72 475.54 884.98 475.54 858.37 501.52"/><polygon class="cls-1" points="405.1 475.54 333.89 475.54 264.26 545.95 191.47 475.54 139.25 475.54 257.14 592.63 221.33 628.45 237.15 644.27 405.1 475.54"/><rect class="cls-1" x="7.42" y="457.63" width="35.81" height="35.81" transform="translate(-293.03 829.69) rotate(-135)"/><polygon class="cls-1" points="92.7 501.52 106.42 487.8 116.7 498.08 103.11 511.68 133.53 541.39 146.77 528.15 157.06 538.44 143.94 551.55 174.56 581.44 187.31 568.69 197.59 578.97 184.96 591.6 207.09 613.21 231.24 589.68 115.35 475.54 66.09 475.54 92.7 501.52"/><rect class="cls-1" x="268.51" y="457.63" width="35.81" height="35.81" transform="translate(152.69 1014.32) rotate(-135)"/><polygon class="cls-1" points="405.1 475.54 333.89 475.54 264.26 405.12 191.47 475.54 139.25 475.54 257.14 358.44 221.33 322.62 237.15 306.8 405.1 475.54"/><polygon class="cls-1" points="92.7 449.55 106.42 463.27 116.7 452.99 103.11 439.39 133.53 409.68 146.77 422.92 157.06 412.63 143.94 399.52 174.56 369.63 187.31 382.38 197.59 372.1 184.96 359.47 207.09 337.87 231.24 361.39 115.35 475.54 66.09 475.54 92.7 449.55"/></g></g></svg>