<svg xmlns="http://www.w3.org/2000/svg" viewBox="0 0 988.75 479.47"><defs><style>.cls-1{fill:#fff;}</style></defs><g id="Layer_2" data-name="Layer 2"><g id="_1" data-name="1"><path class="cls-1" d="M557.8,192.13,521.41,151c23.17-13.47,34.7,4.8,38.49,13a.76.76,0,0,0,1.46-.32V133.19c-.39-24.53-26.11-23-26.11-23l-24.13-1.18c-11.47-13.46-36.39-11.48-36.39-11.48-17.41,0-17.41,12.77-17.41,12.77-16.88,76-30.59,86.79-35.61,88.46l72.66,83.26L567,197.67C561.49,197.41,557.8,192.13,557.8,192.13Zm-61.66,63.35-9-10.49,27.9-32.7-11.61-13.14-27.9,31.12-26.43-28.59s28-32.7,27.43-48c-.53-8,5.28-21.68,20.05-4.22,16,18.93,45.3,51.75,45.3,51.75Z"/><path class="cls-1" d="M494.37,325.77,428.44,250.6,327.56,365.33h22.55s16.24-.19,29.69-16.41l51.41-58,63.16,71.2Z"/><path class="cls-1" d="M462.72,349.85l-62.41,71h23.3s16.78-.2,30.68-17l28.33-31.94Z"/><path class="cls-1" d="M431.48,315.07,364.74,391H388s16.78-.19,30.68-17l32.68-36.85Z"/><polygon class="cls-1" points="494.37 381.76 445.85 436.35 494.37 479.47 494.37 381.76"/><path class="cls-1" d="M0,0H375c17.41,0,30.07,3.16,38.77,16.22L391,44.1a6.33,6.33,0,0,0,.56,8.6l30.13,28.4c-13.45,13.45-51,68.83,0,117.71h-98.9c-22.15.23-36.79-2.59-58.15-22.37H372.08s-9.71-15-9.71-29.28H291.56c-22.94,0-39.18-7.91-57-24.13H363a60.92,60.92,0,0,1,11.28-26.55l-104,1s-31.25.63-60.93-29H367.91L347.74,47.87S339,38,307.78,38H87.43C68,37.51,49.85,39.56,31.25,26.51,31.25,26.51,10.68,11.87,0,0Z"/><path class="cls-1" d="M181.09,67.72H74.83C83,76.8,98.74,88,98.74,88c14.23,10,28.14,8.42,43,8.78h72.69Z"/><path class="cls-1" d="M210.86,123.29H117.35A252.19,252.19,0,0,0,137.7,140c14.23,10,28.14,8.42,43,8.78l59.36,0Z"/><path class="cls-1" d="M245.67,176.5H163.82a220.47,220.47,0,0,0,17.81,14.64c12.45,8.74,24.63,7.37,37.63,7.68l52,0Z"/><path class="cls-1" d="M494.37,325.77l65.94-75.17L661.19,365.33H638.64s-16.24-.19-29.69-16.41l-51.41-58-63.17,71.2Z"/><path class="cls-1" d="M526,349.85l62.41,71h-23.3s-16.79-.2-30.68-17l-28.33-31.94Z"/><path class="cls-1" d="M557.27,315.07,624,391h-23.3s-16.78-.19-30.68-17l-32.68-36.85Z"/><polygon class="cls-1" points="494.37 381.76 542.9 436.35 494.37 479.47 494.37 381.76"/><path class="cls-1" d="M988.75,0h-375C596.31,0,583.65,3.16,575,16.22L597.73,44.1a6.34,6.34,0,0,1-.56,8.6L567,81.1c13.45,13.45,51,68.83,0,117.71h98.9c22.16.23,36.8-2.59,58.16-22.37H616.67s9.7-15,9.7-29.28h70.82c22.94,0,39.18-7.91,57-24.13H625.79a60.92,60.92,0,0,0-11.28-26.55l104,1s31.25.63,60.92-29H620.84L641,47.87S649.71,38,681,38H901.32c19.41-.47,37.58,1.58,56.17-11.47C957.49,26.51,978.07,11.87,988.75,0Z"/><path class="cls-1" d="M807.65,67.72H913.92C905.75,76.8,890,88,890,88c-14.23,10-28.14,8.42-43,8.78H774.33Z"/><path class="cls-1" d="M777.89,123.29h93.5A250.27,250.27,0,0,1,851,140c-14.22,10-28.13,8.42-43,8.78l-59.36,0Z"/><path class="cls-1" d="M743.08,176.5h81.85a220.47,220.47,0,0,1-17.81,14.64c-12.46,8.74-24.63,7.37-37.63,7.68l-52,0Z"/></g></g></svg>