<svg xmlns="http://www.w3.org/2000/svg" viewBox="0 0 995.33 985.85"><defs><style>.cls-1{fill:#fff;}</style></defs><g id="Layer_2" data-name="Layer 2"><g id="_1" data-name="1"><path class="cls-1" d="M213.46,362.63V0H239V360.63A99.47,99.47,0,0,0,213.46,362.63Z"/><path class="cls-1" d="M213.46,610V985.85H239V612A99,99,0,0,1,213.46,610Z"/><path class="cls-1" d="M109.11,486.52a125.6,125.6,0,0,1,68.5-111.9V0H0V985.85H177.61V598.43A125.61,125.61,0,0,1,109.11,486.52Z"/><path class="cls-1" d="M226.2,427.68a55.66,55.66,0,1,0,55.66,55.66A55.65,55.65,0,0,0,226.2,427.68Zm0,93.15A37.44,37.44,0,0,1,189.1,478a37.49,37.49,0,0,0,74.21,0,37.44,37.44,0,0,1-37.11,42.83Z"/><path class="cls-1" d="M497.91,55a55.66,55.66,0,1,0,55.66,55.66A55.66,55.66,0,0,0,497.91,55Zm0,93.15a37.44,37.44,0,0,1-37.1-42.83,37.49,37.49,0,0,0,74.21,0,37.44,37.44,0,0,1-37.11,42.83Z"/><path class="cls-1" d="M497.91,849a55.66,55.66,0,1,0,55.66,55.66A55.66,55.66,0,0,0,497.91,849Zm0,93.15a37.44,37.44,0,0,1-37.1-42.83,37.49,37.49,0,0,0,74.21,0,37.44,37.44,0,0,1-37.11,42.83Z"/><path class="cls-1" d="M396.57,368.08c-21.91-3.88-42.27-9.09-58.46-14.81a5.55,5.55,0,0,0-7.38,5.25h0a5.58,5.58,0,0,0,3.21,5.05c14.46,6.81,37.1,13.58,60.6,18.09a5.56,5.56,0,0,0,6.6-5.46v-2.64A5.56,5.56,0,0,0,396.57,368.08Z"/><path class="cls-1" d="M409.85,378.09v.2a6.82,6.82,0,0,0,5.95,6.78c4.6.58,9.15,1.05,13.58,1.39a6.84,6.84,0,0,0,7.37-6.81h0a6.8,6.8,0,0,0-6.1-6.78q-6.57-.69-13.09-1.54A6.82,6.82,0,0,0,409.85,378.09Z"/><path class="cls-1" d="M299.46,247.69c34.43-26.55,131-37.65,198.46-37.65V199.62s-148.21-5-215.38,43.1a25.1,25.1,0,0,0-10.41,23.22l4.4,38.68s22.55,32,174.46,49.84c0,0,4.75,51.43,1.37,107,0,0-82.87-13.28-104.23-28.32,0,0-13.87-7.49-20.2-18.57,0,0-.16,72.58,3,89.82l-16.82,16.42s-7.12-114.94-5.54-179c0,0-16.61-8.7-22.15-11.87,0,0-5.71,136.88,22,273.76,0,0-19.62,6.31-19.62,51.73,0,0-4,24.85,13.62,42.52,24,26.22,128.77,114.91,195.51,112.26V290.71c-99.85-.73-167.19-16.56-197.48-30.93C290.6,255.11,299.46,247.69,299.46,247.69Zm153.9,314.19v70.3L373.45,529c27.83,12.33,61.55,22.19,74.49,25.8A7.39,7.39,0,0,1,453.36,561.88Zm-96.69-89.6a2.48,2.48,0,0,1,3.39-2.3,473.26,473.26,0,0,0,74.73,22.53,2.47,2.47,0,0,1,2,2.41v18.87a2.47,2.47,0,0,1-2.85,2.45,279.49,279.49,0,0,1-75.82-23.43,2.48,2.48,0,0,1-1.41-2.24Zm-42,211.05c-3.91.55-7.71-3.53-8.49-9.1s1.76-10.53,5.67-11.08,7.71,3.53,8.49,9.1S318.6,682.79,314.69,683.33Zm21.2-35s-19.41-81.07-19.41-115.89l21.74-21.15a70.58,70.58,0,0,0,16.62,9.5s72.41,101.85,98.52,120v83.28S374.66,692.68,335.89,648.37Zm125.32,133c-5.49,0-9.95-5.31-9.95-11.87s4.46-11.87,9.95-11.87,10,5.32,10,11.87S466.71,781.32,461.21,781.32Zm-.79-467.61c5.06,0,9.16,5.32,9.16,11.87s-4.1,11.87-9.16,11.87-9.16-5.31-9.16-11.87S455.36,313.71,460.42,313.71ZM300.26,283.84c3.91-.55,7.71,3.53,8.48,9.1S307,303.48,303.07,304s-7.71-3.53-8.49-9.1S296.34,284.39,300.26,283.84Z"/><path class="cls-1" d="M497.92,222.59s-117.08,0-168.41,27.6a1630.35,1630.35,0,0,1,168.41-9.14Z"/><path class="cls-1" d="M599.26,368.08c21.91-3.88,42.27-9.09,58.46-14.81a5.55,5.55,0,0,1,7.38,5.25h0a5.58,5.58,0,0,1-3.21,5.05c-14.46,6.81-37.1,13.58-60.6,18.09a5.56,5.56,0,0,1-6.6-5.46v-2.64A5.56,5.56,0,0,1,599.26,368.08Z"/><path class="cls-1" d="M586,378.09v.2a6.82,6.82,0,0,1-6,6.78c-4.6.58-9.15,1.05-13.58,1.39a6.84,6.84,0,0,1-7.37-6.81h0a6.8,6.8,0,0,1,6.1-6.78q6.57-.69,13.09-1.54A6.82,6.82,0,0,1,586,378.09Z"/><path class="cls-1" d="M696.37,247.69C661.94,221.14,565.41,210,497.91,210V199.62s148.21-5,215.38,43.1a25.1,25.1,0,0,1,10.41,23.22l-4.4,38.68s-22.55,32-174.46,49.84c0,0-4.75,51.43-1.37,107,0,0,82.87-13.28,104.23-28.32,0,0,13.87-7.49,20.2-18.57,0,0,.16,72.58-3,89.82l16.82,16.42s7.12-114.94,5.54-179c0,0,16.61-8.7,22.15-11.87,0,0,5.71,136.88-22,273.76,0,0,19.62,6.31,19.62,51.73,0,0,4,24.85-13.62,42.52-24,26.22-128.77,114.91-195.51,112.26V290.71c99.85-.73,167.19-16.56,197.48-30.93C705.23,255.11,696.37,247.69,696.37,247.69ZM542.47,561.88v70.3L622.38,529c-27.83,12.33-61.55,22.19-74.49,25.8A7.39,7.39,0,0,0,542.47,561.88Zm96.69-89.6a2.48,2.48,0,0,0-3.39-2.3A473.26,473.26,0,0,1,561,492.51a2.47,2.47,0,0,0-2,2.41v18.87a2.47,2.47,0,0,0,2.85,2.45,279.49,279.49,0,0,0,75.82-23.43,2.48,2.48,0,0,0,1.41-2.24Zm42,211.05c3.91.55,7.71-3.53,8.49-9.1s-1.76-10.53-5.67-11.08-7.71,3.53-8.49,9.1S677.23,682.79,681.14,683.33Zm-21.2-35s19.41-81.07,19.41-115.89l-21.74-21.15a70.58,70.58,0,0,1-16.62,9.5s-72.41,101.85-98.52,120v83.28S621.17,692.68,659.94,648.37Zm-125.32,133c5.49,0,10-5.31,10-11.87s-4.46-11.87-10-11.87-10,5.32-10,11.87S529.12,781.32,534.62,781.32Zm.79-467.61c-5.06,0-9.16,5.32-9.16,11.87s4.1,11.87,9.16,11.87,9.16-5.31,9.16-11.87S540.47,313.71,535.41,313.71Zm160.16-29.87c-3.91-.55-7.71,3.53-8.48,9.1s1.76,10.54,5.67,11.08,7.71-3.53,8.49-9.1S699.49,284.39,695.57,283.84Z"/><path class="cls-1" d="M497.91,222.59s117.08,0,168.41,27.6a1630.35,1630.35,0,0,0-168.41-9.14Z"/><path class="cls-1" d="M781.87,362.63V0H756.38V360.63A99.47,99.47,0,0,1,781.87,362.63Z"/><path class="cls-1" d="M781.87,610V985.85H756.38V612A99,99,0,0,0,781.87,610Z"/><path class="cls-1" d="M886.22,486.52a125.6,125.6,0,0,0-68.5-111.9V0H995.33V985.85H817.72V598.43A125.61,125.61,0,0,0,886.22,486.52Z"/><path class="cls-1" d="M769.13,427.68a55.66,55.66,0,1,1-55.66,55.66A55.65,55.65,0,0,1,769.13,427.68Zm0,93.15A37.44,37.44,0,0,0,806.23,478,37.49,37.49,0,0,1,732,478a37.44,37.44,0,0,0,37.11,42.83Z"/></g></g></svg>