<svg xmlns="http://www.w3.org/2000/svg" viewBox="0 0 980.5 980.17"><defs><style>.cls-1{fill:#fff;}</style></defs><g id="Layer_2" data-name="Layer 2"><g id="_1" data-name="1"><path class="cls-1" d="M265.85,674.91c-55.78,13.12-28.49,45-28.49,45-15.43,30.86,14.24,39.61,14.24,39.61,26.11,12.31,46.29-31.67,46.29-31.67H364c32,56.42,126.17,165.34,126.17,165.34v-45.1c-32.82-36.45-69.69-88.57-85.45-125.81a452.55,452.55,0,0,1,76,6.57c-16.62-16-96.13-79-96.13-79,1.18,22.55,16.61,38.17,16.61,38.17-28.48-1.91-46.28-91.58-46.28-91.58,17.8-22.55,65.46-114.87,65.46-114.87l53.22,39.19a47.21,47.21,0,0,1,16.61,23.33V486.64l-48.66-39.33c13.06-21.76,48.66-48.2,48.66-48.2V334.17c-33.23,17.8-80.7,91.38-80.7,91.38-45.1-28.48-91.38-74.77-91.38-74.77l-67.65-81.89s-51-67.65-68.84-35.6,19,49.84,19,49.84c28.48,54.6,115.12,313.32,115.12,313.32Zm63.71-35.64c3.56,19.46,14.43,46.85,14.43,46.85H310.76S314.94,669,329.56,639.27Zm8.93-84.36L261.54,358s80.7,72.72,127,102.79A879.78,879.78,0,0,1,338.49,554.91Z"/><path class="cls-1" d="M714.46,674.91c55.78,13.12,28.49,45,28.49,45,15.42,30.86-14.25,39.61-14.25,39.61-26.11,12.31-46.28-31.67-46.28-31.67H616.33c-32,56.42-126.18,165.34-126.18,165.34v-45.1c32.82-36.45,69.7-88.57,85.45-125.81a452.5,452.5,0,0,0-76,6.57c16.61-16,96.13-79,96.13-79C594.59,672.41,579.16,688,579.16,688c28.49-1.91,46.29-91.58,46.29-91.58C607.65,573.9,560,481.58,560,481.58l-53.22,39.19a47.19,47.19,0,0,0-16.62,23.33V486.64l48.66-39.33c-13-21.76-48.66-48.2-48.66-48.2V334.17c33.23,17.8,80.71,91.38,80.71,91.38,45.1-28.48,91.38-74.77,91.38-74.77l67.65-81.89s51-67.65,68.84-35.6-19,49.84-19,49.84c-28.49,54.6-115.12,313.32-115.12,313.32Zm-63.71-35.64c-3.56,19.46-14.43,46.85-14.43,46.85h33.23S665.36,669,650.75,639.27Zm-8.94-84.36,77-196.94s-80.7,72.72-127,102.79A880.69,880.69,0,0,0,641.81,554.91Z"/><path class="cls-1" d="M490.15,75.44s165.07-7.91,285.09,105.81c116.68,110.56,135.43,220.86,135,296.52,0,0,14.24,168.53-113.94,299.38-89,92.27-198.2,135.44-306.2,134.81,0,0-179.39-6.08-302.26-134.81-122.24-130-110.75-284-110.75-284-.22-91.07,34.42-266.62,191.08-359.59,0,0-38.11,14.38-76.62,56s10.75-28.35,69.94-59.08c0,0-21.8,4-22.46-.53.52-12.13,27.43-20,27.43-20s9-18.46-15.83-7.91-82.81,52.75-90.2,60.13c0,0,58-66.57,97.59-86.82,0,0,8.44-9.18,12.13-18.67C270.2,56.72,0,169.36,0,497.43,0,693.8,140.23,834.81,140.23,834.81s120.87,145,349.92,145c0,0,189.89,15.77,360.8-156.49,0,0,135.29-131.9,129.36-343.16,0,0,8.31-196.38-157.85-351.06C663.7-18.72,490.15.86,490.15.86S356-5.26,359.6,68.32C361.85,114.69,490.15,75.44,490.15,75.44Z"/></g></g></svg>