<svg xmlns="http://www.w3.org/2000/svg" viewBox="0 0 809.43 946.29"><defs><style>.cls-1{fill:#fff;}</style></defs><g id="Layer_2" data-name="Layer 2"><g id="_1" data-name="1"><path class="cls-1" d="M404.9,323.6l-61.72-57s-5.93-5.94-5.93-89l-15.43-17.81V123.17a16.31,16.31,0,0,1,12.1-15.77c13.55-3.6,38-8.48,71-8.48"/><path class="cls-1" d="M404.9,353.27s-55.78-39.86-83.08-73.93l-51.57-4.85a13.82,13.82,0,0,1-11.07-7.58c-5.81-11.61-18.25-34.5-28.74-40.62l-25.27,43.93a15.44,15.44,0,0,0-2,7.56c-.11,13.27-.78,56.1-4.92,78.21a14.46,14.46,0,0,1-9.77,11.1c-10.51,3.4-29.52,9.1-41.07,9.92,0,0-7.12,19,0,36.79a305.73,305.73,0,0,0,55.53-6.49c48.1-11.5,92.82-5.38,143.85,32.6,0,0,34.42-7,58.16-7Z"/><path class="cls-1" d="M314.7,264.26V191.52l-13.05-17.45V140.84s-38,5.93-71.21,22.54c0,0,9.49,12.27,5.93,51.83,0,0,18.43,15.48,28.11,37.75a13.28,13.28,0,0,0,11,8Z"/><path class="cls-1" d="M404.9,450.59a298.86,298.86,0,0,0-49.85,10.68L380,505.19s10.68-10.68,24.92-10.68Z"/><path class="cls-1" d="M336.06,479.21l27.3,37.54s-19,56.9-34.42,74.89c0,0-33.06,34.29-72.9,44.94a5.28,5.28,0,0,1-6.61-5.13h0a5.26,5.26,0,0,1,2.29-4.36,269.4,269.4,0,0,0,63-62.56s-102.07,78.9-159-47.78c0,0,15.82,6.24,27.49,6.24,0,0-29.87-36.79-35-90.11l17-1S192,500.19,259.67,516.8C295.71,523,314.7,505.19,336.06,479.21Z"/><path class="cls-1" d="M253.18,432.34a18.77,18.77,0,1,0,37.53,0c0-.6,0-1.2-.09-1.79a141,141,0,0,0-35.21-7.09A18.71,18.71,0,0,0,253.18,432.34Z"/><path class="cls-1" d="M303.44,435.74A31.68,31.68,0,1,1,241.65,423a195,195,0,0,0-54.33,8.85s54.59,88.74,139.25,18.71C326.57,450.59,318.79,443,303.44,435.74Z"/><path class="cls-1" d="M148.19,279.34s66-110,74.73-110c0,0,11.66,26.53-1,47.89l-27,45.25a23.8,23.8,0,0,0-3.25,10.38l-4.34,60.26s-2.29,23.74-39.13,28.48V282.46"/><path class="cls-1" d="M344.77,596.57s22.15,48.27,38.77,0A265.34,265.34,0,0,1,344.77,596.57Z"/><path class="cls-1" d="M290.71,651.16c0-20.82,54.06-19,114.19-19v41.93c-29.28,0-60.13,1.58-60.13,14.24,0,0-15.83-12.66-15-30.86a397,397,0,0,1-34.81,53S290.71,678.84,290.71,651.16Z"/><path class="cls-1" d="M321.82,757.19s4.75-20.57,18.2-38.77c0,0-3.11,10.59,64.88,12.07v41.73S321.82,773.1,321.82,757.19Z"/><path class="cls-1" d="M404.9,803.87s-40.91-.6-53.55,3.41a5.52,5.52,0,0,0-3.83,4.62l-2.17,19a5.49,5.49,0,0,0,4.6,6,371.77,371.77,0,0,0,54.95,4.47Z"/><path class="cls-1" d="M290.71,721.58s20.83,45.1,31.11,50.65c0,0,0,47.8-7.91,50.4,0,0-11.08-23.51-19.78-37.75C294.13,784.88,286.22,782.51,290.71,721.58Z"/><path class="cls-1" d="M269.94,742.2l2-52.27-35.57-64.08s-20.61,0-38.81-11.87Z"/><path class="cls-1" d="M404.9,903.56c-66.46-7.91-136.88-15.82-177.08-90.2L144.19,659.08s-27.29,3.16-43.12,0c0,0,85.45,169.32,103.65,200.17,0,0,23.1,47.48,80.71,64.09,0,0,59.89,19.78,119.47,22.95Z"/><path class="cls-1" d="M129.56,586.29V618s-46.68,2.38-68.05-15.87c0,0-32.44-24.57-37.18-37.23,0,0,30.06,6.33,41.14-19.78,0,0-42.73,15.54-44.31-10.82l-4.75-94.41s1.82-22.41-12-25.36a5.36,5.36,0,0,1-3.78-7.68,49.51,49.51,0,0,1,17.28-19.28,8.51,8.51,0,0,1,13,6.83L33,439.91c2.37,37.6,18.38,40.27,30.46,37.6,0,0,17.71-37.24,50.56-43.09A10.72,10.72,0,0,1,126.6,445l1,32.5S94.74,476.31,94.74,523,101.07,586.29,129.56,586.29Z"/><path class="cls-1" d="M64.78,392.44s21.87-.35,28.2-13.8c0,0-4.36-111.21,9.09-142.07,0,0,21.16-72,90.78-117.89,0,0,41.9-25.32,85.6-38a7.78,7.78,0,0,0,5.2-5.57c1.82-6.9,9.22-20.73,39.08-25.83,0,0,47.35-7.33,82.17-6.53V0S249,0,154.08,78.33c0,0-81.86,64.88-107.18,148l-1,112.35,18.88,13.45Z"/><path class="cls-1" d="M404.53,323.6l61.72-57s5.93-5.94,5.93-89l15.43-17.81V123.17a16.31,16.31,0,0,0-12.1-15.77c-13.55-3.6-38-8.48-71-8.48"/><path class="cls-1" d="M404.53,353.27s55.78-39.86,83.08-73.93l51.57-4.85a13.82,13.82,0,0,0,11.07-7.58c5.81-11.61,18.25-34.5,28.74-40.62l25.27,43.93a15.44,15.44,0,0,1,2,7.56c.11,13.27.78,56.1,4.93,78.21a14.43,14.43,0,0,0,9.76,11.1c10.51,3.4,29.52,9.1,41.07,9.92,0,0,7.12,19,0,36.79a305.73,305.73,0,0,1-55.53-6.49c-48.1-11.5-92.82-5.38-143.85,32.6,0,0-34.42-7-58.16-7Z"/><path class="cls-1" d="M494.73,264.26V191.52l13.06-17.45V140.84s38,5.93,71.2,22.54c0,0-9.49,12.27-5.93,51.83,0,0-18.43,15.48-28.11,37.75a13.28,13.28,0,0,1-11.05,8Z"/><path class="cls-1" d="M404.53,450.59a298.86,298.86,0,0,1,49.85,10.68l-24.92,43.92s-10.69-10.68-24.93-10.68Z"/><path class="cls-1" d="M473.37,479.21l-27.3,37.54s19,56.9,34.42,74.89c0,0,33.06,34.29,72.9,44.94a5.28,5.28,0,0,0,6.61-5.13h0a5.26,5.26,0,0,0-2.29-4.36,269.4,269.4,0,0,1-63-62.56s102.07,78.9,159-47.78c0,0-15.82,6.24-27.49,6.24,0,0,29.87-36.79,35-90.11l-17-1s-26.86,68.31-94.51,84.92C513.72,523,494.73,505.19,473.37,479.21Z"/><path class="cls-1" d="M556.25,432.34a18.77,18.77,0,1,1-37.53,0c0-.6,0-1.2.09-1.79A141,141,0,0,1,554,423.46,18.71,18.71,0,0,1,556.25,432.34Z"/><path class="cls-1" d="M506,435.74A31.68,31.68,0,1,0,567.78,423a195,195,0,0,1,54.33,8.85s-54.59,88.74-139.25,18.71C482.86,450.59,490.64,443,506,435.74Z"/><path class="cls-1" d="M661.24,279.34s-66-110-74.73-110c0,0-11.66,26.53,1,47.89l27,45.25a23.67,23.67,0,0,1,3.25,10.38l4.34,60.26s2.29,23.74,39.13,28.48V282.46"/><path class="cls-1" d="M464.66,596.57s-22.15,48.27-38.77,0A265.34,265.34,0,0,0,464.66,596.57Z"/><path class="cls-1" d="M518.72,651.16c0-20.82-54.06-19-114.19-19v41.93c29.28,0,60.13,1.58,60.13,14.24,0,0,15.83-12.66,15-30.86a397,397,0,0,0,34.81,53S518.72,678.84,518.72,651.16Z"/><path class="cls-1" d="M487.61,757.19s-4.75-20.57-18.2-38.77c0,0,3.11,10.59-64.88,12.07v41.73S487.61,773.1,487.61,757.19Z"/><path class="cls-1" d="M404.53,803.87s40.91-.6,53.55,3.41a5.52,5.52,0,0,1,3.83,4.62l2.17,19a5.49,5.49,0,0,1-4.6,6,371.77,371.77,0,0,1-55,4.47Z"/><path class="cls-1" d="M518.72,721.58s-20.83,45.1-31.11,50.65c0,0,0,47.8,7.91,50.4,0,0,11.08-23.51,19.78-37.75C515.3,784.88,523.21,782.51,518.72,721.58Z"/><path class="cls-1" d="M539.49,742.2l-2-52.27,35.57-64.08s20.62,0,38.81-11.87Z"/><path class="cls-1" d="M404.53,903.56c66.46-7.91,136.88-15.82,177.08-90.2l83.63-154.28s27.29,3.16,43.12,0c0,0-85.45,169.32-103.65,200.17,0,0-23.1,47.48-80.71,64.09,0,0-59.89,19.78-119.47,22.95Z"/><path class="cls-1" d="M679.87,586.29V618s46.68,2.38,68-15.87c0,0,32.44-24.57,37.18-37.23,0,0-30.06,6.33-41.14-19.78,0,0,42.73,15.54,44.31-10.82L793,439.91s-1.82-22.41,12-25.36a5.36,5.36,0,0,0,3.78-7.68,49.43,49.43,0,0,0-17.28-19.28,8.51,8.51,0,0,0-13,6.83l-2.16,45.49c-2.37,37.6-18.37,40.27-30.46,37.6,0,0-17.71-37.24-50.56-43.09A10.72,10.72,0,0,0,682.83,445l-1,32.5s32.86-1.2,32.86,45.48S708.36,586.29,679.87,586.29Z"/><path class="cls-1" d="M744.65,392.44s-21.87-.35-28.19-13.8c0,0,4.35-111.21-9.1-142.07,0,0-21.16-72-90.78-117.89,0,0-41.9-25.32-85.6-38a7.8,7.8,0,0,1-5.2-5.57c-1.82-6.9-9.22-20.73-39.08-25.83,0,0-47.35-7.33-82.17-6.53V0S560.4,0,655.35,78.33c0,0,81.86,64.88,107.18,148l1,112.35-18.88,13.45Z"/></g></g></svg>