<svg xmlns="http://www.w3.org/2000/svg" viewBox="0 0 634.57 960.95"><defs><style>.cls-1{fill:#fff;}</style></defs><g id="Layer_2" data-name="Layer 2"><g id="_1" data-name="1"><path class="cls-1" d="M380.7,5.17H347.48a48.4,48.4,0,0,0-48.4,48.4V210.9a48.4,48.4,0,0,0,48.4,48.41H380.7a48.4,48.4,0,0,0,48.4-48.41V53.57A48.4,48.4,0,0,0,380.7,5.17ZM406,204.1a29.21,29.21,0,0,1-29.21,29.21H351.37a29.2,29.2,0,0,1-29.2-29.21V60.38a29.2,29.2,0,0,1,29.2-29.21H376.8A29.21,29.21,0,0,1,406,60.38Z"/><path class="cls-1" d="M513.31,21.77H486c-22,0-39.74,19.1-39.74,42.65V203.05c0,23.55,17.79,42.65,39.74,42.65h27.27c22,0,39.74-19.1,39.74-42.65V64.42C553.05,40.87,535.26,21.77,513.31,21.77ZM534.1,197.05c0,14.22-10.74,25.74-24,25.74H489.24c-13.25,0-24-11.52-24-25.74V70.42c0-14.21,10.74-25.73,24-25.73h20.87c13.25,0,24,11.52,24,25.73Z"/><path class="cls-1" d="M125.8,161.54V36.5S127.18,0,175.84,0h48.28s51.22-2.71,51.22,49.68V238.57s5.93,47.48-42.72,47.48h-27.3V178.52a16.12,16.12,0,0,0-15.9-16.12Z"/><path class="cls-1" d="M100.88,161.54V59.36s2.19-32-33.42-32H31.23S0,27.32,0,59.36V162.62Z"/><path class="cls-1" d="M0,185.17H179.21V305H41.54v30.85h130L183,348.35l-75,52.82,17.8,21.36,79.71-53,81.76,77.84s10.81,7.17,10.81,24.42V626.66S127,627.41,0,507.54Z"/><path class="cls-1" d="M582.73,445.77V241a12.66,12.66,0,1,0-25.32,0v30.23c-.79,33.06-38,36.23-38,36.23H476.62c-29.19,0-40.76-15.83-40.76-15.83-11.69,28.49-45.15,31.65-45.15,31.65H343.78c-29.27,0-44.7-24.52-44.7-24.52-16.22,38.76-74.77,38-74.77,38l99.58,95.16a23.38,23.38,0,0,1,7.23,16.92v179.9C572.44,625.1,582.82,496.51,582.73,445.77ZM478.33,572.46s-55.82,26.11-115.76,26.9v-159H554.66S566.94,532.11,478.33,572.46Zm75.91-161.78H354.34a25.73,25.73,0,0,1-17.08-6.48L278.9,352.51s18.2-1.58,28.48-12.66c0,0,10.29,12.66,37.89,12.66H392s32.8,0,50.82-20.57a63.38,63.38,0,0,0,34.63,10.28h42.73s20.57,0,34-15Z"/><path class="cls-1" d="M67.65,714.49s68.83,51.82,243.3,59.73V921s53.4-9.49,123.42-125.8l138.86,41.54-67.65-97.45L527,731.1,634.57,886.27,446.3,834.35S391.65,932.07,318.07,961c0,0-85.45-46.29-151.92-140.65L0,854.53Z"/><path class="cls-1" d="M45.1,585.12v80.71c248,148.35,500.83,26.11,500.83,26.11V613.61C256.35,745.34,45.1,585.12,45.1,585.12Zm478.28,91c-94.28,45.66-206.09,41.36-206.09,41.36V687.82c116.71,2.37,206.09-38.24,206.09-38.24Z"/></g></g></svg>