<svg xmlns="http://www.w3.org/2000/svg" viewBox="0 0 961.56 763.52"><defs><style>.cls-1{fill:#fff;}</style></defs><g id="Layer_2" data-name="Layer 2"><g id="_1" data-name="1"><path class="cls-1" d="M427.65,0l26.11,40.35-1,312.57,21.17,26.38L438.7,405.89l-10.05,24-55.34,28.18-5,13.24s-58.91-19.15-82.89-28.67c-48.85-19.38-70.21-40.35-70.21-40.35l211.25-25Z"/><path class="cls-1" d="M480.78,228.07h0a13.69,13.69,0,0,0-13.69,13.69v83a13.69,13.69,0,0,0,13.69,13.7h0Z"/><path class="cls-1" d="M473.93,401.14l-27.11,22.18s-7.39,77.08-27.71,94.88c0,0-56.57-26.75-116.26-48.85-51.38-19-91.64-42.93-117.75-64.3l-43.52,4.75s40.4,44.35,125.85,84.33c0,0,73.41,32.44,120.26,56.55l7.27-6.54a16.76,16.76,0,0,1,18.82-2.47l31.67,16.13,28.48-29.27Z"/><path class="cls-1" d="M419.13,582.75l-17.2,14.61L371.31,585a24,24,0,0,0-20.47,1.19l-5.27,2.87C250.81,533.27,125,505.58,72,401.14l38.77-4.74S140.58,452,260.31,508C260.31,508,362.25,553.3,419.13,582.75Z"/><path class="cls-1" d="M372.66,626.64l-20.57,18.2L315,626a33,33,0,0,0-28.93-.48l-32.89,15.35s-8.12-31.81-79.33-67.42c0,0-117.68-46.51-173.86-183.39l38-4S68,484.22,223.12,553.05C289.69,582.6,334.68,607.65,372.66,626.64Z"/><polygon class="cls-1" points="473.93 560.97 473.93 588.66 405.89 663.03 480.78 734.24 480.78 763.52 374.66 662.24 473.93 560.97"/><polygon class="cls-1" points="480.78 719.21 447.69 686.12 480.78 648.79 480.78 719.21"/><path class="cls-1" d="M337.05,301.45l65.41-285.8a2.72,2.72,0,0,1,5.38.53l-5.58,329.58-187,26.9s2.77-10.23,20.57-19C263.09,340.23,337.05,301.45,337.05,301.45Z"/><path class="cls-1" d="M141.58,94.13S250,240.53,303.82,279.3l30.86-94.16Zm139.7,129.71c-19.2-13.21-56.58-62.91-56.58-62.91l69.66,34.24Z"/><path class="cls-1" d="M533.92,0,507.81,40.35l1,312.57L487.63,379.3l35.23,26.59,10.06,24,55.34,28.18,5,13.24s58.9-19.15,82.89-28.67c48.84-19.38,70.2-40.35,70.2-40.35l-211.25-25Z"/><path class="cls-1" d="M480.78,228.07h0a13.69,13.69,0,0,1,13.7,13.69v83a13.7,13.7,0,0,1-13.7,13.7h0Z"/><path class="cls-1" d="M487.63,401.14l27.11,22.18s7.39,77.08,27.71,94.88c0,0,56.57-26.75,116.27-48.85,51.37-19,91.63-42.93,117.74-64.3L820,409.8s-40.39,44.35-125.85,84.33c0,0-73.41,32.44-120.26,56.55l-7.26-6.54a16.76,16.76,0,0,0-18.82-2.47L516.11,557.8l-28.48-29.27Z"/><path class="cls-1" d="M542.43,582.75l17.2,14.61L590.26,585a24,24,0,0,1,20.47,1.19l5.26,2.87c94.76-55.78,220.56-83.47,273.57-187.91l-38.77-4.74S821,452,701.26,508C701.26,508,599.31,553.3,542.43,582.75Z"/><path class="cls-1" d="M588.9,626.64l20.58,18.2L646.56,626a33,33,0,0,1,28.92-.48l32.9,15.35s8.12-31.81,79.33-67.42c0,0,117.68-46.51,173.85-183.39l-38-4s-30.07,98.11-185.15,166.94C671.87,582.6,626.88,607.65,588.9,626.64Z"/><polygon class="cls-1" points="487.63 560.97 487.63 588.66 555.67 663.03 480.78 734.24 480.78 763.52 586.9 662.24 487.63 560.97"/><polygon class="cls-1" points="480.78 719.21 513.88 686.12 480.78 648.79 480.78 719.21"/><path class="cls-1" d="M624.51,301.45l-65.4-285.8a2.73,2.73,0,0,0-5.39.53l5.58,329.58,187.05,26.9s-2.76-10.23-20.57-19C698.47,340.23,624.51,301.45,624.51,301.45Z"/><path class="cls-1" d="M820,94.13S711.54,240.53,657.74,279.3l-30.86-94.16ZM680.28,223.84c19.2-13.21,56.58-62.91,56.58-62.91L667.2,195.17Z"/></g></g></svg>