<svg xmlns="http://www.w3.org/2000/svg" viewBox="0 0 683.97 864.79"><defs><style>.cls-1{fill:#fff;}</style></defs><g id="Layer_2" data-name="Layer 2"><g id="_1" data-name="1"><path class="cls-1" d="M40.63,490.29s-19,.65-26.11-35.35c0,0-26.11-140.43-8.31-204.52L52.5,125.8S70.3,69,129.64,45.29C129.64,45.29,224.8,0,342.3,0V48.66s-121.15,0-205.08,52.59c-9,5.65-19.94,18.16-24.24,27.89-14,31.74-41.69,95.39-51.17,124.58A65.34,65.34,0,0,0,59,267.41c-2.31,23.78-9.49,109.46.65,166.57,0,0,27.3-12,74.77,21.49,0,0,32.46,10.06,64.89,10.19,0,0,42.78-2.49,76.51,63.72a33.54,33.54,0,0,1,1.9,25.8l-4.44,13.3s8.89-17.16,17.39-28.22a29.18,29.18,0,0,1,16.73-10.69,159.74,159.74,0,0,1,34.93-3.91v62.7s-28.7,7.42-38.2,31.16l-38,74.77s-36.8-9.1-73.59,9.09c0,0-26.11,18.75-74.77-14.16,0,0-42-27.27-57.69-64.39a17,17,0,0,1,6.72-21.27c10.12-6.16,27.19-8.76,49.79,16,0,0,54.56,64.78,110.37,36.79,0,0,20.18-15.11,23.74-31.89,0,0-16.62-23.73-22.83-44a42.69,42.69,0,0,0-14.68-21.37c-15.56-12-47.83-31-108.92-46.47A23.19,23.19,0,0,0,81.76,519c-9.14,9.61-24.69,21.41-39.68,11.46C18.87,515.08,23.88,494,40.63,490.29Z"/><path class="cls-1" d="M97.6,530.51s-12.27,7.25,13.05,35.6c0,0,86.51,85.58,118.68,58.31,0,0,3.17,34.13-42.72,20.94,0,0-46.42-14.77-97.06-80.17C89.55,565.19,63.44,529.58,97.6,530.51Z"/><circle class="cls-1" cx="176.06" cy="558.86" r="14.77"/><path class="cls-1" d="M276,699.43s47.9,17.41,66.28,43.52v-87l-12.48,35.61s-22.95-15.83-38.4-22.16Z"/><path class="cls-1" d="M216.68,756.4s-13.46-5.54-6.33-21.37c7.57-16.83,47.47-9.53,47.47-9.53,30.61,3.77,47.47,24.57,84.48,34.85v33.07s-44.13-13.3-72.37-2.45c-4.14,1.59-6.85,5.62-7.68,10l-6.81,35.37s-19.78-7.91-19.78-37.19C235.66,799.12,235.66,769.05,216.68,756.4Z"/><path class="cls-1" d="M342.3,813.73s-27.2-4.16-48.22-4.4a9.61,9.61,0,0,0-9.28,7.82,249.72,249.72,0,0,0-4,25.9s27.33,21.74,61.54,21.74Z"/><path class="cls-1" d="M643.34,490.29s19,.65,26.11-35.35c0,0,26.11-140.43,8.31-204.52L631.47,125.8S613.67,69,554.33,45.29c0,0-95.16-45.29-212.66-45.29V48.66s121.15,0,205.08,52.59c9,5.65,19.94,18.16,24.24,27.89,14,31.74,41.69,95.39,51.17,124.58A65.34,65.34,0,0,1,625,267.41c2.31,23.78,9.49,109.46-.65,166.57,0,0-27.3-12-74.77,21.49,0,0-32.46,10.06-64.89,10.19,0,0-42.78-2.49-76.51,63.72a33.49,33.49,0,0,0-1.89,25.8l4.43,13.3s-8.89-17.16-17.39-28.22a29.18,29.18,0,0,0-16.73-10.69,159.66,159.66,0,0,0-34.93-3.91v62.7s28.7,7.42,38.2,31.16l38,74.77s36.8-9.1,73.59,9.09c0,0,26.11,18.75,74.77-14.16,0,0,42-27.27,57.69-64.39a17,17,0,0,0-6.72-21.27c-10.12-6.16-27.18-8.76-49.79,16,0,0-54.56,64.78-110.37,36.79,0,0-20.18-15.11-23.74-31.89,0,0,16.62-23.73,22.83-44a42.69,42.69,0,0,1,14.68-21.37c15.56-12,47.83-31,108.92-46.47A23.19,23.19,0,0,1,602.21,519c9.14,9.61,24.69,21.41,39.68,11.46C665.1,515.08,660.09,494,643.34,490.29Z"/><path class="cls-1" d="M586.37,530.51s12.27,7.25-13,35.6c0,0-86.51,85.58-118.68,58.31,0,0-3.17,34.13,42.72,20.94,0,0,46.42-14.77,97.06-80.17C594.42,565.19,620.53,529.58,586.37,530.51Z"/><circle class="cls-1" cx="558.48" cy="550.53" r="14.77"/><path class="cls-1" d="M408,699.43s-47.9,17.41-66.28,43.52v-87l12.48,35.61s23-15.83,38.4-22.16Z"/><path class="cls-1" d="M467.3,756.4s13.45-5.54,6.33-21.37c-7.58-16.83-47.48-9.53-47.48-9.53-30.6,3.77-47.47,24.57-84.48,34.85v33.07S385.8,780.12,414,791c4.14,1.59,6.85,5.62,7.69,10l6.8,35.37s19.78-7.91,19.78-37.19C448.31,799.12,448.31,769.05,467.3,756.4Z"/><path class="cls-1" d="M341.67,813.73s27.2-4.16,48.22-4.4a9.61,9.61,0,0,1,9.28,7.82,249.72,249.72,0,0,1,4,25.9s-27.33,21.74-61.54,21.74Z"/><polygon class="cls-1" points="335.36 315.53 375.86 315.53 335.36 295.7 294.85 315.53 335.36 315.53"/><polygon class="cls-1" points="291.84 308.2 329.5 289.15 329.5 254.5 291.84 308.2"/><polygon class="cls-1" points="396.49 315.53 411.89 295.59 375.92 244.43 343.85 244.43 396.49 315.53"/><polygon class="cls-1" points="329.5 192.85 300.02 236.57 329.5 236.57 329.5 192.85"/><polygon class="cls-1" points="326.86 244.43 294.8 244.43 258.82 295.59 274.23 315.53 326.86 244.43"/><polygon class="cls-1" points="341.21 192.85 341.21 236.57 370.7 236.57 341.21 192.85"/><polygon class="cls-1" points="341.21 254.5 341.21 289.15 378.87 308.2 341.21 254.5"/><polygon class="cls-1" points="403.4 321.02 446.54 342.96 417.38 302.76 403.4 321.02"/><path class="cls-1" d="M603,256.82s-3.56-59.71-48.66-90.57c0,0-32-16.24-41.51-48.29,0,0-6.38-33.14-170.52-41.5v0h-.63v0C177.53,84.82,171.15,118,171.15,118c-9.53,32.05-41.51,48.29-41.51,48.29C84.54,197.11,81,256.82,81,256.82s-30,16-23.92,115.32A32.86,32.86,0,0,0,98.16,402c15.43-4.11,32.61-14.79,45.72-39.5C149.82,401,174.15,400,174.15,400c68,1,102.47,31.47,102.47,31.47C300.28,454.85,338.2,455,342,455s41.7-.1,65.36-23.44c0,0,34.42-30.47,102.47-31.47,0,0,24.33,1,30.27-37.59,13.11,24.71,30.29,35.39,45.72,39.5a32.86,32.86,0,0,0,41.1-29.81C633,272.84,603,256.82,603,256.82ZM461.16,350.51H381.25l-45.89,57-45.89-57H209.55l39.36-53.81-49.63-60.13h91.77l44.31-65.67,44.3,65.67h91.78L421.81,296.7Z"/><polygon class="cls-1" points="386.52 342.96 430.72 342.96 398.71 327.82 386.52 342.96"/><polygon class="cls-1" points="253.33 302.76 224.17 342.96 267.32 321.02 253.33 302.76"/><polygon class="cls-1" points="239.99 342.96 284.19 342.96 272 327.82 239.99 342.96"/><polygon class="cls-1" points="335.36 323.86 280.5 323.86 295.8 342.96 335.36 342.96 374.92 342.96 390.21 323.86 335.36 323.86"/></g></g></svg>