<svg xmlns="http://www.w3.org/2000/svg" viewBox="0 0 936.21 935.49"><defs><style>.cls-1{fill:#fff;}</style></defs><g id="Layer_2" data-name="Layer 2"><g id="_1" data-name="1"><circle class="cls-1" cx="260.34" cy="259.68" r="42.81"/><path class="cls-1" d="M260.34,106.25A156.09,156.09,0,1,0,416.43,262.34,156.1,156.1,0,0,0,260.34,106.25Zm13.43,278.28a104,104,0,1,1,104-104A104,104,0,0,1,273.77,384.53Z"/><circle class="cls-1" cx="73.42" cy="61.13" r="42.81"/><circle class="cls-1" cx="73.42" cy="61.13" r="42.81"/><path class="cls-1" d="M417.47,376.44a232.28,232.28,0,0,0,49.09-143.16C466.56,104.44,362.12,0,233.28,0a232.3,232.3,0,0,0-99.6,22.29A71.7,71.7,0,0,1,30.23,118.37,232.18,232.18,0,0,0,0,233.28C0,362.12,104.44,466.56,233.28,466.56a232.28,232.28,0,0,0,143.16-49.09A103.18,103.18,0,0,1,417.47,376.44ZM74.27,257.15A179.27,179.27,0,1,1,253.54,436.42,179.28,179.28,0,0,1,74.27,257.15Z"/><path class="cls-1" d="M463.46,364A82,82,0,1,0,364,464.09,102.6,102.6,0,0,1,463.46,364Z"/><circle class="cls-1" cx="467.4" cy="469.22" r="67.38"/><circle class="cls-1" cx="675.86" cy="259.68" r="42.81"/><path class="cls-1" d="M519.78,262.34A156.09,156.09,0,1,0,675.86,106.25,156.08,156.08,0,0,0,519.78,262.34Zm38.63,18.17a104,104,0,1,1,104,104A104,104,0,0,1,558.41,280.51Z"/><circle class="cls-1" cx="862.78" cy="61.13" r="42.81"/><circle class="cls-1" cx="862.78" cy="61.13" r="42.81"/><path class="cls-1" d="M559.76,417.47a232.28,232.28,0,0,0,143.16,49.09c128.84,0,233.29-104.44,233.29-233.28A232.18,232.18,0,0,0,906,118.37,71.69,71.69,0,0,1,802.52,22.29,232.23,232.23,0,0,0,702.92,0C574.09,0,469.64,104.44,469.64,233.28a232.22,232.22,0,0,0,49.1,143.16A103.09,103.09,0,0,1,559.76,417.47Zm122.9,18.95A179.28,179.28,0,1,1,861.94,257.15C861.94,356.15,781.67,436.42,682.66,436.42Z"/><path class="cls-1" d="M472.74,364a82,82,0,1,1,99.48,100.08A102.6,102.6,0,0,0,472.74,364Z"/><circle class="cls-1" cx="260.34" cy="675.81" r="42.81"/><path class="cls-1" d="M416.43,673.15A156.09,156.09,0,1,0,260.34,829.23,156.09,156.09,0,0,0,416.43,673.15ZM377.8,655a104,104,0,1,1-104-104A104,104,0,0,1,377.8,655Z"/><circle class="cls-1" cx="73.42" cy="873.36" r="42.81"/><circle class="cls-1" cx="73.42" cy="873.36" r="42.81"/><path class="cls-1" d="M376.44,518a232.28,232.28,0,0,0-143.16-49.09C104.44,468.93,0,573.37,0,702.21A232.18,232.18,0,0,0,30.23,817.12,71.69,71.69,0,0,1,133.68,913.2a232.3,232.3,0,0,0,99.6,22.29c128.84,0,233.28-104.44,233.28-233.28A232.3,232.3,0,0,0,417.47,559,103.09,103.09,0,0,1,376.44,518Zm-122.9-18.95A179.28,179.28,0,1,1,74.27,678.34,179.27,179.27,0,0,1,253.54,499.07Z"/><path class="cls-1" d="M463.46,571.48A82,82,0,1,1,364,471.4,102.6,102.6,0,0,0,463.46,571.48Z"/><circle class="cls-1" cx="675.86" cy="675.81" r="42.81"/><path class="cls-1" d="M675.86,829.23A156.09,156.09,0,1,0,519.78,673.15,156.08,156.08,0,0,0,675.86,829.23ZM662.43,551a104,104,0,1,1-104,104A104,104,0,0,1,662.43,551Z"/><circle class="cls-1" cx="862.78" cy="873.36" r="42.81"/><circle class="cls-1" cx="862.78" cy="873.36" r="42.81"/><path class="cls-1" d="M518.74,559a232.25,232.25,0,0,0-49.1,143.17c0,128.84,104.45,233.28,233.28,233.28a232.23,232.23,0,0,0,99.6-22.29A71.7,71.7,0,0,1,906,817.12a232.18,232.18,0,0,0,30.24-114.91c0-128.84-104.45-233.28-233.29-233.28A232.28,232.28,0,0,0,559.76,518,103,103,0,0,1,518.74,559Zm343.2,119.3A179.28,179.28,0,1,1,682.66,499.07,179.28,179.28,0,0,1,861.94,678.34Z"/><path class="cls-1" d="M472.74,571.48A82,82,0,1,0,572.22,471.4,102.6,102.6,0,0,1,472.74,571.48Z"/></g></g></svg>