<svg xmlns="http://www.w3.org/2000/svg" viewBox="0 0 992.7 872.65"><defs><style>.cls-1{fill:#fff;}</style></defs><g id="Layer_2" data-name="Layer 2"><g id="_1" data-name="1"><path class="cls-1" d="M188.72,565.3l-47.88-1.22,49-9.25c1.11-6.39,4.13-14.2,7.78-23.06L0,568.3,188.89,573A45.48,45.48,0,0,1,188.72,565.3Z"/><path class="cls-1" d="M95.89,591.92,194,604.69s3.63,12,12.07,19.94Z"/><path class="cls-1" d="M248.11,702.2,209.9,728.81,243,693.32c-2.81-5.64-4.94-13.5-7.18-22.54L102,813.19l150.68-105A44.77,44.77,0,0,1,248.11,702.2Z"/><path class="cls-1" d="M190.73,776.5l84.15-46.45s9.77,7.32,20.94,8.66Z"/><path class="cls-1" d="M496.35.08s-146-6.86-252.54,109.45V132.6s-126,99.9-97.55,380l26.49-5s-34.82-238.16,89.4-361.59c0,0,100-102.85,234.2-103.64"/><path class="cls-1" d="M496.35,112.24c-65.67,0-129.88,33.88-172.38,88.76-42.83,55.3-90.54,134.68-74.27,246.5l-20,4.38c-28.48-154.29,89.41-278.13,89.41-278.13C387.8,84.81,496.35,91.46,496.35,91.46Z"/><path class="cls-1" d="M267.48,445.13l15-1c-7.12-60.13,15.07-136.67,72-215.79,26.28-32.44,70.05-72.79,141.79-75.16V131.81c-35.34,0-112.35,19-157.45,87.83C338.9,219.64,250.87,331.2,267.48,445.13Z"/><path class="cls-1" d="M407.09,204c-12.42,9.74-37.19,31.47-55.14,62.17a9,9,0,0,0,3.3,12.27l3.36,1.93a9,9,0,0,0,11.79-2.63c8.5-12.1,27.87-37.93,50.46-56.57a11,11,0,0,0,.7-16.37h0A11,11,0,0,0,407.09,204Z"/><path class="cls-1" d="M319.21,646.89s2.49-24.26-10.17-24.26c0,0-43.64-3.51-56.34-36.66,0,0-3.3-20.82-4.5-30.89a3,3,0,0,0-3-2.67h0a3,3,0,0,0-2.79,1.84c-2,4.69-6.49,18.54-4,43.57C238.42,597.82,249.49,646.89,319.21,646.89Z"/><path class="cls-1" d="M266.66,577.7c4.23,12.61,21.17,45.57,80.47,31.47a4.68,4.68,0,0,0,3.6-4.55h0a4.68,4.68,0,0,0-4.83-4.68c-13,.41-49.3-1-68.59-27.19a4.68,4.68,0,0,0-5.12-1.74l-2.43.73A4.67,4.67,0,0,0,266.66,577.7Z"/><path class="cls-1" d="M496.35,769.53s-15,2.37-11.87-20.57l-17.4-37.4s-56.05,6-53.81,45.31l2.38,33.49s9.83-11.26,20.19-15.81a19.68,19.68,0,0,1,16.82.49c6.29,3.16,19.39,8.65,43.69,10.31Z"/><path class="cls-1" d="M496.35,789.31c-46.42-6.33-53.27-5.81-71.31,7.32-4.05,3-6.91,7.25-6.43,12.24s2,12,6,21.58c0,0,8.43-21.47,25.84-14.77s26.9,13.71,45.89,14.77"/><path class="cls-1" d="M496.35,838.89s-36.55-1.78-49.42,21.29A3.22,3.22,0,0,0,450.2,865c3.46-.47,10.35.68,16.5,2.9,13.19,4.74,29.65,4.8,29.65,4.8Z"/><path class="cls-1" d="M496.35,493.39V469.66s-4.35-.4-11.87,7.12l-29.7,27.69s-8.27,7.12-8.27,23.74v76.44l-15.83,11.47v23.6s.69,13.4,26.83,20.7A18.32,18.32,0,0,1,466.3,666C475.9,677,496.35,677,496.35,677V516.13l-14,12.2a8.1,8.1,0,0,1-11.54-.9h0a8.11,8.11,0,0,1,.71-11.17ZM459.46,619.12a6.5,6.5,0,1,1,6.49-6.5A6.5,6.5,0,0,1,459.46,619.12Z"/><path class="cls-1" d="M433.85,660.34c-17.09-7.74-16.41-19-16.41-19V612.87L433.85,601V538.87c0-31.27-26.11-43.1-26.11-43.1L360.81,472c-34.26-15.82-108.11-8.69-108.11-8.69-33.19,3.17-21.4,40.34-21.4,40.34,44.3.79,65.21,8.91,65.21,8.91H238.42l14.28,19.18,49.45,2.06a75.1,75.1,0,0,1,32.14,8.73l35.47,18.88C381.63,567,380.87,573,380.87,573c5.58-5,13-20.63,13-20.63L400.62,573C395.87,587.81,384,608.27,384,608.27c-4.75,8.07-42.35,13.36-42.35,13.36-11.49,0-10.75,24.18-10.66,26.84,6.33.79,45.89-.79,45.89-.79-16.62,26.9-71.63,20.1-71.63,20.1-41.14-2.21-22.78,32.12-22.78,32.12,25.26,8.42,49.87,18.93,60.57,25.3a18,18,0,0,1,8.54,12.89c4.28,29.28,19.76,38.41,19.76,38.41-.52-23.91,9.7-32.72,16.84-36a22,22,0,0,0,10.22-9.47c7.65-13.9,22-28.57,37.42-36.11C449.36,688.34,452.5,668.79,433.85,660.34Zm-38.69,27.74c-1.43,4.91-3.89,14.66-4,23.67a5.4,5.4,0,1,1-10.69-1.13c3.12-15.47,2.05-12.49,10.19-24.65a2.52,2.52,0,0,1,4.51,2.11Z"/><path class="cls-1" d="M474.59,398.45a21.76,21.76,0,0,1,21.76-21.76V345.23c-12.66,0-13.24-11.7-13.24-11.7l-1-131.85-16.62,27.45v44.94l-4.74,7.5v56l-12.66-6.33-19,17.4v41.94c-33.23,5.54-33.23,12.7-33.23,12.7,18.2,10.29,17.4,21.32,17.4,21.32s-4.74,6.33-42.72.79-64.88,4-64.88,4V269.5a7.15,7.15,0,0,0-14.29,0V444.13c40.4-2.16,71.26,5,71.26,5,35.6,7.91,83.87,38.73,83.87,38.73L481.32,457c9.49-7.91,15-6.12,15-6.12V420.21A21.76,21.76,0,0,1,474.59,398.45Z"/><path class="cls-1" d="M804,565.3l47.89-1.22-49.06-9.25c-1.1-6.39-4.13-14.2-7.78-23.06L992.7,568.3,803.81,573A45.48,45.48,0,0,0,804,565.3Z"/><path class="cls-1" d="M896.81,591.92l-98,12.77s-3.64,12-12.08,19.94Z"/><path class="cls-1" d="M744.6,702.2l38.2,26.61-33.09-35.49c2.81-5.64,4.93-13.5,7.18-22.54L890.68,813.19,740,708.17A45.22,45.22,0,0,0,744.6,702.2Z"/><path class="cls-1" d="M802,776.5l-84.15-46.45s-9.77,7.32-20.93,8.66Z"/><path class="cls-1" d="M496.35.08S642.3-6.78,748.9,109.53V132.6s126,99.9,97.54,380l-26.48-5s34.81-238.16-89.41-361.59c0,0-100-102.85-234.2-103.64"/><path class="cls-1" d="M496.35,91.46s93.36-6.65,177.23,82.29c0,0,117.89,123.84,89.41,278.13l-20-4.38c16.27-111.82-31.44-191.2-74.26-246.5-42.5-54.88-115.42-88.76-172.39-88.76Z"/><path class="cls-1" d="M725.22,445.13l-15-1c7.12-60.13-15.08-136.67-72.05-215.79-26.27-32.44-70-72.79-141.79-75.16V131.81c35.34,0,112.35,19,157.45,87.83C653.8,219.64,741.84,331.2,725.22,445.13Z"/><path class="cls-1" d="M673.49,646.89s-2.49-24.26,10.17-24.26c0,0,43.65-3.51,56.34-36.66,0,0,3.31-20.82,4.5-30.89a3,3,0,0,1,3-2.67h0a3,3,0,0,1,2.8,1.84c2,4.69,6.48,18.54,4,43.57C754.29,597.82,743.21,646.89,673.49,646.89Z"/><path class="cls-1" d="M726.05,577.7c-4.23,12.61-21.18,45.57-80.48,31.47a4.68,4.68,0,0,1-3.6-4.55h0a4.68,4.68,0,0,1,4.83-4.68c13.05.41,49.3-1,68.59-27.19a4.69,4.69,0,0,1,5.12-1.74l2.43.73A4.67,4.67,0,0,1,726.05,577.7Z"/><path class="cls-1" d="M496.35,769.53s15,2.37,11.87-20.57l17.41-37.4s56,6,53.8,45.31l-2.38,33.49s-9.82-11.26-20.18-15.81A19.7,19.7,0,0,0,540,775c-6.29,3.16-19.39,8.65-43.69,10.31Z"/><path class="cls-1" d="M496.35,789.31c46.42-6.33,53.28-5.81,71.31,7.32,4.05,3,6.92,7.25,6.43,12.24s-2,12-6,21.58c0,0-8.44-21.47-25.85-14.77s-26.9,13.71-45.89,14.77"/><path class="cls-1" d="M496.35,838.89s36.55-1.78,49.42,21.29a3.22,3.22,0,0,1-3.26,4.77c-3.47-.47-10.36.68-16.51,2.9-13.19,4.74-29.65,4.8-29.65,4.8Z"/><path class="cls-1" d="M496.35,493.39V469.66s4.35-.4,11.87,7.12l29.7,27.69s8.27,7.12,8.27,23.74v76.44L562,616.12v23.6s-.69,13.4-26.83,20.7A18.37,18.37,0,0,0,526.4,666c-9.59,10.92-30,10.92-30,10.92V516.13l14,12.2a8.1,8.1,0,0,0,11.54-.9h0a8.1,8.1,0,0,0-.71-11.17Zm36.9,125.73a6.5,6.5,0,1,0-6.5-6.5A6.5,6.5,0,0,0,533.25,619.12Z"/><path class="cls-1" d="M558.86,660.34c17.08-7.74,16.4-19,16.4-19V612.87L558.86,601V538.87c0-31.27,26.11-43.1,26.11-43.1L631.89,472C666.15,456.21,740,463.34,740,463.34c33.19,3.17,21.41,40.34,21.41,40.34-44.31.79-65.21,8.91-65.21,8.91h58.09L740,531.77l-49.44,2.06a75.14,75.14,0,0,0-32.15,8.73l-35.47,18.88C611.08,567,611.83,573,611.83,573c-5.58-5-13-20.63-13-20.63L592.09,573c4.75,14.77,16.61,35.23,16.61,35.23,4.75,8.07,42.35,13.36,42.35,13.36,11.49,0,10.76,24.18,10.66,26.84-6.33.79-45.89-.79-45.89-.79,16.62,26.9,71.63,20.1,71.63,20.1,41.14-2.21,22.78,32.12,22.78,32.12-25.25,8.42-49.87,18.93-60.56,25.3a18,18,0,0,0-8.54,12.89c-4.29,29.28-19.77,38.41-19.77,38.41.52-23.91-9.7-32.72-16.84-36a22.06,22.06,0,0,1-10.21-9.47c-7.66-13.9-22-28.57-37.43-36.11C543.35,688.34,540.2,668.79,558.86,660.34Zm38.69,27.74c1.42,4.91,3.89,14.66,4,23.67a5.4,5.4,0,1,0,10.7-1.13c-3.13-15.47-2.06-12.49-10.19-24.65a2.54,2.54,0,0,0-2.09-1.1A2.51,2.51,0,0,0,597.55,688.08Z"/><path class="cls-1" d="M518.11,398.45a21.76,21.76,0,0,0-21.76-21.76V345.23c12.66,0,13.24-11.7,13.24-11.7l1-131.85,16.62,27.45v44.94l4.75,7.5v56l12.66-6.33,19,17.4v41.94c33.24,5.54,33.24,12.7,33.24,12.7-18.2,10.29-17.41,21.32-17.41,21.32s4.75,6.33,42.72.79,64.88,4,64.88,4V269.5a7.15,7.15,0,0,1,14.29,0V444.13c-40.4-2.16-71.25,5-71.25,5-35.61,7.91-83.87,38.73-83.87,38.73L511.38,457c-9.49-7.91-15-6.12-15-6.12V420.21A21.76,21.76,0,0,0,518.11,398.45Z"/></g></g></svg>