<svg xmlns="http://www.w3.org/2000/svg" viewBox="0 0 942.56 401.54"><defs><style>.cls-1{fill:#fff;}</style></defs><g id="Layer_2" data-name="Layer 2"><g id="_1" data-name="1"><polygon class="cls-1" points="471.28 160.22 471.28 111.56 410.64 111.56 471.28 160.22"/><path class="cls-1" d="M471.28,293.93,440.9,267.72V217.19l-25.16,28.73-18.55-16.07,49.05-65.67L423.3,147.56l-8.5,12.66C387.11,146.77,341,111.56,389.27,45.49H0L37.19,85.85H323.6s-26.9,53.8,77.54,105.23L379,235.38Z"/><polygon class="cls-1" points="425.25 283.23 440.03 292.93 406.15 341.14 421.45 354.59 442.86 331.91 442.86 374.26 471.28 401.54 379.94 351.11 425.25 283.23"/><path class="cls-1" d="M411.64,274l-13.13-8.5L380,292.35s-5.84,8.24-15.2,5.94l-30.66-7.52L358,309.56l-53.4-13.05L343,324.4,323.6,337.85l34-2.38s11.86.79,20.37-12.06Z"/><path class="cls-1" d="M324.6,31.07,230.64,0l26.42,26.6a15.12,15.12,0,0,0,10.73,4.47Z"/><path class="cls-1" d="M305.88,112.75,184.35,146.58,309.8,131.76A57.05,57.05,0,0,1,305.88,112.75Z"/><path class="cls-1" d="M315.35,143.07,181,178a10.57,10.57,0,0,1-8.43-1.36L77.14,114.73l74.77,78.33a20.78,20.78,0,0,0,17.41,5.53l163.14-34.46A102.38,102.38,0,0,1,315.35,143.07Z"/><path class="cls-1" d="M339.43,170.74l-70.86,47.55L354,182A148.81,148.81,0,0,1,339.43,170.74Z"/><path class="cls-1" d="M361.62,186.88l-83.55,54.29a7.62,7.62,0,0,1-6.08,1L192.6,221.53l69,36.54a15,15,0,0,0,13.18-.18l105-60.48A149.75,149.75,0,0,1,361.62,186.88Z"/><polygon class="cls-1" points="471.28 160.22 471.28 111.56 531.92 111.56 471.28 160.22"/><path class="cls-1" d="M471.28,293.93l30.38-26.21V217.19l25.16,28.73,18.55-16.07-49.05-65.67,22.94-16.62,8.5,12.66c27.69-13.45,73.79-48.66,25.53-114.73H942.56L905.37,85.85H619s26.9,53.8-77.54,105.23l22.15,44.3Z"/><polygon class="cls-1" points="517.31 283.23 502.53 292.93 536.41 341.14 521.11 354.59 499.7 331.91 499.7 374.26 471.28 401.54 562.62 351.11 517.31 283.23"/><path class="cls-1" d="M530.92,274l13.13-8.5,18.57,26.9s5.83,8.24,15.19,5.94l30.66-7.52-23.93,18.79L638,296.51,599.57,324.4,619,337.85l-34-2.38s-11.86.79-20.37-12.06Z"/><path class="cls-1" d="M618,31.07,711.92,0,685.5,26.6a15.12,15.12,0,0,1-10.73,4.47Z"/><path class="cls-1" d="M636.68,112.75l121.53,33.83L632.76,131.76A57.05,57.05,0,0,0,636.68,112.75Z"/><path class="cls-1" d="M627.21,143.07,761.6,178a10.57,10.57,0,0,0,8.43-1.36l95.39-61.94-74.77,78.33a20.78,20.78,0,0,1-17.41,5.53L610.1,164.13A102.38,102.38,0,0,0,627.21,143.07Z"/><path class="cls-1" d="M603.13,170.74,674,218.29,588.54,182A148.81,148.81,0,0,0,603.13,170.74Z"/><path class="cls-1" d="M580.94,186.88l83.55,54.29a7.62,7.62,0,0,0,6.08,1L750,221.53l-69,36.54a15,15,0,0,1-13.18-.18l-105-60.48A149.75,149.75,0,0,0,580.94,186.88Z"/></g></g></svg>