<svg xmlns="http://www.w3.org/2000/svg" viewBox="0 0 953.84 875.29"><defs><style>.cls-1{fill:#fff;}</style></defs><g id="Layer_2" data-name="Layer 2"><g id="_1" data-name="1"><circle class="cls-1" cx="472.14" cy="171.11" r="68.84"/><polygon class="cls-1" points="294.71 172.11 414.98 192.52 414.98 172.11 414.98 149.7 294.71 172.11"/><polygon class="cls-1" points="649.57 172.11 529.31 192.52 529.31 172.11 529.31 149.7 649.57 172.11"/><polygon class="cls-1" points="473.11 342.22 492.79 226.24 473.11 226.24 451.5 226.24 473.11 342.22"/><polygon class="cls-1" points="473.11 0 492.79 115.98 473.11 115.98 451.5 115.98 473.11 0"/><polygon class="cls-1" points="562.92 260.87 512.12 189.3 501.73 199.68 490.33 211.08 562.92 260.87"/><polygon class="cls-1" points="382.39 80.34 453.95 131.14 443.57 141.52 432.17 152.92 382.39 80.34"/><polygon class="cls-1" points="561.9 80.34 490.33 131.14 500.72 141.52 512.12 152.92 561.9 80.34"/><polygon class="cls-1" points="381.37 260.87 432.17 189.3 442.55 199.68 453.95 211.08 381.37 260.87"/><path class="cls-1" d="M472.14,329.14a49.7,49.7,0,1,0,49.7,49.7A49.7,49.7,0,0,0,472.14,329.14Zm0,92.46a32.29,32.29,0,1,1,32.29-32.29A32.28,32.28,0,0,1,472.14,421.6Z"/><path class="cls-1" d="M476.92,467.64a88.44,88.44,0,1,0,88.43,88.44A88.44,88.44,0,0,0,476.92,467.64Zm0,164.54a57.46,57.46,0,1,1,57.46-57.46A57.47,57.47,0,0,1,476.92,632.18Z"/><path class="cls-1" d="M476.92,712.88V724h-46.5s-25.32.79-31.65,12.66l-35.61-38s-17.4-18.2,0-30.07c0,0,11.87-8.7,30.07,10.29C393.23,678.86,426.46,712.88,476.92,712.88Z"/><path class="cls-1" d="M361.44,642.44c-14.9-20.3-66.22-91-83.73-125.18,0,0-26.11-44,4-49.62,0,0-123.43-145.62-191.47-241.4-20.57-27.65-51.78-66-65.67-84.61,0,0-1.06,42.72,0,74.16,0,0-1.19,18.41-24.53,18.2v18.46a40,40,0,0,0,7.23,22.93l31.54,45.06L4.54,303.62v29.77a35.75,35.75,0,0,0,8.29,22.9l27.52,33-34-10.47s-6.16,18,8.68,52.61a25,25,0,0,0,22.42,15.16l17.16.42L30.23,468.64l12,19.4a30.69,30.69,0,0,0,22.6,14.38L90.2,504,70,520.89a9.15,9.15,0,0,0-1.58,12c3.13,4.7,5.77,12.53,2.33,24.23,0,0-10.66,37.12,36,71.93S220,731.27,220,731.27s109.18,131.94,168.52,31.46c0,0-59.34,18.19-89.4-22.16,0,0-79.39-93.62-126.6-140.83-40.35-40.36-47.29-82.48-47.29-82.48S118.7,484.75,97.32,461,60.13,403.52,60.13,360.79V234.49a3.1,3.1,0,0,1,5.6-1.85L169.79,373.07a7.67,7.67,0,0,1,0,9.26c-4.45,5.7-10,20.37-4,57.32a27.62,27.62,0,0,0,14.47,20c19.89,10.46,61.2,40.72,90.31,106.07,28.08,63,52.41,87.66,63.71,96.46a16,16,0,0,0,17.77,1.35,30.38,30.38,0,0,0,9.36-8.58A10.58,10.58,0,0,0,361.44,642.44Z"/><path class="cls-1" d="M183.56,559.38s-21.36-12.65-16.16-37.75c2.75-13.29,17.7-20.56,30.25-15.41,7.25,3,15.31,7.57,23.1,20.72C201.76,517.26,176.44,534.86,183.56,559.38Z"/><circle class="cls-1" cx="476.92" cy="823.86" r="51.43"/><path class="cls-1" d="M476.92,712.88V724h46.5s25.32.79,31.65,12.66l35.6-38s17.41-18.2,0-30.07c0,0-11.87-8.7-30.06,10.29C560.61,678.86,527.38,712.88,476.92,712.88Z"/><path class="cls-1" d="M592.4,642.44c14.89-20.3,66.21-91,83.72-125.18,0,0,26.11-44-4-49.62,0,0,123.43-145.62,191.47-241.4,20.57-27.65,51.78-66,65.67-84.61,0,0,1.05,42.72,0,74.16,0,0,1.19,18.41,24.53,18.2v18.46a40,40,0,0,1-7.23,22.93l-31.54,45.06,34.23-16.82v29.77a35.75,35.75,0,0,1-8.29,22.9l-27.52,33,34-10.47s6.15,18-8.68,52.61a25,25,0,0,1-22.43,15.16l-17.16.42,24.37,21.61-12,19.4A30.69,30.69,0,0,1,889,502.42L863.64,504l20.16,16.89a9.14,9.14,0,0,1,1.57,12c-3.12,4.7-5.77,12.53-2.32,24.23,0,0,10.65,37.12-36,71.93S733.88,731.27,733.88,731.27,624.69,863.21,565.35,762.73c0,0,59.34,18.19,89.41-22.16,0,0,79.38-93.62,126.59-140.83,40.35-40.36,47.3-82.48,47.3-82.48s6.49-32.51,27.87-56.3,37.18-57.44,37.18-100.17V234.49a3.1,3.1,0,0,0-5.59-1.85L784,373.07a7.67,7.67,0,0,0,0,9.26c4.45,5.7,10,20.37,4,57.32a27.58,27.58,0,0,1-14.46,20c-19.89,10.46-61.2,40.72-90.32,106.07-28.07,63-52.41,87.66-63.7,96.46a16,16,0,0,1-17.77,1.35,30.27,30.27,0,0,1-9.36-8.58A10.56,10.56,0,0,1,592.4,642.44Z"/><path class="cls-1" d="M770.28,559.38s21.36-12.65,16.16-37.75c-2.76-13.29-17.7-20.56-30.26-15.41-7.25,3-15.31,7.57-23.09,20.72C752.08,517.26,777.4,534.86,770.28,559.38Z"/></g></g></svg>