<svg xmlns="http://www.w3.org/2000/svg" viewBox="0 0 748.9 901.43"><defs><style>.cls-1{fill:#fff;}</style></defs><g id="Layer_2" data-name="Layer 2"><g id="_1" data-name="1"><polygon class="cls-1" points="133.34 422.28 133.34 466.59 87.45 493.49 402.35 673.89 402.35 728.8 0 496.49 133.34 422.28"/><polygon class="cls-1" points="575.63 408.33 575.63 452.64 661.45 501.7 402.35 673.89 402.35 728.8 748.9 504.7 575.63 408.33"/><path class="cls-1" d="M319.65,673.89H382.2a0,0,0,0,1,0,0V870.15a31.27,31.27,0,0,1-31.27,31.27h0a31.27,31.27,0,0,1-31.27-31.27V673.89A0,0,0,0,1,319.65,673.89Z"/><rect class="cls-1" x="242.31" y="674.67" width="47.69" height="124.18" rx="23.84"/><rect class="cls-1" x="421.6" y="711.06" width="51.96" height="135.31" rx="25.98"/><rect class="cls-1" x="502.3" y="669.1" width="51.96" height="72.68" rx="25.98"/><path class="cls-1" d="M166.57,282.37v228l139.25,80v-99L225,446.27c-2.29-71.91-4.2-147.76-44.61-171.74A9.12,9.12,0,0,0,166.57,282.37Z"/><polygon class="cls-1" points="326.4 502.4 326.4 602.51 402.23 645.73 402.23 543.22 326.4 502.4"/><polygon class="cls-1" points="464.07 503.4 464.07 604.51 402.23 645.73 402.23 543.22 464.07 503.4"/><polygon class="cls-1" points="544.56 449.98 544.56 550.09 485.73 590.3 485.73 488.79 544.56 449.98"/><path class="cls-1" d="M485.73,461.26V220.82a29.56,29.56,0,0,1,29.57-29.57h0a29.57,29.57,0,0,1,29.57,29.57V422.74Z"/><path class="cls-1" d="M408.56,381.93V125.58a27.75,27.75,0,0,1,27.75-27.75h0a27.75,27.75,0,0,1,27.76,27.75V381.93Z"/><path class="cls-1" d="M326.77,381.93V31.76A31.76,31.76,0,0,1,358.53,0h0a31.76,31.76,0,0,1,31.76,31.76V381.93Z"/><path class="cls-1" d="M249.23,431.11V60.05a28.29,28.29,0,0,1,28.3-28.29h0a28.28,28.28,0,0,1,28.29,28.29v402.3Z"/><polygon class="cls-1" points="464.07 473.59 464.07 406.58 326.4 406.58 326.4 472.92 402.23 513.13 464.07 473.59"/></g></g></svg>